<?xml version="1.0" encoding="UTF-8"?>
<svg id="Layer_1" data-name="Layer 1" xmlns="http://www.w3.org/2000/svg" viewBox="0 0 44 44.01">
  <defs>
    <style>
      .cls-1 {
        fill: #3d3f48;
      }

      .cls-1, .cls-2 {
        stroke-width: 0px;
      }

      .cls-2 {
        fill: #bcc2f6;
      }
    </style>
  </defs>
  <ellipse class="cls-2" cx="10.77" cy="15.69" rx="2.76" ry="3.54"/>
  <circle class="cls-2" cx="31.8" cy="22.01" r="11.09"/>
  <g>
    <path class="cls-1" d="m4.45,44.01c-2.46,0-4.45-1.92-4.45-4.28V4.28C0,1.92,2,0,4.45,0h21.06c2.46,0,4.45,1.92,4.45,4.28v2.28c0,.52-.42.94-.94.94s-.94-.42-.94-.94v-2.28c0-1.32-1.15-2.39-2.57-2.39H4.45c-1.42,0-2.57,1.07-2.57,2.39v.88c0,.25.21.46.46.46h22.46c.52,0,.94.42.94.94s-.42.94-.94.94H2.34c-.25,0-.46.21-.46.46v28.08c0,.25.21.46.46.46h22.46c.52,0,.94.42.94.94s-.42.94-.94.94H2.34c-.25,0-.46.21-.46.46v.88c0,1.32,1.15,2.39,2.57,2.39h21.06c1.42,0,2.57-1.07,2.57-2.39v-2.28c0-.52.42-.94.94-.94s.94.42.94.94v2.28c0,2.36-2,4.28-4.45,4.28H4.45Z"/>
    <path class="cls-1" d="m30.33,25.99c-.25,0-.49-.1-.67-.28l-2.81-2.81c-.18-.18-.28-.42-.28-.67s.1-.49.28-.67.41-.28.67-.28.49.1.67.28l1.82,1.82c.09.09.21.13.33.13s.24-.04.33-.13l4.62-4.62c.18-.18.41-.28.67-.28s.49.1.67.28.28.42.28.67-.1.49-.28.67l-5.62,5.62c-.18.18-.41.28-.67.28h-.01Z"/>
    <path class="cls-1" d="m31.83,34.18c-6.71,0-12.17-5.46-12.17-12.17s5.46-12.17,12.17-12.17,12.17,5.46,12.17,12.17-5.46,12.17-12.17,12.17Zm0-22.46c-5.67,0-10.29,4.61-10.29,10.29s4.61,10.29,10.29,10.29,10.29-4.61,10.29-10.29-4.61-10.29-10.29-10.29Z"/>
    <path class="cls-1" d="m10.77,20.14c-2.1,0-3.75-2.18-3.75-4.95,0-2.47,1.4-3.95,3.75-3.95s3.75,1.48,3.75,3.95c0,2.78-1.65,4.95-3.75,4.95Zm0-7.02c-1.29,0-1.86.64-1.86,2.06,0,1.63.87,3.07,1.86,3.07s1.86-1.43,1.86-3.07c0-1.43-.57-2.06-1.86-2.06Z"/>
    <path class="cls-1" d="m5.51,27.16c-.52,0-.94-.42-.94-.94,0-4.08,2.15-5.15,3.28-5.15.52,0,.94.42.94.94s-.39.92-.9.94h-.06c-.22.04-.94.27-1.25,1.77-.03.14,0,.28.09.38.09.11.22.17.36.17h7.47c.14,0,.27-.06.36-.17s.12-.25.09-.38c-.31-1.52-1.06-1.74-1.28-1.77h-.06c-.51,0-.9-.41-.9-.94s.45-.94.98-.94c1.14,0,3.28,1.08,3.28,5.15,0,.52-.42.94-.94.94H5.5h.01Z"/>
    <circle class="cls-1" cx="6.56" cy="30.43" r="1.25"/>
    <circle class="cls-1" cx="10.77" cy="30.43" r="1.25"/>
    <circle class="cls-1" cx="14.98" cy="30.43" r="1.25"/>
  </g>
</svg>