<?xml version="1.0" encoding="UTF-8"?>
<svg id="Trash_Can" data-name="Trash Can" xmlns="http://www.w3.org/2000/svg" viewBox="0 0 16 16">
  <defs>
    <style>
      .cls-1 {
        fill: #666;
        stroke-width: 0px;
      }

      .cls-2 {
        fill: none;
        stroke: #666;
        stroke-linecap: round;
        stroke-miterlimit: 10;
        stroke-width: 1.4px;
      }
    </style>
  </defs>
  <path class="cls-1" d="M11.57,6.47v7.53c0,.33-.27.6-.6.6h-5.93c-.33,0-.6-.27-.6-.6v-7.53h7.13M12.97,5.07H3.03v8.93c0,1.1.9,2,2,2h5.93c1.1,0,2-.9,2-2V5.07h0Z"/>
  <path class="cls-1" d="M11.96,3.99c.33,0,.6.27.6.6v.57H3.44v-.57c0-.33.27-.6.6-.6h7.92M11.96,2.59h-7.92c-1.1,0-2,.9-2,2v1.97h11.92v-1.97c0-1.1-.9-2-2-2h0Z"/>
  <line class="cls-2" x1="6.51" y1="8.55" x2="6.51" y2="12.52"/>
  <line class="cls-2" x1="9.49" y1="8.55" x2="9.49" y2="12.52"/>
  <path class="cls-1" d="M6.71,3.68h-1.39v-1.25c0-1.34,1.03-2.43,2.28-2.43h.8c1.26,0,2.28,1.09,2.28,2.43v1.23h-1.39v-1.23c0-.57-.4-1.04-.89-1.04h-.8c-.49,0-.89.46-.89,1.04v1.25Z"/>
</svg>