<?xml version="1.0" encoding="UTF-8"?>
<svg id="Layer_1" data-name="Layer 1" xmlns="http://www.w3.org/2000/svg" viewBox="0 0 16 16">
  <defs>
    <style>
      .cls-1 {
        fill: #fff;
        stroke-width: 0px;
      }
    </style>
  </defs>
  <path class="cls-1" d="m9.44,8.24c-.69.63-.89.98-.89,1.63v.28h-1.21v-.36c0-.89.22-1.38,1.1-2.15.66-.57.87-.95.87-1.56,0-.89-.54-1.39-1.31-1.39s-1.31.5-1.31,1.4h-1.21v-.04c0-1.41.91-2.43,2.52-2.43s2.53,1.03,2.53,2.43c0,.96-.36,1.55-1.09,2.2Zm-.88,4.14h-1.24v-1.29h1.24v1.29Z"/>
  <path class="cls-1" d="m8,16C3.59,16,0,12.41,0,8S3.59,0,8,0s8,3.59,8,8-3.59,8-8,8Zm0-15c-3.86,0-7,3.14-7,7s3.14,7,7,7,7-3.14,7-7S11.86,1,8,1Z"/>
</svg>