<?xml version="1.0" encoding="UTF-8"?>
<svg id="Layer_1" data-name="Layer 1" xmlns="http://www.w3.org/2000/svg" viewBox="0 0 16 16">
  <defs>
    <style>
      .cls-1 {
        fill: #fff;
        stroke-width: 0px;
      }
    </style>
  </defs>
  <path class="cls-1" d="m15.5,1.19h-2.13v-.69C13.37.22,13.15,0,12.87,0h-2.33c-.28,0-.5.22-.5.5v.69h-4.08v-.69C5.96.22,5.74,0,5.46,0h-2.33C2.85,0,2.63.22,2.63.5v.69H.5C.22,1.19,0,1.41,0,1.69v13.81c0,.28.22.5.5.5h15c.28,0,.5-.22.5-.5V1.69c0-.28-.22-.5-.5-.5Zm-4.46-.19h1.33v1.38h-1.33v-1.38Zm-7.41,0h1.33v1.38h-1.33v-1.38Zm-1,1.19v.69c0,.28.22.5.5.5h2.33c.28,0,.5-.22.5-.5v-.69h4.08v.69c0,.28.22.5.5.5h2.33c.28,0,.5-.22.5-.5v-.69h1.63v1.92H1v-1.92h1.63ZM1,15V5.11h14v9.89H1Z"/>
  <path class="cls-1" d="m7.35,11.02l-1.98-1.98-.71.71,2.33,2.33c.1.1.23.15.35.15s.26-.05.35-.15l4-4-.71-.71-3.65,3.65Z"/>
</svg>