<?xml version="1.0" encoding="UTF-8"?>
<svg id="Layer_1" data-name="Layer 1" xmlns="http://www.w3.org/2000/svg" viewBox="0 0 14 16">
  <defs>
    <style>
      .cls-1 {
        fill: #fff;
        stroke-width: 0px;
      }
    </style>
  </defs>
  <rect class="cls-1" x="3" y="8" width="8" height="1"/>
  <rect class="cls-1" x="3" y="6" width="8" height="1"/>
  <rect class="cls-1" x="3" y="4" width="8" height="1"/>
  <path class="cls-1" d="m13.5,0H2.71L.5.02c-.27,0-.5.23-.5.5v14.98c0,.28.22.5.5.5h9c.13,0,.26-.05.35-.15l4-4c.09-.09.15-.22.15-.35V.5c0-.28-.22-.5-.5-.5ZM1,1.01h12s0,9.99,0,9.99h-3.5c-.28,0-.5.22-.5.5v3.5H1V1.01Zm11.29,10.99l-2.29,2.29v-2.29h2.29Z"/>
</svg>