<?xml version="1.0" encoding="UTF-8"?>
<svg id="Layer_1" data-name="Layer 1" xmlns="http://www.w3.org/2000/svg" viewBox="0 0 16 16">
  <defs>
    <style>
      .cls-1 {
        fill: #fff;
        stroke-width: 0px;
      }
    </style>
  </defs>
  <path class="cls-1" d="m1,1h12.5V0H.5C.22,0,0,.22,0,.5v15C0,15.78.22,16,.5,16h12v-1H1V1Z"/>
  <rect class="cls-1" x="6" y="5" width="5" height="1"/>
  <rect class="cls-1" x="6" y="7" width="5" height="1"/>
  <path class="cls-1" d="m15.56,11.95l-1.41-1.41c-.2-.2-.51-.2-.71,0l-.35.35-.74-.74c.71-.86,1.15-1.95,1.15-3.15,0-2.76-2.24-5-5-5S3.49,4.24,3.49,7s2.24,5,5,5c1.2,0,2.28-.44,3.15-1.15l.74.74-.35.35c-.2.2-.2.51,0,.71l1.41,1.41c.29.29.68.44,1.06.44s.77-.15,1.06-.44c.58-.58.58-1.54,0-2.12Zm-7.07-.95c-2.21,0-4-1.79-4-4s1.79-4,4-4,4,1.79,4,4-1.79,4-4,4Zm6.36,2.36c-.2.2-.51.2-.71,0l-1.06-1.06.71-.71,1.06,1.06c.2.2.2.51,0,.71Z"/>
</svg>