<svg width="24" height="24" viewBox="0 0 24 24" fill="none" xmlns="http://www.w3.org/2000/svg">
<path fill-rule="evenodd" clip-rule="evenodd" d="M8.68945 3.0634C8.87627 2.98437 9.0869 2.97892 9.27734 3.04875L14.9805 5.14055L19.8916 3.0634C20.1386 2.95896 20.4219 2.98553 20.6455 3.13372C20.8687 3.28188 21.0028 3.53184 21.0029 3.79973V17.7997C21.0029 18.1118 20.8215 18.3955 20.5381 18.5263L15.3369 20.9267C15.1374 21.0188 14.9082 21.0249 14.7041 20.9433L9.02441 18.6708L4.41895 20.7958C3.75644 21.1014 3.00016 20.6171 3 19.8876L3.00195 5.99993C3.00199 5.67858 3.19429 5.38881 3.49023 5.2636L8.68945 3.0634ZM9.79883 17.2568L14.1992 19.0165V6.55754L9.79883 4.94426V17.2568ZM15.7988 6.53118V18.9501L19.4033 17.288V5.00676L15.7988 6.53118ZM4.60156 6.5302L4.60059 18.9501L8.19922 17.289V5.00774L4.60156 6.5302Z" fill="#2462D6"/>
</svg>
