<svg width="24" height="24" viewBox="0 0 24 24" fill="none" xmlns="http://www.w3.org/2000/svg">
<path fill-rule="evenodd" clip-rule="evenodd" d="M4.63448 3.0619C5.22171 2.50275 6.00418 2.19449 6.81557 2.20331C7.63439 2.2122 8.41675 2.54328 8.99324 3.12484C9.00936 3.1411 9.02079 3.15401 9.02378 3.15738C9.02999 3.16437 9.03527 3.17055 9.03807 3.17387L9.05184 3.19048L9.07177 3.21537C9.08511 3.23219 9.1027 3.25461 9.1232 3.28084C9.1645 3.33372 9.22155 3.40717 9.28855 3.49365C9.42276 3.66687 9.59916 3.89527 9.77448 4.12252C9.94988 4.34987 10.1245 4.57645 10.2552 4.74617L10.4493 4.99809C10.9846 5.57689 11.2821 6.33698 11.2811 7.12647C11.2802 7.92191 10.9764 8.68679 10.4321 9.26592L9.56717 10.2932C9.99688 11.1941 10.5772 12.0165 11.2842 12.7244C11.9908 13.4319 12.812 14.0129 13.7117 14.4436L14.7383 13.5758C15.3173 13.0302 16.0828 12.7254 16.879 12.7241C17.6692 12.7228 18.4299 13.0205 19.0091 13.5563L19.2613 13.7505C19.4313 13.8814 19.6582 14.0562 19.8858 14.2317C20.1134 14.4072 20.3421 14.5837 20.5154 14.718C20.602 14.785 20.6755 14.842 20.7283 14.8833L20.7937 14.9345L20.8184 14.9543L20.8348 14.9679C20.8381 14.9707 20.8439 14.9756 20.8509 14.9818C20.8536 14.9842 20.869 14.9977 20.8881 15.0169C21.472 15.6032 21.7996 16.3974 21.8 17.2243C21.8004 18.0419 21.4808 18.8267 20.9104 19.4113L20.2416 20.1814C20.2253 20.2 20.2083 20.2179 20.1904 20.235C18.3672 21.9781 15.9353 22.1129 13.5922 21.3902C11.2559 20.6697 8.88074 19.0713 6.92361 17.1185C4.96634 15.1654 3.36138 12.7922 2.62884 10.4572C1.89476 8.11722 2.00915 5.68384 3.72818 3.85602C3.74643 3.83662 3.76563 3.81814 3.78572 3.80066L4.63448 3.0619ZM18.0024 14.8006C17.9802 14.7835 17.9589 14.7652 17.9386 14.7459C17.6536 14.4745 17.2751 14.3235 16.8816 14.3241C16.4882 14.3247 16.1101 14.477 15.8261 14.7493C15.8141 14.7609 15.8017 14.772 15.7889 14.7828L14.3615 15.9895C14.133 16.1826 13.8159 16.2321 13.5395 16.1179C12.2723 15.5942 11.1211 14.8252 10.1522 13.8551C9.18322 12.8849 8.41561 11.7328 7.89347 10.4649C7.7799 10.1892 7.82916 9.87314 8.02125 9.64501L9.22333 8.21742C9.23419 8.20453 9.24545 8.19198 9.25711 8.17979C9.52882 7.89567 9.68068 7.51778 9.68114 7.1246C9.6816 6.73143 9.53062 6.35319 9.25957 6.06843C9.24032 6.0482 9.22215 6.02699 9.20512 6.00487L8.98774 5.72261C8.85713 5.55306 8.68276 5.32681 8.50767 5.09986C8.33251 4.87282 8.15693 4.64547 8.02376 4.4736C7.95708 4.38754 7.9016 4.31611 7.86229 4.26579L7.8303 4.22504C7.55279 3.95856 7.1838 3.8074 6.79819 3.80321C6.40012 3.79889 6.01635 3.95155 5.72998 4.22815C5.72004 4.23775 5.70985 4.2471 5.69942 4.25617L4.86764 4.98014C3.70955 6.23426 3.52694 7.9747 4.15548 9.97824C4.79024 12.0016 6.22435 14.1604 8.05375 15.9858C9.88328 17.8114 12.0424 19.2379 14.0638 19.8613C16.0646 20.4783 17.8037 20.2831 19.0589 19.103L19.7187 18.3433C19.7305 18.3297 19.7427 18.3166 19.7553 18.3039C20.0403 18.0172 20.2002 17.6293 20.2 17.2251C20.1998 16.834 20.0499 16.4579 19.7824 16.1747L19.7439 16.1446C19.6935 16.1052 19.622 16.0497 19.5359 15.983C19.3638 15.8498 19.1362 15.6741 18.9088 15.4988C18.6815 15.3235 18.4549 15.149 18.2851 15.0182L18.0024 14.8006ZM7.85733 4.25164C7.85719 4.25151 7.85746 4.25177 7.85733 4.25164V4.25164ZM7.86843 4.26262C7.86452 4.25884 7.86081 4.25515 7.85733 4.25164L7.86843 4.26262Z" fill="#2462D6"/>
</svg>
