<?xml version="1.0" encoding="UTF-8"?>
<svg id="Layer_1" data-name="Layer 1" xmlns="http://www.w3.org/2000/svg" viewBox="0 0 16 16">
  <defs>
    <style>
      .cls-1 {
        fill: none;
        stroke: #aaa;
        stroke-linejoin: round;
      }
    </style>
  </defs>
  <line class="cls-1" x1="9.68" y1="2.41" x2="13.59" y2="6.32"/>
  <line class="cls-1" x1="6.4" y1="13.51" x2="2.49" y2="9.6"/>
  <polyline class="cls-1" points="11.83 8.09 10.52 6.78 9.22 5.48 7.91 4.17"/>
  <path class="cls-1" d="m7.91,4.17l-5.42,5.42-1.95,5.14c-.17.46.27.9.73.73l5.14-1.95,5.42-5.42,1.77-1.77,1.75-1.75c.21-.21.21-.55,0-.76l-3.16-3.16c-.21-.21-.55-.21-.76,0l-1.75,1.75-1.77,1.77Z"/>
  <path class="cls-1" d="m3.25,14.71c-.53-.77-1.19-1.43-1.96-1.96"/>
</svg>