<?xml version="1.0" encoding="UTF-8"?>
<svg id="Layer_1" data-name="Layer 1" xmlns="http://www.w3.org/2000/svg" viewBox="0 0 14 16">
  <defs>
    <style>
      .cls-1 {
        fill: #fff;
        stroke-width: 0px;
      }
    </style>
  </defs>
  <path class="cls-1" d="m12.49,0H1.51C.68,0,0,.66,0,1.48v12.52c0,1.1.87,2,1.93,2h11.57c.28,0,.5-.22.5-.5V1.48c0-.81-.68-1.48-1.51-1.48Zm-1.49,1v2.1l-.73-.46c-.16-.1-.37-.1-.53,0l-.73.46V1h2Zm-3,0v3c0,.18.1.35.26.44.16.09.35.08.51-.01l1.23-.78,1.23.78c.08.05.17.08.27.08.08,0,.17-.02.24-.06.16-.09.26-.26.26-.44V1h.49c.28,0,.51.21.51.48v10.52H3V1h5ZM1.51,1h.49v11h-.07c-.34,0-.65.1-.93.26V1.48c0-.26.23-.48.51-.48Zm11.49,14H1.93c-.51,0-.93-.45-.93-1s.42-1,.93-1h11.07v2Z"/>
  <rect class="cls-1" x="5.5" y="7" width="5" height="1"/>
  <rect class="cls-1" x="5.5" y="9" width="5" height="1"/>
</svg>