<?xml version="1.0" encoding="UTF-8"?>
<svg id="Layer_1" data-name="Layer 1" xmlns="http://www.w3.org/2000/svg" viewBox="0 0 12 12">
  <defs>
    <style>
      .cls-1 {
        fill: #5669c8;
        stroke-width: 0px;
      }
    </style>
  </defs>
  <path class="cls-1" d="m6,0c.82,0,1.6.16,2.33.47s1.37.74,1.91,1.29.97,1.18,1.29,1.91.47,1.5.47,2.33-.16,1.62-.47,2.34-.74,1.36-1.29,1.91-1.18.97-1.91,1.29-1.51.47-2.33.47-1.6-.16-2.33-.47-1.37-.74-1.91-1.29-.97-1.18-1.29-1.91-.47-1.51-.47-2.34.16-1.6.47-2.33.74-1.36,1.29-1.91,1.18-.97,1.91-1.29,1.51-.47,2.33-.47Zm2.4,8.4V3.6h-1.21v2.9l-2.39-2.9h-1.21v4.8h1.21v-2.91l2.39,2.91h1.21Z"/>
</svg>