<svg width="41" height="40" viewBox="0 0 41 40" fill="none" xmlns="http://www.w3.org/2000/svg">
<g clip-path="url(#clip0_1_613)">
<circle cx="20.7999" cy="20" r="20" fill="white"/>
<path d="M29.86 10.6925V5.85125L34.82 0.890015V5.79124H39.68L34.87 10.6124L29.86 10.6925Z" fill="#96C5E2"/>
<path d="M20.7999 7.00171C13.6199 7.00171 7.79993 12.8232 7.79993 20.005C7.79993 27.1868 13.6199 33.0082 20.7999 33.0082C27.9799 33.0082 33.7999 27.1868 33.7999 20.005C33.7999 12.8232 27.9799 7.00171 20.7999 7.00171ZM20.7999 26.4666C17.2299 26.4666 14.3399 23.5658 14.3399 20.005C14.3399 16.4441 17.2399 13.5433 20.7999 13.5433C24.3599 13.5433 27.2599 16.4441 27.2599 20.005C27.2599 23.5658 24.3599 26.4666 20.7999 26.4666Z" fill="#96C5E2"/>
<path d="M39.1299 12.013C38.9899 11.7029 38.6799 11.4929 38.3499 11.4929C38.2299 11.4929 38.1099 11.5229 37.9999 11.5629C37.7899 11.6529 37.6299 11.823 37.5499 12.033C37.4699 12.2431 37.4699 12.4831 37.5499 12.6832C38.5599 14.9938 39.0699 17.4544 39.0699 19.995C39.0699 30.0775 30.8699 38.2796 20.7899 38.2796C10.7099 38.2796 2.51993 30.0875 2.51993 20.005C2.51993 9.92249 10.7199 1.72045 20.7999 1.72045C23.3499 1.72045 25.8099 2.23057 28.1199 3.24083C28.2299 3.29084 28.3499 3.31084 28.4699 3.31084C28.8099 3.31084 29.1199 3.11079 29.2499 2.79071C29.3399 2.58066 29.3499 2.3406 29.2499 2.14055C29.1699 1.9305 28.9999 1.76046 28.7999 1.67043C26.2699 0.560156 23.5799 0.0100181 20.7999 0.0100181C9.76993 1.56211e-05 0.799927 8.97226 0.799927 20.005C0.799927 31.0378 9.76993 40.01 20.7999 40.01C31.8299 40.01 40.7999 31.0378 40.7999 20.005C40.7999 17.2243 40.2399 14.5336 39.1399 12.003L39.1299 12.013Z" fill="#333333"/>
<path d="M25.8999 9.16229C26.2399 9.16229 26.5499 8.96224 26.6799 8.64216C26.7699 8.4321 26.7799 8.19204 26.6799 7.99199C26.5999 7.78194 26.4299 7.6119 26.2299 7.52188C24.5099 6.77169 22.6799 6.38159 20.7899 6.38159C13.2799 6.38159 7.16992 12.4931 7.16992 20.005C7.16992 27.5169 13.2799 33.6284 20.7899 33.6284C28.2999 33.6284 34.4099 27.5169 34.4099 20.005C34.4099 18.1145 34.0299 16.2741 33.2699 14.5636C33.1299 14.2536 32.8199 14.0435 32.4899 14.0435C32.3699 14.0435 32.2499 14.0735 32.1399 14.1135C31.9299 14.2035 31.7699 14.3736 31.6899 14.5836C31.6099 14.7937 31.6099 15.0338 31.6899 15.2338C32.3399 16.7342 32.6799 18.3346 32.6799 19.985C32.6799 26.5466 27.3399 31.888 20.7799 31.888C14.2199 31.888 8.87992 26.5466 8.87992 19.985C8.87992 13.4234 14.2199 8.07201 20.7799 8.07201C22.4299 8.07201 24.0299 8.4121 25.5399 9.06226C25.6499 9.11227 25.7699 9.13228 25.8899 9.13228V9.15228L25.8999 9.16229Z" fill="#333333"/>
<path d="M20.7999 14.4836C21.1799 14.4836 21.5499 14.5236 21.9099 14.5936C21.9599 14.5936 22.0299 14.6136 22.0799 14.6136C22.4799 14.6136 22.8299 14.3236 22.9199 13.9235C23.0099 13.4634 22.7099 13.0032 22.2499 12.9132C21.7799 12.8232 21.2999 12.7632 20.7999 12.7632C16.8099 12.7632 13.5599 16.004 13.5599 20.005C13.5599 24.006 16.7999 27.2468 20.7999 27.2468C24.7999 27.2468 28.0399 24.006 28.0399 20.005C28.0399 19.5149 27.9899 19.0247 27.8899 18.5546C27.8099 18.1545 27.4499 17.8745 27.0399 17.8745C26.9899 17.8745 26.9199 17.8745 26.8799 17.8945C26.4199 17.9845 26.1199 18.4446 26.2199 18.9047C26.2899 19.2648 26.3299 19.6449 26.3299 20.015C26.3299 23.0558 23.8499 25.5464 20.7999 25.5464C17.7499 25.5464 15.2699 23.0658 15.2699 20.015C15.2699 16.9642 17.7499 14.4836 20.7999 14.4836Z" fill="#333333"/>
<path d="M28.9399 5.64142C28.8899 5.75144 28.8799 5.86147 28.8799 5.9715V10.5426C28.8799 10.6527 28.8299 10.7627 28.7599 10.8427L20.1999 19.4049C19.8599 19.7449 19.8599 20.2851 20.1999 20.6152C20.3599 20.7752 20.5799 20.8652 20.8099 20.8652C21.0399 20.8652 21.2599 20.7752 21.4199 20.6152L29.9799 12.053C30.0599 11.973 30.1599 11.923 30.2799 11.923H34.8499C34.9599 11.923 35.0699 11.903 35.1799 11.863C35.2899 11.823 35.3799 11.7529 35.4599 11.6829L40.5599 6.58165C40.6399 6.50163 40.7099 6.41161 40.7399 6.30158C40.8199 6.09153 40.8199 5.85147 40.7399 5.65142C40.6599 5.45137 40.4899 5.27132 40.2799 5.1913C40.1699 5.14129 40.0599 5.13129 39.9499 5.13129H36.1199C35.8899 5.13129 35.6999 4.94124 35.6999 4.71118V0.860222C35.6999 0.750195 35.6799 0.640167 35.6399 0.53014C35.5599 0.320087 35.3899 0.150045 35.1799 0.0700248C35.0799 0.0200123 34.9599 0.0100098 34.8499 0.0100098C34.7399 0.0100098 34.6199 0.0300148 34.5199 0.0700248C34.4099 0.120037 34.3199 0.180052 34.2399 0.260072L29.1399 5.36135C29.0599 5.44137 28.9899 5.53139 28.9599 5.64142H28.9399ZM30.5899 6.49163C30.5899 6.3816 30.6399 6.27157 30.7099 6.19155L33.2599 3.64092C33.3399 3.5609 33.4499 3.51088 33.5599 3.51088C33.6099 3.51088 33.6699 3.51088 33.7199 3.55089C33.8699 3.61091 33.9699 3.77095 33.9699 3.94099V5.9715C33.9699 6.44162 34.3499 6.82171 34.8199 6.82171H36.8499C37.0199 6.82171 37.1699 6.92174 37.2399 7.07177C37.2999 7.22181 37.2699 7.41186 37.1499 7.52189L34.5999 10.0725C34.5199 10.1525 34.4199 10.1926 34.2999 10.1926H30.9999C30.7699 10.1926 30.5799 10.0025 30.5799 9.77245V6.47162L30.5899 6.49163Z" fill="#333333"/>
</g>
<defs>
<clipPath id="clip0_1_613">
<rect width="40" height="40" fill="white" transform="translate(0.799927)"/>
</clipPath>
</defs>
</svg>
