<svg width="40" height="40" viewBox="0 0 40 40" fill="none" xmlns="http://www.w3.org/2000/svg">
<g clip-path="url(#clip0_1_219)">
<path d="M1.72998 1.71997V30.63H14.59C14.68 31.85 14.75 33.76 14.48 35.02C14.06 37.02 12.89 39.27 12.89 39.27H26.37C26.37 39.27 24.28 35.52 24.54 30.63H36.84C37.56 30.63 38.14 30.05 38.14 29.33V1.71997H1.72998Z" fill="white"/>
<path d="M27.82 34.22L25.35 23.97L36.28 26.37L33.81 28.85L38.86 33.91L35.31 37.46L30.23 32.37L27.82 34.22Z" fill="#96C5E2"/>
<path d="M35.31 38.72C35.08 38.72 34.86 38.63 34.7 38.47L30.5 34.27C30.42 34.19 30.32 34.14 30.2 34.14C30.08 34.14 29.98 34.19 29.9 34.27L28.25 35.92C28.09 36.08 27.87 36.17 27.64 36.17C27.56 36.17 27.48 36.17 27.4 36.13C27.1 36.04 26.86 35.79 26.8 35.49L24.25 24.01C24.19 23.72 24.27 23.43 24.48 23.22C24.64 23.06 24.86 22.97 25.09 22.97C25.15 22.97 25.22 22.97 25.28 22.99L36.76 25.54C37.07 25.6 37.31 25.84 37.4 26.14C37.49 26.44 37.4 26.77 37.18 26.99L35.53 28.64C35.37 28.8 35.37 29.07 35.53 29.23L39.73 33.43C40.07 33.77 40.07 34.31 39.73 34.64L35.9 38.47C35.74 38.63 35.52 38.72 35.29 38.72H35.32H35.31ZM30.2 31.9C30.43 31.9 30.65 31.99 30.81 32.15L35.01 36.35C35.09 36.43 35.2 36.48 35.31 36.48C35.42 36.48 35.53 36.43 35.61 36.35L37.64 34.32C37.8 34.16 37.8 33.89 37.64 33.73L33.44 29.53C33.1 29.19 33.1 28.65 33.44 28.32L34.35 27.41C34.46 27.3 34.5 27.15 34.46 27C34.41 26.85 34.3 26.75 34.15 26.71L26.9 25.1C26.9 25.1 26.84 25.1 26.81 25.1C26.7 25.1 26.59 25.15 26.51 25.22C26.41 25.32 26.36 25.47 26.4 25.61L28.01 32.86C28.05 33.01 28.16 33.13 28.3 33.17C28.34 33.17 28.38 33.19 28.42 33.19C28.53 33.19 28.64 33.14 28.72 33.07L29.63 32.16C29.79 32 30.01 31.91 30.24 31.91H30.21L30.2 31.9Z" fill="#333333"/>
<path d="M8.51 40C8.04 40 7.66 39.62 7.66 39.15C7.66 38.68 8.04 38.3 8.51 38.3H11.98C12.07 38.3 12.16 38.27 12.23 38.21C12.77 37.79 14.03 36.41 14.03 32.77C14.03 32.54 13.84 32.35 13.61 32.35H3.06C1.37 32.35 0 30.98 0 29.29V3.06C0 1.37 1.37 0 3.06 0H36.93C38.62 0 39.99 1.37 39.99 3.06V22.55C39.99 23.02 39.61 23.4 39.14 23.4C38.67 23.4 38.29 23.02 38.29 22.55V3.06C38.29 2.31 37.68 1.71 36.94 1.71H3.07C2.32 1.71 1.72 2.32 1.72 3.06V29.28C1.72 30.03 2.33 30.63 3.07 30.63H22.56C23.03 30.63 23.41 31.01 23.41 31.48C23.41 31.95 23.03 32.33 22.56 32.33H16.18C15.95 32.33 15.76 32.52 15.76 32.75C15.76 34.71 15.43 36.37 14.78 37.67C14.72 37.8 14.73 37.95 14.8 38.08C14.87 38.21 15.01 38.28 15.15 38.28H30.21C30.68 38.28 31.06 38.66 31.06 39.13C31.06 39.6 30.68 39.98 30.21 39.98H8.51V40Z" fill="#333333"/>
<path d="M9.78 11.92C9.69 11.92 9.59 11.9 9.49 11.86C9.49 11.86 9.49 11.86 9.47 11.86C9.44 11.86 9.42 11.83 9.4 11.82C9.38 11.81 9.35 11.79 9.33 11.78C9.33 11.78 9.31 11.78 9.3 11.78C9.28 11.76 9.26 11.73 9.24 11.72C9.21 11.69 9.19 11.67 9.16 11.67L6.63 9.14001C6.29 8.80001 6.29 8.26 6.63 7.93C6.79 7.77 7.01 7.68 7.24 7.68C7.47 7.68 7.69 7.77 7.85 7.93L9.36 9.44C9.44 9.52 9.54 9.57 9.66 9.57H9.69C9.81 9.57 9.93 9.5 10 9.41L12.95 5.48C13.11 5.26 13.36 5.13 13.63 5.13C13.82 5.13 13.99 5.19 14.15 5.3C14.33 5.44 14.45 5.64 14.49 5.86C14.53 6.08 14.46 6.31 14.33 6.5L10.53 11.56C10.53 11.56 10.48 11.6 10.46 11.63C10.43 11.66 10.41 11.68 10.41 11.71L10.36 11.74C10.36 11.74 10.31 11.78 10.27 11.79L10.19 11.84C10.19 11.84 10.17 11.84 10.16 11.86C10.05 11.91 9.93 11.93 9.82 11.93L9.78 11.92Z" fill="#333333"/>
<path d="M9.78 20.85C9.69 20.85 9.59 20.83 9.49 20.8C9.49 20.8 9.49 20.8 9.47 20.8C9.44 20.8 9.42 20.77 9.4 20.76C9.38 20.75 9.35 20.73 9.33 20.72C9.33 20.72 9.31 20.72 9.3 20.72C9.28 20.7 9.26 20.67 9.24 20.66C9.21 20.63 9.19 20.61 9.16 20.61L6.63 18.08C6.29 17.74 6.29 17.2 6.63 16.87C6.79 16.71 7.01 16.62 7.24 16.62C7.47 16.62 7.69 16.71 7.85 16.87L9.36 18.38C9.44 18.46 9.54 18.5 9.66 18.5H9.69C9.81 18.5 9.93 18.43 10 18.34L12.95 14.41C13.11 14.19 13.36 14.06 13.63 14.06C13.82 14.06 13.99 14.12 14.15 14.23C14.33 14.37 14.45 14.57 14.49 14.79C14.53 15.01 14.46 15.24 14.33 15.43L10.53 20.49C10.53 20.49 10.48 20.53 10.46 20.56C10.43 20.59 10.41 20.61 10.41 20.64C10.39 20.64 10.37 20.66 10.36 20.68C10.33 20.7 10.31 20.72 10.27 20.73L10.19 20.78C10.19 20.78 10.17 20.78 10.16 20.8C10.05 20.85 9.93 20.88 9.82 20.88V20.85H9.78Z" fill="#333333"/>
<path d="M17.44 19.58C16.97 19.58 16.59 19.2 16.59 18.73C16.59 18.26 16.97 17.88 17.44 17.88H21.27C21.74 17.88 22.12 18.26 22.12 18.73C22.12 19.2 21.74 19.58 21.27 19.58H17.44Z" fill="#333333"/>
<path d="M25.1 19.58C24.63 19.58 24.25 19.2 24.25 18.73C24.25 18.26 24.63 17.88 25.1 17.88H32.75C33.22 17.88 33.6 18.26 33.6 18.73C33.6 19.2 33.22 19.58 32.75 19.58H25.1Z" fill="#333333"/>
<path d="M17.44 10.65C16.97 10.65 16.59 10.27 16.59 9.80001C16.59 9.33001 16.97 8.95001 17.44 8.95001H25.09C25.56 8.95001 25.94 9.33001 25.94 9.80001C25.94 10.27 25.56 10.65 25.09 10.65H17.44Z" fill="#333333"/>
<path d="M28.93 10.65C28.46 10.65 28.08 10.27 28.08 9.80001C28.08 9.33001 28.46 8.95001 28.93 8.95001H32.76C33.23 8.95001 33.61 9.33001 33.61 9.80001C33.61 10.27 33.23 10.65 32.76 10.65H28.93Z" fill="#333333"/>
<path d="M7.23 27.24C6.76 27.24 6.38 26.86 6.38 26.39C6.38 25.92 6.76 25.54 7.23 25.54H19.99C20.46 25.54 20.84 25.92 20.84 26.39C20.84 26.86 20.46 27.24 19.99 27.24H7.23Z" fill="#333333"/>
</g>
<defs>
<clipPath id="clip0_1_219">
<rect width="40" height="40" fill="white"/>
</clipPath>
</defs>
</svg>
