<svg width="40" height="40" viewBox="0 0 40 40" fill="none" xmlns="http://www.w3.org/2000/svg">
<path d="M36 40H5V0H26.3553L36 10.46V40Z" fill="white"/>
<path d="M26 1V9H34L26 1Z" fill="#96C5E2"/>
<path d="M21 31C25.4183 31 29 27.4183 29 23C29 18.5817 25.4183 15 21 15C16.5817 15 13 18.5817 13 23C13 27.4183 16.5817 31 21 31Z" fill="#96C5E2"/>
<path d="M25.134 22.9898C24.6495 22.9898 24.2577 22.602 24.2577 22.1224C24.2577 20.8163 23.1959 19.7347 21.8763 19.7347C21.3918 19.7347 21 19.3469 21 18.8673C21 18.3878 21.3918 18 21.8763 18C24.1546 18 26 19.8571 26 22.1327C26 22.6122 25.6082 23 25.1237 23L25.134 22.9898Z" fill="#333333"/>
<path d="M35.7602 9.18229L26.9157 0.250062C26.7558 0.0900225 26.5359 0 26.3161 0H4.84947C4.37976 0 4 0.380095 4 0.850213V39.1498C4 39.6199 4.37976 40 4.84947 40H30.0937C30.5634 40 30.9432 39.6199 30.9432 39.1498C30.9432 38.6797 30.5634 38.2996 30.0937 38.2996H6.10868C5.88882 38.2996 5.69894 38.1095 5.69894 37.8795V2.14054C5.69894 1.91048 5.88882 1.72043 6.10868 1.72043H25.4666V9.79245C25.4666 10.2626 25.8463 10.6427 26.3161 10.6427H34.3011V31.4879C34.3011 31.958 34.6808 32.3381 35.1505 32.3381C35.6202 32.3381 36 31.958 36 31.4879V9.78244C36 9.55239 35.9101 9.33233 35.7502 9.17229H35.7801L35.7602 9.18229ZM27.1655 8.52213V2.93073L33.1118 8.94223H27.5853C27.3654 8.94223 27.1755 8.75219 27.1755 8.52213H27.1655Z" fill="#333333"/>
<path d="M27.934 28.7282C27.9836 28.6694 28.0332 28.5909 28.0829 28.532C28.202 28.3848 28.3112 28.2376 28.4204 28.0806C28.48 27.9923 28.5495 27.8942 28.5991 27.7961C28.6885 27.6587 28.7679 27.5311 28.8473 27.384C28.8969 27.276 28.9565 27.1779 29.0062 27.07C29.0756 26.9228 29.1451 26.7952 29.2146 26.6382C29.2543 26.5303 29.3139 26.4125 29.3437 26.3046C29.4033 26.1574 29.4628 26.0004 29.5125 25.8532C29.5522 25.7453 29.582 25.6276 29.6217 25.5196C29.6614 25.3626 29.711 25.1958 29.7507 25.029C29.7805 24.9211 29.8004 24.8131 29.8202 24.6954C29.8599 24.509 29.8798 24.3225 29.9096 24.1361C29.9096 24.038 29.9394 23.9497 29.9493 23.8515C29.9791 23.567 29.989 23.2824 29.989 22.9881C29.989 18.0328 25.9484 14 20.9945 14C16.0406 14 12 18.0328 12 22.9881C12 27.9433 16.0406 31.9761 20.9945 31.9761C21.2923 31.9761 21.5703 31.9565 21.8582 31.927C21.9575 31.927 22.0468 31.8976 22.1461 31.8878C22.3347 31.8584 22.5234 31.8387 22.712 31.7995C22.8212 31.7799 22.9304 31.7504 23.0396 31.7308C23.1984 31.6916 23.3672 31.6523 23.5261 31.6032C23.6452 31.564 23.7445 31.5346 23.8636 31.4953C24.0125 31.4462 24.1714 31.3874 24.3103 31.3285C24.4196 31.2794 24.5288 31.2402 24.638 31.1911C24.777 31.1323 24.9259 31.0538 25.0649 30.9851C25.1741 30.936 25.2833 30.8771 25.3726 30.8281C25.5116 30.7496 25.6506 30.6613 25.7796 30.5828C25.8789 30.5239 25.9683 30.465 26.0676 30.4061C26.2264 30.2982 26.3753 30.1706 26.5342 30.0627C26.5937 30.0137 26.6632 29.9744 26.7228 29.9155L33.563 36.7547C33.7218 36.9117 33.9303 37 34.1586 37C34.387 37 34.5954 36.9117 34.7543 36.7547C35.0819 36.4211 35.0819 35.8912 34.7543 35.5674L27.9141 28.7282H27.934ZM13.7076 23.0077C13.7076 18.9846 16.9837 15.7073 21.0144 15.7073C25.045 15.7073 28.3211 18.9846 28.3211 23.0077C28.3211 27.0307 25.045 30.308 21.0144 30.308C16.9837 30.308 13.7076 27.0307 13.7076 23.0077Z" fill="#333333"/>
</svg>
