<svg width="40" height="40" viewBox="0 0 40 40" fill="none" xmlns="http://www.w3.org/2000/svg">
<g clip-path="url(#clip0_1_259)">
<path d="M38.72 1.71997H1.25V30.63H38.72V1.71997Z" fill="white"/>
<path d="M14.9799 31.5399L13.5999 39.0899H25.9499L24.8499 31.5399H14.9799Z" fill="#96C5E2"/>
<path d="M15.87 9.83997V18.79H24.85C24.85 18.79 25 27.74 15.87 27.74C6.73997 27.74 7.27997 18.17 7.27997 18.17C7.27997 18.17 7.96997 9.83997 15.87 9.83997Z" fill="#96C5E2"/>
<path d="M8.51 40C8.04 40 7.66 39.62 7.66 39.15C7.66 38.68 8.04 38.3 8.51 38.3H11.98C12.07 38.3 12.16 38.27 12.23 38.21C12.77 37.79 14.03 36.41 14.03 32.77C14.03 32.54 13.84 32.35 13.61 32.35H3.06C1.37 32.35 0 30.98 0 29.29V3.06C0 1.37 1.37 0 3.06 0H36.93C38.62 0 39.99 1.37 39.99 3.06V29.28C39.99 30.97 38.62 32.34 36.93 32.34H26.38C26.15 32.34 25.96 32.53 25.96 32.76C25.96 36.41 27.21 37.78 27.74 38.2C27.81 38.25 27.9 38.29 27.99 38.29H31.47C31.94 38.29 32.32 38.67 32.32 39.14C32.32 39.61 31.94 39.99 31.47 39.99H8.51V40ZM16.16 32.35C15.93 32.35 15.74 32.54 15.74 32.77C15.74 34.73 15.41 36.39 14.76 37.69C14.7 37.82 14.71 37.97 14.78 38.1C14.85 38.23 14.99 38.3 15.13 38.3H24.83C24.98 38.3 25.11 38.23 25.18 38.1C25.25 37.97 25.26 37.82 25.2 37.69C24.55 36.39 24.22 34.74 24.22 32.77C24.22 32.54 24.03 32.35 23.8 32.35H16.15H16.16ZM3.05 1.72C2.3 1.72 1.7 2.33 1.7 3.07V29.29C1.7 30.04 2.31 30.64 3.05 30.64H36.92C37.65 30.64 38.27 30.02 38.27 29.29V3.06C38.27 2.33 37.65 1.71 36.92 1.71H3.05V1.72Z" fill="#333333"/>
<path d="M16.1699 28.5199C10.7699 28.5199 6.37988 24.1299 6.37988 18.7299C6.37988 13.3299 10.7699 8.93994 16.1699 8.93994C16.6399 8.93994 17.0199 9.31994 17.0199 9.78994V17.4399C17.0199 17.6699 17.2099 17.8599 17.4399 17.8599H25.0899C25.5599 17.8599 25.9399 18.2399 25.9399 18.7099C25.9399 24.1099 21.5499 28.4999 16.1499 28.4999L16.1699 28.5199ZM14.8999 10.7499H14.8299C10.9299 11.3999 8.09988 14.7599 8.09988 18.7099C8.09988 23.1599 11.7199 26.7799 16.1699 26.7799C20.1199 26.7799 23.4799 23.9499 24.1299 20.0499C24.1499 19.9299 24.1299 19.7999 24.0399 19.7099C23.9499 19.6199 23.8399 19.5599 23.7199 19.5599H16.1699C15.6999 19.5599 15.3199 19.1799 15.3199 18.7099V11.1599C15.3199 11.0299 15.2699 10.9199 15.1699 10.8399C15.0999 10.7799 14.9999 10.7399 14.8999 10.7399V10.7499Z" fill="#333333"/>
<path d="M30.1399 15.75H19.9999C19.5299 15.75 19.1499 15.37 19.1499 14.9V4.68997C19.1499 4.21997 19.5299 3.83997 19.9999 3.83997C26.1999 3.83997 31.0599 8.68997 31.0599 14.89C31.0599 15.37 30.6799 15.75 30.2099 15.75H30.1399ZM21.2699 5.63997C21.1699 5.63997 21.0699 5.67997 20.9999 5.73997C20.9099 5.81997 20.8499 5.92997 20.8499 6.05997V13.62C20.8499 13.85 21.0399 14.04 21.2699 14.04H28.8399C28.9599 14.04 29.0799 13.99 29.1599 13.89C29.2399 13.79 29.2799 13.68 29.2599 13.55C28.6899 9.37997 25.4999 6.19997 21.3299 5.61997H21.2699V5.63997Z" fill="#333333"/>
<path d="M30.2099 23.41C29.7399 23.41 29.3599 23.03 29.3599 22.56C29.3599 22.09 29.7399 21.71 30.2099 21.71H32.7599C33.2299 21.71 33.6099 22.09 33.6099 22.56C33.6099 23.03 33.2299 23.41 32.7599 23.41H30.2099Z" fill="#333333"/>
<path d="M27.6498 27.2399C27.1798 27.2399 26.7998 26.8599 26.7998 26.3899C26.7998 25.9199 27.1798 25.5399 27.6498 25.5399H32.7598C33.2298 25.5399 33.6098 25.9199 33.6098 26.3899C33.6098 26.8599 33.2298 27.2399 32.7598 27.2399H27.6498Z" fill="#333333"/>
</g>
<defs>
<clipPath id="clip0_1_259">
<rect width="40" height="40" fill="white"/>
</clipPath>
</defs>
</svg>
