<svg width="40" height="40" viewBox="0 0 40 40" fill="none" xmlns="http://www.w3.org/2000/svg">
<g clip-path="url(#clip0_1_62)">
<path d="M38.94 1.15997H0.900024V29.78H38.94V1.15997Z" fill="white"/>
<path d="M12.3 17.42H6.02002V24.09H12.3V17.42Z" fill="#96C5E2"/>
<path d="M34.02 9.75H27.74V24.1H34.02V9.75Z" fill="#96C5E2"/>
<path d="M5.96999 6.23003C5.49999 6.23003 5.10999 5.85003 5.10999 5.38003C5.10999 4.91003 5.48999 4.53003 5.96999 4.53003H34.07C34.54 4.53003 34.93 4.91003 34.93 5.38003C34.93 5.85003 34.55 6.23003 34.07 6.23003H5.96999Z" fill="#333333"/>
<path d="M5.96999 10.35C5.49999 10.35 5.10999 9.97002 5.10999 9.50002C5.10999 9.03002 5.48999 8.65002 5.96999 8.65002H19.61C20.08 8.65002 20.47 9.03002 20.47 9.50002C20.47 9.97002 20.09 10.35 19.61 10.35H5.96999Z" fill="#333333"/>
<path d="M5.96999 24.71C5.49999 24.71 5.10999 24.33 5.10999 23.86V17.48C5.10999 17.01 5.48999 16.63 5.96999 16.63H12.36C12.83 16.63 13.22 17.01 13.22 17.48V23.86C13.22 24.33 12.84 24.71 12.36 24.71H5.96999ZM7.23998 18.32C7.00998 18.32 6.81999 18.51 6.81999 18.74V22.57C6.81999 22.8 7.00998 22.99 7.23998 22.99H11.07C11.3 22.99 11.49 22.8 11.49 22.57V18.74C11.49 18.51 11.3 18.32 11.07 18.32H7.23998Z" fill="#333333"/>
<path d="M16.84 24.71C16.37 24.71 15.98 24.33 15.98 23.86V13.65C15.98 13.18 16.36 12.8 16.84 12.8H23.22C23.69 12.8 24.08 13.18 24.08 13.65V23.86C24.08 24.33 23.7 24.71 23.22 24.71H16.84ZM18.11 14.49C17.88 14.49 17.69 14.68 17.69 14.91V22.57C17.69 22.8 17.88 22.99 18.11 22.99H21.93C22.16 22.99 22.35 22.8 22.35 22.57V14.91C22.35 14.68 22.16 14.49 21.93 14.49H18.11Z" fill="#333333"/>
<path d="M27.69 24.71C27.22 24.71 26.83 24.33 26.83 23.86V9.81997C26.83 9.34997 27.21 8.96997 27.69 8.96997H34.08C34.55 8.96997 34.94 9.34997 34.94 9.81997V23.86C34.94 24.33 34.56 24.71 34.08 24.71H27.69ZM28.96 10.67C28.73 10.67 28.54 10.86 28.54 11.09V22.57C28.54 22.8 28.73 22.99 28.96 22.99H32.79C33.02 22.99 33.21 22.8 33.21 22.57V11.09C33.21 10.86 33.02 10.67 32.79 10.67H28.96Z" fill="#333333"/>
<path d="M39.18 0H0.86C0.38 0 0 0.39 0 0.86V28.94C0 29.41 0.38 29.79 0.86 29.79H16.04C16.2 29.79 16.36 29.89 16.42 30.04C16.48 30.19 16.46 30.37 16.35 30.49L9.15 38.57C9 38.74 8.92 38.96 8.93 39.19C8.94 39.42 9.05 39.63 9.22 39.78C9.37 39.92 9.57 40 9.79 40C10.04 40 10.27 39.89 10.43 39.71L18.42 30.73C18.5 30.64 18.62 30.59 18.73 30.59C18.78 30.59 18.83 30.59 18.88 30.62C19.04 30.68 19.15 30.84 19.15 31.01V39.14C19.15 39.61 19.53 39.99 20.01 39.99C20.49 39.99 20.87 39.61 20.87 39.14V31.01C20.87 30.84 20.98 30.68 21.14 30.62C21.19 30.6 21.24 30.59 21.29 30.59C21.41 30.59 21.53 30.64 21.6 30.73L29.59 39.7C29.75 39.88 29.98 39.99 30.23 39.99C30.44 39.99 30.64 39.92 30.8 39.77C30.97 39.62 31.07 39.41 31.08 39.18C31.09 38.95 31.02 38.73 30.86 38.56L23.66 30.48C23.55 30.35 23.52 30.18 23.59 30.03C23.65 29.88 23.81 29.78 23.97 29.78H28.93C29.4 29.78 29.79 29.4 29.79 28.93C29.79 28.46 29.41 28.08 28.93 28.08H2.09C1.86 28.08 1.67 27.89 1.67 27.66V2.13C1.67 1.9 1.86 1.71 2.09 1.71H37.87C38.1 1.71 38.29 1.9 38.29 2.13V27.66C38.29 27.89 38.1 28.08 37.87 28.08H34.04C33.57 28.08 33.18 28.46 33.18 28.93C33.18 29.4 33.56 29.78 34.04 29.78H39.15C39.62 29.78 40.01 29.4 40.01 28.93V0.85C40.01 0.38 39.63 0 39.15 0H39.19H39.18Z" fill="#333333"/>
</g>
<defs>
<clipPath id="clip0_1_62">
<rect width="40" height="40" fill="white"/>
</clipPath>
</defs>
</svg>
