<svg width="40" height="40" viewBox="0 0 40 40" fill="none" xmlns="http://www.w3.org/2000/svg">
<g clip-path="url(#clip0_1_189)">
<path d="M34.81 6.21997H5.17004V38.88H34.81V6.21997Z" fill="white"/>
<path d="M23.22 3.56995C22.76 2.18995 21.48 1.19995 19.97 1.19995C18.46 1.19995 17.18 2.19995 16.72 3.56995H12.45V8.32995H27.49V3.56995H23.22Z" fill="#96C5E2"/>
<path d="M6.1 40C4.94 40 4 39.05 4 37.88V7.24C4 6.07 4.94 5.12 6.1 5.12H8.63C9.09 5.12 9.47 5.5 9.47 5.97C9.47 6.44 9.09 6.82 8.63 6.82H6.1C5.86 6.82 5.68 7.01 5.68 7.25V37.89C5.68 38.13 5.87 38.32 6.1 38.32H33.91C34.15 38.32 34.33 38.13 34.33 37.89V7.25C34.33 7.01 34.14 6.82 33.91 6.82H31.38C30.92 6.82 30.54 6.44 30.54 5.97C30.54 5.5 30.92 5.12 31.38 5.12H33.91C35.07 5.12 36.01 6.07 36.01 7.24V37.88C36.01 39.05 35.07 40 33.91 40H6.1Z" fill="#333333"/>
<path d="M22.5299 17.0199C22.0699 17.0199 21.6899 16.6399 21.6899 16.1699C21.6899 15.6999 22.0699 15.3199 22.5299 15.3199H30.1099C30.5699 15.3199 30.9499 15.6999 30.9499 16.1699C30.9499 16.6399 30.5699 17.0199 30.1099 17.0199H22.5299Z" fill="#333333"/>
<path d="M22.5299 24.68C22.0699 24.68 21.6899 24.3 21.6899 23.83C21.6899 23.36 22.0699 22.98 22.5299 22.98H30.1099C30.5699 22.98 30.9499 23.36 30.9499 23.83C30.9499 24.3 30.5699 24.68 30.1099 24.68H22.5299Z" fill="#333333"/>
<path d="M22.5299 32.34C22.0699 32.34 21.6899 31.96 21.6899 31.49C21.6899 31.02 22.0699 30.64 22.5299 30.64H30.1099C30.5699 30.64 30.9499 31.02 30.9499 31.49C30.9499 31.96 30.5699 32.34 30.1099 32.34H22.5299Z" fill="#333333"/>
<path d="M12.42 9.36C11.96 9.36 11.58 8.98 11.58 8.51V3.41C11.58 2.94 11.96 2.56 12.42 2.56H15.64C15.79 2.56 15.93 2.48 16.01 2.34C16.83 0.9 18.37 0 20.01 0C21.65 0 23.17 0.89 24.01 2.34C24.08 2.48 24.23 2.56 24.38 2.56H27.6C28.06 2.56 28.44 2.94 28.44 3.41V8.51C28.44 8.98 28.06 9.36 27.6 9.36H12.43H12.42ZM13.68 4.25C13.44 4.25 13.26 4.44 13.26 4.68V7.24C13.26 7.48 13.45 7.67 13.68 7.67H26.32C26.56 7.67 26.74 7.48 26.74 7.24V4.68C26.74 4.44 26.55 4.25 26.32 4.25H23.56C23.21 4.25 22.89 4.02 22.77 3.68C22.35 2.49 21.24 1.69 19.99 1.69C18.74 1.69 17.64 2.49 17.21 3.68C17.09 4.02 16.78 4.25 16.42 4.25H13.66H13.68Z" fill="#333333"/>
<path d="M12.4201 34.89C12.1901 34.89 11.9901 34.8 11.8301 34.64L9.30006 32.08C9.15006 31.92 9.06006 31.71 9.06006 31.49C9.06006 31.27 9.15006 31.05 9.30006 30.9C9.45006 30.75 9.67006 30.65 9.89006 30.65C10.1101 30.65 10.3201 30.74 10.4801 30.9L12.1201 32.55C12.2001 32.63 12.3101 32.68 12.4201 32.68C12.5301 32.68 12.6501 32.63 12.7201 32.55L16.8801 28.35C17.0401 28.19 17.2501 28.1 17.4701 28.1C17.6901 28.1 17.9001 28.19 18.0601 28.35C18.2201 28.51 18.3001 28.72 18.3001 28.94C18.3001 29.16 18.2101 29.38 18.0601 29.54L13.0101 34.64C12.8601 34.8 12.6401 34.89 12.4201 34.89Z" fill="#333333"/>
<path d="M12.4201 27.2299C12.1901 27.2299 11.9901 27.1399 11.8301 26.9799L9.30006 24.4199C9.15006 24.2599 9.06006 24.0499 9.06006 23.8299C9.06006 23.6099 9.15006 23.3899 9.30006 23.2399C9.45006 23.0899 9.67006 22.9899 9.89006 22.9899C10.1101 22.9899 10.3201 23.0799 10.4801 23.2399L12.1201 24.8899C12.2001 24.9699 12.3101 25.0199 12.4201 25.0199C12.5301 25.0199 12.6401 24.9699 12.7201 24.8899L16.8801 20.6899C17.0301 20.5299 17.2501 20.4399 17.4701 20.4399C17.6901 20.4399 17.9001 20.5299 18.0601 20.6899C18.2201 20.8499 18.3001 21.0599 18.3001 21.2799C18.3001 21.4999 18.2101 21.7199 18.0601 21.8799L13.0101 26.9799C12.8501 27.1399 12.6401 27.2299 12.4201 27.2299Z" fill="#333333"/>
<path d="M12.4201 19.57C12.1901 19.57 11.9901 19.48 11.8301 19.32L9.30006 16.76C9.15006 16.6 9.06006 16.39 9.06006 16.17C9.06006 15.95 9.15006 15.73 9.30006 15.57C9.45006 15.41 9.67006 15.32 9.89006 15.32C10.1101 15.32 10.3201 15.41 10.4801 15.57L12.1201 17.22C12.2001 17.3 12.3101 17.35 12.4201 17.35C12.5301 17.35 12.6501 17.3 12.7201 17.22L16.8801 13.02C17.0301 12.86 17.2501 12.77 17.4701 12.77C17.6901 12.77 17.9001 12.86 18.0601 13.02C18.2101 13.18 18.3001 13.39 18.3001 13.62C18.3001 13.85 18.2101 14.06 18.0601 14.21L13.0101 19.31C12.8501 19.47 12.6401 19.56 12.4201 19.56H12.4401L12.4201 19.57Z" fill="#333333"/>
</g>
<defs>
<clipPath id="clip0_1_189">
<rect width="32" height="40" fill="white" transform="translate(4)"/>
</clipPath>
</defs>
</svg>
