<svg width="41" height="40" viewBox="0 0 41 40" fill="none" xmlns="http://www.w3.org/2000/svg">
<g clip-path="url(#clip0_1_477)">
<path d="M23.4 34.1636C32.6483 34.1636 40.1455 26.6664 40.1455 17.4182C40.1455 8.16993 32.6483 0.672729 23.4 0.672729C14.1517 0.672729 6.65454 8.16993 6.65454 17.4182C6.65454 26.6664 14.1517 34.1636 23.4 34.1636Z" fill="white"/>
<path d="M2.24539 38.6364C2.24539 38.6364 0.727212 37.1091 1.28176 35.7455C1.8363 34.3818 5.47267 31.0364 5.47267 31.0364L9.20903 34.8364L5.24539 39.0273C5.24539 39.0273 2.99994 39.7 2.2363 38.6364H2.24539Z" fill="white"/>
<path d="M9.27272 27.2363L13.0818 31.0545L9.47272 34.6636L5.80908 30.9909L9.27272 27.2363Z" fill="#96C5E2"/>
<path d="M23.1546 15.3636C24.6859 15.3636 25.9273 13.5606 25.9273 11.3364C25.9273 9.11215 24.6859 7.30908 23.1546 7.30908C21.6232 7.30908 20.3818 9.11215 20.3818 11.3364C20.3818 13.5606 21.6232 15.3636 23.1546 15.3636Z" fill="#96C5E2"/>
<path d="M4.23621 40C3.22712 39.9727 2.3453 39.5909 1.67258 38.9273C0.281666 37.5364 0.236212 35.3091 1.57258 33.9727L8.25439 27.2909C8.45439 27.0909 8.49076 26.7818 8.3453 26.5455C6.6453 23.8 5.75439 20.6455 5.75439 17.4273C5.75439 12.7727 7.56348 8.39091 10.8635 5.1C14.1453 1.80909 18.518 0 23.1817 0C27.8453 0 32.218 1.80909 35.5089 5.09091C42.2999 11.8909 42.2999 22.9455 35.5089 29.7364C32.218 33.0182 27.8453 34.8364 23.1817 34.8364C19.9726 34.8364 16.818 33.9455 14.0635 32.2455C13.9726 32.1909 13.8635 32.1545 13.7453 32.1545C13.5817 32.1545 13.4271 32.2182 13.318 32.3364L6.63621 39.0182C5.99985 39.6545 5.15439 40 4.2453 40H4.23621ZM5.67258 32.0455C5.51803 32.0455 5.35439 32.1091 5.2453 32.2273L2.53621 34.9364C1.72712 35.7455 1.77258 37.1 2.63621 37.9636C3.05439 38.3818 3.60894 38.6273 4.19076 38.6364C4.77258 38.6364 5.29985 38.4273 5.66349 38.0545L8.37258 35.3455C8.48167 35.2364 8.55439 35.0727 8.55439 34.9182C8.55439 34.7636 8.49076 34.6091 8.38167 34.4909L6.10894 32.2182C5.99076 32.1 5.8453 32.0364 5.68167 32.0364L5.67258 32.0455ZM9.3453 28.3727C9.18167 28.3727 9.02712 28.4364 8.91803 28.5545L7.06348 30.4C6.82712 30.6364 6.82712 31.0182 7.06348 31.2545L9.33621 33.5273C9.45439 33.6455 9.59985 33.7091 9.76348 33.7091C9.92712 33.7091 10.0817 33.6455 10.1908 33.5273L12.0453 31.6727C12.1635 31.5545 12.2271 31.3818 12.218 31.2182C12.218 31.0455 12.1271 30.8909 11.9998 30.7818C11.618 30.4727 11.2544 30.1364 10.8817 29.7636L10.7726 29.6455C10.4453 29.3182 10.1271 28.9636 9.80894 28.5909C9.69985 28.4636 9.53621 28.3818 9.37257 28.3727H9.3453ZM23.1817 1.36364C18.8817 1.36364 14.8544 3.03636 11.8271 6.06364C8.79076 9.1 7.11803 13.1273 7.11803 17.4273C7.11803 20.5364 8.01803 23.5545 9.70894 26.1636L10.0453 26.6364C10.3271 27.0364 10.6089 27.4 10.9089 27.7636C11.1453 28.0455 11.4726 28.4182 11.8271 28.7818C12.1998 29.1545 12.5817 29.4818 12.8726 29.7182C13.2362 30.0182 13.5908 30.2909 13.9726 30.5545L14.4453 30.8909C17.0544 32.5818 20.0726 33.4727 23.1908 33.4727C27.4817 33.4727 31.518 31.8091 34.5453 28.7818C40.8089 22.5182 40.8089 12.3273 34.5453 6.06364C31.518 3.03636 27.4817 1.36364 23.1817 1.36364Z" fill="#333333"/>
<path d="M23.118 16.0909C21.0635 16.0909 19.4635 13.7091 19.4635 10.6728C19.4635 7.98186 20.7999 6.4364 23.118 6.4364C25.4362 6.4364 26.7726 7.98186 26.7726 10.6728C26.7726 13.7091 25.1635 16.0909 23.118 16.0909ZM23.118 7.79095C22.5544 7.79095 20.8271 7.79095 20.8271 10.6637C20.8271 13.0909 22.009 14.7182 23.118 14.7182C24.2271 14.7182 25.409 13.0909 25.409 10.6637C25.409 7.79095 23.6817 7.79095 23.118 7.79095Z" fill="#333333"/>
<path d="M15.509 27.1182C15.1545 27.1182 14.8636 26.8545 14.8272 26.5C14.309 20.8364 17.3999 18.5 19.0999 18.0455C19.1545 18.0273 19.2181 18.0182 19.2727 18.0182C19.5727 18.0182 19.8363 18.2273 19.9181 18.5182C20.0181 18.8727 19.809 19.2545 19.4454 19.3545C19.309 19.3909 16.1727 20.3727 16.1272 25.1273C16.1272 25.2909 16.1908 25.4455 16.2999 25.5545C16.4181 25.6727 16.5636 25.7364 16.7272 25.7364H29.5727C29.7363 25.7364 29.8908 25.6727 29.9999 25.5545C30.1181 25.4364 30.1818 25.2818 30.1727 25.1182C30.1272 20.4636 27.1908 19.4455 26.8545 19.3455C26.4908 19.2455 26.2818 18.8727 26.3727 18.5091C26.4545 18.2091 26.7272 18 27.0363 18C27.0908 18 27.1545 18 27.209 18.0182C28.9181 18.4636 31.9999 20.8091 31.4818 26.4727C31.4454 26.8273 31.1545 27.0909 30.7999 27.0909H15.4908L15.509 27.1182Z" fill="#333333"/>
</g>
<defs>
<clipPath id="clip0_1_477">
<rect width="40" height="40" fill="white" transform="translate(0.599976)"/>
</clipPath>
</defs>
</svg>
