<svg width="40" height="40" viewBox="0 0 40 40" fill="none" xmlns="http://www.w3.org/2000/svg">
<g clip-path="url(#clip0_1_146)">
<path d="M2.73002 25.37L0.900024 23.6L1.94002 21.18L4.11002 20.93L5.25002 19L4.86002 16.73L7.08002 15.13L9.18003 16.73L11.17 16.04L11.96 13.52H14.72L16.06 15.94L18.25 17.4L20.06 15.49L22.43 16.77L21.44 19.68L22.68 21.02L25.17 20.92L25.99 24.08L24.46 25.32L24.61 27.78L25.99 28.77L24.85 31.58L22.58 31.78L21.59 33.26L22.28 35.62L19.39 37.39L17.67 36.11L16.01 36.5L14.77 38.82H11.91L11.22 36.65L9.17002 36.06L7.16002 37.34L4.85002 36.06L5.34002 33.25L3.91002 31.62H1.69002L0.910024 28.96L2.84002 27.33L2.74002 25.36L2.73002 25.37ZM13.43 30.96C16 30.96 18.08 28.88 18.08 26.31C18.08 23.74 16 21.66 13.43 21.66C10.86 21.66 8.78002 23.74 8.78002 26.31C8.78002 28.88 10.86 30.96 13.43 30.96Z" fill="white"/>
<path d="M15.69 12.68L13.86 10.91L14.9 8.49002L17.07 8.24002L18.21 6.31002L17.82 4.04002L20.04 2.44002L22.14 4.04002L24.13 3.35002L24.92 0.830017H27.68L29.02 3.25002L31.21 4.71002L33.02 2.80002L35.39 4.08002L34.4 6.99002L35.64 8.33002L38.13 8.23002L38.95 11.39L37.42 12.63L37.57 15.09L38.95 16.08L37.81 18.89L35.54 19.09L34.55 20.57L35.24 22.93L32.35 24.7L30.63 23.42L28.97 23.81L27.73 26.13H24.87L24.18 23.96L22.13 23.37L20.12 24.65L17.81 23.37L18.3 20.56L16.87 18.93H14.64L13.86 16.27L15.79 14.64L15.69 12.67V12.68ZM26.38 18.26C28.95 18.26 31.03 16.18 31.03 13.61C31.03 11.04 28.95 8.96002 26.38 8.96002C23.81 8.96002 21.73 11.04 21.73 13.61C21.73 16.18 23.81 18.26 26.38 18.26Z" fill="#96C5E2"/>
<path d="M26.37 27.23C26.9 27.23 27.44 27.19 28 27.13C28.34 27.09 28.63 26.86 28.72 26.53L29.25 24.79C29.3 24.65 29.4 24.54 29.54 24.51C29.79 24.44 30.04 24.36 30.29 24.27C30.34 24.25 30.38 24.24 30.43 24.24C30.52 24.24 30.61 24.27 30.68 24.32L32.15 25.44C32.3 25.55 32.49 25.61 32.67 25.61C32.82 25.61 32.95 25.57 33.08 25.51C34.04 24.98 34.94 24.35 35.76 23.61C36.01 23.37 36.11 23.01 36 22.68L35.39 20.98C35.34 20.84 35.36 20.69 35.45 20.58C35.6 20.39 35.76 20.18 35.9 19.97C35.98 19.86 36.11 19.79 36.25 19.79L38.13 19.84H38.16C38.49 19.84 38.8 19.65 38.93 19.35C39.4 18.36 39.75 17.32 39.97 16.26C40.04 15.91 39.9 15.57 39.61 15.38L38.09 14.35C37.97 14.27 37.9 14.13 37.91 13.99V13.25C37.91 13.1 37.97 12.97 38.09 12.89L39.62 11.87C39.91 11.68 40.06 11.33 39.98 10.99C39.77 9.93002 39.43 8.88002 38.96 7.89002C38.83 7.62002 38.52 7.44002 38.14 7.40002L36.29 7.45002C36.15 7.45002 36.03 7.39002 35.94 7.27002C35.8 7.07002 35.65 6.86002 35.49 6.66002C35.4 6.54002 35.38 6.40002 35.43 6.26002L36.05 4.57002C36.17 4.24002 36.08 3.88002 35.82 3.64002C35 2.89002 34.11 2.25002 33.15 1.72002C33.02 1.65002 32.88 1.61002 32.73 1.61002C32.54 1.61002 32.37 1.67002 32.22 1.78002L30.74 2.90002C30.67 2.95002 30.58 2.98002 30.49 2.98002C30.44 2.98002 30.39 2.98002 30.34 2.95002C30.09 2.86002 29.83 2.78002 29.59 2.70002C29.45 2.66002 29.34 2.55002 29.3 2.42002L28.78 0.680022C28.68 0.350022 28.4 0.120022 28.06 0.070022C27.52 0.010022 27.09 -0.039978 26.57 -0.039978H26.38C25.83 -0.039978 25.3 -0.00997803 24.75 0.060022C24.41 0.100022 24.13 0.330022 24.03 0.660022L23.5 2.40002C23.45 2.54002 23.35 2.65002 23.21 2.68002C22.95 2.75002 22.69 2.83002 22.46 2.93002C22.41 2.95002 22.37 2.96002 22.32 2.96002C22.23 2.96002 22.14 2.93002 22.07 2.88002L20.6 1.76002C20.45 1.64002 20.27 1.59002 20.08 1.59002C19.93 1.59002 19.8 1.63002 19.67 1.70002C18.7 2.23002 17.8 2.87002 16.99 3.61002C16.73 3.85002 16.64 4.21002 16.75 4.54002L17.36 6.24002C17.41 6.38002 17.39 6.53002 17.3 6.64002C17.15 6.84002 16.99 7.04002 16.85 7.25002C16.77 7.36002 16.64 7.43002 16.5 7.43002L14.62 7.38002H14.59C14.26 7.38002 13.95 7.57002 13.82 7.87002C13.35 8.86002 13 9.90002 12.78 10.97C12.72 11.31 12.85 11.65 13.14 11.85L14.66 12.88C14.78 12.96 14.85 13.1 14.84 13.23V13.97C14.84 14.12 14.78 14.25 14.66 14.33L13.13 15.35C12.84 15.54 12.7 15.89 12.77 16.22C12.98 17.28 13.32 18.33 13.79 19.32C13.93 19.62 14.24 19.81 14.58 19.81L16.46 19.76C16.6 19.76 16.72 19.83 16.81 19.94C16.95 20.14 17.1 20.35 17.26 20.55C17.35 20.67 17.38 20.81 17.32 20.95L16.7 22.65C16.58 22.98 16.67 23.34 16.93 23.58C17.74 24.33 18.64 24.97 19.6 25.5C19.73 25.57 19.86 25.61 20.01 25.61C20.19 25.61 20.38 25.55 20.53 25.44L22.01 24.33C22.08 24.28 22.17 24.25 22.26 24.25C22.31 24.25 22.36 24.25 22.41 24.28C22.66 24.37 22.92 24.45 23.16 24.53C23.3 24.57 23.41 24.68 23.44 24.81L23.96 26.55C24.06 26.88 24.34 27.11 24.68 27.16C25.25 27.23 25.8 27.26 26.33 27.26H26.36V27.23H26.37ZM30.64 22.37C30.52 22.37 30.41 22.4 30.3 22.44C29.7 22.69 29.08 22.89 28.45 23.02C28.14 23.08 27.9 23.31 27.8 23.61L27.32 25.21C27.27 25.38 27.11 25.5 26.94 25.51H26.81C26.7 25.51 26.6 25.53 26.49 25.53H26.33C26.16 25.53 25.96 25.53 25.74 25.51C25.56 25.51 25.41 25.38 25.36 25.21L24.89 23.61C24.8 23.31 24.55 23.08 24.24 23.02C23.62 22.88 23 22.68 22.4 22.43C22.29 22.38 22.17 22.36 22.05 22.36C21.86 22.36 21.69 22.41 21.53 22.53L20.17 23.56C20.1 23.61 20.01 23.64 19.92 23.64C19.84 23.64 19.77 23.62 19.69 23.58C19.36 23.37 19.04 23.13 18.74 22.9C18.6 22.79 18.55 22.6 18.6 22.43L19.17 20.88C19.28 20.58 19.22 20.24 19 20.01C18.57 19.54 18.2 19.03 17.87 18.48C17.72 18.23 17.42 18.06 17.11 18.06L15.38 18.11C15.21 18.11 15.05 18 14.99 17.84C14.85 17.49 14.74 17.13 14.64 16.77C14.59 16.6 14.66 16.42 14.81 16.31L16.21 15.37C16.47 15.2 16.62 14.89 16.58 14.58C16.55 14.23 16.53 13.93 16.53 13.63C16.53 13.32 16.55 13.01 16.58 12.68C16.61 12.37 16.47 12.06 16.21 11.89L14.81 10.94C14.66 10.84 14.59 10.65 14.64 10.48C14.74 10.12 14.86 9.76002 14.99 9.41002C15.05 9.25002 15.21 9.15002 15.38 9.15002L17.1 9.20002C17.47 9.18002 17.73 9.05002 17.88 8.78002C18.2 8.25002 18.58 7.74002 19.02 7.25002C19.23 7.01002 19.3 6.69002 19.19 6.39002L18.63 4.84002C18.57 4.67002 18.63 4.48002 18.77 4.37002C19.07 4.13002 19.4 3.91002 19.73 3.69002C19.8 3.64002 19.88 3.63002 19.96 3.63002C20.05 3.63002 20.14 3.66002 20.21 3.71002L21.57 4.75002C21.72 4.86002 21.91 4.92002 22.09 4.92002C22.21 4.92002 22.32 4.89002 22.43 4.86002C23.02 4.61002 23.64 4.41002 24.27 4.28002C24.58 4.22002 24.82 3.99002 24.92 3.69002L25.4 2.09002C25.45 1.92002 25.6 1.80002 25.78 1.79002C25.94 1.79002 26.1 1.77002 26.27 1.77002H26.39C26.56 1.77002 26.76 1.77002 26.98 1.79002C27.15 1.79002 27.31 1.92002 27.36 2.09002L27.83 3.69002C27.92 3.99002 28.17 4.22002 28.47 4.28002C29.09 4.42002 29.71 4.62002 30.31 4.87002C30.42 4.92002 30.53 4.94002 30.65 4.94002C30.83 4.94002 31.01 4.88002 31.17 4.77002L32.53 3.74002C32.6 3.69002 32.69 3.66002 32.78 3.66002C32.86 3.66002 32.93 3.68002 33.01 3.72002C33.34 3.93002 33.66 4.17002 33.96 4.40002C34.11 4.51002 34.15 4.70002 34.1 4.87002L33.53 6.42002C33.42 6.72002 33.48 7.05002 33.69 7.28002C34.13 7.76002 34.51 8.28002 34.82 8.82002C34.91 8.97002 35.13 9.25002 35.52 9.25002C35.54 9.25002 37.31 9.20002 37.31 9.20002C37.48 9.20002 37.65 9.31002 37.7 9.47002C37.84 9.82002 37.95 10.18 38.05 10.54C38.1 10.71 38.03 10.9 37.88 11L36.48 11.94C36.22 12.11 36.07 12.42 36.11 12.74C36.14 13.05 36.16 13.36 36.16 13.69C36.16 14.02 36.14 14.32 36.11 14.64C36.07 14.96 36.22 15.27 36.48 15.44L37.88 16.39C38.03 16.49 38.1 16.68 38.05 16.85C37.95 17.21 37.82 17.57 37.69 17.92C37.63 18.08 37.47 18.18 37.3 18.18L35.53 18.13C35.22 18.13 34.97 18.28 34.8 18.55C34.47 19.1 34.09 19.61 33.66 20.07C33.44 20.31 33.38 20.64 33.49 20.94L34.05 22.5C34.11 22.67 34.05 22.86 33.91 22.97C33.6 23.22 33.27 23.44 32.96 23.65C32.89 23.7 32.81 23.71 32.73 23.71C32.64 23.71 32.55 23.68 32.48 23.63L31.12 22.59C30.97 22.47 30.79 22.42 30.6 22.42L30.63 22.37H30.64Z" fill="#333333"/>
<path d="M26.38 19.57C29.67 19.57 32.34 16.9 32.34 13.61C32.34 10.32 29.67 7.65002 26.38 7.65002C23.09 7.65002 20.42 10.32 20.42 13.61C20.42 16.9 23.09 19.57 26.38 19.57ZM26.38 9.37002C28.73 9.37002 30.62 11.28 30.62 13.61C30.62 15.94 28.71 17.85 26.38 17.85C24.05 17.85 22.14 15.94 22.14 13.61C22.14 11.28 24.05 9.37002 26.38 9.37002Z" fill="#333333"/>
<path d="M13.62 39.98C14.15 39.98 14.69 39.94 15.24 39.88C15.58 39.84 15.87 39.61 15.96 39.28L16.49 37.54C16.54 37.4 16.64 37.29 16.78 37.26C17.03 37.19 17.28 37.11 17.54 37.02C17.59 37 17.63 36.99 17.68 36.99C17.77 36.99 17.86 37.02 17.93 37.07L19.4 38.19C19.55 38.31 19.73 38.36 19.92 38.36C20.07 38.36 20.2 38.32 20.33 38.25C21.29 37.73 22.19 37.09 23.01 36.35C23.26 36.11 23.36 35.75 23.25 35.42L22.64 33.72C22.59 33.58 22.61 33.43 22.7 33.32C22.85 33.13 23.01 32.92 23.15 32.71C23.23 32.6 23.36 32.53 23.5 32.53L25.38 32.58H25.41C25.74 32.58 26.05 32.39 26.18 32.09C26.43 31.55 26.66 30.99 26.84 30.42C26.99 29.97 26.74 29.48 26.29 29.34C26.21 29.31 26.12 29.3 26.03 29.3C25.66 29.3 25.33 29.54 25.21 29.89C25.14 30.12 25.06 30.34 24.96 30.57C24.9 30.73 24.74 30.83 24.57 30.83L22.83 30.78C22.49 30.78 22.24 30.93 22.07 31.2C21.74 31.75 21.36 32.26 20.93 32.72C20.71 32.96 20.65 33.29 20.76 33.59L21.32 35.15C21.38 35.32 21.32 35.51 21.18 35.62C20.87 35.87 20.54 36.09 20.23 36.3C20.16 36.35 20.08 36.36 20 36.36C19.91 36.36 19.82 36.33 19.75 36.28L18.39 35.24C18.24 35.13 18.05 35.07 17.87 35.07C17.75 35.07 17.64 35.09 17.53 35.13C16.93 35.38 16.31 35.58 15.68 35.71C15.37 35.77 15.13 36 15.03 36.3L14.55 37.9C14.5 38.07 14.35 38.19 14.17 38.2C13.97 38.2 13.8 38.22 13.57 38.22C13.39 38.22 13.19 38.22 12.97 38.2C12.8 38.2 12.64 38.07 12.59 37.9L12.12 36.3C12.03 36 11.78 35.77 11.47 35.71C10.85 35.57 10.23 35.37 9.62996 35.12C9.51996 35.07 9.40996 35.05 9.27996 35.05C9.08996 35.05 8.91996 35.1 8.75996 35.22L7.39996 36.25C7.32996 36.3 7.23996 36.33 7.14996 36.33C7.06996 36.33 6.99996 36.31 6.91996 36.27C6.58996 36.06 6.26996 35.82 5.96996 35.59C5.82996 35.48 5.77996 35.29 5.82996 35.12L6.39996 33.57C6.50996 33.27 6.44996 32.93 6.22996 32.7C5.79996 32.23 5.42996 31.72 5.09996 31.17C4.94996 30.92 4.64996 30.75 4.33996 30.75L2.60996 30.8C2.43996 30.8 2.27996 30.69 2.21996 30.53C2.07996 30.18 1.96996 29.82 1.86996 29.46C1.81996 29.29 1.88996 29.11 2.03996 29L3.43996 28.06C3.69996 27.89 3.84996 27.58 3.80996 27.27C3.77996 26.92 3.75996 26.62 3.75996 26.32C3.75996 26.01 3.77996 25.69 3.80996 25.37C3.83996 25.06 3.69996 24.75 3.43996 24.58L2.04996 23.63C1.89996 23.53 1.82996 23.34 1.87996 23.17C1.97996 22.82 2.09996 22.45 2.22996 22.1C2.28996 21.94 2.44996 21.84 2.61996 21.84L4.35996 21.89C4.70996 21.89 4.94996 21.75 5.11996 21.47C5.43996 20.94 5.81996 20.43 6.25996 19.94C6.46996 19.7 6.53996 19.38 6.42996 19.08L5.86996 17.53C5.80996 17.36 5.86996 17.17 6.00996 17.06C6.30996 16.82 6.63996 16.6 6.96996 16.38C7.03996 16.33 7.11996 16.32 7.19996 16.32C7.28996 16.32 7.37996 16.35 7.44996 16.4L8.80996 17.44C8.95996 17.55 9.14996 17.61 9.32996 17.61C9.44996 17.61 9.55996 17.58 9.65996 17.54C9.78996 17.49 9.91996 17.43 10.05 17.39C10.27 17.31 10.44 17.15 10.53 16.94C10.62 16.73 10.63 16.49 10.55 16.29C10.42 15.95 10.1 15.74 9.74996 15.74C9.69996 15.74 9.65996 15.74 9.60996 15.74H9.54996C9.45996 15.74 9.36996 15.71 9.29996 15.66L7.79996 14.52C7.64996 14.4 7.46996 14.35 7.27996 14.35C7.12996 14.35 6.99996 14.39 6.86996 14.46C5.89996 14.99 4.99996 15.62 4.18996 16.37C3.92996 16.61 3.83996 16.97 3.94996 17.3L4.55996 19C4.60996 19.14 4.58996 19.29 4.49996 19.4C4.33996 19.6 4.18996 19.81 4.04996 20.01C3.96996 20.12 3.83996 20.19 3.69996 20.19L1.83996 20.14C1.44996 20.14 1.17996 20.31 1.02996 20.63C0.559956 21.62 0.209956 22.66 -4.38336e-05 23.72C-0.0600438 24.06 0.0699562 24.4 0.359956 24.6L1.87996 25.63C1.99996 25.71 2.06996 25.85 2.05996 25.98V26.72C2.05996 26.87 1.99996 27 1.87996 27.08L0.349956 28.1C0.0599562 28.29 -0.0800438 28.64 -0.0100438 28.97C0.199956 30.03 0.539956 31.08 1.00996 32.07C1.15996 32.38 1.41996 32.57 1.69996 32.57H1.79996C1.79996 32.57 3.66996 32.52 3.67996 32.52C3.81996 32.52 3.93996 32.59 4.02996 32.7C4.16996 32.9 4.31996 33.11 4.47996 33.31C4.56996 33.43 4.59996 33.57 4.53996 33.71L3.91996 35.41C3.79996 35.74 3.88996 36.1 4.14996 36.34C4.95996 37.09 5.85996 37.73 6.81996 38.26C6.94996 38.33 7.08996 38.37 7.22996 38.37C7.40996 38.37 7.59996 38.31 7.74996 38.2L9.22996 37.08C9.29996 37.03 9.38996 37 9.47996 37C9.52996 37 9.56996 37 9.62996 37.03C9.87996 37.12 10.14 37.2 10.39 37.28C10.53 37.32 10.64 37.43 10.67 37.56L11.19 39.3C11.29 39.63 11.57 39.86 11.91 39.91C12.54 39.98 13.09 40 13.6 40.01V39.99L13.62 39.98Z" fill="#333333"/>
<path d="M13.62 32.33C16.34 32.33 18.71 30.49 19.39 27.87C19.44 27.65 19.42 27.42 19.3 27.22C19.18 27.02 19 26.88 18.77 26.83C18.7 26.81 18.62 26.8 18.55 26.8C18.17 26.8 17.82 27.06 17.73 27.45C17.25 29.32 15.56 30.63 13.62 30.63C11.28 30.63 9.38004 28.72 9.38004 26.39C9.38004 24.45 10.69 22.76 12.56 22.28C13.01 22.16 13.3 21.69 13.18 21.24C13.08 20.86 12.74 20.59 12.35 20.59C12.28 20.59 12.2 20.59 12.13 20.62C9.50004 21.3 7.67004 23.67 7.67004 26.39C7.67004 29.68 10.34 32.35 13.63 32.35L13.61 32.33H13.62Z" fill="#333333"/>
</g>
<defs>
<clipPath id="clip0_1_146">
<rect width="40" height="40" fill="white"/>
</clipPath>
</defs>
</svg>
