<svg width="41" height="40" viewBox="0 0 41 40" fill="none" xmlns="http://www.w3.org/2000/svg">
<g clip-path="url(#clip0_1_447)">
<path d="M0.810176 38.98C0.470176 38.98 1.36018 33.98 3.41018 33.98H9.92018C9.92018 33.98 11.4602 35.51 12.4602 36.75C13.4602 37.99 13.7902 36.75 13.7902 36.75C13.7902 36.75 14.3502 33.98 16.4002 33.98H24.4602C24.4602 33.98 26.2402 35.51 26.3502 36.75C26.4602 37.99 28.1802 36.75 28.1802 36.75L29.4602 33.98H37.4602C37.4602 33.98 39.5302 35.51 39.5002 36.75C39.4702 37.99 39.5002 38.98 39.5002 38.98H0.810176Z" fill="white"/>
<path d="M39.5103 0.98999H0.810303V19.82H39.5103V0.98999Z" fill="#96C5E2"/>
<path d="M33.7203 31.6C35.0789 31.6 36.1803 29.8673 36.1803 27.73C36.1803 25.5926 35.0789 23.86 33.7203 23.86C32.3616 23.86 31.2603 25.5926 31.2603 27.73C31.2603 29.8673 32.3616 31.6 33.7203 31.6Z" fill="#96C5E2"/>
<path d="M22.6302 27.73C22.6302 29.87 21.5302 31.6 20.1702 31.6C18.8102 31.6 17.7102 29.87 17.7102 27.73C17.7102 25.59 18.8102 23.86 20.1702 23.86C21.5302 23.86 22.6302 25.59 22.6302 27.73Z" fill="#96C5E2"/>
<path d="M6.76029 31.6C8.11891 31.6 9.22029 29.8673 9.22029 27.73C9.22029 25.5926 8.11891 23.86 6.76029 23.86C5.40167 23.86 4.30029 25.5926 4.30029 27.73C4.30029 29.8673 5.40167 31.6 6.76029 31.6Z" fill="#96C5E2"/>
<path d="M6.68017 32.2701C4.82017 32.2701 3.42017 30.0801 3.42017 27.1701C3.42017 23.4601 5.91017 23.1801 6.68017 23.1801C7.45017 23.1801 9.94017 23.4701 9.94017 27.1701C9.94017 30.0801 8.54017 32.2701 6.68017 32.2701ZM6.68017 24.5501C5.41017 24.5501 4.79017 25.4101 4.79017 27.1801C4.79017 29.1701 5.68017 30.9101 6.68017 30.9101C7.68017 30.9101 8.57017 29.1601 8.57017 27.1801C8.57017 25.4101 7.95017 24.5501 6.68017 24.5501Z" fill="#333333"/>
<path d="M20.2002 32.2701C18.3402 32.2701 16.9402 30.0801 16.9402 27.1701C16.9402 23.4601 19.4302 23.1801 20.2002 23.1801C20.9702 23.1801 23.4602 23.4701 23.4602 27.1701C23.4602 30.0801 22.0602 32.2701 20.2002 32.2701ZM20.2002 24.5501C18.9302 24.5501 18.3102 25.4101 18.3102 27.1801C18.3102 29.1701 19.2002 30.9101 20.2002 30.9101C21.2002 30.9101 22.0902 29.1601 22.0902 27.1801C22.0902 25.4101 21.4702 24.5501 20.2002 24.5501Z" fill="#333333"/>
<path d="M33.7202 32.2701C31.8602 32.2701 30.4602 30.0801 30.4602 27.1701C30.4602 23.4601 32.9502 23.1801 33.7202 23.1801C34.4902 23.1801 36.9802 23.4701 36.9802 27.1701C36.9802 30.0801 35.5802 32.2701 33.7202 32.2701ZM33.7202 24.5501C32.4502 24.5501 31.8302 25.4101 31.8302 27.1801C31.8302 29.1701 32.7202 30.9101 33.7202 30.9101C34.7202 30.9101 35.6102 29.1601 35.6102 27.1801C35.6102 25.4101 34.9902 24.5501 33.7202 24.5501Z" fill="#333333"/>
<path d="M0.880195 40C0.500195 40 0.200195 39.69 0.200195 39.32C0.200195 33.55 3.3202 33.49 3.4602 33.49C3.8402 33.49 4.1402 33.8 4.1402 34.17C4.1402 34.54 3.8602 34.83 3.4902 34.85C2.7202 34.97 1.8802 35.84 1.6302 37.96C1.6102 38.13 1.6602 38.3 1.7802 38.43C1.9002 38.56 2.0602 38.63 2.2302 38.63H11.1102C11.2802 38.63 11.4502 38.56 11.5602 38.43C11.6802 38.3 11.7302 38.13 11.7102 37.96C11.4702 35.82 10.6102 34.95 9.9002 34.85C9.4602 34.85 9.1702 34.55 9.1702 34.16C9.1702 33.77 9.50019 33.48 9.89019 33.48C9.96019 33.48 11.6502 33.51 12.5702 35.76C12.6602 35.99 12.8802 36.14 13.1202 36.14C13.3702 36.14 13.5902 36 13.6802 35.78C14.6702 33.51 16.5302 33.48 16.6102 33.48C16.9902 33.48 17.2902 33.79 17.2902 34.16C17.2902 34.53 17.0002 34.83 16.6302 34.84C15.7702 34.92 14.7902 35.78 14.5102 37.95C14.4902 38.12 14.5402 38.3 14.6602 38.43C14.7702 38.56 14.9402 38.64 15.1202 38.64H25.2702C25.4402 38.64 25.6102 38.56 25.7302 38.43C25.8402 38.3 25.9002 38.13 25.8802 37.95C25.6002 35.77 24.6102 34.92 23.7802 34.85C23.4002 34.82 23.1102 34.5 23.1302 34.14C23.1502 33.77 23.4302 33.49 23.7802 33.49C23.8602 33.49 25.7202 33.52 26.7102 35.79C26.8102 36.01 27.0202 36.15 27.2702 36.15C27.5202 36.15 27.7402 36 27.8302 35.77C28.7502 33.51 30.4402 33.49 30.5102 33.49C30.8902 33.49 31.1902 33.8 31.1902 34.17C31.1902 34.54 30.9102 34.83 30.5402 34.85C29.7702 34.97 28.9302 35.84 28.6802 37.96C28.6602 38.13 28.7202 38.3 28.8302 38.43C28.9502 38.56 29.1102 38.63 29.2802 38.63H38.1602C38.3302 38.63 38.5002 38.56 38.6102 38.43C38.7302 38.3 38.7802 38.13 38.7602 37.96C38.5102 35.81 37.6602 34.95 36.9502 34.85C36.5102 34.85 36.2202 34.55 36.2202 34.16C36.2202 33.77 36.5502 33.48 36.9402 33.48C37.0702 33.48 40.2002 33.55 40.2002 39.31C40.2002 39.69 39.8902 39.99 39.5202 39.99H0.880195V40Z" fill="#333333"/>
<path d="M0.880195 20.68C0.500195 20.68 0.200195 20.37 0.200195 20V0.68C0.200195 0.3 0.510195 0 0.880195 0H39.5102C39.8902 0 40.1902 0.31 40.1902 0.68V20C40.1902 20.38 39.8802 20.68 39.5102 20.68H0.880195ZM2.1702 1.36C1.8402 1.36 1.5602 1.63 1.5602 1.97V18.71C1.5602 19.04 1.8302 19.32 2.1702 19.32H38.2202C38.5502 19.32 38.8302 19.05 38.8302 18.71V1.97C38.8302 1.64 38.5602 1.36 38.2202 1.36H2.1702Z" fill="#333333"/>
<path d="M6.03023 15.53C5.87023 15.53 5.73023 15.48 5.60023 15.38C5.46023 15.27 5.37023 15.1 5.35023 14.92C5.33023 14.74 5.38023 14.56 5.50023 14.42L9.92023 8.91997C10.0502 8.75997 10.2402 8.65997 10.4502 8.65997C10.5802 8.65997 10.7002 8.69997 10.8102 8.75997L15.3602 11.59C15.4602 11.65 15.5702 11.68 15.6802 11.68C15.8602 11.68 16.0402 11.6 16.1502 11.45L19.8502 6.84997C19.9802 6.68997 20.1702 6.58997 20.3802 6.58997C20.5102 6.58997 20.6302 6.62997 20.7402 6.68997L24.1902 8.82997C24.2902 8.88997 24.4002 8.91997 24.5102 8.91997C24.6902 8.91997 24.8702 8.83997 24.9802 8.68997L28.6802 4.08997C28.8102 3.92997 29.0002 3.83997 29.2102 3.83997C29.3702 3.83997 29.5102 3.88997 29.6402 3.98997C29.7802 4.09997 29.8702 4.26997 29.8902 4.44997C29.9102 4.62997 29.8602 4.80997 29.7402 4.94997L25.3202 10.44C25.1902 10.6 25.0002 10.7 24.7902 10.7C24.6602 10.7 24.5402 10.66 24.4302 10.6L20.9802 8.45997C20.8802 8.39997 20.7702 8.36997 20.6602 8.36997C20.4802 8.36997 20.3002 8.44997 20.1902 8.59997L16.4902 13.21C16.3602 13.37 16.1702 13.46 15.9602 13.46C15.8302 13.46 15.7102 13.43 15.6002 13.36L11.0502 10.53C10.9502 10.47 10.8402 10.44 10.7302 10.44C10.5502 10.44 10.3702 10.52 10.2602 10.67L6.56023 15.27C6.43023 15.43 6.24023 15.52 6.03023 15.52V15.53Z" fill="#333333"/>
<path d="M22.7801 15.53C22.4001 15.53 22.1001 15.22 22.1001 14.85C22.1001 14.48 22.4101 14.17 22.7801 14.17H34.3601C34.7401 14.17 35.0401 14.48 35.0401 14.85C35.0401 15.22 34.7301 15.53 34.3601 15.53H22.7801Z" fill="#333333"/>
<path d="M29.2203 11.6701C28.8403 11.6701 28.5403 11.3601 28.5403 10.9901C28.5403 10.6201 28.8503 10.3101 29.2203 10.3101H34.3603C34.7403 10.3101 35.0403 10.6201 35.0403 10.9901C35.0403 11.3601 34.7303 11.6701 34.3603 11.6701H29.2203Z" fill="#333333"/>
</g>
<defs>
<clipPath id="clip0_1_447">
<rect width="40" height="40" fill="white" transform="translate(0.200195)"/>
</clipPath>
</defs>
</svg>
