<svg width="41" height="40" viewBox="0 0 41 40" fill="none" xmlns="http://www.w3.org/2000/svg">
<g clip-path="url(#clip0_1_311)">
<path d="M20.5298 36.74C26.9916 36.74 32.2298 31.5017 32.2298 25.04C32.2298 18.5782 26.9916 13.34 20.5298 13.34C14.0681 13.34 8.82983 18.5782 8.82983 25.04C8.82983 31.5017 14.0681 36.74 20.5298 36.74Z" fill="white"/>
<path d="M4.50985 10.87H10.4499C12.0599 10.87 13.3599 12.17 13.3599 13.78V16.02H1.59985V13.78C1.59985 12.17 2.89985 10.87 4.50985 10.87Z" fill="white"/>
<path d="M39.1699 16.14V13.63C39.1699 12.17 37.9899 10.98 36.5199 10.98H30.0599C28.5999 10.98 27.4099 12.16 27.4099 13.63V16.14" fill="white"/>
<path d="M10.2898 30.74L5.81976 35.21C5.81976 35.21 2.99976 40.07 8.92976 38.66L13.3598 34.23L10.2898 30.74Z" fill="#96C5E2"/>
<path d="M35.6297 4.48004C35.6297 6.52004 34.5797 8.17004 33.2797 8.17004C31.9797 8.17004 30.9297 6.52004 30.9297 4.48004C30.9297 2.44004 31.9797 0.790039 33.2797 0.790039C34.5797 0.790039 35.6297 2.44004 35.6297 4.48004Z" fill="#96C5E2"/>
<path d="M9.7398 4.48004C9.7398 6.52004 8.68979 8.17004 7.38979 8.17004C6.08979 8.17004 5.03979 6.52004 5.03979 4.48004C5.03979 2.44004 6.09979 0.790039 7.38979 0.790039C8.67979 0.790039 9.7398 2.44004 9.7398 4.48004Z" fill="#96C5E2"/>
<path d="M22.6197 21.28C22.6197 23.21 21.6297 24.77 20.3997 24.77C19.1697 24.77 18.1797 23.21 18.1797 21.28C18.1797 19.35 19.1697 17.79 20.3997 17.79C21.6297 17.79 22.6197 19.35 22.6197 21.28Z" fill="#96C5E2"/>
<path d="M7.52001 9.09C5.66001 9.09 4.26001 6.9 4.26001 3.99C4.26001 0.29 6.76001 0 7.52001 0C8.28001 0 10.78 0.29 10.78 3.99C10.78 6.9 9.38001 9.09 7.52001 9.09ZM7.52001 1.36C6.25001 1.36 5.63001 2.22 5.63001 3.99C5.63001 5.98 6.52001 7.73 7.52001 7.73C8.52001 7.73 9.41001 5.98 9.41001 3.99C9.41001 2.22 8.79001 1.36 7.52001 1.36Z" fill="#333333"/>
<path d="M1.0799 16.8201C0.699902 16.8201 0.399902 16.5101 0.399902 16.1401C0.399902 10.3701 3.7999 10.3101 3.9399 10.3101C4.2899 10.3101 4.5699 10.5901 4.5899 10.9601C4.6099 11.3201 4.3099 11.6401 3.9399 11.6701C3.1099 11.7401 2.1299 12.6001 1.8499 14.7701C1.8299 14.9401 1.8799 15.1201 1.9999 15.2501C2.1199 15.3801 2.2799 15.4601 2.4599 15.4601H8.8199C9.1999 15.4601 9.4999 15.7701 9.4999 16.1401C9.4999 16.5101 9.1899 16.8201 8.8199 16.8201H1.0799Z" fill="#333333"/>
<path d="M12.9999 12.9401C12.7699 12.9401 12.5499 12.8201 12.4299 12.6301C11.9099 11.8401 11.2799 11.7001 11.0899 11.6801C10.6699 11.6601 10.3799 11.3601 10.3799 10.9901C10.3799 10.6201 10.6899 10.3101 11.0599 10.3101C11.2099 10.3101 12.5699 10.3501 13.5599 11.8801C13.6599 12.0301 13.6899 12.2101 13.6599 12.3901C13.6199 12.5701 13.5199 12.7201 13.3699 12.8201C13.2599 12.8901 13.1299 12.9301 12.9999 12.9301V12.9401Z" fill="#333333"/>
<path d="M33.28 9.09C31.42 9.09 30.02 6.9 30.02 3.99C30.02 0.29 32.51 0 33.28 0C34.05 0 36.54 0.29 36.54 3.99C36.54 6.9 35.14 9.09 33.28 9.09ZM33.28 1.36C32.01 1.36 31.39 2.22 31.39 3.99C31.39 5.98 32.28 7.73 33.28 7.73C34.28 7.73 35.17 5.98 35.17 3.99C35.17 2.22 34.55 1.36 33.28 1.36Z" fill="#333333"/>
<path d="M31.9898 16.8201C31.6098 16.8201 31.3098 16.5101 31.3098 16.1401C31.3098 15.7701 31.6198 15.4601 31.9898 15.4601H38.3498C38.5198 15.4601 38.6898 15.3801 38.8098 15.2501C38.9198 15.1201 38.9798 14.9501 38.9598 14.7701C38.6798 12.6001 37.6998 11.7501 36.8798 11.6701C36.4698 11.6601 36.1798 11.3601 36.1798 10.9901C36.1798 10.6201 36.4898 10.3101 36.8598 10.3101C36.9998 10.3101 40.3998 10.3801 40.3998 16.1401C40.3998 16.5201 40.0898 16.8201 39.7198 16.8201H31.9898Z" fill="#333333"/>
<path d="M27.7998 12.9399C27.6698 12.9399 27.5398 12.8999 27.4298 12.8299C27.2798 12.7299 27.1698 12.5799 27.1398 12.3999C27.0998 12.2199 27.1398 12.0399 27.2398 11.8899C28.2298 10.3699 29.5898 10.3199 29.7398 10.3199C30.0898 10.3199 30.3698 10.5999 30.3898 10.9699C30.4098 11.3299 30.1198 11.6499 29.7398 11.6799C29.6098 11.6799 28.9298 11.7799 28.3798 12.6299C28.2498 12.8199 28.0398 12.9399 27.8098 12.9399H27.7998Z" fill="#333333"/>
<path d="M7.29989 40C6.48989 40 5.72989 39.68 5.14989 39.11C3.96989 37.92 3.96989 36 5.14989 34.82L9.09989 30.87C9.27989 30.69 9.32989 30.42 9.21989 30.19C8.48989 28.58 8.11989 26.89 8.11989 25.15C8.11989 18.38 13.6299 12.88 20.3899 12.88C27.1499 12.88 32.6599 18.39 32.6599 25.15C32.6599 31.91 27.1499 37.42 20.3899 37.42C18.0399 37.42 15.7499 36.74 13.7599 35.46C13.6599 35.4 13.5499 35.36 13.4299 35.36C13.2699 35.36 13.1199 35.42 12.9999 35.54L9.42989 39.11C8.85989 39.68 8.09989 40 7.27989 40H7.29989ZM10.0199 32.13C9.85989 32.13 9.70989 32.19 9.58989 32.31L6.11989 35.78C5.46989 36.43 5.46989 37.49 6.11989 38.15C6.42989 38.47 6.85989 38.64 7.29989 38.64C7.73989 38.64 8.16989 38.47 8.47989 38.15L11.8399 34.79C11.9499 34.68 12.0199 34.52 12.0199 34.36C12.0199 34.2 11.9499 34.04 11.8399 33.93C11.3799 33.48 10.9299 32.96 10.5099 32.39C10.4099 32.25 10.2399 32.16 10.0699 32.14C10.0699 32.14 10.0299 32.14 10.0199 32.14V32.13ZM20.3999 14.24C14.3799 14.24 9.48989 19.13 9.48989 25.15C9.48989 31.17 14.3799 36.06 20.3999 36.06C26.4199 36.06 31.3099 31.17 31.3099 25.15C31.3099 19.13 26.4199 14.24 20.3999 14.24Z" fill="#333333"/>
<path d="M20.3999 25.83C18.5399 25.83 17.1399 23.64 17.1399 20.73C17.1399 17.03 19.6299 16.74 20.3999 16.74C21.1699 16.74 23.6599 17.03 23.6599 20.73C23.6599 23.64 22.2599 25.83 20.3999 25.83ZM20.3999 18.11C19.1299 18.11 18.5099 18.97 18.5099 20.74C18.5099 22.73 19.3999 24.48 20.3999 24.48C21.3999 24.48 22.2899 22.73 22.2899 20.74C22.2899 18.97 21.6699 18.11 20.3999 18.11Z" fill="#333333"/>
<path d="M15.2498 32.27C14.8698 32.27 14.5698 31.96 14.5698 31.59C14.5698 27.99 16.6998 27.04 17.8298 27.04C18.1898 27.04 18.4798 27.33 18.4898 27.7C18.4998 28.06 18.2098 28.38 17.8298 28.4C17.6098 28.41 16.5198 28.56 16.0998 30.14C16.0498 30.32 16.0998 30.52 16.2098 30.67C16.3198 30.82 16.4998 30.91 16.6898 30.91H24.1298C24.3198 30.91 24.4998 30.82 24.6098 30.67C24.7198 30.52 24.7598 30.33 24.7198 30.14C24.2998 28.56 23.1998 28.42 22.9798 28.4C22.6098 28.39 22.3098 28.08 22.3098 27.72C22.3098 27.36 22.6198 27.04 22.9898 27.04C24.1198 27.04 26.2498 27.99 26.2498 31.59C26.2498 31.97 25.9398 32.27 25.5698 32.27H15.2698H15.2498Z" fill="#333333"/>
</g>
<defs>
<clipPath id="clip0_1_311">
<rect width="40" height="40" fill="white" transform="translate(0.399902)"/>
</clipPath>
</defs>
</svg>
