<?xml version="1.0" encoding="utf-8"?>
<!-- Generator: Adobe Illustrator 27.9.0, SVG Export Plug-In . SVG Version: 6.00 Build 0)  -->
<svg version="1.1" id="Layer_1" xmlns="http://www.w3.org/2000/svg" xmlns:xlink="http://www.w3.org/1999/xlink" x="0px" y="0px"
	 viewBox="0 0 40 40" style="enable-background:new 0 0 40 40;" xml:space="preserve">
<style type="text/css">
	.st0{fill:#FFFFFF;}
	.st1{fill:#FFFFFF;stroke:#333333;stroke-width:1.2;stroke-linecap:round;stroke-linejoin:round;stroke-miterlimit:10;}
	.st2{fill:none;stroke:#333333;stroke-width:1.2;stroke-linecap:round;stroke-linejoin:round;stroke-miterlimit:10;}
	.st3{fill:#96C5E2;stroke:#333333;stroke-width:1.2;stroke-linecap:round;stroke-linejoin:round;stroke-miterlimit:10;}
	.st4{fill:none;stroke:#333333;stroke-width:1.2;stroke-linejoin:round;stroke-miterlimit:10;}
</style>
<path class="st0" d="M31.9,35.4H3V15.6c0-1.1,0.9-2,2-2h24.9c1.1,0,2,0.9,2,2V35.4z"/>
<path class="st1" d="M31.1,39.4c1.3,0,2.4-0.7,2.9-1.8l0,0c0.3-0.6,0.4-1.3,0.4-2v-1H21.9l-1.8,0.5c-1.7,0.4-3.5,0.4-5.2,0l-1.8-0.5
	H0.6v1c0,0.7,0.2,1.4,0.4,2l0,0c0.5,1.1,1.6,1.8,2.9,1.8H31.1z"/>
<path class="st2" d="M31.9,25.6v7.5c0,0.8-0.7,1.5-1.5,1.5"/>
<path class="st2" d="M4.5,34.6c-0.8,0-1.5-0.7-1.5-1.5V15.3c0-0.9,0.8-1.7,1.7-1.7h6.4"/>
<path class="st3" d="M26.6,4.9c-5.9-2.2-8.2-2.6-13.5-0.8v22c4.8-2.2,7.5-1.4,13.5,0.8c0,0,4.8-5.6,12.8-5.3v-21
	C29.3,0,26.6,4.9,26.6,4.9z"/>
<line class="st4" x1="26.9" y1="4.4" x2="26.9" y2="26.3"/>
<path class="st2" d="M16.2,8.5c0,0,2.6-1.3,7.5,0.9"/>
<path class="st2" d="M16.2,12.3c0,0,2.6-1.3,7.5,0.9"/>
<path class="st2" d="M16.2,16c0,0,2.6-1.3,7.5,0.9"/>
</svg>
