<?xml version="1.0" encoding="UTF-8"?><svg id="Layer" xmlns="http://www.w3.org/2000/svg" viewBox="0 0 2033.63 2160"><defs><style>.cls-1{stroke-linecap:round;stroke-linejoin:round;stroke-width:100px;}.cls-1,.cls-2,.cls-3{fill:none;stroke:#231f20;}.cls-2{stroke-width:160px;}.cls-2,.cls-3{stroke-linecap:square;stroke-miterlimit:10;}.cls-3{stroke-width:140px;}</style></defs><path class="cls-2" d="M1778.37,667.17l116.71-186.3-215.96-215.96-184.02,115.29c-65.88-39.59-137.79-70.12-214.06-89.71l-48.34-210.49h-305.41l-48.34,210.49c-76.27,19.6-148.18,50.13-214.05,89.72l-184.03-115.3-215.96,215.96,116.72,186.3c-37.98,65.02-67.21,135.71-85.91,210.58l-215.72,49.54v305.41l219.31,50.36c19.44,72.34,48.65,140.7,86.19,203.58l-120.59,192.48,215.96,215.96,194.75-122.01c62.03,36,129.17,64.13,200.17,82.68l51.5,224.24h305.41l51.5-224.24c71.01-18.55,138.14-46.68,200.17-82.68l194.75,122.01,215.96-215.96-120.58-192.47"/><path class="cls-3" d="M1963.63,942.36h-485.73c-28.06,0-54.24-14.9-67.86-39.44-61.57-110.94-179.85-186.04-315.72-186.04-151.42,0-280.98,93.28-334.57,225.48h282.48c28.77,0,52.09,23.32,52.09,52.09v166.78c0,28.77-23.32,52.09-52.09,52.09h-282.48c53.59,132.2,183.15,225.48,334.57,225.48,135.87,0,254.14-75.11,315.72-186.04,13.62-24.54,39.8-39.44,67.86-39.44h485.73"/><path class="cls-1" d="M498.71,1101.27h0c0-332.05,269.18-601.23,601.23-601.23h0"/><path class="cls-1" d="M1514.03,1466.49c-109.88,119.45-267.49,194.29-442.59,194.29h0"/></svg>