<?xml version="1.0" encoding="UTF-8"?><svg id="Isolation_Mode" xmlns="http://www.w3.org/2000/svg" viewBox="0 0 28.35 28.35"><defs><style>.cls-1{fill:#231f20;stroke-width:0px;}</style></defs><path class="cls-1" d="M14.17,0c3.91,0,7.46,1.59,10.02,4.15,2.56,2.56,4.15,6.11,4.15,10.02s-1.59,7.46-4.15,10.02c-2.56,2.56-6.11,4.15-10.02,4.15s-7.46-1.59-10.02-4.15C1.59,21.63,0,18.09,0,14.17S1.59,6.72,4.15,4.15C6.72,1.59,10.26,0,14.17,0h0ZM23.56,7.81l-2.04,1.36.88,2.65,3.07,1.44c-.16-2.01-.84-3.87-1.91-5.45h0ZM25.31,16.3l-4.65-2.18-.55-.26-.19-.58-1.42-4.25-.34-1.03.9-.6,2.62-1.74c-1.66-1.47-3.76-2.46-6.08-2.75v3.75l-.95.34-4.09,1.45-1.75,1.75.57,1.13h2.55l.42.42,1,1h3.67v5.12l-.79.39-2.41,1.21-1.21,2.41-.88,1.76-1.39-1.39-7.49-7.49c.15,2.89,1.39,5.5,3.3,7.41,2.05,2.05,4.89,3.32,8.02,3.32s5.97-1.27,8.02-3.32c1.57-1.57,2.69-3.61,3.12-5.89h0ZM3.24,11.16l7.71,7.71.54-1.08.21-.42.42-.21,2.05-1.02v-.55h-2l-.42-.42-1-1h-3.12l-.39-.79-1.42-2.83-.46-.92.72-.72,2.69-2.69.22-.22.31-.11,3.45-1.23v-1.75c-2.56.32-4.86,1.5-6.6,3.23-1.37,1.37-2.39,3.08-2.92,5h0Z"/></svg>