<?xml version="1.0" encoding="UTF-8"?><svg id="Isolation_Mode" xmlns="http://www.w3.org/2000/svg" viewBox="0 0 257.62 257.62"><defs><style>.cls-1{fill:none;stroke:#231f20;stroke-linecap:round;stroke-linejoin:round;stroke-width:18px;}</style></defs><circle class="cls-1" cx="128.81" cy="128.81" r="119.81"/><ellipse class="cls-1" cx="128.81" cy="128.81" rx="65.27" ry="119.81"/><line class="cls-1" x1="9" y1="128.81" x2="248.62" y2="128.81"/><path class="cls-1" d="M128.81,183.35c-36.59,0-69.34,8.94-91.31,23.02,21.98,25.85,54.73,42.25,91.31,42.25s69.34-16.4,91.31-42.25c-21.98-14.08-54.73-23.02-91.31-23.02Z"/><path class="cls-1" d="M128.81,74.27c36.59,0,69.34-8.94,91.31-23.02-21.98-25.85-54.73-42.25-91.31-42.25S59.48,25.4,37.5,51.25c21.98,14.08,54.73,23.02,91.31,23.02Z"/><line class="cls-1" x1="128.81" y1="248.62" x2="128.81" y2="9"/></svg>