<?xml version="1.0" encoding="UTF-8"?><svg id="Isolation_Mode" xmlns="http://www.w3.org/2000/svg" viewBox="0 0 28.26 11.68"><defs><style>.cls-1{fill:#231f20;stroke-width:0px;}</style></defs><polygon class="cls-1" points="0 11.35 0 .27 3.64 .27 3.64 11.35 0 11.35 0 11.35"/><path class="cls-1" d="M15.13,3.5h-3.45c-.09-.32-.24-.56-.46-.72-.23-.16-.55-.25-.97-.25s-.73.09-.95.25c-.16.13-.24.3-.24.5,0,.17.06.31.18.42.18.15.58.31,1.23.46l1.42.35c1.3.32,2.22.76,2.75,1.34.53.58.79,1.25.79,2.02,0,.61-.14,1.16-.41,1.67-.27.5-.61.9-1,1.19-.4.29-.91.52-1.54.69-.63.17-1.29.26-1.99.26-.76,0-1.48-.1-2.16-.3-.67-.2-1.22-.48-1.66-.86-.43-.37-.76-.8-.99-1.29-.16-.35-.27-.77-.33-1.29h3.49c.08.35.26.62.53.81.27.19.69.29,1.25.29.49,0,.84-.09,1.05-.25.16-.12.24-.29.24-.51s-.07-.41-.21-.54c-.15-.14-.55-.28-1.2-.44l-1.27-.31c-.66-.16-1.28-.38-1.86-.66-.58-.28-1.01-.65-1.31-1.08-.3-.45-.44-.98-.44-1.61s.13-1.18.39-1.66c.27-.48.62-.87,1.06-1.17.45-.3.94-.5,1.49-.63.55-.12,1.11-.19,1.69-.19.69,0,1.33.07,1.9.21.58.14,1.03.33,1.37.55.34.23.62.49.83.78.21.29.38.59.5.89.12.3.21.66.28,1.07h0Z"/><path class="cls-1" d="M20.94,8.26c-.48-.59-.71-1.4-.71-2.44,0-.69.1-1.27.31-1.74.2-.47.48-.82.83-1.04.35-.22.73-.33,1.12-.33.35,0,.67.08.96.24.28.17.51.37.67.61.17.24.3.55.41.94.1.39.15.83.15,1.33,0,.69-.1,1.28-.31,1.76-.2.48-.47.83-.82,1.03-.34.21-.72.31-1.13.31-.62,0-1.12-.22-1.49-.67h0ZM25.66,10.84c.88-.55,1.53-1.27,1.95-2.15.43-.88.64-1.88.64-2.99s-.25-2.14-.73-3.01c-.49-.87-1.19-1.54-2.11-2-.92-.46-1.93-.69-3.02-.69-.58,0-1.13.07-1.65.2-.53.13-1.01.33-1.46.57-.45.25-.88.6-1.3,1.06-.42.46-.75,1.03-.99,1.7-.24.67-.36,1.43-.36,2.28,0,1.77.53,3.18,1.59,4.25,1.06,1.07,2.47,1.6,4.24,1.6,1.26,0,2.32-.27,3.2-.82h0Z"/></svg>