<?xml version="1.0" encoding="UTF-8"?><svg id="Layer_1" xmlns="http://www.w3.org/2000/svg" viewBox="0 0 307.6 307.6"><defs><style>.cls-1{fill:#231f20;stroke-width:0px;}</style></defs><path class="cls-1" d="M144.81,307.6c-.19-.07-.38-.2-.57-.21-12.16-.68-24.04-2.9-35.68-6.47-8.56-2.62-16.82-5.97-24.78-10.07-10.88-5.6-20.98-12.36-30.21-20.4-2.48-2.16-4.88-4.42-7.31-6.64-.35-.32-.72-.62-1.14-.99.31-.38.5-.65.73-.88,4.6-4.61,9.22-9.2,13.8-13.82.91-.91,1.7-1.94,2.61-2.99.19.14.47.31.72.52,18.4,15.26,39.21,25.79,62.35,31.72,10.42,2.67,21.02,4.05,31.79,4.24,13.17.24,25.94-1.93,38.28-6.45,29.28-10.73,51.75-29.73,67.73-56.42,8.36-13.96,13.68-29.07,16.39-45.11,1.37-8.06,2.05-16.19,1.98-24.36-.24-29.05-9.72-54.73-28.64-76.74-19.08-22.2-42.99-36.86-71.29-44.31-10.53-2.77-21.26-3.74-32.13-2.94-24.57,1.8-47.25,9.18-67.66,23.1-19.43,13.25-33.67,30.86-43.28,52.26-4.98,11.09-8.44,22.66-10.69,34.6-1.1,5.8-2.08,11.62-2.42,17.52-.39,6.63-.46,13.27.38,19.89.96,7.63,4.17,14.19,9.46,19.71.96,1.01,2.29,1.71,3.54,2.39,3.66,1.99,7.56,3.18,11.73,3.51,9.18.73,17.07-2.15,23.65-8.54,5.38-5.23,8.29-11.66,8.93-19.12.04-.52.04-1.04.04-1.56,0-27.52,0-55.04,0-82.56v-1.64c1.03-.3,26.17-.36,27.81-.09.02.4.05.83.05,1.25,0,27.78.04,55.56-.02,83.34-.02,7.59-1.75,14.84-4.91,21.76-3.01,6.6-7.16,12.38-12.45,17.31-7.71,7.17-16.74,11.79-27.1,13.77-4.1.78-8.24,1.15-12.4.96-6.85-.31-13.47-1.74-19.77-4.49-5.57-2.43-10.64-5.66-15.11-9.77-6.43-5.9-11.24-12.93-14.34-21.1-1.53-4.03-2.5-8.19-3.12-12.45-.59-4.03-1.09-8.05-1.31-12.12-.06-1.1-.3-2.2-.46-3.3,0-4.17,0-8.33,0-12.5.16-1.1.41-2.19.46-3.29.25-4.93.83-9.82,1.6-14.69,1.19-7.58,2.95-15.03,5.29-22.34,2.76-8.64,6.25-16.98,10.5-25.01,3.7-6.98,7.88-13.66,12.61-19.99,5.82-7.8,12.28-15.01,19.47-21.58,5.54-5.07,11.39-9.73,17.6-13.96,7.72-5.26,15.85-9.78,24.4-13.54,6.67-2.93,13.51-5.38,20.53-7.34,6.18-1.73,12.43-3.11,18.78-3.99,4.32-.6,8.68-.93,13.02-1.38,1.06-.11,2.12-.2,3.18-.31,4.34,0,8.68,0,13.02,0,.25.06.49.17.74.19,3.4.28,6.81.49,10.21.82,6.34.61,12.6,1.76,18.78,3.26,12.39,3.01,24.24,7.45,35.53,13.42,7.8,4.12,15.19,8.87,22.18,14.25,7.23,5.56,13.92,11.72,20.04,18.47,4.54,5.01,8.75,10.3,12.6,15.87,5.44,7.86,10.13,16.15,14.03,24.88,4.86,10.88,8.42,22.18,10.61,33.89,1.16,6.21,2.11,12.46,2.24,18.79,0,.24.12.48.19.72v18.49c-.09,1.11-.15,2.22-.27,3.32-.49,4.21-.91,8.42-1.53,12.61-1.08,7.34-2.89,14.52-5.13,21.58-2.76,8.69-6.27,17.07-10.54,25.14-4.85,9.14-10.54,17.72-17.11,25.72-4.76,5.81-9.9,11.25-15.47,16.3-4.76,4.31-9.75,8.33-15,12.02-7.61,5.35-15.62,10.01-24.07,13.9-9.63,4.44-19.61,7.86-29.95,10.21-8.16,1.85-16.4,3.11-24.76,3.54-.24.01-.48.14-.72.21h-18.23Z"/><path class="cls-1" d="M249.41,84.61v24.67c-.46.02-.92.07-1.37.07-4.04,0-8.07.02-12.11,0-4.18-.03-7.84,1.34-10.9,4.17-2.63,2.44-4.18,5.5-4.69,9.06-.57,4.05.38,7.75,2.77,11.04.84,1.15,1.87,2.17,2.91,3.14,3.29,3.08,6.62,6.11,9.93,9.18,2.79,2.59,5.55,5.23,8.35,7.82,3.72,3.42,6.64,7.41,8.83,11.94,2.02,4.17,3.23,8.56,3.73,13.18.53,4.93.17,9.78-1.11,14.55-1.78,6.66-5.06,12.49-9.87,17.46-4.71,4.87-10.27,8.35-16.72,10.4-2.94.94-5.94,1.61-9.03,1.7-3.55.11-7.11.16-10.66.18-5.17.03-10.33,0-15.5,0h-1.48v-24.74c.47,0,.93,0,1.38,0,6.21,0,12.41.04,18.62-.01,4.13-.04,7.82-1.42,10.93-4.17,4.41-3.9,6.29-8.83,5.7-14.65-.38-3.69-1.85-6.96-4.52-9.57-3.1-3.02-6.32-5.93-9.49-8.89-2.03-1.89-4.06-3.77-6.08-5.67-1.83-1.72-3.68-3.43-5.46-5.2-5.71-5.67-9.28-12.49-10.62-20.42-1.68-9.99.07-19.36,5.69-27.83,6.24-9.4,14.99-15.09,26.18-16.88,2-.32,4.04-.48,6.07-.5,5.64-.07,11.29-.02,16.93-.02.47,0,.95,0,1.56,0Z"/><path class="cls-1" d="M138.59,84.68h30.84v138.27c-.95.27-29.38.32-30.84.05V84.68Z"/></svg>