<?xml version="1.0" encoding="UTF-8"?><svg id="Layer" xmlns="http://www.w3.org/2000/svg" viewBox="0 0 2160 1386.85"><defs><style>.cls-1{fill:none;stroke:#231f20;stroke-linecap:round;stroke-linejoin:round;stroke-width:160px;}</style></defs><path class="cls-1" d="M687.97,1306.85v-600.94c0-54.74,44.37-99.11,99.11-99.11h585.86c54.74,0,99.11,44.37,99.11,99.11v600.94"/><line class="cls-1" x1="895.64" y1="1306.85" x2="895.64" y2="920.41"/><line class="cls-1" x1="1264.36" y1="1306.85" x2="1264.36" y2="920.41"/><circle class="cls-1" cx="1080" cy="216.27" r="136.27" transform="translate(163.4 827.02) rotate(-45)"/><path class="cls-1" d="M489.59,691.32H179.11c-54.74,0-99.11,44.37-99.11,99.11v431.91"/><line class="cls-1" x1="287.67" y1="1222.34" x2="287.67" y2="1004.92"/><circle class="cls-1" cx="472.03" cy="300.79" r="136.27" transform="translate(-74.43 421.88) rotate(-45)"/><path class="cls-1" d="M1670.41,691.32h310.48c54.74,0,99.11,44.37,99.11,99.11v431.91"/><line class="cls-1" x1="1872.33" y1="1222.34" x2="1872.33" y2="1004.92"/><circle class="cls-1" cx="1687.97" cy="300.79" r="136.27" transform="translate(281.7 1281.67) rotate(-45)"/></svg>