<?xml version="1.0" encoding="UTF-8"?><svg id="Layer" xmlns="http://www.w3.org/2000/svg" viewBox="0 0 388.54 388.47"><defs><style>.cls-1{fill:none;stroke:#231f20;stroke-linecap:round;stroke-linejoin:round;stroke-width:30px;}</style></defs><path class="cls-1" d="M267.91,165.45c7.88,14.91,12.34,31.91,12.34,49.95,0,59.16-47.96,107.12-107.12,107.12s-107.12-47.96-107.12-107.12,47.96-107.12,107.12-107.12c18.04,0,35.04,4.46,49.95,12.34"/><path class="cls-1" d="M230.45,202.91c.87,4.03,1.33,8.21,1.33,12.5,0,32.4-26.26,58.66-58.66,58.66s-58.66-26.26-58.66-58.66,26.26-58.66,58.66-58.66c4.29,0,8.47.46,12.5,1.33"/><path class="cls-1" d="M305.07,128.29c16.51,24.97,26.12,54.9,26.12,87.08,0,87.31-70.78,158.1-158.1,158.1S15,302.69,15,215.38,85.78,57.28,173.1,57.28c32.21,0,62.17,9.63,87.16,26.17"/><line class="cls-1" x1="173.13" y1="215.41" x2="308.81" y2="79.72"/><polygon class="cls-1" points="334 15 287.38 61.63 296.44 92.1 326.91 101.16 373.54 54.53 343.07 45.47 334 15"/></svg>