<?xml version="1.0" encoding="UTF-8"?><svg id="Layer" xmlns="http://www.w3.org/2000/svg" viewBox="0 0 411.81 331.63"><defs><style>.cls-1{stroke-width:30px;}.cls-1,.cls-2{fill:none;stroke:#231f20;stroke-linecap:round;stroke-linejoin:round;}.cls-2{stroke-width:24px;}</style></defs><path class="cls-1" d="M15,170.81c0-44.91,36.41-81.31,81.31-81.31s81.31,36.41,81.31,81.31c0,.76-.01,1.51-.03,2.27-1.39,85.79-81.28,141.42-81.28,141.42,0,0-79.89-55.63-81.28-141.42-.02-.75-.03-1.51-.03-2.26Z"/><circle class="cls-1" cx="96.31" cy="171.55" r="39.61" transform="translate(-13.82 8.53) rotate(-4.73)"/><path class="cls-2" d="M287.77,68.02c0-30.94,25.08-56.02,56.02-56.02s56.02,25.08,56.02,56.02c0,.52,0,1.04-.02,1.56-.96,59.1-55.99,97.42-55.99,97.42,0,0-55.03-38.32-55.99-97.42-.01-.52-.02-1.04-.02-1.56Z"/><circle class="cls-2" cx="343.79" cy="68.52" r="27.29" transform="translate(-4.48 28.59) rotate(-4.73)"/><path class="cls-2" d="M147.7,319.63h189.71c24.29,0,43.97-19.69,43.97-43.97h0c0-24.29-19.69-43.97-43.97-43.97h-81.25c-20.59,0-37.28-16.69-37.28-37.28h0c0-20.59,16.69-37.28,37.28-37.28h29.21"/></svg>