<?xml version="1.0" encoding="UTF-8"?><svg id="Isolation_Mode" xmlns="http://www.w3.org/2000/svg" viewBox="0 0 31.18 22.68"><defs><style>.cls-1{fill:#231f20;stroke-width:0px;}</style></defs><path class="cls-1" d="M25.51,22.68H5.67v-1.42H0v-7.96l.79-.39,4.41-2.2-.79-1.57-.16-.31V3.67l.42-.42,1.42-1.42.42-.42h4.68l.32-.63.39-.79h7.41l.39.79.32.63h4.68l.42.42,1.42,1.42.42.42v5.16l-.16.31-.79,1.57,4.41,2.2.79.39v7.96h-5.67v1.42h0ZM28.35,18.43v-3.38l-4.88-2.44-1.26-.63.63-1.26,1.26-2.52v-3.34l-.59-.59h-2.25v4.57l-.16.31-1.26,2.52v.23l4.88,2.44.79.39v3.7h2.83ZM5.67,18.43v-3.7l.79-.39,4.88-2.44v-.23l-1.26-2.52-.16-.31v-4.57h-2.25l-.59.59v3.34l1.26,2.52.63,1.26-1.26.63-4.88,2.44v3.38h2.83ZM8.5,19.84h14.17v-3.38l-4.88-2.44-.79-.39v-2.61l1.42-2.83v-3.61l-.87-1.74h-3.93l-.87,1.74v3.61l1.42,2.83v2.61l-.79.39-4.88,2.44v3.38h0Z"/></svg>