<?xml version="1.0" encoding="UTF-8"?><svg id="Object" xmlns="http://www.w3.org/2000/svg" viewBox="0 0 327.79 390"><defs><style>.cls-1{stroke-width:30px;}.cls-1,.cls-2{fill:none;stroke:#231f20;stroke-linecap:round;stroke-linejoin:round;}.cls-2{stroke-width:35px;}</style></defs><path class="cls-2" d="M17.5,88.27v148.79c0,20.05,9.78,38.87,26.27,50.53l120.12,84.92,120.12-84.92c16.49-11.66,26.27-30.47,26.27-50.53V88.27h0c-48.33-11.68-93.91-32.71-134.16-61.9l-12.23-8.87-12.23,8.87c-37.38,27.11-79.35,47.17-123.86,59.26-3.42.93-6.85,1.81-10.3,2.64h0Z"/><path class="cls-1" d="M88.4,265.65v-49.15c0-10.54,8.54-19.09,19.09-19.09h112.82c10.54,0,19.09,8.55,19.09,19.09v49.15"/><line class="cls-1" x1="128.39" y1="265.65" x2="128.39" y2="257.8"/><line class="cls-1" x1="199.4" y1="265.65" x2="199.4" y2="257.8"/><circle class="cls-1" cx="163.89" cy="122.2" r="26.24" transform="translate(-38.4 151.68) rotate(-45)"/></svg>