<?xml version="1.0" encoding="UTF-8"?><svg id="Layer_2" xmlns="http://www.w3.org/2000/svg" viewBox="0 0 42.41 42.41"><defs><style>.cls-1{fill:#231f20;stroke-width:0px;}</style></defs><polygon class="cls-1" points="15.47 10.6 19.39 10.6 19.39 19.75 26.26 10.89 30.91 10.89 24.81 19.12 30.42 31.71 26.17 31.71 22.2 22.51 19.39 25.71 19.39 31.81 15.54 31.81 15.47 10.6"/><path class="cls-1" d="M41.4,14.74C38.67,6.19,30.66,0,21.2,0,9.49,0,0,9.49,0,21.2c0,.63.03,1.27.09,1.89l12.24.05v-4.46h-7.68c1.22-8.06,8.17-14.22,16.56-14.22,6.94,0,12.89,4.22,15.43,10.23l4.76.05"/><path class="cls-1" d="M37.87,22.92c-.86,8.45-7.99,15.04-16.67,15.04-7.04,0-13.07-4.34-15.55-10.5H.94c2.66,8.66,10.73,14.96,20.27,14.96,11.71,0,21.2-9.5,21.2-21.2,0-.88-.06-1.76-.11-2.56h-11.82l-.02,4.28h7.42"/></svg>