<?xml version="1.0" encoding="UTF-8"?><svg id="Layer" xmlns="http://www.w3.org/2000/svg" viewBox="0 0 285 382"><defs><style>.cls-1{stroke-width:30px;}.cls-1,.cls-2{fill:none;stroke:#231f20;stroke-linecap:round;stroke-linejoin:round;}.cls-2{stroke-width:24px;}</style></defs><path class="cls-1" d="M142.5,15h0c-70.42,0-127.5,57.08-127.5,127.5h0c0,39.1,17.61,74.09,45.32,97.48,12.43,10.49,19.68,25.88,19.68,42.15v19.87h125v-19.87c0-16.27,7.24-31.66,19.68-42.15,27.72-23.39,45.32-58.37,45.32-97.48h0c0-70.42-57.08-127.5-127.5-127.5Z"/><line class="cls-2" x1="80" y1="340" x2="205" y2="340"/><line class="cls-2" x1="95" y1="370" x2="190" y2="370"/><line class="cls-2" x1="142.5" y1="261" x2="142.5" y2="192.5"/><polygon class="cls-2" points="142.5 192.5 113.87 135.24 171.13 135.24 142.5 192.5"/></svg>