<?xml version="1.0" encoding="UTF-8"?><svg id="Layer_1" xmlns="http://www.w3.org/2000/svg" viewBox="0 0 144.54 144.54"><defs><style>.cls-1{fill:#231f20;stroke-width:0px;}</style></defs><path class="cls-1" d="M35.69,51.59h13.63l7.73,33.35h.45l8.09-33.35h13.36l8.18,33.17h.45l7.63-33.17h13.63l-13.54,49.35h-14.18l-8.54-31.35h-.64l-8.54,31.35h-14.27l-13.45-49.35Z"/><path class="cls-1" d="M72.27,0C32.36,0,0,32.36,0,72.27s32.36,72.27,72.27,72.27,72.27-32.36,72.27-72.27S112.18,0,72.27,0ZM72.27,129.85c-31.8,0-57.58-25.78-57.58-57.58S40.47,14.69,72.27,14.69s57.58,25.78,57.58,57.58-25.78,57.58-57.58,57.58Z"/></svg>