<?xml version="1.0" encoding="UTF-8"?><svg id="Layer_1" xmlns="http://www.w3.org/2000/svg" viewBox="0 0 123.81 67.62"><defs><style>.cls-1{fill:#231f20;stroke-width:0px;}</style></defs><path class="cls-1" d="M30.81,67.62C13.27,67.62,0,55.21,0,33.81S13.27,0,30.81,0s30.72,12.31,30.72,33.81-13.31,33.81-30.72,33.81ZM30.81,55.53c10.13-.05,16.86-7.68,16.81-21.72.05-14.09-6.68-21.68-16.81-21.72-10.22.05-16.9,7.63-16.9,21.72s6.68,21.68,16.9,21.72Z"/><path class="cls-1" d="M60.74,66.71L83.55.91h17.54l22.72,65.8h-14.63l-4.95-15.18h-23.81l-4.95,15.18h-14.72ZM100.77,40.9l-8.22-25.17h-.45l-8.23,25.17h16.9Z"/></svg>