<?xml version="1.0" encoding="UTF-8"?><svg id="Layer" xmlns="http://www.w3.org/2000/svg" viewBox="0 0 383 381"><defs><style>.cls-1{stroke-linecap:round;stroke-linejoin:round;stroke-width:24px;}.cls-1,.cls-2{fill:none;stroke:#231f20;}.cls-2{stroke-linecap:square;stroke-miterlimit:10;stroke-width:28px;}</style></defs><rect class="cls-2" x="14" y="14" width="355" height="259.28"/><line class="cls-1" x1="130.44" y1="303.28" x2="102.75" y2="369"/><line class="cls-1" x1="280.25" y1="369" x2="252.56" y2="303.28"/><line class="cls-1" x1="126.43" y1="312.82" x2="256.57" y2="312.82"/><path class="cls-1" d="M167.64,156.61c0,32.2-26.1,58.3-58.3,58.3s-58.3-26.1-58.3-58.3,26.1-58.3,58.3-58.3v58.3h58.3Z"/><path class="cls-1" d="M135.27,72.37s-.03,0-.04,0v58.26h58.34c-.02-32.18-26.12-58.26-58.3-58.26Z"/><line class="cls-1" x1="206.54" y1="214.91" x2="319" y2="214.91"/><line class="cls-1" x1="206.54" y1="176.04" x2="319" y2="176.04"/><line class="cls-1" x1="232.47" y1="137.17" x2="262.77" y2="137.17"/><line class="cls-1" x1="232.47" y1="98.31" x2="319" y2="98.31"/></svg>