<?xml version="1.0" encoding="UTF-8"?><svg id="Isolation_Mode" xmlns="http://www.w3.org/2000/svg" viewBox="0 0 53.56 63.44"><defs><style>.cls-1{fill:#231f20;stroke-width:0px;}</style></defs><path class="cls-1" d="M6.86,56.28l-.04-11.14,8.98-3.75,1.38-7.48-15.52,6.15c-.91.35-1.65,1.44-1.65,2.42v19.07c0,.98.8,1.77,1.77,1.77l19.51.12-7.16-7.21-7.26.05Z"/><path class="cls-1" d="M51.92,40.13l-13.96-6.33c-.14-.06-.3-.1-.46-.13l.9,7.48,8.87,4.47.05,10.21-7.1.1-7.43,7.51,19-.12c.98,0,1.77-.8,1.77-1.77v-18.97c0-.98-.74-2.07-1.64-2.44Z"/><path class="cls-1" d="M11.3,15.53c0,4.45,1.83,6.22,3.21,6.92,2.04,8.17,6.7,13.01,12.59,13.01s10.54-4.84,12.59-13.01c1.38-.7,3.21-2.47,3.21-6.92,0-2.76-1.23-4.32-2.56-5.01-1.29-6.61-6.16-10.52-13.24-10.52s-11.95,3.9-13.24,10.52c-1.33.7-2.56,2.25-2.56,5.01ZM18.06,14.73l1.3.17.18-1.5c.7-5.73,5.04-6.59,7.56-6.59s6.86.86,7.56,6.59l.16,1.31,1.32.02s.36.22.36,1.27c0,1.95-.58,2.65-.93,2.78l-1.06-.1-.28,1.29c-.44,2.03-2.25,8.67-7.13,8.67s-6.7-6.64-7.13-8.67l-.24-1.12-1.14-.07s-.88-.39-.88-2.79c0-.83.22-1.24.36-1.27Z"/><path class="cls-1" d="M36.48,53.75l-1.93-18.29-5.71,1.35,1.74,16.41-3.47,3.53-3.47-3.53,1.81-16.7-5.78-1.55-1.77,18.87c-.09.6-.04,1.31.39,1.74l7.45,7.27c.36.37.86.58,1.37.58s1.01-.21,1.37-.58l7.47-7.47c.42-.43.62-1.04.53-1.63Z"/></svg>