<?xml version="1.0" encoding="UTF-8"?>
<svg id="Layer_1" data-name="Layer 1" xmlns="http://www.w3.org/2000/svg" viewBox="0 0 16 16">
  <defs>
    <style>
      .cls-1 {
        fill: #fff;
        stroke-width: 0px;
      }
    </style>
  </defs>
  <path class="cls-1" d="m15.7,3.46L12.54.3c-.4-.4-1.06-.4-1.46,0l-3.52,3.52-5.42,5.42s-.09.11-.11.18L.07,14.55c-.15.4-.06.83.24,1.13.21.21.47.31.75.31.13,0,.26-.02.38-.07l5.14-1.95c.07-.02.13-.06.18-.11L15.7,4.92c.2-.2.3-.46.3-.73s-.11-.54-.3-.73ZM3.2,9.6l4.72-4.72,3.21,3.21-4.72,4.72-3.21-3.21Zm5.43-5.42l1.07-1.05,3.2,3.2-1.06,1.06-3.2-3.2Zm-5.94,6.32l2.82,2.82-2.1.8c-.44-.57-.95-1.08-1.52-1.52l.8-2.1Zm-1.59,4.5l-.08-.08.5-1.33c.33.28.63.58.91.91l-1.33.5ZM13.59,5.61l-3.19-3.19,1.43-1.41,3.16,3.21-1.4,1.4Z"/>
</svg>