<?xml version="1.0" encoding="utf-8"?>
<!-- Generator: Adobe Illustrator 28.1.0, SVG Export Plug-In . SVG Version: 6.00 Build 0)  -->
<svg version="1.1" id="Book_icons" xmlns="http://www.w3.org/2000/svg" xmlns:xlink="http://www.w3.org/1999/xlink" x="0px" y="0px"
	 viewBox="0 0 24 24" style="enable-background:new 0 0 24 24;" xml:space="preserve">
<style type="text/css">
	.st0{fill:none;stroke:#000000;stroke-width:1.4;stroke-linecap:round;stroke-linejoin:round;stroke-miterlimit:10;}
	.st1{fill:none;stroke:#000000;stroke-width:1.2;stroke-linecap:round;stroke-linejoin:round;stroke-miterlimit:10;}
</style>
<g>
	<path class="st0" d="M23.3,15.62v4.13c0,0.29-0.22,0.52-0.49,0.52h-8.52c-0.52,0-1.02,0.25-1.39,0.64l0,0
		c-0.25,0.26-0.57,0.4-0.9,0.4c-0.33,0-0.65-0.13-0.9-0.4l0,0c-0.37-0.39-0.87-0.64-1.39-0.64H1.19c-0.27,0-0.49-0.23-0.49-0.52
		V3.22c0-0.29,0.22-0.52,0.49-0.52h8.52c0.52,0,1.02,0.22,1.39,0.61L12,4.25l0.9-0.94c0.37-0.39,0.87-0.61,1.39-0.61h8.52
		c0.27,0,0.49,0.23,0.49,0.52V15.62z"/>
	<line class="st1" x1="12" y1="4.25" x2="12" y2="17.75"/>
</g>
<line class="st0" x1="3.65" y1="7.62" x2="9.15" y2="7.62"/>
<line class="st0" x1="3.65" y1="10.54" x2="9.15" y2="10.54"/>
<line class="st0" x1="3.65" y1="13.46" x2="9.15" y2="13.46"/>
<line class="st0" x1="14.85" y1="7.62" x2="20.35" y2="7.62"/>
<line class="st0" x1="14.85" y1="10.54" x2="20.35" y2="10.54"/>
<line class="st0" x1="14.85" y1="13.46" x2="20.35" y2="13.46"/>
</svg>
