<?xml version="1.0" encoding="UTF-8"?>
<svg id="Layer_1" data-name="Layer 1" xmlns="http://www.w3.org/2000/svg" viewBox="0 0 12 12">
  <defs>
    <style>
      .cls-1 {
        fill: #bf0d00;
      }

      .cls-1, .cls-2, .cls-3 {
        stroke-width: 0px;
      }

      .cls-2 {
        fill: #ccc;
      }

      .cls-3 {
        fill: #fff;
      }
    </style>
  </defs>
  <g>
    <polygon class="cls-3" points="4.21 11.5 2.5 9.79 2.5 .5 9.79 .5 11.5 2.21 11.5 11.5 4.21 11.5"/>
    <path class="cls-2" d="m9.59,1l1.41,1.41v8.59h-6.59l-1.41-1.41V1h6.59m.41-1H2v10l2,2h8V2l-2-2h0Z"/>
  </g>
  <rect class="cls-1" y="4" width="10" height="5"/>
  <g>
    <path class="cls-3" d="m1.86,6.92v1.1h-.61v-3.02h1.16c.35,0,.62.09.82.27s.3.41.3.7-.1.52-.3.7-.47.26-.82.26h-.55Zm0-.47h.55c.17,0,.3-.05.38-.14.09-.09.13-.21.13-.35s-.04-.26-.13-.36-.21-.14-.38-.14h-.55v.99Z"/>
    <path class="cls-3" d="m3.96,8.01v-3.02h1.05c.37,0,.67.12.91.35.24.24.36.54.36.91v.5c0,.37-.12.67-.36.91-.24.23-.54.35-.91.35h-1.05Zm.61-2.55v2.09h.45c.2,0,.36-.07.48-.22.12-.15.18-.34.18-.57v-.5c0-.23-.06-.42-.18-.57-.12-.15-.28-.22-.48-.22h-.45Z"/>
    <path class="cls-3" d="m8.54,6.75h-1.16v1.26h-.61v-3.02h1.98v.47h-1.37v.83h1.16v.47Z"/>
  </g>
</svg>