<?xml version="1.0" encoding="UTF-8"?>
<svg id="Layer_1" data-name="Layer 1" xmlns="http://www.w3.org/2000/svg" viewBox="0 0 20 20">
  <defs>
    <style>
      .cls-1 {
        fill: #fff;
        stroke-width: 0px;
      }
    </style>
  </defs>
  <path class="cls-1" d="m.19,4.4C.73,1.96,2.69.16,5.02.16c.41,0,.81.06,1.19.16.38.11.74.26,1.08.46,2.06,1.19,2.71,2.84,2.71,2.84,0,0,.16-.41.59-.98.42-.56,1.1-1.27,2.13-1.87.68-.4,1.45-.62,2.27-.62.72,0,1.41.17,2.03.49.38.19.73.43,1.05.72.85.76,1.47,1.82,1.75,3.04.05.24.06.29.12.73.13,1.1.06,2.16-.17,3.18-1.51,6.71-9.76,11.53-9.76,11.53,0,0-1.89-1.11-4.03-3-.3-.26-.6-.54-.9-.83C2.31,13.35-.47,9.51.07,5.13c.03-.22.04-.34.06-.44.02-.1.03-.17.06-.29Z"/>
</svg>