<?xml version="1.0" encoding="UTF-8"?>
<svg id="Layer_1" data-name="Layer 1" xmlns="http://www.w3.org/2000/svg" viewBox="0 0 20 20">
  <defs>
    <style>
      .cls-1 {
        fill: #fff;
        stroke-width: 0px;
      }
    </style>
  </defs>
  <path class="cls-1" d="m9.63,19.75c-.07-.04-1.84-1.08-3.85-2.86-.3-.26-.59-.53-.86-.79-1.56-1.51-2.77-3.07-3.6-4.63C.24,9.43-.18,7.39.07,5.4c.02-.18.04-.31.06-.43,0,0,0,0,0,0,.02-.1.03-.19.06-.31C.79,2,2.92.15,5.38.15c.44,0,.87.06,1.3.18.41.11.8.28,1.18.5,1.02.59,1.7,1.29,2.15,1.87.4-.53,1.09-1.26,2.14-1.87.76-.44,1.61-.67,2.47-.67.77,0,1.52.18,2.21.53.4.2.78.46,1.13.77.91.81,1.57,1.95,1.85,3.2.06.25.07.33.12.74.13,1.05.07,2.13-.17,3.19-.34,1.51-1.05,3.05-2.12,4.56-.84,1.19-1.9,2.37-3.15,3.5-2.12,1.92-4.04,3.05-4.12,3.1-.11.07-.24.1-.37.1s-.26-.03-.37-.1ZM12.88,2.09c-.88.51-1.44,1.11-1.75,1.53-.3.41-.44.71-.45.74-.11.28-.38.46-.68.47,0,0,0,0,0,0-.3,0-.57-.19-.68-.47,0-.01-.56-1.32-2.2-2.27-.27-.15-.55-.27-.83-.35-.3-.08-.6-.12-.91-.12-1.77,0-3.31,1.38-3.76,3.36,0,0,0,0,0,0-.02.09-.03.15-.05.22-.01.07-.03.17-.05.38-.47,3.84,2.14,7.27,4.41,9.46.26.25.53.5.81.75,1.37,1.21,2.65,2.07,3.25,2.46,1.51-.97,7.19-4.91,8.33-9.98.2-.9.25-1.81.14-2.69-.05-.38-.05-.41-.1-.6-.21-.96-.71-1.82-1.39-2.43-.25-.23-.53-.41-.82-.56-.49-.25-1.01-.37-1.55-.37-.61,0-1.19.16-1.74.48Z"/>
</svg>