<?xml version="1.0" encoding="UTF-8"?>
<svg id="Isolation_Mode" data-name="Isolation Mode" xmlns="http://www.w3.org/2000/svg" viewBox="0 0 20 20">
  <defs>
    <style>
      .cls-1 {
        fill: #fff;
        stroke-width: 0px;
      }
    </style>
  </defs>
  <path class="cls-1" d="m16,.95v-.95H0v20h11l2-2,1-1,2-2v-6.05l4-4L16,.95Zm-2,14.05h-3v3H2V2h11.05l-3,3h-6.05v2h4.05l-2.85,2.85h-.05v5h5v-.05l3.85-3.85v4.05Zm0-6.88l-4.73,4.73h-2.12v-2.12l3.73-3.73,1.12-1.12,2-2,1.05-1.05.95.95,1.17,1.17-1.17,1.17-2,2Z"/>
</svg>