<?xml version="1.0" encoding="UTF-8"?>
<svg id="Layer_1" data-name="Layer 1" xmlns="http://www.w3.org/2000/svg" viewBox="0 0 12 12">
  <defs>
    <style>
      .cls-1 {
        fill: #d14413;
      }

      .cls-1, .cls-2, .cls-3 {
        stroke-width: 0px;
      }

      .cls-2 {
        fill: #ccc;
      }

      .cls-3 {
        fill: #fff;
      }
    </style>
  </defs>
  <g>
    <polygon class="cls-3" points="4.21 11.5 2.5 9.79 2.5 .5 9.79 .5 11.5 2.21 11.5 11.5 4.21 11.5"/>
    <path class="cls-2" d="m9.59,1l1.41,1.41v8.59h-6.59l-1.41-1.41V1h6.59m.41-1H2v10l2,2h8V2l-2-2h0Z"/>
  </g>
  <rect class="cls-1" y="4" width="10" height="5"/>
  <g>
    <path class="cls-3" d="m1.84,6.92v1.1h-.61v-3.02h1.16c.35,0,.62.09.82.27s.3.41.3.7-.1.52-.3.7-.47.26-.82.26h-.55Zm0-.47h.55c.17,0,.3-.05.38-.14.09-.09.13-.21.13-.35s-.04-.26-.13-.36-.21-.14-.38-.14h-.55v.99Z"/>
    <path class="cls-3" d="m4.55,6.92v1.1h-.61v-3.02h1.16c.35,0,.62.09.82.27s.3.41.3.7-.1.52-.3.7-.47.26-.82.26h-.55Zm0-.47h.55c.17,0,.3-.05.38-.14.09-.09.13-.21.13-.35s-.04-.26-.13-.36-.21-.14-.38-.14h-.55v.99Z"/>
    <path class="cls-3" d="m8.76,5.46h-.86v2.55h-.61v-2.55h-.85v-.47h2.32v.47Z"/>
  </g>
</svg>