<?xml version="1.0" encoding="UTF-8"?>
<svg id="Layer_1" data-name="Layer 1" xmlns="http://www.w3.org/2000/svg" viewBox="0 0 12 12">
  <defs>
    <style>
      .cls-1 {
        fill: #7320ba;
      }

      .cls-1, .cls-2, .cls-3 {
        stroke-width: 0px;
      }

      .cls-2 {
        fill: #ccc;
      }

      .cls-3 {
        fill: #fff;
      }
    </style>
  </defs>
  <g>
    <polygon class="cls-3" points="4.21 11.5 2.5 9.79 2.5 .5 9.79 .5 11.5 2.21 11.5 11.5 4.21 11.5"/>
    <path class="cls-2" d="m9.59,1l1.41,1.41v8.59h-6.59l-1.41-1.41V1h6.59m.41-1H2v10l2,2h8V2l-2-2h0Z"/>
  </g>
  <rect class="cls-1" y="4" width="10" height="5"/>
  <g>
    <path class="cls-3" d="m2,8.01h-.61v-3.02h.61v3.02Z"/>
    <path class="cls-3" d="m4.16,7.22h.01l.78-2.23h.79v3.02h-.61v-2.06h-.01s-.75,2.06-.75,2.06h-.41l-.75-2.07h-.01v2.07h-.61v-3.02h.79l.77,2.23Z"/>
    <path class="cls-3" d="m8.61,7.6c-.09.12-.23.23-.42.32-.19.09-.43.14-.72.14-.37,0-.66-.12-.9-.34s-.35-.53-.35-.89v-.63c0-.37.11-.66.34-.89.23-.23.52-.35.87-.35s.65.09.85.26c.2.17.29.41.28.7h0s-.57.01-.57.01c0-.16-.05-.29-.14-.37-.09-.09-.23-.13-.4-.13s-.33.07-.45.21c-.11.14-.17.33-.17.55v.63c0,.23.06.41.17.56.12.14.27.22.47.22.14,0,.26-.01.34-.04.08-.03.15-.07.19-.11v-.58h-.58v-.42h1.19v1.17Z"/>
  </g>
</svg>