<?xml version="1.0" encoding="UTF-8"?>
<svg id="Layer_1" data-name="Layer 1" xmlns="http://www.w3.org/2000/svg" viewBox="0 0 12 12">
  <defs>
    <style>
      .cls-1 {
        fill: #ccc;
      }

      .cls-1, .cls-2, .cls-3 {
        stroke-width: 0px;
      }

      .cls-2 {
        fill: #fff;
      }

      .cls-3 {
        fill: #0078d4;
      }
    </style>
  </defs>
  <g>
    <polygon class="cls-2" points="4.21 11.5 2.5 9.79 2.5 .5 9.79 .5 11.5 2.21 11.5 11.5 4.21 11.5"/>
    <path class="cls-1" d="m9.59,1l1.41,1.41v8.59h-6.59l-1.41-1.41V1h6.59m.41-1H2v10l2,2h8V2l-2-2h0Z"/>
  </g>
  <rect class="cls-3" y="4" width="10" height="5"/>
  <g>
    <path class="cls-2" d="m.99,8.01v-3.02h1.05c.37,0,.67.12.91.35.24.24.36.54.36.91v.5c0,.37-.12.67-.36.91-.24.23-.54.35-.91.35H.99Zm.61-2.55v2.09h.45c.2,0,.36-.07.48-.22.12-.15.18-.34.18-.57v-.5c0-.23-.06-.42-.18-.57-.12-.15-.28-.22-.48-.22h-.45Z"/>
    <path class="cls-2" d="m6.25,6.77c0,.37-.12.68-.35.92s-.54.36-.91.36-.68-.12-.91-.36-.35-.55-.35-.92v-.54c0-.37.12-.68.35-.92.23-.24.53-.36.91-.36s.68.12.92.36c.23.24.35.55.35.92v.54Zm-.6-.55c0-.23-.06-.43-.18-.58-.12-.15-.28-.23-.49-.23s-.36.08-.48.23c-.11.15-.17.34-.17.58v.55c0,.24.06.43.17.59.11.15.28.23.48.23s.37-.08.49-.23c.12-.15.17-.35.17-.59v-.55Z"/>
    <path class="cls-2" d="m9,7.01h0c0,.33-.09.59-.29.77-.2.18-.48.27-.84.27s-.66-.12-.88-.35c-.22-.23-.33-.54-.33-.9v-.6c0-.37.11-.67.33-.9.22-.24.5-.35.85-.35s.66.09.86.27c.21.18.31.43.3.76h0s-.59.01-.59.01c0-.19-.05-.34-.14-.43s-.24-.14-.43-.14c-.18,0-.32.07-.42.22-.1.15-.15.33-.15.57v.6c0,.23.05.42.16.57.11.15.26.22.45.22s.32-.05.41-.14c.09-.09.13-.24.13-.44h.59Z"/>
  </g>
</svg>