<svg width="18" height="18" viewBox="0 0 18 18" fill="none" xmlns="http://www.w3.org/2000/svg">
<rect width="18" height="18" rx="2" fill="#003675"/>
<path d="M13.8249 4.71218C13.7605 4.67299 13.6863 4.64834 13.6087 4.64039C13.5311 4.63244 13.4525 4.64144 13.3797 4.6666C12.6137 4.95985 11.8029 5.15185 10.9735 5.2364C10.4496 5.11264 9.94955 4.92059 9.48979 4.6666C8.89643 4.34266 8.24023 4.11855 7.55449 4.00562C6.72232 3.93725 4.74186 4.51275 4.329 4.63241C4.23316 4.661 4.14988 4.71541 4.09087 4.78797C4.03186 4.86054 4.00008 4.94763 4 5.03697V13.5726C4 13.686 4.05098 13.7947 4.14171 13.8749C4.23244 13.955 4.35551 14 4.48382 14C4.61214 14 4.73521 13.955 4.82594 13.8749C4.91667 13.7947 4.96765 13.686 4.96765 13.5726V10.2336C5.77182 9.9819 6.60823 9.81922 7.45773 9.74925C8.00393 9.86771 8.52614 10.0599 9.00597 10.3191C9.56727 10.6221 10.1822 10.8398 10.8251 10.9629H10.9735C11.9072 10.8562 12.8206 10.6397 13.6894 10.3191C13.7801 10.2873 13.8579 10.2324 13.9131 10.1614C13.9683 10.0903 13.9982 10.0063 13.999 9.92019V5.06546C14.0039 4.99859 13.9906 4.93166 13.9603 4.87022C13.93 4.80878 13.8836 4.75461 13.8249 4.71218Z" fill="white"/>
</svg>
