<?xml version="1.0" encoding="UTF-8"?>
<svg id="Layer_1" data-name="Layer 1" xmlns="http://www.w3.org/2000/svg" viewBox="0 0 21 23.95">
  <defs>
    <style>
      .cls-1 {
        fill: none;
        stroke: #000;
        stroke-linecap: round;
        stroke-linejoin: round;
        stroke-width: 1.5px;
      }
    </style>
  </defs>
  <path class="cls-1" d="m15.03,1.77v1.95c0,.67-.54,1.22-1.22,1.22h-6.63c-.67,0-1.22-.54-1.22-1.22v-1.95"/>
  <path class="cls-1" d="m12.55,1.77c-.47,0-.94-.18-1.21-.57-.18-.27-.49-.45-.84-.45s-.66.18-.84.45c-.26.39-.74.57-1.21.57H1.77c-.56,0-1.02.45-1.02,1.02v19.41c0,.56.45,1.02,1.02,1.02h17.47c.56,0,1.02-.45,1.02-1.02V2.78c0-.56-.45-1.02-1.02-1.02h-6.69Z"/>
  <path class="cls-1" d="m15.99,14.23c0,3.03-2.46,5.49-5.49,5.49s-5.49-2.46-5.49-5.49,2.46-5.49,5.49-5.49,5.49,2.46,5.49,5.49Z"/>
  <polyline class="cls-1" points="9.06 14.33 10.17 15.44 11.94 13.67"/>
</svg>