<?xml version="1.0" encoding="UTF-8"?>
<svg id="_04_bold" data-name="04 bold" xmlns="http://www.w3.org/2000/svg" viewBox="0 0 20 17">
  <defs>
    <style>
      .cls-1 {
        fill: #f46396;
        stroke-width: 0px;
      }
    </style>
  </defs>
  <path class="cls-1" d="m17.53,2.53c-.29-.29-.76-.29-1.06,0-.29.29-.29.76,0,1.06,1.31,1.31,2.04,3.06,2.04,4.91s-.72,3.6-2.04,4.91c-.29.29-.29.76,0,1.06.15.15.34.22.53.22s.38-.07.53-.22c1.59-1.59,2.47-3.72,2.47-5.97s-.88-4.38-2.47-5.97Z"/>
  <path class="cls-1" d="m15.03,4.81c-.29-.29-.76-.29-1.06,0-.29.29-.29.76,0,1.06.7.7,1.09,1.64,1.09,2.63s-.39,1.93-1.09,2.63c-.29.29-.29.76,0,1.06.15.15.34.22.53.22s.38-.07.53-.22c.98-.98,1.53-2.29,1.53-3.68s-.54-2.7-1.53-3.69Z"/>
  <path class="cls-1" d="m11.1.24c-.25-.13-.54-.11-.77.05l-6.21,4.31H.75c-.41,0-.75.33-.75.75v6.31c0,.41.33.75.75.75h3.38l6.21,4.31c.13.09.28.13.43.13.12,0,.24-.03.35-.09.25-.13.4-.38.4-.66V.9c0-.28-.15-.53-.4-.66Zm-1.09,14.43l-5.23-3.63c-.12-.09-.27-.13-.43-.13H1.49v-4.82h2.87c.15,0,.3-.05.43-.13l5.23-3.63v12.34Z"/>
  <rect class="cls-1" x="3.36" y="5.46" width="1.4" height="6.09"/>
</svg>