<?xml version="1.0" encoding="UTF-8"?>
<svg id="Layer_1" data-name="Layer 1" xmlns="http://www.w3.org/2000/svg" viewBox="0 0 12 12">
  <defs>
    <style>
      .cls-1 {
        fill: #107c41;
      }

      .cls-1, .cls-2, .cls-3 {
        stroke-width: 0px;
      }

      .cls-2 {
        fill: #ccc;
      }

      .cls-3 {
        fill: #fff;
      }
    </style>
  </defs>
  <g>
    <polygon class="cls-3" points="4.21 11.5 2.5 9.79 2.5 .5 9.79 .5 11.5 2.21 11.5 11.5 4.21 11.5"/>
    <path class="cls-2" d="m9.59,1l1.41,1.41v8.59h-6.59l-1.41-1.41V1h6.59m.41-1H2v10l2,2h8V2l-2-2h0Z"/>
  </g>
  <rect class="cls-1" y="4" width="10" height="5"/>
  <g>
    <path class="cls-3" d="m2.55,6.06l.57-1.07h.71l-.9,1.5.95,1.52h-.73l-.58-1.09-.58,1.09h-.71l.92-1.52-.9-1.5h.7l.56,1.07Z"/>
    <path class="cls-3" d="m4.79,7.55h1.35v.46h-1.96v-3.02h.61v2.56Z"/>
    <path class="cls-3" d="m8.12,7.22c0-.12-.04-.21-.12-.28-.08-.07-.22-.14-.43-.2-.35-.11-.61-.23-.79-.37-.18-.14-.27-.34-.27-.58s.1-.45.31-.61c.2-.16.46-.24.78-.24.33,0,.6.08.81.25.2.17.3.39.3.66h0s-.59.01-.59.01c0-.15-.05-.27-.14-.35-.09-.08-.22-.12-.38-.12-.15,0-.26.04-.35.11-.08.07-.12.16-.12.28,0,.1.04.19.13.25.09.07.24.14.46.21.33.09.59.22.76.37s.26.35.26.6-.1.46-.3.61c-.2.15-.47.22-.8.22s-.6-.08-.84-.24c-.23-.16-.35-.4-.34-.72h0s.59-.01.59-.01c0,.18.05.31.16.39.1.08.25.13.43.13.16,0,.29-.03.37-.1.08-.07.13-.16.13-.27Z"/>
  </g>
</svg>