<?xml version="1.0" encoding="UTF-8"?>
<svg id="Layer_2" data-name="Layer 2" xmlns="http://www.w3.org/2000/svg" viewBox="0 0 14 20">
  <defs>
    <style>
      .cls-1 {
        stroke-width: 0px;
      }

      .cls-1, .cls-2 {
        fill: #666;
      }

      .cls-2 {
        stroke: #666;
        stroke-miterlimit: 10;
        stroke-width: .8px;
      }
    </style>
  </defs>
  <path class="cls-1" d="m12.5,3.5v11.88l-3.12,3.12H1.5V3.5h11m1.5-1.5H0v18h10l4-4V2h0Z"/>
  <polygon class="cls-2" points="8.5 14.5 8.5 19.5 9.5 19.5 9.5 15.5 13.5 15.5 13.5 14.5 8.5 14.5"/>
  <path class="cls-2" d="m5.4.4c-1.1,0-2,.92-2,2.05v4.91c0,1.13.9,2.05,2,2.05s2-.92,2-2.05v-1.86h-.8v1.86c0,.68-.54,1.23-1.2,1.23s-1.2-.55-1.2-1.23V2.45c0-.68.54-1.23,1.2-1.23s1.2.55,1.2,1.23v.41h.8v-.41c0-1.13-.9-2.05-2-2.05Z"/>
</svg>