<?xml version="1.0" encoding="UTF-8"?><svg id="Layer_1" xmlns="http://www.w3.org/2000/svg" viewBox="0 0 234.47 46.08"><defs><style>.cls-1{fill:#333;}.cls-1,.cls-2,.cls-3,.cls-4{stroke-width:0px;}.cls-2{fill:#5a5b5b;}.cls-3{fill:#656666;}.cls-4{fill:#6d6d6d;}</style></defs><path class="cls-3" d="M0,.84h8.88v19.26h.18L23.76.84h9.78l-13.56,17.46,15.96,26.94h-9.78l-11.46-19.92-5.82,7.44v12.48H0V.84Z"/><path class="cls-4" d="M35.58,39.6l5.1-6.12c3.18,2.94,7.38,4.92,11.28,4.92,4.62,0,7.08-1.98,7.08-5.1,0-3.3-2.7-4.32-6.66-6l-5.94-2.52c-4.5-1.86-9-5.46-9-11.94,0-7.26,6.36-12.84,15.36-12.84,5.16,0,10.32,2.04,13.92,5.7l-4.5,5.58c-2.82-2.34-5.76-3.66-9.42-3.66-3.9,0-6.42,1.74-6.42,4.68,0,3.18,3.18,4.32,6.96,5.82l5.82,2.46c5.4,2.22,8.94,5.64,8.94,12.06,0,7.26-6.06,13.44-16.32,13.44-5.94,0-11.88-2.34-16.2-6.48Z"/><path class="cls-2" d="M95.28,33.84h-14.4l-3.12,11.4h-9L82.98.84h10.44l14.28,44.4h-9.3l-3.12-11.4ZM93.36,26.94l-1.32-4.86c-1.38-4.62-2.58-9.72-3.9-14.52h-.24c-1.14,4.86-2.46,9.9-3.78,14.52l-1.32,4.86h10.56Z"/><path class="cls-1" d="M123.54.84h27.24v7.38h-18.36v10.26h15.6v7.44h-15.6v11.88h19.02v7.44h-27.9V.84Z"/><path class="cls-1" d="M158.94.84h12.18c13.56,0,21.96,7.02,21.96,22.02s-8.4,22.38-21.48,22.38h-12.66V.84ZM170.58,38.1c8.28,0,13.44-4.44,13.44-15.24s-5.16-14.94-13.44-14.94h-2.76v30.18h2.76Z"/><path class="cls-1" d="M200.04,25.26V.84h8.88v25.2c0,9.24,3.18,12.36,8.4,12.36s8.64-3.12,8.64-12.36V.84h8.52v24.42c0,14.76-6.3,20.82-17.16,20.82s-17.28-6.06-17.28-20.82Z"/></svg>