<?xml version="1.0" encoding="UTF-8"?>
<svg id="Layer_1" data-name="Layer 1" xmlns="http://www.w3.org/2000/svg" viewBox="0 0 16 16">
  <defs>
    <style>
      .cls-1 {
        fill: #fff;
        stroke-width: 0px;
      }
    </style>
  </defs>
  <path class="cls-1" d="m14.36,1.16c-.09-.09-.22-.15-.35-.15h-3.01C10.62.41,9.96,0,9.19,0h-2.36c-.77,0-1.44.41-1.81,1.02H1.99c-.28,0-.5.23-.5.51v13.97c0,.28.22.5.5.5h12.02c.28,0,.5-.22.5-.5V1.52c0-.13-.05-.26-.15-.35h0Zm-7.54-.16h2.36c.59,0,1.08.46,1.13,1.04h-4.62c.05-.58.54-1.04,1.13-1.04Zm6.68,14H2.49V2.03h2.21s0,.07,0,.11v.41c0,.28.22.5.5.5h5.62c.28,0,.5-.22.5-.5v-.41s0-.07-.01-.11h2.2v12.98h0Z"/>
  <rect class="cls-1" x="7.49" y="6" width="5" height="1"/>
  <path class="cls-1" d="m5.99,5h-2c-.28,0-.5.22-.5.5v2c0,.28.22.5.5.5h2c.28,0,.5-.22.5-.5v-2c0-.28-.22-.5-.5-.5Zm-.5,2h-1v-1h1v1Z"/>
  <rect class="cls-1" x="7.49" y="10" width="5" height="1"/>
  <path class="cls-1" d="m5.99,9h-2c-.28,0-.5.22-.5.5v2c0,.28.22.5.5.5h2c.28,0,.5-.22.5-.5v-2c0-.28-.22-.5-.5-.5Zm-.5,2h-1v-1h1v1Z"/>
</svg>