<?xml version="1.0" encoding="utf-8"?>
<!-- Generator: Adobe Illustrator 28.1.0, SVG Export Plug-In . SVG Version: 6.00 Build 0)  -->
<svg version="1.1" id="icons" xmlns="http://www.w3.org/2000/svg" xmlns:xlink="http://www.w3.org/1999/xlink" x="0px" y="0px"
	 viewBox="0 0 14 14" style="enable-background:new 0 0 14 14;" xml:space="preserve">
<style type="text/css">
	.st0{fill:#F46396;}
</style>
<path class="st0" d="M12.66,4.41L9.59,1.34C8.96,0.72,8.04,0.62,7.54,1.12C7.15,1.51,7.13,2.15,7.43,2.71l-2.9,2.03
	C3.94,4.37,3.25,4.37,2.84,4.79c-0.5,0.5-0.4,1.42,0.22,2.04l1.63,1.63L0.8,12.35l0.85,0.85l3.89-3.89l1.63,1.63
	c0.62,0.62,1.54,0.72,2.04,0.22c0.41-0.41,0.41-1.11,0.05-1.69l2.03-2.9c0.56,0.3,1.2,0.28,1.59-0.11
	C13.38,5.96,13.28,5.04,12.66,4.41z"/>
</svg>
