<?xml version="1.0" encoding="UTF-8"?>
<svg id="Layer_1" data-name="Layer 1" xmlns="http://www.w3.org/2000/svg" viewBox="0 0 16 16">
  <defs>
    <style>
      .cls-1 {
        fill: #fff;
        stroke-width: 0px;
      }
    </style>
  </defs>
  <path class="cls-1" d="m15.97,6.22c-.08-.39-.31-.72-.64-.94L8.28.58c-.17-.11-.39-.11-.55,0L.67,5.28C.25,5.56,0,6.02,0,6.52,0,6.8.09,7.09.25,7.34c.22.33.56.56.95.64.27.06.55.03.8-.06v7.08c0,.28.22.5.5.5h11c.28,0,.5-.22.5-.5v-7.09c.16.06.33.1.51.1.5,0,.96-.25,1.24-.67.22-.33.3-.73.22-1.12ZM3,14.5v-7.19l5-3.32,5,3.32v7.2H3Zm11.92-7.72c-.15.22-.46.29-.68.14l-5.96-3.96c-.08-.06-.18-.08-.28-.08s-.19.03-.28.08L1.77,6.93c-.11.07-.24.1-.37.07-.13-.03-.24-.1-.31-.21-.06-.09-.08-.18-.08-.27,0-.16.09-.32.22-.41L8,1.6l6.78,4.51c.23.15.29.45.14.67Z"/>
</svg>