<?xml version="1.0" encoding="utf-8"?>
<!-- Generator: Adobe Illustrator 27.9.0, SVG Export Plug-In . SVG Version: 6.00 Build 0)  -->
<svg version="1.1" id="Restaurant_Icons" xmlns="http://www.w3.org/2000/svg" xmlns:xlink="http://www.w3.org/1999/xlink" x="0px"
	 y="0px" viewBox="0 0 40 40" style="enable-background:new 0 0 40 40;" xml:space="preserve">
<style type="text/css">
	.st0{fill:#FFFFFF;}
	.st1{fill:none;stroke:#333333;stroke-width:1.2;stroke-linecap:round;stroke-miterlimit:10;}
	.st2{fill:#96C5E2;stroke:#333333;stroke-width:1.2;stroke-miterlimit:10;}
	.st3{fill:#FFFFFF;stroke:#333333;stroke-width:1.2;stroke-linecap:round;stroke-linejoin:round;stroke-miterlimit:10;}
</style>
<circle class="st0" cx="21.1" cy="20" r="14.3"/>
<path class="st1" d="M31,10.4c-2.5-2.6-6-4.2-9.8-4.2c-2.7,0-5.3,0.8-7.4,2.2"/>
<path class="st1" d="M11.3,29.6c2.5,2.6,6,4.2,9.9,4.2c3.8,0,7.3-1.6,9.8-4.1"/>
<ellipse transform="matrix(0.8853 -0.465 0.465 0.8853 -6.8748 12.1299)" class="st2" cx="21.1" cy="20" rx="6.6" ry="6.6"/>
<path class="st3" d="M39.4,6.9c0-0.9-0.7-1.6-1.5-1.6c-0.4,0-0.8,0.2-1.1,0.5c0,0-6.5,7.9-2.4,17.2l-0.6,8.8c0,0.1,0,0.2,0,0.3
	c0.1,1.5,1.4,2.7,2.9,2.6c1.5-0.1,2.7-1.4,2.6-2.9L39.4,6.9z"/>
<path class="st3" d="M10.1,6H1.1C0.8,6,0.6,6.2,0.6,6.5l0,6.8c0,2.1,1.2,3.8,3,4.6L2.8,31.8c0,0.1,0,0.2,0,0.3
	c0.1,1.5,1.4,2.7,2.9,2.6c1.5-0.1,2.7-1.4,2.6-2.9L7.6,17.9c1.8-0.8,3-2.5,3-4.6V6.5C10.6,6.2,10.3,6,10.1,6z"/>
<line class="st1" x1="3.9" y1="6" x2="3.9" y2="13.5"/>
<line class="st1" x1="7.3" y1="6" x2="7.3" y2="13.5"/>
</svg>
