<?xml version="1.0" encoding="utf-8"?>
<!-- Generator: Adobe Illustrator 27.9.0, SVG Export Plug-In . SVG Version: 6.00 Build 0)  -->
<svg version="1.1" id="Layer_1" xmlns="http://www.w3.org/2000/svg" xmlns:xlink="http://www.w3.org/1999/xlink" x="0px" y="0px"
	 viewBox="0 0 40 40" style="enable-background:new 0 0 40 40;" xml:space="preserve">
<style type="text/css">
	.st0{fill:#FFFFFF;stroke:#333333;stroke-width:1.2;stroke-linecap:round;stroke-linejoin:round;stroke-miterlimit:10;}
	.st1{fill:none;stroke:#333333;stroke-width:1.2;stroke-linecap:round;stroke-linejoin:round;stroke-miterlimit:10;}
	.st2{fill:none;stroke:#333333;stroke-width:1.2;stroke-linecap:square;stroke-linejoin:round;stroke-miterlimit:10;}
	.st3{fill:#96C5E2;stroke:#333333;stroke-width:1.2;stroke-linecap:round;stroke-linejoin:round;stroke-miterlimit:10;}
</style>
<polyline class="st0" points="30.6,39.4 0.6,39.4 0.6,4.6 30.6,4.6 30.6,23 "/>
<rect x="3.6" y="0.6" class="st0" width="24" height="4"/>
<rect x="9.6" y="30.4" class="st1" width="12" height="9"/>
<line class="st2" x1="15.6" y1="30.9" x2="15.6" y2="38.9"/>
<path class="st3" d="M34.4,39.4c0,0-5-4.2-5-8.9c0-2.8,2.2-5.1,5-5.1c2.8,0,5,2.3,5,5.1C39.4,35.2,34.4,39.4,34.4,39.4z"/>
<line class="st3" x1="34.4" y1="29.9" x2="34.4" y2="30.9"/>
<g>
	<line class="st1" x1="5.6" y1="10.1" x2="5.6" y2="11.1"/>
	<line class="st1" x1="10.6" y1="10.1" x2="10.6" y2="11.1"/>
	<line class="st1" x1="15.6" y1="10.1" x2="15.6" y2="11.1"/>
	<line class="st1" x1="20.6" y1="10.1" x2="20.6" y2="11.1"/>
	<line class="st1" x1="25.6" y1="10.1" x2="25.6" y2="11.1"/>
</g>
<g>
	<line class="st1" x1="5.6" y1="15.1" x2="5.6" y2="16.1"/>
	<line class="st1" x1="10.6" y1="15.1" x2="10.6" y2="16.1"/>
	<line class="st1" x1="15.6" y1="15.1" x2="15.6" y2="16.1"/>
	<line class="st1" x1="20.6" y1="15.1" x2="20.6" y2="16.1"/>
	<line class="st1" x1="25.6" y1="15.1" x2="25.6" y2="16.1"/>
</g>
<g>
	<line class="st1" x1="5.6" y1="20.1" x2="5.6" y2="21.1"/>
	<line class="st1" x1="10.6" y1="20.1" x2="10.6" y2="21.1"/>
	<line class="st1" x1="15.6" y1="20.1" x2="15.6" y2="21.1"/>
	<line class="st1" x1="20.6" y1="20.1" x2="20.6" y2="21.1"/>
	<line class="st1" x1="25.6" y1="20.1" x2="25.6" y2="21.1"/>
</g>
</svg>
