<svg xmlns="http://www.w3.org/2000/svg" width="23.3" height="18.3" viewBox="0 0 23.3 18.3">
  <g id="신청02" transform="translate(0.15 0.15)">
    <path id="패스_138" data-name="패스 138" d="M58.51,55.021A3.51,3.51,0,1,0,55,51.51,3.514,3.514,0,0,0,58.51,55.021Zm0-6.178a2.668,2.668,0,1,1-2.668,2.668A2.671,2.671,0,0,1,58.51,48.843Z" transform="translate(-51.911 -48)" fill="#9669dc" stroke="#9669dc" stroke-width="0.3"/>
    <path id="패스_139" data-name="패스 139" d="M223.51,55.021A3.51,3.51,0,1,0,220,51.51,3.514,3.514,0,0,0,223.51,55.021Zm0-6.178a2.668,2.668,0,1,1-2.668,2.668A2.671,2.671,0,0,1,223.51,48.843Z" transform="translate(-209.18 -48)" fill="#9669dc" stroke="#9669dc" stroke-width="0.3"/>
    <path id="패스_140" data-name="패스 140" d="M221.822,204.927a.421.421,0,0,0,.591.076c.184-.142.328-.251.185-.435a6.6,6.6,0,0,0-8.915-1.44.421.421,0,0,0,.472.7,5.728,5.728,0,0,1,3.219-.983A5.374,5.374,0,0,1,221.822,204.927Z" transform="translate(-203.002 -194.312)" fill="#9669dc" stroke="#9669dc" stroke-width="0.3"/>
    <path id="패스_141" data-name="패스 141" d="M6.6,202A6.607,6.607,0,0,0,0,208.6a.421.421,0,1,0,.843,0,5.757,5.757,0,0,1,11.514,0,.421.421,0,1,0,.843,0A6.607,6.607,0,0,0,6.6,202Z" transform="translate(0 -194.365)" fill="#9669dc" stroke="#9669dc" stroke-width="0.3"/>
    <path id="패스_142" data-name="패스 142" d="M324.072,272a4.072,4.072,0,1,0,4.072,4.072A4.077,4.077,0,0,0,324.072,272Zm0,7.3a3.23,3.23,0,1,1,3.23-3.23A3.233,3.233,0,0,1,324.072,279.3Z" transform="translate(-305.145 -262.144)" fill="#9669dc" stroke="#9669dc" stroke-width="0.3"/>
    <path id="패스_143" data-name="패스 143" d="M3.244,1.4H.847V.421A.421.421,0,0,0,0,.421V1.4a.819.819,0,0,0,.164.654.945.945,0,0,0,.679.189h2.4a.421.421,0,0,0,0-.843Z" transform="translate(16.837 14.047) rotate(-45)" fill="#9669dc" stroke="#9669dc" stroke-width="0.3"/>
  </g>
</svg>
