<svg xmlns="http://www.w3.org/2000/svg" width="15.428" height="18.264" viewBox="0 0 15.428 18.264">
  <g id="그룹_4335" data-name="그룹 4335" transform="translate(-371.907 -799.76)">
    <g id="그룹_4336" data-name="그룹 4336" transform="translate(371.907 799.76)">
      <g id="사각형_706" data-name="사각형 706">
        <path id="패스_7000" data-name="패스 7000" d="M384.143,806.567V802.42a1.6,1.6,0,0,0-1.6-1.6h-7.98a1.6,1.6,0,0,0-1.6,1.6v10.64a1.6,1.6,0,0,0,1.6,1.6h5.685l.079,1.064h-5.764a2.663,2.663,0,0,1-2.66-2.66V802.42a2.663,2.663,0,0,1,2.66-2.66h7.98a2.663,2.663,0,0,1,2.66,2.66v4.147Z" transform="translate(-371.907 -799.76)" fill="#003170"/>
      </g>
      <g id="그룹_4334" data-name="그룹 4334" transform="translate(7.998 12.709)">
        <path id="패스_7001" data-name="패스 7001" d="M392.781,829.205a.529.529,0,0,1-.263-.07L390.1,827.76l-2.365,1.373a.532.532,0,0,1-.8-.46v-4.491a.532.532,0,0,1,1.064,0v3.567l1.83-1.062a.529.529,0,0,1,.53,0l1.883,1.073v-3.576a.532.532,0,0,1,1.064,0v4.491a.532.532,0,0,1-.532.532Z" transform="translate(-386.941 -823.65)" fill="#003170"/>
      </g>
      <g id="타원_42" data-name="타원 42" transform="translate(6.916 5.852)">
        <path id="패스_7002" data-name="패스 7002" d="M389.163,819.8a4.53,4.53,0,1,1,4.256-4.522A4.4,4.4,0,0,1,389.163,819.8Zm0-7.98a3.469,3.469,0,1,0,3.192,3.458A3.337,3.337,0,0,0,389.163,811.824Z" transform="translate(-384.907 -810.76)" fill="#003170"/>
      </g>
      <path id="패스_7003" data-name="패스 7003" d="M391.2,819.633a.532.532,0,0,1-.346-.128l-1.429-1.224a.532.532,0,0,1,.692-.808l1.084.928,1.083-.928a.532.532,0,1,1,.692.808l-1.429,1.224A.53.53,0,0,1,391.2,819.633Z" transform="translate(-380.018 -807.99)" fill="#003170"/>
      <g id="그룹_4335-2" data-name="그룹 4335" transform="translate(2.487 4.126)">
        <path id="패스_7004" data-name="패스 7004" d="M384.054,808.58h-6.94a.532.532,0,1,1,0-1.064h6.94a.532.532,0,0,1,0,1.064Z" transform="translate(-376.582 -807.516)" fill="#003170"/>
        <path id="패스_7005" data-name="패스 7005" d="M382.341,813.953h-5.227a.532.532,0,0,1,0-1.064h5.227a.532.532,0,0,1,0,1.064Z" transform="translate(-376.582 -810.031)" fill="#003170"/>
        <path id="패스_7006" data-name="패스 7006" d="M381.277,819.324h-4.163a.532.532,0,1,1,0-1.064h4.163a.532.532,0,1,1,0,1.064Z" transform="translate(-376.582 -812.544)" fill="#003170"/>
      </g>
    </g>
    <path id="패스_7007" data-name="패스 7007" d="M396.907,824.76" transform="translate(-11.7 -11.7)" fill="#003170"/>
    <path id="패스_7008" data-name="패스 7008" d="M396.907,824.76" transform="translate(-11.7 -11.7)" fill="#003170"/>
  </g>
</svg>
