<svg id="구성_요소_139_1" data-name="구성 요소 139 – 1" xmlns="http://www.w3.org/2000/svg" width="13.738" height="16.264" viewBox="0 0 13.738 16.264">
  <g id="그룹_4336" data-name="그룹 4336">
    <g id="사각형_706" data-name="사각형 706">
      <path id="패스_7000" data-name="패스 7000" d="M382.8,805.822v-3.693a1.422,1.422,0,0,0-1.421-1.421h-7.106a1.423,1.423,0,0,0-1.421,1.421V811.6a1.423,1.423,0,0,0,1.421,1.421h5.062l.07.947h-5.132a2.371,2.371,0,0,1-2.369-2.369v-9.474a2.371,2.371,0,0,1,2.369-2.369h7.106a2.371,2.371,0,0,1,2.369,2.369v3.693Z" transform="translate(-371.907 -799.76)" fill="#fff"/>
    </g>
    <g id="그룹_4334" data-name="그룹 4334" transform="translate(7.122 11.317)">
      <path id="패스_7001" data-name="패스 7001" d="M392.141,828.6a.471.471,0,0,1-.234-.063l-2.148-1.224-2.106,1.223a.474.474,0,0,1-.712-.41v-4a.474.474,0,0,1,.947,0V827.3l1.63-.946a.471.471,0,0,1,.472,0l1.677.955v-3.184a.474.474,0,0,1,.947,0v4a.474.474,0,0,1-.474.474Z" transform="translate(-386.941 -823.65)" fill="#fff"/>
    </g>
    <g id="타원_42" data-name="타원 42" transform="translate(6.158 5.211)">
      <path id="패스_7002" data-name="패스 7002" d="M388.7,818.813a4.034,4.034,0,1,1,3.79-4.027A3.918,3.918,0,0,1,388.7,818.813Zm0-7.106a3.089,3.089,0,1,0,2.842,3.079A2.971,2.971,0,0,0,388.7,811.707Z" transform="translate(-384.907 -810.76)" fill="#fff"/>
    </g>
    <path id="패스_7003" data-name="패스 7003" d="M390.985,819.383a.473.473,0,0,1-.308-.114l-1.273-1.09a.474.474,0,0,1,.616-.72l.965.826.964-.826a.474.474,0,1,1,.616.72l-1.272,1.09A.472.472,0,0,1,390.985,819.383Z" transform="translate(-381.028 -809.015)" fill="#fff"/>
    <g id="그룹_4335" data-name="그룹 4335" transform="translate(2.215 3.674)">
      <path id="패스_7004" data-name="패스 7004" d="M383.236,808.463h-6.18a.474.474,0,1,1,0-.947h6.18a.474.474,0,0,1,0,.947Z" transform="translate(-376.582 -807.516)" fill="#fff"/>
      <path id="패스_7005" data-name="패스 7005" d="M381.711,813.836h-4.655a.474.474,0,1,1,0-.948h4.655a.474.474,0,0,1,0,.948Z" transform="translate(-376.582 -810.344)" fill="#fff"/>
      <path id="패스_7006" data-name="패스 7006" d="M380.763,819.207h-3.707a.474.474,0,1,1,0-.947h3.707a.474.474,0,1,1,0,.947Z" transform="translate(-376.582 -813.17)" fill="#fff"/>
    </g>
  </g>
  <path id="패스_7007" data-name="패스 7007" d="M396.907,824.76" transform="translate(-385.064 -812.917)" fill="#fff"/>
  <path id="패스_7008" data-name="패스 7008" d="M396.907,824.76" transform="translate(-385.064 -812.917)" fill="#fff"/>
</svg>
