<svg id="합치기_6" data-name="합치기 6" xmlns="http://www.w3.org/2000/svg" width="20.802" height="17.59" viewBox="0 0 20.802 17.59">
  <path id="합치기_6-2" data-name="합치기 6" d="M1.567,17.09v0a.719.719,0,0,1-.64-.309c-.166-.254-.28-.686,0-2.116.148-.746.372-1.59.557-2.242A6.955,6.955,0,0,1-.5,7.634,7.323,7.323,0,0,1,2.595,1.84,11.982,11.982,0,0,1,9.9-.5a11.983,11.983,0,0,1,7.307,2.34A7.323,7.323,0,0,1,20.3,7.634a7.323,7.323,0,0,1-3.095,5.794A11.983,11.983,0,0,1,9.9,15.768a12.912,12.912,0,0,1-3.931-.6C2.877,16.887,1.975,17.09,1.567,17.09ZM9.9.5C4.717.5.5,3.7.5,7.634a6.046,6.046,0,0,0,1.9,4.3l.208.209-.082.283a15.8,15.8,0,0,0-.773,3.639,18.968,18.968,0,0,0,3.918-1.873l.194-.109.211.071a11.873,11.873,0,0,0,3.823.617c5.184,0,9.4-3.2,9.4-7.134S15.085.5,9.9.5Z" transform="translate(0.5 0.5)" fill="#777"/>
</svg>
