<?xml version="1.0" encoding="utf-8"?>
<!-- Generator: Adobe Illustrator 25.2.2, SVG Export Plug-In . SVG Version: 6.00 Build 0)  -->
<svg version="1.1" id="Layer_1" xmlns="http://www.w3.org/2000/svg" xmlns:xlink="http://www.w3.org/1999/xlink" x="0px" y="0px"
	 viewBox="0 0 100 100" style="enable-background:new 0 0 100 100;" xml:space="preserve">
<style type="text/css">
	.st0{clip-path:url(#SVGID_2_);}
	.st1{fill:#245DAE;}
	.st2{fill:none;stroke:#FFFFFF;stroke-width:4;stroke-linecap:round;stroke-miterlimit:10;}
	.st3{enable-background:new    ;}
	.st4{fill:#FFFFFF;}
</style>
<g>
	<g>
		<g>
			<defs>
				<circle id="SVGID_1_" cx="50" cy="50" r="49.6"/>
			</defs>
			<clipPath id="SVGID_2_">
				<use xlink:href="#SVGID_1_"  style="overflow:visible;"/>
			</clipPath>
			<g class="st0">
				<rect x="-55.1" y="-65.8" class="st1" width="208.9" height="208.9"/>
			</g>
		</g>
	</g>
	<polyline class="st2" points="69.5,41 50,21.5 30.5,41 	"/>
	<g class="st3">
		<path class="st4" d="M31.1,58.4h-4.9v-2.9h13.5v2.9h-5v14.7h-3.5V58.4z"/>
		<path class="st4" d="M40.9,64.2c0-5.7,3.2-9.1,7.9-9.1s7.9,3.4,7.9,9.1s-3.2,9.2-7.9,9.2S40.9,69.9,40.9,64.2z M53,64.2
			c0-3.8-1.7-6-4.3-6s-4.3,2.3-4.3,6c0,3.8,1.7,6.2,4.3,6.2S53,68,53,64.2z"/>
		<path class="st4" d="M60.1,55.5h5.8c3.9,0,6.9,1.4,6.9,5.5c0,4-3,5.8-6.8,5.8h-2.4v6.3h-3.5V55.5z M65.7,64c2.4,0,3.6-1,3.6-3
			c0-2-1.3-2.7-3.7-2.7h-2V64H65.7z"/>
	</g>
</g>
</svg>
