<svg xmlns="http://www.w3.org/2000/svg" width="20.899" height="23.075" viewBox="0 0 20.899 23.075">
  <path id="패스_7114_-_윤곽선" data-name="패스 7114 - 윤곽선" d="M5.251,22.575H4.843l-.089-.036a1.091,1.091,0,0,1-.711-1.107c.006-.9.005-1.816,0-2.7q0-.333,0-.666l-.959.166-.705.125c-.527.094-1.072.19-1.61.279a1.367,1.367,0,0,1-.642-.048.953.953,0,0,1-.623-1.035,1.011,1.011,0,0,1,.859-.88c.228-.043.458-.083.68-.121l.322-.056.753-.133c.631-.112,1.281-.227,1.927-.334,0-2.248,0-4.53,0-6.738V8.11L3.1,8.274l-.77.136C1.826,8.5,1.3,8.591.788,8.678a1.107,1.107,0,0,1-1-.283.984.984,0,0,1-.266-.728A1,1,0,0,1,.4,6.709q1.32-.233,2.64-.463l1-.175q0-.444,0-.888c0-.884,0-1.8,0-2.7a1,1,0,0,1,.984-1.068,1.1,1.1,0,0,1,.272.035,1,1,0,0,1,.74,1.024c0,.374,0,.754,0,1.121q0,.228,0,.456V5.721l7.788-1.361V3.8q0-1.565,0-3.13V.64a1.753,1.753,0,0,1,.016-.286A1,1,0,0,1,14.835-.5a1,1,0,0,1,.988.894,2.051,2.051,0,0,1,.011.26V.69q0,1.457,0,2.914v.4l.461-.079,1.138-.2q.83-.147,1.66-.292a1.686,1.686,0,0,1,.288-.028,1.053,1.053,0,0,1,.952.652l.066.115v.389l-.028.08a1.159,1.159,0,0,1-.983.78c-.693.117-1.4.241-2.08.361-.484.085-.982.173-1.477.258,0,2.13,0,4.288,0,6.379v1.54l.4-.068,1.362-.24,1.457-.257a1.533,1.533,0,0,1,.263-.024.978.978,0,0,1,1.035.887,1.01,1.01,0,0,1-.887,1.1q-1.068.189-2.137.374l-1.086.19-.41.073v.88c0,.882,0,1.795,0,2.693a1,1,0,0,1-.986,1.082,1.088,1.088,0,0,1-.29-.04,1.013,1.013,0,0,1-.722-1.054q0-1.145,0-2.289v-.921L6.046,17.713q0,.433,0,.866c0,.928,0,1.887,0,2.829a1.1,1.1,0,0,1-.71,1.131Zm-.2-1.826q0,.346,0,.691a.665.665,0,0,0,0,.077.759.759,0,0,0,0-.1Q5.047,21.083,5.046,20.749Zm9.788-3.76v.284q0,.712,0,1.425C14.835,18.124,14.834,17.551,14.834,16.989ZM5.046,6.922V9.289c0,2.273,0,4.623,0,6.934a.7.7,0,0,1-.63.757c-.708.116-1.427.243-2.123.367l-.755.133-.326.056c-.215.037-.437.075-.652.116l.045,0c.533-.088,1.074-.184,1.6-.277l.708-.125,1.052-.182,1.079-.186v-.005l9.788-1.711v0l.686-.123.551-.1,1.087-.19q1.067-.186,2.134-.374l.021,0a.541.541,0,0,0-.086.009l-1.455.256-1.364.241c-.223.039-.449.076-.669.112l-.311.051-.527.087L14.85,14.6c0-.02,0-.037-.006-.051a1.089,1.089,0,0,1-.01-.135v-1.99c0-2.173,0-4.42,0-6.629a.66.66,0,0,1,.595-.694c.57-.1,1.149-.2,1.709-.3.683-.12,1.39-.245,2.087-.362a.641.641,0,0,0,.112-.027l-.07.01q-.829.144-1.657.291l-1.14.2c-.234.041-.469.08-.709.12l-.341.057-.583.1V5.2L5.046,6.911V6.906L4.509,7l-.223.041-1.071.187Q1.9,7.462.577,7.694l-.02,0a.425.425,0,0,0,.064-.006c.512-.086,1.033-.178,1.536-.267l.772-.136L3.994,7.1Zm0-3.958c0,.695,0,1.394,0,2.076V4.054q0-.229,0-.457C5.046,3.388,5.047,3.176,5.046,2.963Zm.014,13.9V6.915l9.759-1.707v9.949Zm1-9.108v7.918l7.759-1.357V6.4Z" transform="translate(0.501 0.5)" fill="#003170"/>
</svg>
