<svg xmlns="http://www.w3.org/2000/svg" width="18.854" height="22" viewBox="0 0 18.854 22">
  <g id="_1077063" data-name="1077063" transform="translate(0.25 0.25)">
    <path id="패스_6970" data-name="패스 6970" d="M91.64,9.217A4.459,4.459,0,0,0,94.9,7.867a4.459,4.459,0,0,0,1.35-3.258A4.46,4.46,0,0,0,94.9,1.35a4.607,4.607,0,0,0-6.517,0,4.459,4.459,0,0,0-1.35,3.258,4.459,4.459,0,0,0,1.35,3.258A4.461,4.461,0,0,0,91.64,9.217ZM89.175,2.143a3.486,3.486,0,0,1,4.931,0,3.332,3.332,0,0,1,1.022,2.465,3.332,3.332,0,0,1-1.022,2.466,3.486,3.486,0,0,1-4.931,0,3.331,3.331,0,0,1-1.022-2.466A3.331,3.331,0,0,1,89.175,2.143Zm0,0" transform="translate(-82.602)" fill="#aaa" stroke="#aaa" stroke-width="0.5"/>
    <path id="패스_6971" data-name="패스 6971" d="M18.31,253.606a13.087,13.087,0,0,0-.178-1.39,10.952,10.952,0,0,0-.342-1.4,6.9,6.9,0,0,0-.575-1.3,4.913,4.913,0,0,0-.866-1.129A3.82,3.82,0,0,0,15.1,247.6a4.3,4.3,0,0,0-1.589-.288,1.613,1.613,0,0,0-.861.365c-.258.168-.56.363-.9.578a5.141,5.141,0,0,1-1.161.511,4.507,4.507,0,0,1-2.84,0,5.126,5.126,0,0,1-1.16-.511c-.334-.213-.636-.408-.9-.579a1.611,1.611,0,0,0-.861-.365,4.3,4.3,0,0,0-1.589.288A3.817,3.817,0,0,0,2,248.386a4.914,4.914,0,0,0-.866,1.129,6.916,6.916,0,0,0-.575,1.3,10.979,10.979,0,0,0-.342,1.4,13,13,0,0,0-.178,1.391c-.029.42-.044.857-.044,1.3a3.653,3.653,0,0,0,1.085,2.764,3.905,3.905,0,0,0,2.8,1.02H14.474a3.906,3.906,0,0,0,2.8-1.02,3.652,3.652,0,0,0,1.085-2.764c0-.443-.015-.881-.044-1.3Zm-1.93,3.129a2.629,2.629,0,0,1-1.907.664H3.881a2.629,2.629,0,0,1-1.907-.664,2.385,2.385,0,0,1-.685-1.83c0-.412.014-.819.041-1.21a11.725,11.725,0,0,1,.161-1.252,9.682,9.682,0,0,1,.3-1.232,5.631,5.631,0,0,1,.468-1.06,3.643,3.643,0,0,1,.637-.834,2.534,2.534,0,0,1,.828-.515,2.967,2.967,0,0,1,1.015-.2c.045.024.126.07.256.155.265.173.571.37.908.585A6.387,6.387,0,0,0,7.36,250a5.8,5.8,0,0,0,3.633,0,6.394,6.394,0,0,0,1.458-.652c.346-.221.643-.412.908-.585.13-.085.211-.131.256-.155a2.97,2.97,0,0,1,1.016.2,2.538,2.538,0,0,1,.828.515,3.633,3.633,0,0,1,.637.835,5.612,5.612,0,0,1,.468,1.06,9.658,9.658,0,0,1,.3,1.232,11.824,11.824,0,0,1,.161,1.252h0c.027.389.041.8.041,1.209a2.385,2.385,0,0,1-.685,1.83Zm0,0" transform="translate(0 -237.189)" fill="#aaa" stroke="#aaa" stroke-width="0.5"/>
  </g>
</svg>
