<svg id="_047-chain" data-name="047-chain" xmlns="http://www.w3.org/2000/svg" width="23.184" height="23.184" viewBox="0 0 23.184 23.184">
  <g id="_047-chain-2" data-name="047-chain" transform="translate(-4.776 11.663) rotate(-45)">
    <path id="패스_125" data-name="패스 125" d="M18.482,151.083h-5.5a4.747,4.747,0,0,0-1.357.2,4.759,4.759,0,0,0-1.359-.2h-5.5a4.769,4.769,0,0,0,0,9.539h5.5a4.747,4.747,0,0,0,1.357-.2,4.756,4.756,0,0,0,1.358.2h5.5a4.769,4.769,0,0,0,0-9.539ZM4.766,159.259a3.407,3.407,0,0,1,0-6.813H9.65a4.792,4.792,0,0,0-.974,1.363H4.766a2.044,2.044,0,0,0,0,4.088h5.5a2.046,2.046,0,0,0,2.043-2.044H12.3a.682.682,0,0,1,.681-.681h.62a3.408,3.408,0,0,1-3.336,4.088Zm3.5-2.725h-3.5a.681.681,0,0,1,0-1.363h3.5a4.755,4.755,0,0,0,0,1.363Zm6.718-1.363h3.5a.681.681,0,0,1,0,1.363h-3.5a4.755,4.755,0,0,0,0-1.363Zm3.5,4.088H13.6a4.792,4.792,0,0,0,.974-1.363h3.91a2.044,2.044,0,0,0,0-4.088h-5.5a2.046,2.046,0,0,0-2.043,2.044h.008a.682.682,0,0,1-.681.681h-.62a3.408,3.408,0,0,1,3.336-4.088h5.5a3.407,3.407,0,0,1,0,6.813Z" transform="translate(0 -144.329)" fill="#aaa"/>
  </g>
</svg>
