<svg id="_1946429" data-name="1946429" xmlns="http://www.w3.org/2000/svg" width="20" height="20" viewBox="0 0 20 20">
  <path id="_1946429-2" data-name="1946429" d="M17.071,2.929A10,10,0,0,0,2.928,17.071,10,10,0,0,0,17.071,2.929ZM5.013,17.281a5.064,5.064,0,0,1,9.973,0,8.809,8.809,0,0,1-9.973,0ZM6.82,8.745A3.18,3.18,0,1,1,10,11.924a3.183,3.183,0,0,1-3.18-3.18ZM16,16.468a6.245,6.245,0,0,0-3.631-4.076,4.351,4.351,0,1,0-4.742,0A6.244,6.244,0,0,0,4,16.468a8.828,8.828,0,1,1,12,0Zm0,0" transform="translate(0.001)" fill="#777"/>
</svg>
