<?xml version="1.0" encoding="utf-8"?>
<!-- Generator: Adobe Illustrator 25.2.2, SVG Export Plug-In . SVG Version: 6.00 Build 0)  -->
<svg version="1.1" id="Layer_1" xmlns="http://www.w3.org/2000/svg" xmlns:xlink="http://www.w3.org/1999/xlink" x="0px" y="0px"
	 viewBox="0 0 100 100" style="enable-background:new 0 0 100 100;" xml:space="preserve">
<style type="text/css">
	.st0{clip-path:url(#SVGID_2_);}
	.st1{fill:#EED824;}
	.st2{fill:#371E1F;}
	.st3{enable-background:new    ;}
</style>
<g>
	<g>
		<g>
			<defs>
				<circle id="SVGID_1_" cx="50.2" cy="50.1" r="49.6"/>
			</defs>
			<clipPath id="SVGID_2_">
				<use xlink:href="#SVGID_1_"  style="overflow:visible;"/>
			</clipPath>
			<g class="st0">
				<rect x="-54.3" y="-68.6" class="st1" width="209" height="209"/>
				<g>
					<g>
						<g>
							<path class="st2" d="M45.6,53.3c0,0,3.1,0.3,4.6,0.3c14.7,0,26.6-9.5,26.6-21.2S64.9,11.2,50.2,11.2s-26.6,9.5-26.6,21.2
								c0,7.2,4.6,13.6,11.6,17.4c0,0-0.9,5.1-6.2,9.9c0,0-0.5,0.9,1,0.6C31.5,60,41.3,56.6,45.6,53.3z"/>
						</g>
					</g>
					<g>
						<path class="st1" d="M38.6,25.5h-7.9c-0.7,0-1.4,0.6-1.4,1.4s0.6,1.4,1.4,1.4h2.6v9.6c0,0.3,0.1,0.7,0.4,0.9
							c0.2,0.2,0.6,0.4,0.9,0.4h0.3c0.3,0,0.7-0.1,0.9-0.4c0.2-0.2,0.4-0.6,0.4-0.9v-9.6h2.4c0.7,0,1.4-0.6,1.4-1.4
							C40,26.1,39.4,25.5,38.6,25.5z"/>
						<path class="st1" d="M57.7,36.6H54v-9.8c0-0.8-0.7-1.5-1.5-1.5S51,26,51,26.8v10.6c0,0.1,0,0.2,0,0.2c0,0.1,0,0.2,0,0.2
							c0,0.7,0.5,1.2,1.2,1.2h5.4c0.7,0,1.2-0.6,1.2-1.2C58.9,37.2,58.4,36.6,57.7,36.6z"/>
						<path class="st1" d="M50,37.4l-4-10.9l0,0c-0.3-0.7-1-1.1-1.9-1.1c-1,0-1.8,0.6-1.9,1.4c0,0.1-0.1,0.1-0.1,0.2l-3.9,10.5
							c-0.2,0.7,0.1,1.4,0.8,1.7c0.7,0.2,1.4-0.1,1.7-0.8l0.7-1.9h5.4l0.7,1.9c0.2,0.7,1,1.1,1.7,0.8S50.2,38.1,50,37.4z M42.3,33.9
							l1.8-5.2c0,0,0,0,0.1,0l1.8,5.2H42.3z"/>
						<path class="st1" d="M69.5,37.1l-4.1-5.5l3.7-3.8c0.5-0.5,0.5-1.3,0-1.8s-1.3-0.5-1.8,0l-4.6,4.6v-3.9c0-0.8-0.7-1.5-1.5-1.5
							s-1.5,0.7-1.5,1.5v10.9c0,0.8,0.7,1.5,1.5,1.5s1.5-0.7,1.5-1.5v-3.4l0.8-0.8l3.9,5.2c0.4,0.6,1.3,0.7,1.8,0.3
							C69.8,38.5,70,37.6,69.5,37.1z"/>
					</g>
				</g>
			</g>
		</g>
	</g>
	<g class="st3">
		<path class="st2" d="M49.8,75.1v2.3h-7.4v3.4h-2.9v-3.4h-7.9v-2.3H49.8z M36.6,82.6h11.2v2.3H33.7v-5.8h2.9V82.6z M47.5,73.5H33.8
			v-7.5h13.6V73.5z M44.6,68.3h-8v3h8V68.3z"/>
		<path class="st2" d="M51.8,78.9c3.5,0,8.5,0,12.7-0.7l0.2,2.1c-4.3,0.9-9,0.9-12.5,0.9L51.8,78.9z M63.7,71.5
			c0,2.9-2.4,4.9-5.5,4.9c-3.1,0-5.5-2-5.5-4.9c0-2.9,2.4-5,5.5-5C61.3,66.5,63.7,68.6,63.7,71.5z M55.4,71.5c0,1.6,1.2,2.5,2.7,2.5
			c1.5,0,2.7-0.9,2.7-2.5c0-1.6-1.2-2.5-2.7-2.5C56.6,69,55.4,69.9,55.4,71.5z M68.4,65.2v20.1h-2.9V65.2H68.4z"/>
	</g>
</g>
</svg>
