<svg id="_992596" data-name="992596" xmlns="http://www.w3.org/2000/svg" width="22" height="21.999" viewBox="0 0 22 21.999">
  <g id="그룹_2" data-name="그룹 2" transform="translate(4.184 3.932)">
    <g id="그룹_1" data-name="그룹 1">
      <path id="패스_1" data-name="패스 1" d="M122.145,77.3a6.546,6.546,0,0,0,3.894-6.151,6.816,6.816,0,0,0-13.631,0A6.546,6.546,0,0,0,116.3,77.3l.053.03.361.62a1.447,1.447,0,0,0-.491,1.927,1.408,1.408,0,0,0,.173.247,1.467,1.467,0,0,0,.088,2.006,1.324,1.324,0,0,0,.921.371h3.635a1.389,1.389,0,0,0,1.363-1.414,1.458,1.458,0,0,0-.355-.963,1.457,1.457,0,0,0-.082-1.993,1.35,1.35,0,0,0-.236-.181l.361-.62Zm-1.1,4.25h-3.635a.476.476,0,0,1,0-.951h3.635a.476.476,0,0,1,0,.951Zm0-1.9h-3.635a.476.476,0,0,1,0-.951h3.635a.476.476,0,0,1,0,.951Zm.692-3.2-.182.1a.466.466,0,0,0-.171.17l-.594,1.02h-.2V74.141l2.139-2.238-.643-.672-2.272,2.377a.487.487,0,0,0-.133.336v3.8h-.909v-3.8a.487.487,0,0,0-.133-.336l-2.272-2.377-.643.672,2.139,2.238v3.607h-.2l-.594-1.02a.466.466,0,0,0-.171-.17l-.182-.1-.045-.022a5.608,5.608,0,0,1-3.353-5.281,5.909,5.909,0,0,1,11.814,0,5.608,5.608,0,0,1-3.353,5.281Z" transform="translate(-112.407 -64.435)" fill="#547bd3"/>
    </g>
  </g>
  <g id="그룹_4" data-name="그룹 4" transform="translate(1.57 3.125)">
    <g id="그룹_3" data-name="그룹 3" transform="translate(0 0)">
      <rect id="사각형_2" data-name="사각형 2" width="0.884" height="2.963" transform="translate(0 0.79) rotate(-63.435)" fill="#547bd3"/>
    </g>
  </g>
  <g id="그룹_6" data-name="그룹 6" transform="translate(17.279 3.34)">
    <g id="그룹_5" data-name="그룹 5" transform="translate(0 0)">
      <rect id="사각형_3" data-name="사각형 3" width="2.963" height="0.884" transform="translate(0 0.938) rotate(-18.446)" fill="#547bd3"/>
    </g>
  </g>
  <g id="그룹_8" data-name="그룹 8" transform="translate(0 9.912)">
    <g id="그룹_7" data-name="그룹 7">
      <rect id="사각형_4" data-name="사각형 4" width="2.651" height="0.884" fill="#547bd3"/>
    </g>
  </g>
  <g id="그룹_10" data-name="그룹 10" transform="translate(19.35 9.912)">
    <g id="그룹_9" data-name="그룹 9">
      <rect id="사각형_5" data-name="사각형 5" width="2.651" height="0.884" fill="#547bd3"/>
    </g>
  </g>
  <g id="그룹_12" data-name="그룹 12" transform="translate(1.57 15.314)">
    <g id="그룹_11" data-name="그룹 11" transform="translate(0 0)">
      <rect id="사각형_6" data-name="사각형 6" width="2.963" height="0.884" transform="translate(0 1.325) rotate(-26.565)" fill="#547bd3"/>
    </g>
  </g>
  <g id="그룹_14" data-name="그룹 14" transform="translate(17.385 15.316)">
    <g id="그룹_13" data-name="그룹 13" transform="translate(0 0)">
      <rect id="사각형_7" data-name="사각형 7" width="0.884" height="2.963" transform="translate(0 0.79) rotate(-63.435)" fill="#547bd3"/>
    </g>
  </g>
  <g id="그룹_16" data-name="그룹 16" transform="translate(10.559)">
    <g id="그룹_15" data-name="그룹 15">
      <rect id="사각형_8" data-name="사각형 8" width="0.884" height="2.209" fill="#547bd3"/>
    </g>
  </g>
</svg>
