<svg id="_2936988" data-name="2936988" xmlns="http://www.w3.org/2000/svg" width="22.001" height="22" viewBox="0 0 22.001 22">
  <path id="패스_115" data-name="패스 115" d="M117.9,195.517c2.01,0,4.045-.654,4.045-1.9v-2.7l1.9-.846v4.978a.476.476,0,0,0,.952,0v-5.711a.474.474,0,0,0-.291-.439l-6.416-2.851a.476.476,0,0,0-.387,0l-6.424,2.855a.476.476,0,0,0,0,.87l2.573,1.143v2.7c0,1.25,2.035,1.9,4.045,1.9Zm3.093-1.9c0,.285-1.052.952-3.093.952s-3.093-.667-3.093-.952v-2.282l2.9,1.289a.477.477,0,0,0,.387,0l2.9-1.289Zm-8.346-4.283L117.9,187l5.253,2.335-5.253,2.334Z" transform="translate(-106.898 -178.197)" fill="#9669dc"/>
  <path id="패스_116" data-name="패스 116" d="M22.525,36H1.476A.488.488,0,0,0,1,36.5v21a.488.488,0,0,0,.476.5H9.859a.5.5,0,0,0,0-1H1.952V41.5h20.1V57H14.142a.5.5,0,0,0,0,1h8.383A.488.488,0,0,0,23,57.5v-21A.488.488,0,0,0,22.525,36Zm-.476,4.5H1.952V37H14.38v1a.476.476,0,1,0,.952,0V37h1.9v1a.476.476,0,1,0,.952,0V37h1.9v1a.476.476,0,1,0,.952,0V37h1.007Z" transform="translate(-1 -36)" fill="#9669dc"/>
  <ellipse id="타원_25" data-name="타원 25" cx="0.654" rx="0.654" transform="translate(11.002 22)" fill="#9669dc"/>
</svg>
