<svg xmlns="http://www.w3.org/2000/svg" width="22.503" height="21.265" viewBox="0 0 22.503 21.265">
  <g id="_66758" data-name="66758" transform="translate(0.25 0.25)">
    <path id="패스_117" data-name="패스 117" d="M21.958,23.811a.853.853,0,0,0-1.075-.546l-1.109.36a10.41,10.41,0,1,0-9.37,5.865.851.851,0,1,0,0-1.7,8.681,8.681,0,1,1,7.831-4.9l-.379-1.164a.853.853,0,0,0-1.622.526l1.006,3.089a.853.853,0,0,0,1.075.547l3.1-1A.851.851,0,0,0,21.958,23.811Z" transform="translate(0 -8.724)" fill="#547bd3" stroke="#fff" stroke-width="0.5"/>
    <path id="패스_144" data-name="패스 144" d="M-3980-10974.244l3.763-3.236-3.763-3.492Z" transform="translate(3989.121 10987.992)" fill="#547bd3" stroke="#547bd3" stroke-linecap="square" stroke-linejoin="round" stroke-width="1"/>
  </g>
</svg>
