<svg id="_992607" data-name="992607" xmlns="http://www.w3.org/2000/svg" width="22.002" height="22" viewBox="0 0 22.002 22">
  <g id="그룹_24" data-name="그룹 24">
    <g id="그룹_23" data-name="그룹 23">
      <path id="패스_3" data-name="패스 3" d="M9.108,24.208,6.421,20.024V18A6.228,6.228,0,0,0,0,12v.857A5.339,5.339,0,0,1,5.5,18v2.143a.407.407,0,0,0,.065.221L7.9,24H5.963a.444.444,0,0,0-.459.428h0v1.714H3.211a.444.444,0,0,0-.459.429.422.422,0,0,0,.2.357L5.5,28.515v1.063H2.293a.444.444,0,0,0-.459.428h0v3.136H0V34H2.293a.444.444,0,0,0,.459-.428h0V30.436H5.963a.444.444,0,0,0,.459-.428h0v-5.15H8.715a.444.444,0,0,0,.459-.428A.407.407,0,0,0,9.108,24.208ZM5.5,27.485,4.725,27H5.5Z" transform="translate(0 -12)" fill="#777"/>
    </g>
  </g>
  <g id="그룹_28" data-name="그룹 28" transform="translate(0.918 5.537)">
    <g id="그룹_27" data-name="그룹 27">
      <path id="패스_5" data-name="패스 5" d="M18.752,116a.917.917,0,0,1-1.835,0H16a1.835,1.835,0,0,0,3.669,0Z" transform="translate(-16 -116)" fill="#777"/>
    </g>
  </g>
  <g id="그룹_32" data-name="그룹 32" transform="translate(8.682 0.459)">
    <g id="그룹_31" data-name="그룹 31" transform="translate(0)">
      <path id="패스_7" data-name="패스 7" d="M153.862,20h-12.4a.459.459,0,0,0-.459.458h0v8.715a.459.459,0,0,0,.458.459h4.077l-.842,5.9a.459.459,0,0,0,.305.5.465.465,0,0,0,.149.025.459.459,0,0,0,.4-.231l3.537-6.19h4.779a.459.459,0,0,0,.459-.458h0V20.459A.459.459,0,0,0,153.862,20Zm-.459,8.715h-4.587a.458.458,0,0,0-.4.231l-2.477,4.335.577-4.042a.459.459,0,0,0-.389-.519.466.466,0,0,0-.065,0h-4.147v-7.8H153.4Z" transform="translate(-141 -20)" fill="#777"/>
    </g>
  </g>
  <g id="그룹_34" data-name="그룹 34" transform="translate(12.191 2.461)">
    <g id="그룹_33" data-name="그룹 33">
      <path id="패스_8" data-name="패스 8" d="M184.736,54.937l-3.807,4.653-1.935-1.935-.649.649,2.293,2.293a.458.458,0,0,0,.324.134h.023a.459.459,0,0,0,.332-.168l4.128-5.045Z" transform="translate(-178.345 -54.937)" fill="#777"/>
    </g>
  </g>
</svg>
