<svg id="구성_요소_58_3" data-name="구성 요소 58 – 3" xmlns="http://www.w3.org/2000/svg" xmlns:xlink="http://www.w3.org/1999/xlink" width="22.002" height="22" viewBox="0 0 22.002 22">
  <defs>
    <clipPath id="clip-path">
      <rect id="사각형_745" data-name="사각형 745" width="22.002" height="18.531" fill="#9669dc"/>
    </clipPath>
  </defs>
  <path id="패스_7111" data-name="패스 7111" d="M0,0H22V22H0Z" fill="#fff"/>
  <g id="그룹_4396" data-name="그룹 4396" transform="translate(0 2)">
    <g id="그룹_4395" data-name="그룹 4395" clip-path="url(#clip-path)">
      <path id="패스_7063" data-name="패스 7063" d="M1.979,18.532a6.123,6.123,0,0,1-1.013-.447,2.1,2.1,0,0,1-.956-1.81C0,14.784,0,14.845.009,13.355A2.281,2.281,0,0,1,2.282,11.1a4.7,4.7,0,0,1,.769,0L4.777,6.253a.415.415,0,0,0-.064-.317A3.483,3.483,0,0,1,7.41.011a3.319,3.319,0,0,1,3.022,2.183,3.342,3.342,0,0,1-.7,3.7.343.343,0,0,0-.086.412c.613,1.661,1.216,3.325,1.823,4.988.026.071.056.141.1.249.087-.23.163-.427.235-.625.565-1.548,1.127-3.1,1.7-4.644a.29.29,0,0,0-.078-.355,3.466,3.466,0,0,1-.656-3.906,3.455,3.455,0,0,1,3.4-2,3.329,3.329,0,0,1,3,2.208,3.34,3.34,0,0,1-.717,3.675.343.343,0,0,0-.082.413q1.738,4.739,3.463,9.483c.059.163.112.329.168.493v.6a1.987,1.987,0,0,1-.827,1.287,6.292,6.292,0,0,1-.825.364H13.537c-.288-.171-.383-.348-.316-.588.061-.22.246-.328.564-.329.65,0,5.634,0,6.284,0a.985.985,0,0,0,.992-.846,1.49,1.49,0,0,0-.094-.667Q19.291,11.472,17.6,6.853c-.028-.077-.059-.153-.093-.24a3.65,3.65,0,0,1-1.587.37,3.746,3.746,0,0,1-1.56-.364c-.024.047-.04.073-.051.1q-1.1,3.02-2.2,6.043a.486.486,0,0,0,.013.3c.328.92.664,1.836,1,2.754a1.85,1.85,0,0,1,.123,1.077c-.057.24-.139.473-.213.72.286,0,.568-.006.851,0a.385.385,0,0,1,.4.287.914.914,0,0,1-.064.449c-.025.073-.129.119-.2.178ZM3,17.614c.718,0,1.437,0,2.155,0A1.373,1.373,0,0,0,6.58,16.2c0-1.444,0-1.335,0-2.779a1.368,1.368,0,0,0-1.4-1.411c-1.452,0-1.4,0-2.855,0a1.369,1.369,0,0,0-1.4,1.41c0,1.444,0,1.335,0,2.779a1.372,1.372,0,0,0,1.423,1.412c.718,0-.065,0,.653,0m4.038,0h4.149a1.035,1.035,0,0,0,1.06-1.5Q10.589,11.566,8.93,7.02c-.049-.135-.1-.268-.151-.406a3.558,3.558,0,0,1-3.158,0c-.436,1.474-1.514,4.48-1.514,4.48H5.1a2.3,2.3,0,0,1,2.4,2.39c0,1.337-.009,1.122,0,2.46a2.641,2.641,0,0,1-.464,1.672M13.355,3.492A2.577,2.577,0,1,0,15.916.917a2.569,2.569,0,0,0-2.561,2.575M7.2,6.063A2.572,2.572,0,1,0,4.623,3.476,2.582,2.582,0,0,0,7.2,6.063" transform="translate(0 0)" fill="#9669dc"/>
      <path id="패스_7064" data-name="패스 7064" d="M336.7,384.037c-.106-.111-.251-.206-.308-.338a.42.42,0,0,1,.255-.539.454.454,0,0,1,.467.768c-.044.038-.092.073-.138.109Z" transform="translate(-320.892 -365.506)" fill="#9669dc"/>
      <path id="패스_7065" data-name="패스 7065" d="M37.911,279.023a.457.457,0,1,1-.451-.452.462.462,0,0,1,.451.452" transform="translate(-35.295 -265.761)" fill="#9669dc"/>
      <path id="패스_7066" data-name="패스 7066" d="M103.784,279.023a.457.457,0,1,1-.449-.454.462.462,0,0,1,.449.454" transform="translate(-98.139 -265.759)" fill="#9669dc"/>
      <path id="패스_7067" data-name="패스 7067" d="M70.845,311.941a.457.457,0,1,1-.453-.45.462.462,0,0,1,.453.45" transform="translate(-66.715 -297.167)" fill="#9669dc"/>
      <path id="패스_7068" data-name="패스 7068" d="M37.9,344.872a.457.457,0,1,1-.445-.463.462.462,0,0,1,.445.463" transform="translate(-35.288 -328.571)" fill="#9669dc"/>
      <path id="패스_7069" data-name="패스 7069" d="M103.309,345.324a.457.457,0,1,1,.468-.458.463.463,0,0,1-.468.458" transform="translate(-98.133 -328.572)" fill="#9669dc"/>
    </g>
  </g>
</svg>
