<svg xmlns="http://www.w3.org/2000/svg" xmlns:xlink="http://www.w3.org/1999/xlink" width="23" height="23" viewBox="0 0 23 23">
  <defs>
    <clipPath id="clip-대지_1">
      <rect width="23" height="23"/>
    </clipPath>
  </defs>
  <g id="대지_1" data-name="대지 1" clip-path="url(#clip-대지_1)">
    <path id="패스_1" data-name="패스 1" d="M802.547,534.681h-2.779V532H783v9.505h16.769v-2.34h2.779Z" transform="translate(-781.574 -519.169)" fill="#fff"/>
    <g id="그룹_1" data-name="그룹 1" transform="translate(1)">
      <path id="패스_2" data-name="패스 2" d="M794.221,475.466h-2.135v-2.139a.449.449,0,0,0-.449-.449h-3.163a.449.449,0,0,0,0,.9h2.714V475.9c0,.006,0,.012,0,.018v4.445c0,.006,0,.012,0,.018v.828a1.294,1.294,0,0,1-1.293,1.293h-9.32c.267-3.894,4.082-7.571,4.123-7.611a.507.507,0,0,1,.551-.109.409.409,0,0,1,.211.187.194.194,0,0,1-.007.112c-2.983,3.192-3.1,4.283-2.927,4.827a.776.776,0,0,0,.559.536.446.446,0,0,0,.15.005,4.608,4.608,0,0,0,3.6-2.186c1.694-2.923-.158-7.565-.238-7.761a.449.449,0,0,0-.763-.116,4.969,4.969,0,0,1-2.769,1.471c-1.295.365-2.633.742-3.365,2.344a4.762,4.762,0,0,0,.7,5.326,9.2,9.2,0,0,0-.732,2.977h-4.517v-8.722h3.479a.449.449,0,1,0,0-.9h-3.928a.449.449,0,0,0-.449.449v9.621a.449.449,0,0,0,.449.449h15.187a2.194,2.194,0,0,0,2.192-2.191v-.4h2.135a.449.449,0,0,0,.449-.449v-4.445A.449.449,0,0,0,794.221,475.466Zm-.449,4.445h-1.686v-3.546h1.686Z" transform="translate(-774.258 -460.398)" fill="#f76b59"/>
      <path id="패스_3" data-name="패스 3" d="M936.353,320.068h.912v1.9a.221.221,0,0,0,.4.133l2.2-2.905a.221.221,0,0,0-.177-.355h-1.031l.189-1.955a.221.221,0,0,0-.4-.155l-2.267,2.977a.221.221,0,0,0,.176.355Z" transform="translate(-928.241 -314.315)" fill="#f76b59"/>
      <path id="패스_4" data-name="패스 4" d="M870.164,369.568h1.417a.221.221,0,1,0,0-.443h-1.417a.221.221,0,1,0,0,.443Z" transform="translate(-865.279 -364.233)" fill="#f76b59"/>
      <path id="패스_5" data-name="패스 5" d="M1041.57,369.346a.221.221,0,0,0,.221.221h1.417a.221.221,0,1,0,0-.443h-1.417A.221.221,0,0,0,1041.57,369.346Z" transform="translate(-1028.54 -364.233)" fill="#f76b59"/>
      <path id="패스_6" data-name="패스 6" d="M970.289,440.636v1.416a.221.221,0,1,0,.443,0v-1.416a.221.221,0,1,0-.443,0Z" transform="translate(-960.733 -432.048)" fill="#f76b59"/>
      <path id="패스_7" data-name="패스 7" d="M970.51,270.631a.221.221,0,0,0,.221-.221v-1.417a.221.221,0,1,0-.443,0v1.417A.221.221,0,0,0,970.51,270.631Z" transform="translate(-960.733 -268.772)" fill="#f76b59"/>
      <path id="패스_8" data-name="패스 8" d="M900.624,414.936l-1.229,1.229a.221.221,0,0,0,.313.313l1.229-1.229a.221.221,0,1,0-.313-.313Z" transform="translate(-893.234 -407.75)" fill="#f76b59"/>
      <path id="패스_9" data-name="패스 9" d="M1016.262,299.841a.221.221,0,0,0,.156-.065l1.228-1.229a.221.221,0,1,0-.313-.313l-1.228,1.229a.221.221,0,0,0,.157.378Z" transform="translate(-1004.254 -296.736)" fill="#f76b59"/>
      <path id="패스_10" data-name="패스 10" d="M1017.333,416.477a.221.221,0,1,0,.313-.313l-1.228-1.229a.221.221,0,0,0-.313.313Z" transform="translate(-1004.254 -407.749)" fill="#f76b59"/>
      <path id="패스_11" data-name="패스 11" d="M900.618,299.775a.221.221,0,0,0,.313-.313l-1.229-1.229a.221.221,0,0,0-.313.313Z" transform="translate(-893.228 -296.736)" fill="#f76b59"/>
    </g>
  </g>
</svg>
