<svg id="구성_요소_179_9" data-name="구성 요소 179 – 9" xmlns="http://www.w3.org/2000/svg" width="22" height="23.327" viewBox="0 0 22 23.327">
  <g id="그룹_4516" data-name="그룹 4516" transform="translate(-438.166 130.125)">
    <g id="그룹_4514" data-name="그룹 4514">
      <path id="패스_7198" data-name="패스 7198" d="M440.535-109.188H451.21a1.858,1.858,0,0,0,1.858-1.858v-16.709a1.858,1.858,0,0,0-1.858-1.859h-8.236l-4.3,4.3v14.27A1.858,1.858,0,0,0,440.535-109.188Z" fill="#fff"/>
      <path id="패스_7199" data-name="패스 7199" d="M451.21-108.676H440.535a2.372,2.372,0,0,1-2.369-2.37v-14.482l4.6-4.6h8.447a2.372,2.372,0,0,1,2.369,2.37v16.709A2.372,2.372,0,0,1,451.21-108.676ZM439.188-125.1v14.058a1.348,1.348,0,0,0,1.347,1.347H451.21a1.348,1.348,0,0,0,1.347-1.347v-16.709a1.348,1.348,0,0,0-1.347-1.347h-8.024Z" fill="#9669dc"/>
    </g>
    <g id="그룹_4515" data-name="그룹 4515">
      <path id="패스_7200" data-name="패스 7200" d="M442.438-107.309h10.675a1.858,1.858,0,0,0,1.858-1.859v-16.709a1.858,1.858,0,0,0-1.858-1.858h-8.236l-4.3,4.3v14.27A1.858,1.858,0,0,0,442.438-107.309Z" fill="#fff"/>
      <path id="패스_7201" data-name="패스 7201" d="M453.213-106.8H442.538a2.372,2.372,0,0,1-2.369-2.37V-123.65l4.6-4.6h8.447a2.372,2.372,0,0,1,2.369,2.37v16.709A2.372,2.372,0,0,1,453.213-106.8Zm-12.022-16.428v14.058a1.348,1.348,0,0,0,1.347,1.347h10.675a1.349,1.349,0,0,0,1.347-1.347v-16.709a1.349,1.349,0,0,0-1.347-1.347h-8.024Z" fill="#9669dc"/>
    </g>
    <path id="패스_7202" data-name="패스 7202" d="M443.762-122.761h-2.868a.511.511,0,0,1-.511-.511.511.511,0,0,1,.511-.512h2.868a.92.92,0,0,0,.919-.918v-2.819a.511.511,0,0,1,.511-.511.511.511,0,0,1,.511.511v2.819A1.944,1.944,0,0,1,443.762-122.761Z" fill="#9669dc"/>
  </g>
  <g id="그룹_4519" data-name="그룹 4519" transform="translate(-438.166 130.125)">
    <g id="그룹_4517" data-name="그룹 4517">
      <circle id="타원_98" data-name="타원 98" cx="6.247" cy="6.247" r="6.247" transform="translate(447.16 -123.025)" fill="#fff"/>
      <path id="패스_7203" data-name="패스 7203" d="M453.407-110.019a6.766,6.766,0,0,1-6.758-6.759,6.766,6.766,0,0,1,6.758-6.758,6.766,6.766,0,0,1,6.759,6.758A6.767,6.767,0,0,1,453.407-110.019Zm0-12.5a5.743,5.743,0,0,0-5.735,5.736,5.742,5.742,0,0,0,5.735,5.736,5.742,5.742,0,0,0,5.736-5.736A5.743,5.743,0,0,0,453.407-122.514Z" fill="#9669dc"/>
    </g>
    <g id="그룹_4518" data-name="그룹 4518">
      <path id="패스_7204" data-name="패스 7204" d="M457.093-114.375a.284.284,0,0,1-.389.193,6.989,6.989,0,0,0-1.977-.161c-.259.019-.516.065-.775.1.033-.029.07-.064.11-.095a2.41,2.41,0,0,1,1.084-.484,7.2,7.2,0,0,1,.79-.088.7.7,0,0,0,.624-.39.748.748,0,0,0,.07-.355v-3.292c.26-.032.373-.011.463.2Z" fill="#9669dc"/>
      <path id="패스_7205" data-name="패스 7205" d="M453.133-114.457c-.106-.089-.2-.179-.307-.257a3.045,3.045,0,0,0-1.455-.566c-.193-.026-.388-.037-.583-.046a.285.285,0,0,1-.313-.32v-3.93c0-.216.113-.318.33-.312a3.716,3.716,0,0,1,1.092.18,2.186,2.186,0,0,1,1.175.883.392.392,0,0,1,.063.2q0,2.071,0,4.143A.256.256,0,0,1,453.133-114.457Z" fill="#9669dc"/>
      <path id="패스_7206" data-name="패스 7206" d="M453.552-114.444v-.106c0-1.315,0-2.63-.005-3.945a.736.736,0,0,1,.182-.491,2.347,2.347,0,0,1,1.422-.817,6.8,6.8,0,0,1,.769-.084.264.264,0,0,1,.294.288c0,.524,0,1.049,0,1.573v2.372a.282.282,0,0,1-.319.326,3.819,3.819,0,0,0-1.541.322,2.57,2.57,0,0,0-.73.494Z" fill="#9669dc"/>
      <path id="패스_7207" data-name="패스 7207" d="M450.059-118.96v.1q0,1.6,0,3.207a.708.708,0,0,0,.269.6.706.706,0,0,0,.436.143,3.938,3.938,0,0,1,.9.115,2.488,2.488,0,0,1,1.018.508l.043.04.014.022-.164-.034-.158-.028a5.14,5.14,0,0,0-1.379-.042c-.365.039-.728.1-1.091.161a.276.276,0,0,1-.356-.291v-4.2a.269.269,0,0,1,.295-.295Z" fill="#9669dc"/>
    </g>
  </g>
</svg>
