<svg id="구성_요소_12_15" data-name="구성 요소 12 – 15" xmlns="http://www.w3.org/2000/svg" width="22" height="22" viewBox="0 0 22 22">
  <rect id="사각형_699" data-name="사각형 699" width="22" height="22" fill="#fff"/>
  <path id="패스_58" data-name="패스 58" d="M700.083,334.7l-.221-.169c-.026-.02-2.576-1.972-3.958-3.208-3.247-3.073-6.3-5.959-6.155-9.094v-.064a5.762,5.762,0,0,1,1.589-4.006,5.274,5.274,0,0,1,3.835-1.663h0a5.277,5.277,0,0,1,3.834,1.657c.2.209.69.748,1,1.094a19.478,19.478,0,0,1,2.343-2.008,5.312,5.312,0,0,1,7.4,2.124,5.866,5.866,0,0,1,.712,2.8c.112,3.172-3.089,6.2-6.185,9.138l-.02.02c-1.378,1.244-3.857,3.13-3.962,3.21Zm-4.906-17.418h0a4.546,4.546,0,0,0-3.305,1.433,4.962,4.962,0,0,0-1.367,3.448v.084c-.124,2.784,2.933,5.678,5.89,8.476,1.126,1.007,3.046,2.5,3.694,3,.649-.5,2.568-1.987,3.687-3l.01-.01c2.968-2.812,6.038-5.72,5.938-8.513a5.112,5.112,0,0,0-.614-2.455,4.683,4.683,0,0,0-2.828-2.3,4.483,4.483,0,0,0-3.553.467,15.312,15.312,0,0,0-2.157,1.894.756.756,0,0,1-1.1-.031c-.308-.341-.791-.872-.988-1.078A4.544,4.544,0,0,0,695.177,317.285Z" transform="translate(-689.109 -314.939)" fill="#f66e1f"/>
  <path id="패스_59" data-name="패스 59" d="M701.172,329.979a.37.37,0,0,1-.169-.041.357.357,0,0,1-.194-.317v-6.342a.356.356,0,0,1,.194-.317.369.369,0,0,1,.376.022l4.675,3.171a.355.355,0,0,1,0,.589l-4.674,3.171A.371.371,0,0,1,701.172,329.979Zm.363-6.019v.034h0v4.947l3.671-2.491Z" transform="translate(-692.037 -315.791)" fill="#f66e1f"/>
</svg>
