<svg id="video" xmlns="http://www.w3.org/2000/svg" width="21.998" height="17.74" viewBox="0 0 21.998 17.74">
  <path id="패스_7046" data-name="패스 7046" d="M28.756,56H9.242A1.243,1.243,0,0,0,8,57.242V72.5A1.243,1.243,0,0,0,9.242,73.74H28.756A1.243,1.243,0,0,0,30,72.5V57.242A1.243,1.243,0,0,0,28.756,56Zm.532,16.5a.533.533,0,0,1-.532.532H9.242A.533.533,0,0,1,8.71,72.5V70.9H29.288Zm0-2.306H8.71V58.838H29.288Zm0-12.063H8.71v-.887a.533.533,0,0,1,.532-.532H28.756a.533.533,0,0,1,.532.532Z" transform="translate(-8 -56)" fill="#33c1d6"/>
  <path id="패스_7047" data-name="패스 7047" d="M32.355,80.71h.355a.355.355,0,0,0,0-.71h-.355a.355.355,0,0,0,0,.71Z" transform="translate(-30.88 -78.936)" fill="#33c1d6"/>
  <path id="패스_7048" data-name="패스 7048" d="M64.355,80.71h.355a.355.355,0,1,0,0-.71h-.355a.355.355,0,0,0,0,.71Z" transform="translate(-61.461 -78.936)" fill="#33c1d6"/>
  <path id="패스_7049" data-name="패스 7049" d="M96.355,80.71h.355a.355.355,0,1,0,0-.71h-.355a.355.355,0,0,0,0,.71Z" transform="translate(-92.042 -78.936)" fill="#33c1d6"/>
  <path id="패스_7051" data-name="패스 7051" d="M236.681,217.481l-4.129-3.419a.355.355,0,0,0-.552.3V221.2a.355.355,0,0,0,.552.3l4.129-3.419a.355.355,0,0,0,0-.591Zm-3.971,3.052V215.02l3.134,2.756Z" transform="translate(-223 -208.906)" fill="#33c1d6"/>
  <path id="패스_7052" data-name="패스 7052" d="M80.676,400.355H66.484a.355.355,0,0,0-.71,0H64.355a.355.355,0,1,0,0,.71h1.419a.355.355,0,1,0,.71,0H80.676a.355.355,0,1,0,0-.71Z" transform="translate(-61.461 -384.742)" fill="#33c1d6"/>
</svg>
