<svg xmlns="http://www.w3.org/2000/svg" width="25" height="23.792" viewBox="0 0 25 23.792">
  <g id="_2936988" data-name="2936988" transform="translate(-1 -36)">
    <path id="패스_115" data-name="패스 115" d="M118.841,196.814c2.284,0,4.6-.743,4.6-2.163v-3.073l2.163-.961v5.657a.541.541,0,0,0,1.081,0v-6.489a.539.539,0,0,0-.331-.5l-7.29-3.24a.54.54,0,0,0-.439,0l-7.3,3.244a.541.541,0,0,0,0,.988l2.923,1.3v3.073c0,1.42,2.312,2.163,4.6,2.163Zm3.515-2.163c0,.323-1.2,1.081-3.515,1.081s-3.515-.758-3.515-1.081v-2.593l3.3,1.465a.542.542,0,0,0,.439,0l3.3-1.465Zm-9.483-4.867,5.968-2.653,5.969,2.653-5.969,2.653Z" transform="translate(-105.341 -141.889)" fill="#777"/>
    <path id="패스_116" data-name="패스 116" d="M25.458,36H1.541A.541.541,0,0,0,1,36.541V59.251a.541.541,0,0,0,.541.541h9.526a.541.541,0,1,0,0-1.081H2.081V41.948H24.918V58.711H15.933a.541.541,0,1,0,0,1.081h9.526A.541.541,0,0,0,26,59.251V36.541A.541.541,0,0,0,25.458,36Zm-.541,4.867H2.081V37.081H16.2v1.081a.541.541,0,0,0,1.081,0V37.081h2.163v1.081a.541.541,0,0,0,1.081,0V37.081h2.163v1.081a.541.541,0,0,0,1.081,0V37.081h1.144Z" fill="#777"/>
    <ellipse id="타원_25" data-name="타원 25" cx="0.744" rx="0.744" transform="translate(13.499 59.792)" fill="#777"/>
  </g>
</svg>
