<svg xmlns="http://www.w3.org/2000/svg" width="37.495" height="35.472" viewBox="0 0 37.495 35.472">
  <g id="그룹_4394" data-name="그룹 4394" transform="translate(-280.5 -220.651)">
    <g id="_66758" data-name="66758" transform="translate(281 221.151)">
      <path id="패스_117" data-name="패스 117" d="M36.375,33.77a1.413,1.413,0,0,0-1.78-.907l-1.837.6A17.238,17.238,0,1,0,17.236,43.2a1.413,1.413,0,0,0,0-2.826,14.4,14.4,0,1,1,12.973-8.13l-.628-1.932a1.413,1.413,0,0,0-2.687.873l1.666,5.128a1.412,1.412,0,0,0,1.78.907l5.128-1.666A1.413,1.413,0,0,0,36.375,33.77Z" transform="translate(0 -8.724)" fill="#777" stroke="#fff" stroke-width="1"/>
    </g>
    <path id="패스_7061" data-name="패스 7061" d="M-3980-10971.566l5.261-4.523-5.261-4.883Z" transform="translate(4276.596 11214.658)" fill="#777" stroke="#777" stroke-linecap="square" stroke-linejoin="round" stroke-width="1"/>
  </g>
</svg>
