<svg id="구성_요소_58_6" data-name="구성 요소 58 – 6" xmlns="http://www.w3.org/2000/svg" xmlns:xlink="http://www.w3.org/1999/xlink" width="25.002" height="25" viewBox="0 0 25.002 25">
  <defs>
    <clipPath id="clip-path">
      <rect id="사각형_745" data-name="사각형 745" width="25.002" height="21.531" fill="#777"/>
    </clipPath>
  </defs>
  <rect id="사각형_746" data-name="사각형 746" width="25" height="25" fill="#fff"/>
  <g id="그룹_4396" data-name="그룹 4396" transform="translate(0.001 2)">
    <g id="그룹_4395" data-name="그룹 4395" clip-path="url(#clip-path)">
      <path id="패스_7063" data-name="패스 7063" d="M2.249,21.531A6.882,6.882,0,0,1,1.1,21.012a2.461,2.461,0,0,1-1.086-2.1C0,17.177,0,17.248.01,15.516a2.621,2.621,0,0,1,2.583-2.625,5.227,5.227,0,0,1,.874,0L5.429,7.265A.491.491,0,0,0,5.356,6.9a4.1,4.1,0,0,1-.783-4.532A3.918,3.918,0,0,1,8.421.013a3.78,3.78,0,0,1,3.434,2.536,3.947,3.947,0,0,1-.8,4.3.4.4,0,0,0-.1.478c.7,1.929,1.382,3.863,2.071,5.8.03.083.064.164.114.29.1-.268.185-.5.267-.726.642-1.8,1.281-3.6,1.93-5.4a.342.342,0,0,0-.088-.413,4.1,4.1,0,0,1-.746-4.538A3.915,3.915,0,0,1,18.37.014a3.793,3.793,0,0,1,3.414,2.565,3.945,3.945,0,0,1-.814,4.27.4.4,0,0,0-.094.48q1.975,5.506,3.935,11.018c.068.19.128.382.191.573v.693a2.314,2.314,0,0,1-.94,1.5,7.072,7.072,0,0,1-.938.423H15.383c-.327-.2-.435-.4-.36-.684.069-.255.279-.381.64-.382.739,0,6.4.005,7.141,0a1.127,1.127,0,0,0,1.127-.983,1.767,1.767,0,0,0-.107-.775Q21.921,13.33,20,7.962c-.032-.089-.067-.177-.106-.279a4.072,4.072,0,0,1-1.8.43,4.18,4.18,0,0,1-1.772-.423c-.027.054-.046.084-.058.117q-1.253,3.509-2.5,7.021a.576.576,0,0,0,.015.352c.373,1.069.755,2.134,1.135,3.2a2.193,2.193,0,0,1,.139,1.251c-.064.278-.158.55-.242.837.325,0,.646-.007.967,0a.438.438,0,0,1,.453.333,1.083,1.083,0,0,1-.073.522c-.028.085-.146.139-.224.206ZM3.41,20.465c.816,0,1.633,0,2.449,0a1.578,1.578,0,0,0,1.618-1.64c0-1.677,0-1.552,0-3.229a1.573,1.573,0,0,0-1.591-1.64c-1.65-.005-1.594-.005-3.244,0A1.573,1.573,0,0,0,1.05,15.595c0,1.677,0,1.552,0,3.229a1.577,1.577,0,0,0,1.617,1.641c.816,0-.074,0,.743,0m4.589,0h4.715a1.2,1.2,0,0,0,1.2-1.745q-1.885-5.283-3.771-10.565c-.056-.156-.114-.312-.172-.472a3.964,3.964,0,0,1-3.589,0c-.5,1.712-1.72,5.206-1.72,5.206H5.8a2.637,2.637,0,0,1,2.726,2.777c0,1.554-.01,1.3.005,2.858A3.12,3.12,0,0,1,8,20.465M15.176,4.058a2.928,2.928,0,1,0,5.856,0,2.929,2.929,0,1,0-5.856,0m-7,2.986A2.989,2.989,0,1,0,5.253,4.038,2.967,2.967,0,0,0,8.178,7.044" transform="translate(0 0)" fill="#777"/>
      <path id="패스_7064" data-name="패스 7064" d="M336.744,384.185a1.633,1.633,0,0,1-.35-.393.491.491,0,0,1,.29-.626.508.508,0,0,1,.635.2.534.534,0,0,1-.1.692c-.051.044-.1.085-.157.127Z" transform="translate(-318.783 -362.654)" fill="#777"/>
      <path id="패스_7065" data-name="패스 7065" d="M38.035,279.1a.52.52,0,1,1-.512-.525.531.531,0,0,1,.512.525" transform="translate(-35.063 -263.687)" fill="#777"/>
      <path id="패스_7066" data-name="패스 7066" d="M103.909,279.1a.52.52,0,1,1-.51-.527.531.531,0,0,1,.51.527" transform="translate(-97.494 -263.686)" fill="#777"/>
      <path id="패스_7067" data-name="패스 7067" d="M70.97,312.013a.52.52,0,1,1-.514-.523.531.531,0,0,1,.514.523" transform="translate(-66.276 -294.848)" fill="#777"/>
      <path id="패스_7068" data-name="패스 7068" d="M38.029,344.947a.52.52,0,1,1-.506-.538.531.531,0,0,1,.506.538" transform="translate(-35.056 -326.007)" fill="#777"/>
      <path id="패스_7069" data-name="패스 7069" d="M103.37,345.472a.531.531,0,1,1,.532-.532.533.533,0,0,1-.532.532" transform="translate(-97.488 -326.009)" fill="#777"/>
    </g>
  </g>
</svg>
