<svg id="구성_요소_176_6" data-name="구성 요소 176 – 6" xmlns="http://www.w3.org/2000/svg" width="22.2" height="17.111" viewBox="0 0 22.2 17.111">
  <g id="그룹_4476" data-name="그룹 4476" transform="translate(-616.915 102.434)">
    <path id="패스_7151" data-name="패스 7151" d="M636.866-85.423h-17.7a2.151,2.151,0,0,1-2.149-2.149v-12.612a2.151,2.151,0,0,1,2.149-2.149h17.7a2.151,2.151,0,0,1,2.149,2.149v12.612A2.151,2.151,0,0,1,636.866-85.423Zm-17.7-16.255a1.5,1.5,0,0,0-1.494,1.494v12.612a1.5,1.5,0,0,0,1.494,1.494h17.7a1.5,1.5,0,0,0,1.494-1.494v-12.612a1.5,1.5,0,0,0-1.494-1.494Z" fill="#f76b59"/>
    <path id="패스_7152" data-name="패스 7152" d="M636.866-85.323h-17.7a2.251,2.251,0,0,1-2.249-2.249v-12.613a2.251,2.251,0,0,1,2.249-2.249h17.7a2.252,2.252,0,0,1,2.249,2.249v12.613A2.252,2.252,0,0,1,636.866-85.323Zm-17.7-16.91a2.051,2.051,0,0,0-2.049,2.048v12.613a2.051,2.051,0,0,0,2.049,2.049h17.7a2.051,2.051,0,0,0,2.049-2.049v-12.613a2.051,2.051,0,0,0-2.049-2.048Zm17.7,16.254h-17.7a1.6,1.6,0,0,1-1.594-1.593v-12.613a1.6,1.6,0,0,1,1.594-1.593h17.7a1.6,1.6,0,0,1,1.593,1.593v12.613A1.594,1.594,0,0,1,636.866-85.979Zm-17.7-15.6a1.4,1.4,0,0,0-1.394,1.393v12.613a1.4,1.4,0,0,0,1.394,1.393h17.7a1.4,1.4,0,0,0,1.393-1.393v-12.613a1.4,1.4,0,0,0-1.393-1.393Z" fill="#f76b59"/>
  </g>
  <g id="그룹_4477" data-name="그룹 4477" transform="translate(-616.915 102.434)">
    <path id="패스_7153" data-name="패스 7153" d="M625.678-89.889a1.136,1.136,0,0,1-.493-.114,1.116,1.116,0,0,1-.632-1.01v-8.549a1.114,1.114,0,0,1,.632-1.01,1.115,1.115,0,0,1,1.184.126l5.45,4.274a1.116,1.116,0,0,1,.43.884,1.115,1.115,0,0,1-.43.884l-5.45,4.274A1.12,1.12,0,0,1,625.678-89.889Zm0-10.143a.469.469,0,0,0-.207.049.458.458,0,0,0-.263.421v8.549a.457.457,0,0,0,.263.42.458.458,0,0,0,.494-.052l5.45-4.275a.463.463,0,0,0,.179-.368.463.463,0,0,0-.179-.368l-5.45-4.275A.463.463,0,0,0,625.678-100.032Z" fill="#f76b59"/>
    <path id="패스_7154" data-name="패스 7154" d="M625.678-89.789a1.215,1.215,0,0,1-.537-.125,1.214,1.214,0,0,1-.688-1.1v-8.55a1.214,1.214,0,0,1,.688-1.1,1.216,1.216,0,0,1,1.29.138l5.45,4.274a1.214,1.214,0,0,1,.469.962,1.214,1.214,0,0,1-.469.962l-5.45,4.275A1.226,1.226,0,0,1,625.678-89.789Zm0-10.8a1.017,1.017,0,0,0-.448.1,1.015,1.015,0,0,0-.576.919v8.55a1.018,1.018,0,0,0,.576.92,1.025,1.025,0,0,0,1.078-.115l5.451-4.275a1.016,1.016,0,0,0,.391-.805,1.018,1.018,0,0,0-.391-.805l-5.45-4.274A1.021,1.021,0,0,0,625.677-100.586Zm0,10.143a.572.572,0,0,1-.252-.06.557.557,0,0,1-.319-.51v-8.55a.557.557,0,0,1,.319-.51.566.566,0,0,1,.6.064l5.451,4.274a.567.567,0,0,1,.217.447.564.564,0,0,1-.217.447l-5.451,4.275A.56.56,0,0,1,625.679-90.443Zm0-9.489a.382.382,0,0,0-.163.039.359.359,0,0,0-.207.33v8.55a.359.359,0,0,0,.207.33.359.359,0,0,0,.388-.041L631.354-95a.367.367,0,0,0,.14-.29.368.368,0,0,0-.141-.29l-5.45-4.274A.364.364,0,0,0,625.678-99.932Z" fill="#f76b59"/>
  </g>
  <g id="그룹_4480" data-name="그룹 4480" transform="translate(-616.915 102.434)">
    <g id="그룹_4478" data-name="그룹 4478">
      <path id="패스_7155" data-name="패스 7155" d="M636.539-87.33H619.49a.328.328,0,0,1-.327-.328.327.327,0,0,1,.327-.327h17.049a.327.327,0,0,1,.328.327A.328.328,0,0,1,636.539-87.33Z" fill="#f76b59"/>
      <path id="패스_7156" data-name="패스 7156" d="M636.539-87.23H619.49a.428.428,0,0,1-.427-.428.427.427,0,0,1,.427-.427h17.049a.428.428,0,0,1,.428.427A.428.428,0,0,1,636.539-87.23Zm-17.049-.655a.227.227,0,0,0-.227.227.227.227,0,0,0,.227.227h17.049a.227.227,0,0,0,.228-.227.228.228,0,0,0-.228-.227Z" fill="#f76b59"/>
    </g>
    <g id="그룹_4479" data-name="그룹 4479">
      <circle id="타원_91" data-name="타원 91" cx="0.856" cy="0.856" r="0.856" transform="translate(620.303 -88.514)" fill="#f76b59"/>
      <path id="패스_7157" data-name="패스 7157" d="M621.16-86.7a.958.958,0,0,1-.957-.957.957.957,0,0,1,.957-.956.957.957,0,0,1,.956.956A.957.957,0,0,1,621.16-86.7Zm0-1.713a.758.758,0,0,0-.757.756.758.758,0,0,0,.757.757.758.758,0,0,0,.756-.757A.757.757,0,0,0,621.16-88.414Z" fill="#f76b59"/>
    </g>
  </g>
  <g id="그룹_4483" data-name="그룹 4483" transform="translate(-616.915 102.434)">
    <g id="그룹_4481" data-name="그룹 4481">
      <circle id="타원_92" data-name="타원 92" cx="2.92" cy="2.92" r="2.92" transform="translate(626.524 -94.897)" fill="#fff"/>
      <path id="패스_7158" data-name="패스 7158" d="M629.444-88.957a3.024,3.024,0,0,1-3.02-3.02,3.024,3.024,0,0,1,3.02-3.02,3.024,3.024,0,0,1,3.02,3.02A3.024,3.024,0,0,1,629.444-88.957Zm0-5.839a2.822,2.822,0,0,0-2.819,2.819,2.823,2.823,0,0,0,2.819,2.82,2.823,2.823,0,0,0,2.82-2.82A2.822,2.822,0,0,0,629.444-94.8Z" fill="#f76b59"/>
    </g>
    <g id="그룹_4482" data-name="그룹 4482">
      <path id="패스_7159" data-name="패스 7159" d="M629.444-88.73a3.251,3.251,0,0,1-3.247-3.247,3.251,3.251,0,0,1,3.247-3.247,3.251,3.251,0,0,1,3.248,3.247A3.251,3.251,0,0,1,629.444-88.73Zm0-5.839a2.6,2.6,0,0,0-2.592,2.592,2.6,2.6,0,0,0,2.592,2.592,2.6,2.6,0,0,0,2.592-2.592A2.6,2.6,0,0,0,629.444-94.569Z" fill="#f76b59"/>
      <path id="패스_7160" data-name="패스 7160" d="M629.444-88.629a3.352,3.352,0,0,1-3.347-3.348,3.351,3.351,0,0,1,3.347-3.347,3.351,3.351,0,0,1,3.348,3.347A3.352,3.352,0,0,1,629.444-88.629Zm0-6.5a3.151,3.151,0,0,0-3.147,3.147,3.151,3.151,0,0,0,3.147,3.147,3.15,3.15,0,0,0,3.147-3.147A3.15,3.15,0,0,0,629.444-95.124Zm0,5.839a2.7,2.7,0,0,1-2.692-2.692,2.7,2.7,0,0,1,2.692-2.692,2.7,2.7,0,0,1,2.693,2.692A2.7,2.7,0,0,1,629.444-89.285Zm0-5.184a2.5,2.5,0,0,0-2.492,2.492,2.5,2.5,0,0,0,2.492,2.492,2.5,2.5,0,0,0,2.493-2.492A2.5,2.5,0,0,0,629.444-94.469Z" fill="#f76b59"/>
    </g>
  </g>
  <path id="패스_7161" data-name="패스 7161" d="M629.483-93.636a1.414,1.414,0,0,0-1.414,1.414,3.332,3.332,0,0,0,1.414,2.241s1.413-1.037,1.413-2.241A1.414,1.414,0,0,0,629.483-93.636Zm0,2.106a.672.672,0,0,1-.673-.672.672.672,0,0,1,.673-.672.672.672,0,0,1,.672.672A.672.672,0,0,1,629.483-91.53Z" transform="translate(-616.915 102.434)" fill="#f76b59"/>
</svg>
