<svg id="구성_요소_41_1" data-name="구성 요소 41 – 1" xmlns="http://www.w3.org/2000/svg" width="43.988" height="36.971" viewBox="0 0 43.988 36.971">
  <path id="패스_58" data-name="패스 58" d="M711.682,353.47l-.469-.343c-.054-.04-5.465-4.006-8.4-6.516-6.889-6.241-13.36-12.1-13.06-18.47l0-.131A11.521,11.521,0,0,1,701.262,316.5h.01a11.439,11.439,0,0,1,8.135,3.366c.425.424,1.463,1.519,2.127,2.221a40.92,40.92,0,0,1,4.972-4.077,11.524,11.524,0,0,1,17.22,10c.238,6.442-6.555,12.6-13.124,18.559l-.043.04c-2.923,2.526-8.183,6.356-8.407,6.519Zm-10.411-35.376h-.008a9.921,9.921,0,0,0-9.915,9.913v.171c-.263,5.654,6.224,11.531,12.5,17.215,2.389,2.044,6.463,5.081,7.839,6.1,1.377-1.013,5.45-4.036,7.823-6.085l.022-.021c6.3-5.711,12.811-11.617,12.6-17.291a10.032,10.032,0,0,0-1.3-4.985A9.925,9.925,0,0,0,717.29,319.4a32.125,32.125,0,0,0-4.577,3.846,1.654,1.654,0,0,1-2.338-.062c-.654-.693-1.679-1.771-2.1-2.19A9.852,9.852,0,0,0,701.272,318.095Z" transform="translate(-689.745 -316.499)" fill="#777"/>
  <path id="패스_59" data-name="패스 59" d="M701.652,339.555a.839.839,0,0,1-.842-.842l0-14.948a.842.842,0,0,1,1.321-.694l10.843,7.474a.844.844,0,0,1,0,1.388l-10.841,7.474A.852.852,0,0,1,701.652,339.555Zm.842-14.187v11.741l8.515-5.87Z" transform="translate(-683.516 -313.096)" fill="#777"/>
</svg>
