<svg xmlns="http://www.w3.org/2000/svg" width="41.231" height="39" viewBox="0 0 41.231 39">
  <g id="그룹_4393" data-name="그룹 4393" transform="translate(-275 -146)">
    <g id="_66758" data-name="66758" transform="translate(275 146)">
      <path id="패스_117" data-name="패스 117" d="M41.152,37.06a1.6,1.6,0,0,0-2.014-1.026l-2.078.675A19.5,19.5,0,1,0,19.5,47.724a1.6,1.6,0,0,0,0-3.2,16.3,16.3,0,1,1,14.676-9.2l-.71-2.186a1.6,1.6,0,0,0-3.04.988l1.885,5.8a1.6,1.6,0,0,0,2.014,1.027l5.8-1.885A1.6,1.6,0,0,0,41.152,37.06Z" transform="translate(0 -8.724)" fill="#777"/>
    </g>
    <path id="패스_144" data-name="패스 144" d="M-3980-10967.481l7.544-6.489-7.544-7Z" transform="translate(4271.847 11139.726)" fill="#777"/>
  </g>
</svg>
