<svg id="구성_요소_129_1" data-name="구성 요소 129 – 1" xmlns="http://www.w3.org/2000/svg" xmlns:xlink="http://www.w3.org/1999/xlink" width="25.799" height="25.822" viewBox="0 0 25.799 25.822">
  <defs>
    <clipPath id="clip-path">
      <rect id="사각형_786" data-name="사각형 786" width="25.799" height="25.822" fill="#fff"/>
    </clipPath>
  </defs>
  <g id="그룹_4400" data-name="그룹 4400" clip-path="url(#clip-path)">
    <path id="패스_7091" data-name="패스 7091" d="M1.614,25.822a4.427,4.427,0,0,1-.542-.192A1.782,1.782,0,0,1,.007,23.962Q-.007,16.681.005,9.4A1.853,1.853,0,0,1,1.851,7.549c.914-.026,1.831-.023,2.745,0A1.846,1.846,0,0,1,6.409,9.1c.01.047.027.093.056.2.484-.353.953-.673,1.4-1.024a8.7,8.7,0,0,0,1.93-2.04,4.447,4.447,0,0,0,.738-2.418,9.6,9.6,0,0,1,.2-2A2.178,2.178,0,0,1,13.864.2,3.731,3.731,0,0,1,16.071,2.7a8,8,0,0,1,.273,3.659c-.1.752-.295,1.491-.451,2.257.042,0,.129.01.216.01,1.495,0,2.989,0,4.484,0a5.079,5.079,0,0,1,5.13,4.234c.024.122.051.243.076.364v.957c-.023.13-.048.26-.07.39-.4,2.314-.784,4.63-1.2,6.94A4.99,4.99,0,0,1,21.263,25.5,10.161,10.161,0,0,1,20,25.822H16.427c-.073-.013-.146-.03-.22-.038-1.218-.123-2.442-.2-3.651-.377a20.276,20.276,0,0,1-5.948-1.784c-.043-.021-.09-.033-.158-.057,0,.156,0,.289,0,.422a1.878,1.878,0,0,1-1.2,1.705c-.132.051-.27.086-.405.129ZM6.451,16.4c0,1.688,0,3.376,0,5.063a.326.326,0,0,0,.2.355c.077.033.145.084.219.123a20.756,20.756,0,0,0,7.264,2.067,40.643,40.643,0,0,0,5.356.2,3.466,3.466,0,0,0,3.441-2.915c.307-1.726.6-3.454.9-5.181a21.473,21.473,0,0,0,.343-2.186,3.455,3.455,0,0,0-3.5-3.685c-1.973-.01-3.946,0-5.919,0a1.91,1.91,0,0,1-.326-.019.789.789,0,0,1-.58-1.171A8,8,0,0,0,14.8,4.781,4.489,4.489,0,0,0,14.2,2.5a1.723,1.723,0,0,0-1.009-.823c-.507-.137-.8,0-.894.516a8.206,8.206,0,0,0-.157,1.572,5.982,5.982,0,0,1-1.219,3.658,13.3,13.3,0,0,1-4.273,3.615.346.346,0,0,0-.2.351c.006,1.671,0,3.342,0,5.013m-4.837.276q0,3.552,0,7.1c0,.362.067.432.419.432H4.425c.337,0,.413-.076.413-.414q0-7.116,0-14.231c0-.333-.078-.409-.419-.41q-1.184,0-2.367,0c-.369,0-.438.07-.438.442q0,3.539,0,7.078" transform="translate(0 0)" fill="#fff"/>
  </g>
</svg>
