<svg id="구성_요소_42_1" data-name="구성 요소 42 – 1" xmlns="http://www.w3.org/2000/svg" width="37.102" height="36.788" viewBox="0 0 37.102 36.788">
  <g id="그룹_36" data-name="그룹 36" transform="translate(20.157 5.248)">
    <g id="그룹_35" data-name="그룹 35">
      <path id="패스_9" data-name="패스 9" d="M262.317,70.638a7.8,7.8,0,0,0-1.536.5l.5,1.132a6.558,6.558,0,0,1,1.29-.421,32.768,32.768,0,0,1,12.573-.155l.221-1.217A33.987,33.987,0,0,0,262.317,70.638Z" transform="translate(-260.781 -69.923)" fill="#777"/>
    </g>
  </g>
  <g id="그룹_38" data-name="그룹 38" transform="translate(20.157 8.958)">
    <g id="그룹_37" data-name="그룹 37">
      <path id="패스_10" data-name="패스 10" d="M262.317,118.636a7.8,7.8,0,0,0-1.536.5l.5,1.132a6.559,6.559,0,0,1,1.29-.421,32.76,32.76,0,0,1,12.573-.155l.221-1.217A33.975,33.975,0,0,0,262.317,118.636Z" transform="translate(-260.781 -117.921)" fill="#777"/>
    </g>
  </g>
  <g id="그룹_40" data-name="그룹 40" transform="translate(20.157 12.668)">
    <g id="그룹_39" data-name="그룹 39">
      <path id="패스_11" data-name="패스 11" d="M262.317,166.64a7.8,7.8,0,0,0-1.536.5l.5,1.132a6.558,6.558,0,0,1,1.29-.421,32.766,32.766,0,0,1,12.573-.155l.221-1.217A33.991,33.991,0,0,0,262.317,166.64Z" transform="translate(-260.781 -165.925)" fill="#777"/>
    </g>
  </g>
  <g id="그룹_42" data-name="그룹 42" transform="translate(20.157 16.378)">
    <g id="그룹_41" data-name="그룹 41">
      <path id="패스_12" data-name="패스 12" d="M262.317,214.64a7.8,7.8,0,0,0-1.536.5l.5,1.132a6.552,6.552,0,0,1,1.29-.421,32.761,32.761,0,0,1,12.573-.155l.221-1.217A33.993,33.993,0,0,0,262.317,214.64Z" transform="translate(-260.781 -213.925)" fill="#777"/>
    </g>
  </g>
  <g id="그룹_44" data-name="그룹 44" transform="translate(2.363 5.247)">
    <g id="그룹_43" data-name="그룹 43">
      <path id="패스_13" data-name="패스 13" d="M43.615,70.636a33.974,33.974,0,0,0-13.045-.161l.221,1.217a32.764,32.764,0,0,1,12.572.155,6.554,6.554,0,0,1,1.291.421l.5-1.132A7.786,7.786,0,0,0,43.615,70.636Z" transform="translate(-30.57 -69.921)" fill="#777"/>
    </g>
  </g>
  <g id="그룹_46" data-name="그룹 46" transform="translate(2.363 8.958)">
    <g id="그룹_45" data-name="그룹 45">
      <path id="패스_14" data-name="패스 14" d="M43.615,118.636a33.973,33.973,0,0,0-13.045-.161l.221,1.217a32.763,32.763,0,0,1,12.572.155,6.552,6.552,0,0,1,1.291.421l.5-1.132A7.782,7.782,0,0,0,43.615,118.636Z" transform="translate(-30.57 -117.921)" fill="#777"/>
    </g>
  </g>
  <g id="그룹_48" data-name="그룹 48" transform="translate(2.363 12.668)">
    <g id="그룹_47" data-name="그룹 47">
      <path id="패스_15" data-name="패스 15" d="M43.615,166.636a33.973,33.973,0,0,0-13.045-.161l.221,1.217a32.763,32.763,0,0,1,12.572.155,6.554,6.554,0,0,1,1.291.421l.5-1.132A7.786,7.786,0,0,0,43.615,166.636Z" transform="translate(-30.57 -165.921)" fill="#777"/>
    </g>
  </g>
  <g id="그룹_50" data-name="그룹 50" transform="translate(2.363 16.378)">
    <g id="그룹_49" data-name="그룹 49">
      <path id="패스_16" data-name="패스 16" d="M43.615,214.637a33.979,33.979,0,0,0-13.045-.161l.221,1.217a32.764,32.764,0,0,1,12.572.155,6.55,6.55,0,0,1,1.291.421l.5-1.132A7.782,7.782,0,0,0,43.615,214.637Z" transform="translate(-30.57 -213.922)" fill="#777"/>
    </g>
  </g>
  <g id="그룹_52" data-name="그룹 52">
    <g id="그룹_51" data-name="그룹 51">
      <path id="패스_17" data-name="패스 17" d="M36.574,2.655l-.2-.03A36.173,36.173,0,0,0,20.049,3.988l-1.462.473L17.116,3.8a.542.542,0,0,0-.062-.024A36.168,36.168,0,0,0,.728,2.416l-.2.029A.618.618,0,0,0,0,3.057V24.7a.618.618,0,0,0,.762.6L4.7,24.361a15.625,15.625,0,0,1,6.565-.157,8.437,8.437,0,0,1,1.5.45l.22.094v2.944H7.923A6.694,6.694,0,0,0,1.237,34.38v3.826a.618.618,0,0,0,.618.618H35.247a.618.618,0,0,0,.618-.618h0V34.38a6.694,6.694,0,0,0-6.687-6.687H24.116V24.95l.255-.1a8.057,8.057,0,0,1,1.409-.427,15.6,15.6,0,0,1,6.619.146l3.941.941a.619.619,0,0,0,.762-.6V3.267A.619.619,0,0,0,36.574,2.655Zm-7.4,26.274a5.456,5.456,0,0,1,5.45,5.45v3.207H2.473V34.38a5.456,5.456,0,0,1,5.45-5.45h5.163a5.614,5.614,0,0,0,10.93,0Zm-14.956-.667V25.278l4.085,1.747a.619.619,0,0,0,.468.008l4.1-1.6v2.83a4.372,4.372,0,0,1-8.657,0Zm21.643-4.135-3.179-.759a16.823,16.823,0,0,0-7.141-.158,9.252,9.252,0,0,0-1.624.489l-5.36,2.089L13.234,23.51a9.667,9.667,0,0,0-1.737-.521,16.847,16.847,0,0,0-7.082.169l-3.179.759V3.593a34.93,34.93,0,0,1,15.4,1.352l1.657.741a.619.619,0,0,0,.443.024l1.688-.546A34.94,34.94,0,0,1,35.865,3.8Z" transform="translate(0 -2.036)" fill="#777"/>
    </g>
  </g>
  <g id="그룹_54" data-name="그룹 54" transform="translate(17.685 5.312)">
    <g id="그룹_53" data-name="그룹 53" transform="translate(0 0)">
      <rect id="사각형_11" data-name="사각형 11" width="1.507" height="16.582" fill="#777"/>
    </g>
  </g>
</svg>
