<svg id="구성_요소_13_16" data-name="구성 요소 13 – 16" xmlns="http://www.w3.org/2000/svg" width="22" height="22" viewBox="0 0 22 22">
  <g id="그룹_44" data-name="그룹 44" transform="translate(1.729 3.334)">
    <g id="그룹_43" data-name="그룹 43" transform="translate(-0.001 0)">
      <path id="패스_13" data-name="패스 13" d="M37.411,70.274a18.9,18.9,0,0,0-6.841-.079l.116.6a18.228,18.228,0,0,1,6.593.076,3.592,3.592,0,0,1,.677.208l.261-.559A4.265,4.265,0,0,0,37.411,70.274Z" transform="translate(-30.57 -69.921)" fill="#33c1d6"/>
    </g>
  </g>
  <g id="그룹_4325" data-name="그룹 4325" transform="translate(12.494 3.334)">
    <g id="그룹_43-2" data-name="그룹 43" transform="translate(-0.001 0)">
      <path id="패스_13-2" data-name="패스 13" d="M37.411,70.274a18.9,18.9,0,0,0-6.841-.079l.116.6a18.228,18.228,0,0,1,6.593.076,3.592,3.592,0,0,1,.677.208l.261-.559A4.265,4.265,0,0,0,37.411,70.274Z" transform="translate(-30.57 -69.921)" fill="#33c1d6"/>
    </g>
  </g>
  <g id="그룹_46" data-name="그룹 46" transform="translate(1.729 5.504)">
    <g id="그룹_45" data-name="그룹 45" transform="translate(-0.001 0)">
      <path id="패스_14" data-name="패스 14" d="M37.411,118.274a18.9,18.9,0,0,0-6.841-.079l.116.6a18.228,18.228,0,0,1,6.593.076,3.589,3.589,0,0,1,.677.208l.261-.559A4.265,4.265,0,0,0,37.411,118.274Z" transform="translate(-30.57 -117.921)" fill="#33c1d6"/>
    </g>
  </g>
  <g id="그룹_4326" data-name="그룹 4326" transform="translate(12.494 5.504)">
    <g id="그룹_45-2" data-name="그룹 45" transform="translate(-0.001 0)">
      <path id="패스_14-2" data-name="패스 14" d="M37.411,118.274a18.9,18.9,0,0,0-6.841-.079l.116.6a18.228,18.228,0,0,1,6.593.076,3.589,3.589,0,0,1,.677.208l.261-.559A4.265,4.265,0,0,0,37.411,118.274Z" transform="translate(-30.57 -117.921)" fill="#33c1d6"/>
    </g>
  </g>
  <g id="그룹_48" data-name="그룹 48" transform="translate(1.729 7.672)">
    <g id="그룹_47" data-name="그룹 47" transform="translate(-0.001 -0.001)">
      <path id="패스_15" data-name="패스 15" d="M37.411,166.274a18.9,18.9,0,0,0-6.841-.079l.116.6a18.228,18.228,0,0,1,6.593.076,3.589,3.589,0,0,1,.677.208l.261-.559A4.265,4.265,0,0,0,37.411,166.274Z" transform="translate(-30.57 -165.921)" fill="#33c1d6"/>
    </g>
  </g>
  <g id="그룹_4327" data-name="그룹 4327" transform="translate(12.494 7.672)">
    <g id="그룹_47-2" data-name="그룹 47" transform="translate(-0.001 -0.001)">
      <path id="패스_15-2" data-name="패스 15" d="M37.411,166.274a18.9,18.9,0,0,0-6.841-.079l.116.6a18.228,18.228,0,0,1,6.593.076,3.589,3.589,0,0,1,.677.208l.261-.559A4.265,4.265,0,0,0,37.411,166.274Z" transform="translate(-30.57 -165.921)" fill="#33c1d6"/>
    </g>
  </g>
  <g id="그룹_50" data-name="그룹 50" transform="translate(1.729 9.842)">
    <g id="그룹_49" data-name="그룹 49" transform="translate(-0.001 -0.001)">
      <path id="패스_16" data-name="패스 16" d="M37.411,214.275a18.905,18.905,0,0,0-6.841-.079l.116.6a18.229,18.229,0,0,1,6.593.076,3.588,3.588,0,0,1,.677.208l.261-.559A4.264,4.264,0,0,0,37.411,214.275Z" transform="translate(-30.57 -213.922)" fill="#33c1d6"/>
    </g>
  </g>
  <g id="그룹_4328" data-name="그룹 4328" transform="translate(12.494 9.842)">
    <g id="그룹_49-2" data-name="그룹 49" transform="translate(-0.001 -0.001)">
      <path id="패스_16-2" data-name="패스 16" d="M37.411,214.275a18.905,18.905,0,0,0-6.841-.079l.116.6a18.229,18.229,0,0,1,6.593.076,3.588,3.588,0,0,1,.677.208l.261-.559A4.264,4.264,0,0,0,37.411,214.275Z" transform="translate(-30.57 -213.922)" fill="#33c1d6"/>
    </g>
  </g>
  <g id="그룹_52" data-name="그룹 52">
    <g id="그룹_51" data-name="그룹 51">
      <path id="패스_17" data-name="패스 17" d="M21.687,2.406l-.118-.018a21.276,21.276,0,0,0-9.681.815l-.867.283-.872-.393-.037-.014a21.273,21.273,0,0,0-9.68-.815l-.118.018A.369.369,0,0,0,0,2.647V15.59a.368.368,0,0,0,.367.37.364.364,0,0,0,.085-.01l2.337-.563a9.188,9.188,0,0,1,3.893-.094,4.971,4.971,0,0,1,.888.269l.13.056v1.76h-3a3.986,3.986,0,0,0-3.965,4v2.288a.368.368,0,0,0,.366.37H20.9a.368.368,0,0,0,.367-.37h0V21.378a3.987,3.987,0,0,0-3.965-4h-3v-1.64l.151-.059a4.747,4.747,0,0,1,.835-.255,9.176,9.176,0,0,1,3.925.088l2.337.563a.367.367,0,0,0,.442-.274.373.373,0,0,0,.01-.086V2.772A.369.369,0,0,0,21.687,2.406ZM17.3,18.119a3.249,3.249,0,0,1,3.232,3.259V23.3H1.467V21.378A3.249,3.249,0,0,1,4.7,18.119H7.759a3.323,3.323,0,0,0,6.481,0Zm-8.868-.4V15.935l2.422,1.045a.364.364,0,0,0,.278,0l2.433-.957V17.72a2.589,2.589,0,0,1-5.133,0Zm12.833-2.473-1.885-.454a9.893,9.893,0,0,0-4.234-.094,5.451,5.451,0,0,0-.963.292l-3.178,1.25L7.847,14.878a5.7,5.7,0,0,0-1.03-.311,9.907,9.907,0,0,0-4.2.1l-1.885.454V2.967a20.545,20.545,0,0,1,9.134.809l.983.443a.364.364,0,0,0,.262.014l1-.326a20.551,20.551,0,0,1,9.153-.815Z" transform="translate(0 -2.036)" fill="#33c1d6"/>
    </g>
  </g>
  <g id="그룹_54" data-name="그룹 54" transform="translate(10.592 3.176)">
    <g id="그룹_53" data-name="그룹 53" transform="translate(0 0)">
      <rect id="사각형_11" data-name="사각형 11" width="0.685" height="9.912" fill="#33c1d6"/>
    </g>
  </g>
</svg>
