<svg xmlns="http://www.w3.org/2000/svg" width="20.242" height="19.148" viewBox="0 0 20.242 19.148">
  <g id="_66758" data-name="66758" transform="translate(0.25 0.25)">
    <path id="패스_117" data-name="패스 117" d="M19.677,22.273a.764.764,0,0,0-.963-.491l-.994.323a9.325,9.325,0,1,0-8.4,5.267.764.764,0,0,0,0-1.529,7.792,7.792,0,1,1,7.018-4.4L16,20.4a.764.764,0,0,0-1.454.472l.9,2.774a.764.764,0,0,0,.963.491l2.774-.9A.764.764,0,0,0,19.677,22.273Z" transform="translate(0 -8.724)" fill="#fff" stroke="#fff" stroke-width="0.5"/>
  </g>
</svg>
