<svg id="구성_요소_128_1" data-name="구성 요소 128 – 1" xmlns="http://www.w3.org/2000/svg" xmlns:xlink="http://www.w3.org/1999/xlink" width="18.115" height="18.131" viewBox="0 0 18.115 18.131">
  <defs>
    <clipPath id="clip-path">
      <rect id="사각형_786" data-name="사각형 786" width="18.114" height="18.131" fill="#777"/>
    </clipPath>
  </defs>
  <g id="그룹_4400" data-name="그룹 4400" clip-path="url(#clip-path)">
    <path id="패스_7091" data-name="패스 7091" d="M1.133,18.131A3.108,3.108,0,0,1,.752,18,1.252,1.252,0,0,1,0,16.825Q-.005,11.713,0,6.6A1.3,1.3,0,0,1,1.3,5.3c.642-.018,1.285-.016,1.928,0A1.3,1.3,0,0,1,4.5,6.391c.007.033.019.066.04.138.34-.248.669-.473.981-.719A6.108,6.108,0,0,0,6.876,4.378a3.123,3.123,0,0,0,.518-1.7,6.742,6.742,0,0,1,.143-1.4A1.529,1.529,0,0,1,9.735.143a2.62,2.62,0,0,1,1.55,1.751,5.615,5.615,0,0,1,.192,2.569c-.072.528-.207,1.047-.317,1.585.029,0,.091.007.152.007,1.049,0,2.1,0,3.148,0a3.566,3.566,0,0,1,3.6,2.973c.017.085.036.17.053.256v.672c-.016.091-.033.183-.049.274-.28,1.625-.55,3.251-.841,4.873a3.5,3.5,0,0,1-2.294,2.8,7.134,7.134,0,0,1-.884.227H11.534c-.052-.009-.1-.021-.155-.027-.855-.086-1.715-.139-2.564-.265a14.237,14.237,0,0,1-4.177-1.253c-.03-.015-.063-.023-.111-.04,0,.11,0,.2,0,.3a1.319,1.319,0,0,1-.846,1.2c-.093.036-.19.061-.285.091Zm3.4-6.617c0,1.185,0,2.37,0,3.555a.229.229,0,0,0,.142.25c.054.023.1.059.154.086a14.574,14.574,0,0,0,5.1,1.451A28.537,28.537,0,0,0,13.683,17,2.433,2.433,0,0,0,16.1,14.95c.215-1.212.423-2.425.631-3.638a15.077,15.077,0,0,0,.241-1.535,2.426,2.426,0,0,0-2.46-2.588c-1.385-.007-2.771,0-4.156,0a1.341,1.341,0,0,1-.229-.013.554.554,0,0,1-.407-.822,5.618,5.618,0,0,0,.676-2.995,3.152,3.152,0,0,0-.422-1.6,1.21,1.21,0,0,0-.708-.578c-.356-.1-.559,0-.628.363a5.762,5.762,0,0,0-.11,1.1A4.2,4.2,0,0,1,7.67,5.209a9.339,9.339,0,0,1-3,2.538.243.243,0,0,0-.143.247c0,1.173,0,2.347,0,3.52m-3.4.194q0,2.494,0,4.987c0,.254.047.3.294.3h1.68c.237,0,.29-.053.29-.29q0-5,0-9.992c0-.234-.055-.287-.294-.288H1.44c-.259,0-.307.049-.307.31q0,2.485,0,4.97" transform="translate(0 0)" fill="#777"/>
  </g>
</svg>
