<svg id="_992607" data-name="992607" xmlns="http://www.w3.org/2000/svg" width="25.297" height="25.296" viewBox="0 0 25.297 25.296">
  <g id="그룹_24" data-name="그룹 24" transform="translate(0 0)">
    <g id="그룹_23" data-name="그룹 23">
      <path id="패스_3" data-name="패스 3" d="M10.472,26.037,7.383,21.226V18.9A7.162,7.162,0,0,0,0,12v.986A6.138,6.138,0,0,1,6.329,18.9v2.464a.468.468,0,0,0,.075.254L9.089,25.8H6.856a.511.511,0,0,0-.527.493h0v1.971H3.692a.511.511,0,0,0-.527.493.485.485,0,0,0,.235.41L6.329,30.99v1.222H2.637a.511.511,0,0,0-.527.493h0V36.31H0V37.3H2.637a.511.511,0,0,0,.527-.493h0V33.2H6.856a.511.511,0,0,0,.527-.493h0V26.784H10.02a.511.511,0,0,0,.527-.493A.468.468,0,0,0,10.472,26.037ZM6.329,29.805l-.9-.558h.9Z" transform="translate(0 -12)" fill="#777"/>
    </g>
  </g>
  <g id="그룹_28" data-name="그룹 28" transform="translate(1.055 6.367)">
    <g id="그룹_27" data-name="그룹 27">
      <path id="패스_5" data-name="패스 5" d="M19.164,116a1.055,1.055,0,0,1-2.11,0H16a2.11,2.11,0,0,0,4.219,0Z" transform="translate(-16 -116)" fill="#777"/>
    </g>
  </g>
  <g id="그룹_32" data-name="그룹 32" transform="translate(9.98 0.527)">
    <g id="그룹_31" data-name="그룹 31" transform="translate(0)">
      <path id="패스_7" data-name="패스 7" d="M155.788,20H141.527a.527.527,0,0,0-.527.527h0v10.02a.527.527,0,0,0,.527.527h4.688l-.969,6.781a.528.528,0,0,0,.351.574.534.534,0,0,0,.171.028.528.528,0,0,0,.458-.266l4.067-7.118h5.5a.527.527,0,0,0,.527-.527h0V20.527A.527.527,0,0,0,155.788,20Zm-.528,10.02h-5.274a.527.527,0,0,0-.458.266l-2.848,4.984.664-4.648a.527.527,0,0,0-.447-.6.536.536,0,0,0-.075-.005h-4.768V21.055h13.206Z" transform="translate(-141 -20)" fill="#777"/>
    </g>
  </g>
  <g id="그룹_34" data-name="그룹 34" transform="translate(14.017 2.83)">
    <g id="그룹_33" data-name="그룹 33">
      <path id="패스_8" data-name="패스 8" d="M185.693,54.937l-4.377,5.35-2.225-2.225-.746.746,2.637,2.637a.526.526,0,0,0,.373.155h.026a.528.528,0,0,0,.382-.193l4.746-5.8Z" transform="translate(-178.345 -54.937)" fill="#777"/>
    </g>
  </g>
</svg>
