<svg id="구성_요소_175_8" data-name="구성 요소 175 – 8" xmlns="http://www.w3.org/2000/svg" width="22.199" height="17.111" viewBox="0 0 22.199 17.111">
  <g id="그룹_4498" data-name="그룹 4498" transform="translate(-996.767 102.434)">
    <path id="패스_7179" data-name="패스 7179" d="M1016.717-85.423h-17.7a2.151,2.151,0,0,1-2.149-2.149v-12.612a2.151,2.151,0,0,1,2.149-2.149h17.7a2.151,2.151,0,0,1,2.149,2.149v12.612A2.151,2.151,0,0,1,1016.717-85.423Zm-17.7-16.255a1.5,1.5,0,0,0-1.494,1.494v12.612a1.5,1.5,0,0,0,1.494,1.494h17.7a1.5,1.5,0,0,0,1.494-1.494v-12.612a1.5,1.5,0,0,0-1.494-1.494Z" fill="#547bd3"/>
    <path id="패스_7180" data-name="패스 7180" d="M1016.718-85.323h-17.7a2.251,2.251,0,0,1-2.249-2.249v-12.613a2.251,2.251,0,0,1,2.249-2.249h17.7a2.251,2.251,0,0,1,2.248,2.249v12.613A2.251,2.251,0,0,1,1016.718-85.323Zm-17.7-16.91a2.052,2.052,0,0,0-2.05,2.048v12.613a2.052,2.052,0,0,0,2.05,2.049h17.7a2.051,2.051,0,0,0,2.049-2.049v-12.613a2.051,2.051,0,0,0-2.049-2.048Zm17.7,16.254h-17.7a1.6,1.6,0,0,1-1.594-1.593v-12.613a1.6,1.6,0,0,1,1.594-1.593h17.7a1.6,1.6,0,0,1,1.593,1.593v12.613A1.594,1.594,0,0,1,1016.718-85.979Zm-17.7-15.6a1.4,1.4,0,0,0-1.4,1.393v12.613a1.4,1.4,0,0,0,1.4,1.393h17.7a1.4,1.4,0,0,0,1.393-1.393v-12.613a1.4,1.4,0,0,0-1.393-1.393Z" fill="#547bd3"/>
  </g>
  <g id="그룹_4499" data-name="그룹 4499" transform="translate(-996.767 102.434)">
    <path id="패스_7181" data-name="패스 7181" d="M1005.53-89.889a1.14,1.14,0,0,1-.494-.114,1.117,1.117,0,0,1-.631-1.01v-8.549a1.114,1.114,0,0,1,.631-1.01,1.116,1.116,0,0,1,1.185.126l5.45,4.274a1.119,1.119,0,0,1,.43.884,1.118,1.118,0,0,1-.43.884l-5.45,4.274A1.119,1.119,0,0,1,1005.53-89.889Zm0-10.143a.466.466,0,0,0-.207.049.458.458,0,0,0-.263.421v8.549a.46.46,0,0,0,.263.421.46.46,0,0,0,.494-.053l5.45-4.275a.463.463,0,0,0,.179-.368.463.463,0,0,0-.179-.368l-5.45-4.275A.465.465,0,0,0,1005.53-100.032Z" fill="#547bd3"/>
    <path id="패스_7182" data-name="패스 7182" d="M1005.529-89.789a1.222,1.222,0,0,1-.537-.125,1.212,1.212,0,0,1-.687-1.1v-8.55a1.212,1.212,0,0,1,.687-1.1,1.216,1.216,0,0,1,1.29.138l5.45,4.274a1.213,1.213,0,0,1,.468.962,1.212,1.212,0,0,1-.468.962l-5.45,4.275A1.211,1.211,0,0,1,1005.529-89.789Zm0-10.8a1.024,1.024,0,0,0-.449.1,1.015,1.015,0,0,0-.576.919v8.55a1.017,1.017,0,0,0,.576.92,1.024,1.024,0,0,0,1.079-.115l5.45-4.275a1.016,1.016,0,0,0,.392-.805,1.017,1.017,0,0,0-.392-.805l-5.45-4.274A1.016,1.016,0,0,0,1005.529-100.586Zm0,10.142a.576.576,0,0,1-.251-.058.558.558,0,0,1-.319-.511v-8.55a.556.556,0,0,1,.319-.51.569.569,0,0,1,.6.064l5.45,4.274a.565.565,0,0,1,.218.447.562.562,0,0,1-.218.447l-5.45,4.275A.565.565,0,0,1,1005.53-90.444Zm0-9.488a.379.379,0,0,0-.163.039.36.36,0,0,0-.208.33v8.55a.362.362,0,0,0,.208.331.357.357,0,0,0,.388-.042l5.45-4.274a.366.366,0,0,0,.142-.29.369.369,0,0,0-.142-.29l-5.45-4.274A.366.366,0,0,0,1005.53-99.932Z" fill="#547bd3"/>
  </g>
  <g id="그룹_4502" data-name="그룹 4502" transform="translate(-996.767 102.434)">
    <g id="그룹_4500" data-name="그룹 4500">
      <path id="패스_7183" data-name="패스 7183" d="M1016.391-87.33H999.342a.328.328,0,0,1-.328-.328.327.327,0,0,1,.328-.327h17.049a.327.327,0,0,1,.327.327A.328.328,0,0,1,1016.391-87.33Z" fill="#547bd3"/>
      <path id="패스_7184" data-name="패스 7184" d="M1016.391-87.23H999.342a.428.428,0,0,1-.427-.428.427.427,0,0,1,.427-.427h17.049a.427.427,0,0,1,.426.427A.427.427,0,0,1,1016.391-87.23Zm-17.049-.655a.228.228,0,0,0-.228.227.228.228,0,0,0,.228.227h17.049a.227.227,0,0,0,.227-.227.227.227,0,0,0-.227-.227Z" fill="#547bd3"/>
    </g>
    <g id="그룹_4501" data-name="그룹 4501">
      <circle id="타원_95" data-name="타원 95" cx="0.856" cy="0.856" r="0.856" transform="translate(1000.155 -88.514)" fill="#547bd3"/>
      <path id="패스_7185" data-name="패스 7185" d="M1001.011-86.7a.957.957,0,0,1-.956-.957.957.957,0,0,1,.956-.956.957.957,0,0,1,.956.956A.957.957,0,0,1,1001.011-86.7Zm0-1.713a.758.758,0,0,0-.757.756.758.758,0,0,0,.757.757.758.758,0,0,0,.757-.757A.758.758,0,0,0,1001.011-88.414Z" fill="#547bd3"/>
    </g>
  </g>
  <g id="그룹_4505" data-name="그룹 4505" transform="translate(-996.767 102.434)">
    <g id="그룹_4503" data-name="그룹 4503">
      <circle id="타원_96" data-name="타원 96" cx="2.92" cy="2.92" r="2.92" transform="translate(1006.376 -94.897)" fill="#fff"/>
      <path id="패스_7186" data-name="패스 7186" d="M1009.3-88.957a3.024,3.024,0,0,1-3.02-3.02A3.024,3.024,0,0,1,1009.3-95a3.023,3.023,0,0,1,3.019,3.02A3.023,3.023,0,0,1,1009.3-88.957Zm0-5.839a2.822,2.822,0,0,0-2.82,2.819,2.823,2.823,0,0,0,2.82,2.82,2.823,2.823,0,0,0,2.82-2.82A2.822,2.822,0,0,0,1009.3-94.8Z" fill="#547bd3"/>
    </g>
    <g id="그룹_4504" data-name="그룹 4504">
      <path id="패스_7187" data-name="패스 7187" d="M1009.3-88.73a3.251,3.251,0,0,1-3.248-3.247,3.251,3.251,0,0,1,3.248-3.247,3.251,3.251,0,0,1,3.247,3.247A3.251,3.251,0,0,1,1009.3-88.73Zm0-5.839a2.6,2.6,0,0,0-2.592,2.592,2.6,2.6,0,0,0,2.592,2.592,2.6,2.6,0,0,0,2.592-2.592A2.6,2.6,0,0,0,1009.3-94.569Z" fill="#547bd3"/>
      <path id="패스_7188" data-name="패스 7188" d="M1009.3-88.629a3.351,3.351,0,0,1-3.347-3.348,3.35,3.35,0,0,1,3.347-3.347,3.35,3.35,0,0,1,3.347,3.347A3.351,3.351,0,0,1,1009.3-88.629Zm0-6.5a3.152,3.152,0,0,0-3.148,3.147,3.152,3.152,0,0,0,3.148,3.147,3.151,3.151,0,0,0,3.147-3.147A3.151,3.151,0,0,0,1009.3-95.124Zm0,5.839a2.7,2.7,0,0,1-2.692-2.692,2.7,2.7,0,0,1,2.692-2.692,2.7,2.7,0,0,1,2.691,2.692A2.7,2.7,0,0,1,1009.3-89.285Zm0-5.184a2.5,2.5,0,0,0-2.493,2.492,2.5,2.5,0,0,0,2.493,2.492,2.5,2.5,0,0,0,2.492-2.492A2.5,2.5,0,0,0,1009.3-94.469Z" fill="#547bd3"/>
    </g>
  </g>
  <g id="그룹_4506" data-name="그룹 4506" transform="translate(-996.767 102.434)">
    <path id="패스_7189" data-name="패스 7189" d="M1008.979-90.638a.407.407,0,0,1-.289-.12l-.992-.991a.409.409,0,0,1,0-.579.409.409,0,0,1,.579,0l.7.7,1.339-1.34a.411.411,0,0,1,.579,0,.409.409,0,0,1,0,.579l-1.628,1.629A.409.409,0,0,1,1008.979-90.638Z" fill="#547bd3"/>
    <path id="패스_7190" data-name="패스 7190" d="M1008.979-90.538a.506.506,0,0,1-.36-.149l-.991-.991a.5.5,0,0,1-.149-.361.5.5,0,0,1,.149-.36.5.5,0,0,1,.358-.149h0a.508.508,0,0,1,.361.149l.631.631,1.269-1.268a.51.51,0,0,1,.72,0,.506.506,0,0,1,.149.36.506.506,0,0,1-.149.36l-1.629,1.629A.506.506,0,0,1,1008.979-90.538Zm-.992-1.81h0a.3.3,0,0,0-.216.09.3.3,0,0,0-.092.219.3.3,0,0,0,.091.219l.991.991a.316.316,0,0,0,.438,0l1.629-1.629a.3.3,0,0,0,.091-.218.306.306,0,0,0-.091-.219.309.309,0,0,0-.438,0l-1.41,1.41-.772-.772A.308.308,0,0,0,1007.987-92.348Z" fill="#547bd3"/>
  </g>
</svg>
