<svg id="구성_요소_178_6" data-name="구성 요소 178 – 6" xmlns="http://www.w3.org/2000/svg" width="22" height="23.327" viewBox="0 0 22 23.327">
  <g id="그룹_4510" data-name="그룹 4510" transform="translate(-492.98 109.347)">
    <g id="그룹_4508" data-name="그룹 4508">
      <path id="패스_7191" data-name="패스 7191" d="M495.35-88.41h10.675a1.858,1.858,0,0,0,1.858-1.858v-16.71a1.858,1.858,0,0,0-1.858-1.858h-8.236l-4.3,4.3v14.27A1.858,1.858,0,0,0,495.35-88.41Z" fill="#fff"/>
      <path id="패스_7192" data-name="패스 7192" d="M506.025-87.9H495.35a2.372,2.372,0,0,1-2.37-2.369V-104.75l4.6-4.6h8.448a2.372,2.372,0,0,1,2.369,2.369v16.71A2.372,2.372,0,0,1,506.025-87.9ZM494-104.326v14.058a1.348,1.348,0,0,0,1.347,1.347h10.675a1.349,1.349,0,0,0,1.347-1.347v-16.71a1.349,1.349,0,0,0-1.347-1.346H498Z" fill="#f76b59"/>
    </g>
    <g id="그룹_4509" data-name="그룹 4509">
      <path id="패스_7193" data-name="패스 7193" d="M497.253-86.532h10.675a1.858,1.858,0,0,0,1.858-1.858V-105.1a1.858,1.858,0,0,0-1.858-1.859h-8.236l-4.3,4.3v14.27A1.858,1.858,0,0,0,497.253-86.532Z" fill="#fff"/>
      <path id="패스_7194" data-name="패스 7194" d="M508.028-86.02H497.353a2.372,2.372,0,0,1-2.37-2.37v-14.482l4.6-4.6h8.448a2.372,2.372,0,0,1,2.369,2.37V-88.39A2.372,2.372,0,0,1,508.028-86.02Zm-12.022-16.428V-88.39a1.348,1.348,0,0,0,1.347,1.347h10.675a1.348,1.348,0,0,0,1.346-1.347V-105.1a1.348,1.348,0,0,0-1.346-1.347H500Z" fill="#f76b59"/>
    </g>
    <path id="패스_7195" data-name="패스 7195" d="M498.577-101.983h-2.868a.511.511,0,0,1-.511-.512.511.511,0,0,1,.511-.511h2.868a.919.919,0,0,0,.918-.918v-2.819a.511.511,0,0,1,.512-.511.511.511,0,0,1,.511.511v2.819A1.944,1.944,0,0,1,498.577-101.983Z" fill="#f76b59"/>
  </g>
  <g id="그룹_4512" data-name="그룹 4512" transform="translate(-492.98 109.347)">
    <g id="그룹_4511" data-name="그룹 4511">
      <circle id="타원_97" data-name="타원 97" cx="6.247" cy="6.247" r="6.247" transform="translate(501.975 -102.247)" fill="#fff"/>
      <path id="패스_7196" data-name="패스 7196" d="M508.222-89.242A6.766,6.766,0,0,1,501.464-96a6.766,6.766,0,0,1,6.758-6.758A6.765,6.765,0,0,1,514.98-96,6.765,6.765,0,0,1,508.222-89.242Zm0-12.494A5.742,5.742,0,0,0,502.486-96a5.742,5.742,0,0,0,5.736,5.736A5.742,5.742,0,0,0,513.958-96,5.742,5.742,0,0,0,508.222-101.736Z" fill="#f76b59"/>
    </g>
    <path id="패스_7197" data-name="패스 7197" d="M508.632-99.146l.549,1.7a.432.432,0,0,0,.41.3h1.777a.434.434,0,0,1,.253.785l-1.437,1.051a.438.438,0,0,0-.157.486l.549,1.7a.432.432,0,0,1-.663.486l-1.437-1.051a.428.428,0,0,0-.507,0l-1.437,1.051a.432.432,0,0,1-.664-.486l.549-1.7a.435.435,0,0,0-.157-.486l-1.437-1.051a.434.434,0,0,1,.254-.785h1.776a.431.431,0,0,0,.41-.3l.549-1.7A.43.43,0,0,1,508.632-99.146Z" fill="#f76b59"/>
  </g>
</svg>
