<svg id="구성_요소_174_9" data-name="구성 요소 174 – 9" xmlns="http://www.w3.org/2000/svg" width="22.2" height="17.111" viewBox="0 0 22.2 17.111">
  <g id="그룹_4466" data-name="그룹 4466" transform="translate(-463.508 102.434)">
    <path id="패스_7139" data-name="패스 7139" d="M483.459-85.423h-17.7a2.151,2.151,0,0,1-2.149-2.149v-12.612a2.151,2.151,0,0,1,2.149-2.149h17.7a2.151,2.151,0,0,1,2.149,2.149v12.612A2.151,2.151,0,0,1,483.459-85.423Zm-17.7-16.255a1.5,1.5,0,0,0-1.494,1.494v12.612a1.5,1.5,0,0,0,1.494,1.494h17.7a1.5,1.5,0,0,0,1.494-1.494v-12.612a1.5,1.5,0,0,0-1.494-1.494Z" fill="#9669dc"/>
    <path id="패스_7140" data-name="패스 7140" d="M483.459-85.323h-17.7a2.252,2.252,0,0,1-2.249-2.249v-12.613a2.252,2.252,0,0,1,2.249-2.249h17.7a2.252,2.252,0,0,1,2.249,2.249v12.613A2.252,2.252,0,0,1,483.459-85.323Zm-17.7-16.91a2.051,2.051,0,0,0-2.049,2.048v12.613a2.051,2.051,0,0,0,2.049,2.049h17.7a2.051,2.051,0,0,0,2.049-2.049v-12.613a2.051,2.051,0,0,0-2.049-2.048Zm17.7,16.254h-17.7a1.6,1.6,0,0,1-1.594-1.593v-12.613a1.6,1.6,0,0,1,1.594-1.593h17.7a1.6,1.6,0,0,1,1.594,1.593v12.613A1.6,1.6,0,0,1,483.459-85.979Zm-17.7-15.6a1.4,1.4,0,0,0-1.394,1.393v12.613a1.4,1.4,0,0,0,1.394,1.393h17.7a1.4,1.4,0,0,0,1.394-1.393v-12.613a1.4,1.4,0,0,0-1.394-1.393Z" fill="#9669dc"/>
  </g>
  <g id="그룹_4467" data-name="그룹 4467" transform="translate(-463.508 102.434)">
    <path id="패스_7141" data-name="패스 7141" d="M472.271-89.889a1.136,1.136,0,0,1-.493-.114,1.116,1.116,0,0,1-.632-1.01v-8.549a1.114,1.114,0,0,1,.632-1.01,1.116,1.116,0,0,1,1.185.126l5.45,4.274a1.119,1.119,0,0,1,.43.884,1.118,1.118,0,0,1-.43.884l-5.45,4.274A1.12,1.12,0,0,1,472.271-89.889Zm0-10.143a.466.466,0,0,0-.207.049.459.459,0,0,0-.264.421v8.549a.461.461,0,0,0,.264.421.459.459,0,0,0,.493-.053l5.45-4.275a.464.464,0,0,0,.18-.368.464.464,0,0,0-.18-.368l-5.45-4.275A.46.46,0,0,0,472.272-100.032Z" fill="#9669dc"/>
    <path id="패스_7142" data-name="패스 7142" d="M472.271-89.789a1.215,1.215,0,0,1-.537-.125,1.213,1.213,0,0,1-.688-1.1v-8.55a1.216,1.216,0,0,1,.688-1.1,1.214,1.214,0,0,1,1.29.138l5.45,4.274a1.214,1.214,0,0,1,.469.962,1.214,1.214,0,0,1-.469.962l-5.45,4.275A1.224,1.224,0,0,1,472.271-89.789Zm0-10.8a1.025,1.025,0,0,0-.449.1,1.015,1.015,0,0,0-.575.919v8.55a1.017,1.017,0,0,0,.575.92,1.025,1.025,0,0,0,1.078-.115l5.451-4.275a1.017,1.017,0,0,0,.392-.805,1.019,1.019,0,0,0-.392-.805l-5.45-4.274A1.018,1.018,0,0,0,472.271-100.586Zm0,10.143a.584.584,0,0,1-.251-.059.559.559,0,0,1-.32-.511v-8.55a.557.557,0,0,1,.32-.51.566.566,0,0,1,.6.064l5.45,4.274a.568.568,0,0,1,.218.447.565.565,0,0,1-.218.447l-5.45,4.275A.564.564,0,0,1,472.272-90.443Zm0-9.489a.382.382,0,0,0-.163.039.361.361,0,0,0-.207.33v8.55a.362.362,0,0,0,.208.331.363.363,0,0,0,.387-.042L477.947-95a.367.367,0,0,0,.14-.29.368.368,0,0,0-.141-.29L472.5-99.852A.367.367,0,0,0,472.271-99.932Z" fill="#9669dc"/>
  </g>
  <g id="그룹_4470" data-name="그룹 4470" transform="translate(-463.508 102.434)">
    <g id="그룹_4468" data-name="그룹 4468">
      <path id="패스_7143" data-name="패스 7143" d="M483.132-87.33H466.084a.328.328,0,0,1-.328-.328.327.327,0,0,1,.328-.327h17.048a.327.327,0,0,1,.328.327A.328.328,0,0,1,483.132-87.33Z" fill="#9669dc"/>
      <path id="패스_7144" data-name="패스 7144" d="M483.132-87.23H466.083a.428.428,0,0,1-.427-.428.427.427,0,0,1,.427-.427h17.049a.428.428,0,0,1,.428.427A.428.428,0,0,1,483.132-87.23Zm-17.049-.655a.227.227,0,0,0-.227.227.227.227,0,0,0,.227.227h17.049a.227.227,0,0,0,.228-.227.228.228,0,0,0-.228-.227Z" fill="#9669dc"/>
    </g>
    <g id="그룹_4469" data-name="그룹 4469">
      <circle id="타원_89" data-name="타원 89" cx="0.856" cy="0.856" r="0.856" transform="translate(466.896 -88.514)" fill="#9669dc"/>
      <path id="패스_7145" data-name="패스 7145" d="M467.753-86.7a.958.958,0,0,1-.957-.957.958.958,0,0,1,.957-.956.957.957,0,0,1,.956.956A.957.957,0,0,1,467.753-86.7Zm0-1.713a.757.757,0,0,0-.756.756.758.758,0,0,0,.756.757.758.758,0,0,0,.756-.757A.757.757,0,0,0,467.753-88.414Z" fill="#9669dc"/>
    </g>
  </g>
  <g id="그룹_4473" data-name="그룹 4473" transform="translate(-463.508 102.434)">
    <g id="그룹_4471" data-name="그룹 4471">
      <circle id="타원_90" data-name="타원 90" cx="2.92" cy="2.92" r="2.92" transform="translate(473.118 -94.897)" fill="#fff"/>
      <path id="패스_7146" data-name="패스 7146" d="M476.038-88.957a3.024,3.024,0,0,1-3.02-3.02,3.024,3.024,0,0,1,3.02-3.02,3.023,3.023,0,0,1,3.019,3.02A3.023,3.023,0,0,1,476.038-88.957Zm0-5.839a2.822,2.822,0,0,0-2.82,2.819,2.823,2.823,0,0,0,2.82,2.82,2.823,2.823,0,0,0,2.819-2.82A2.822,2.822,0,0,0,476.038-94.8Z" fill="#fff"/>
    </g>
    <g id="그룹_4472" data-name="그룹 4472">
      <path id="패스_7147" data-name="패스 7147" d="M476.037-88.73a3.251,3.251,0,0,1-3.247-3.247,3.251,3.251,0,0,1,3.247-3.247,3.251,3.251,0,0,1,3.248,3.247A3.251,3.251,0,0,1,476.037-88.73Zm0-5.839a2.6,2.6,0,0,0-2.592,2.592,2.6,2.6,0,0,0,2.592,2.592,2.6,2.6,0,0,0,2.593-2.592A2.6,2.6,0,0,0,476.037-94.569Z" fill="#9669dc"/>
      <path id="패스_7148" data-name="패스 7148" d="M476.038-88.629a3.352,3.352,0,0,1-3.348-3.348,3.351,3.351,0,0,1,3.348-3.347,3.351,3.351,0,0,1,3.347,3.347A3.352,3.352,0,0,1,476.038-88.629Zm0-6.5a3.151,3.151,0,0,0-3.148,3.147,3.151,3.151,0,0,0,3.148,3.147,3.151,3.151,0,0,0,3.147-3.147A3.151,3.151,0,0,0,476.038-95.124Zm0,5.839a2.7,2.7,0,0,1-2.693-2.692,2.7,2.7,0,0,1,2.693-2.692,2.7,2.7,0,0,1,2.692,2.692A2.7,2.7,0,0,1,476.038-89.285Zm0-5.184a2.5,2.5,0,0,0-2.493,2.492,2.5,2.5,0,0,0,2.493,2.492,2.5,2.5,0,0,0,2.492-2.492A2.5,2.5,0,0,0,476.038-94.469Z" fill="#9669dc"/>
    </g>
  </g>
  <g id="그룹_4474" data-name="그룹 4474" transform="translate(-463.508 102.434)">
    <path id="패스_7149" data-name="패스 7149" d="M477.561-92.255l-2.665-.993a.139.139,0,0,0-.178.178l.993,2.665a.139.139,0,0,0,.228.05l.609-.609.43.43a.139.139,0,0,0,.2,0l.258-.258a.137.137,0,0,0,0-.2l-.43-.43.609-.609A.139.139,0,0,0,477.561-92.255Z" fill="#9669dc"/>
    <path id="패스_7150" data-name="패스 7150" d="M475.841-90.215a.283.283,0,0,1-.05-.005.237.237,0,0,1-.173-.15l-.993-2.665a.234.234,0,0,1,.054-.252.239.239,0,0,1,.253-.055l2.664.994a.237.237,0,0,1,.15.173.24.24,0,0,1-.064.219l-.538.538.359.359a.238.238,0,0,1,0,.337l-.258.259a.237.237,0,0,1-.168.07h0a.239.239,0,0,1-.169-.07l-.359-.359-.538.537A.237.237,0,0,1,475.841-90.215Zm-.994-2.942a.039.039,0,0,0-.026.011.036.036,0,0,0-.009.041l.993,2.665a.037.037,0,0,0,.028.024.034.034,0,0,0,.035-.01l.68-.679.5.5a.041.041,0,0,0,.027.011h0a.042.042,0,0,0,.027-.011l.259-.259a.04.04,0,0,0,0-.054l-.5-.5.68-.68a.035.035,0,0,0,.01-.035.037.037,0,0,0-.024-.028h0l-2.665-.993Z" fill="#9669dc"/>
  </g>
</svg>
