<svg xmlns="http://www.w3.org/2000/svg" width="43" height="45.6" viewBox="0 0 43 45.6">
  <g id="그룹_4612" data-name="그룹 4612" transform="translate(-802.668 122.258)">
    <path id="패스_7305" data-name="패스 7305" d="M845.667-96.164a13.218,13.218,0,0,0-8.952-12.491v-5.3a4.622,4.622,0,0,0-4.007-4.568,4.633,4.633,0,0,0-4.538-3.735H811.658l-8.991,8.991v28.3a4.622,4.622,0,0,0,4.005,4.567,4.636,4.636,0,0,0,4.542,3.738h20.865a4.636,4.636,0,0,0,4.636-4.632v-2.384A13.218,13.218,0,0,0,845.667-96.164ZM832.079-78.658H811.214a2.634,2.634,0,0,1-2.633-2.632v-26.568h5.025a3.8,3.8,0,0,0,3.794-3.794v-4.932h14.679a2.634,2.634,0,0,1,2.63,2.633v4.786a13.251,13.251,0,0,0-2.251-.208,13.224,13.224,0,0,0-13.209,13.209,13.224,13.224,0,0,0,13.209,13.208,13.251,13.251,0,0,0,2.251-.207v1.873A2.633,2.633,0,0,1,832.079-78.658Zm-27.419-33.78,7.819-7.814h15.679a2.627,2.627,0,0,1,2.436,1.665H815.573l-8.991,8.991v27.124a2.6,2.6,0,0,1-1.922-2.489ZM815.4-115.6v3.943a1.8,1.8,0,0,1-1.795,1.794H809.67m22.788,24.9a11.223,11.223,0,0,1-11.211-11.211,11.223,11.223,0,0,1,11.211-11.212,11.223,11.223,0,0,1,11.211,11.212A11.223,11.223,0,0,1,832.458-84.953Z" fill="#111"/>
    <path id="패스_7306" data-name="패스 7306" d="M837.059-90.543l-1.073-3.323a.855.855,0,0,1,.307-.95L839.1-96.87a.849.849,0,0,0,.35-.682.848.848,0,0,0-.844-.852h-3.473a.845.845,0,0,1-.8-.587l-1.073-3.322a.838.838,0,0,0-.548-.548.841.841,0,0,0-1.055.548l-1.073,3.322a.843.843,0,0,1-.8.587h-3.471a.845.845,0,0,0-.684.349.849.849,0,0,0,.187,1.185l2.809,2.054a.85.85,0,0,1,.307.95l-1.073,3.323a.841.841,0,0,0,.118.764.845.845,0,0,0,1.18.186l2.808-2.054a.836.836,0,0,1,.991,0l2.809,2.054a.847.847,0,0,0,.76.117A.845.845,0,0,0,837.059-90.543Z" fill="#111"/>
  </g>
</svg>
