<svg xmlns="http://www.w3.org/2000/svg" width="43" height="34.673" viewBox="0 0 43 34.673">
  <g id="그룹_4605" data-name="그룹 4605" transform="translate(-778.148 232.018)">
    <path id="패스_7046" data-name="패스 7046" d="M818.717-232.018H780.576a2.429,2.429,0,0,0-2.428,2.427v29.823a2.429,2.429,0,0,0,2.428,2.423h38.141a2.428,2.428,0,0,0,2.431-2.423v-29.823a2.43,2.43,0,0,0-2.431-2.427Zm1.04,32.25a1.042,1.042,0,0,1-1.04,1.04H780.576a1.042,1.042,0,0,1-1.04-1.04V-202.9h40.221Zm0-4.507H779.536v-22.2h40.221Zm0-23.578H779.536v-1.734a1.042,1.042,0,0,1,1.04-1.04h38.141a1.043,1.043,0,0,1,1.04,1.04Z" fill="#111"/>
    <path id="패스_7047" data-name="패스 7047" d="M781.031-228.551h.694a.694.694,0,0,0,.693-.7.7.7,0,0,0-.693-.693h-.694a.7.7,0,0,0-.693.695A.694.694,0,0,0,781.031-228.551Z" fill="#111"/>
    <path id="패스_7048" data-name="패스 7048" d="M783.8-228.551h.693a.692.692,0,0,0,.7-.693.694.694,0,0,0-.692-.695h-.7a.694.694,0,0,0-.693.695A.693.693,0,0,0,783.8-228.551Z" fill="#111"/>
    <path id="패스_7049" data-name="패스 7049" d="M786.578-228.551h.694a.694.694,0,0,0,.7-.693.694.694,0,0,0-.693-.695h-.7a.7.7,0,0,0-.693.695A.694.694,0,0,0,786.578-228.551Z" fill="#111"/>
    <path id="패스_7051" data-name="패스 7051" d="M804.888-215.258l-8.07-6.683a.694.694,0,0,0-.962.193.69.69,0,0,0-.117.394v13.365a.694.694,0,0,0,.685.7.692.692,0,0,0,.394-.117l8.07-6.682a.693.693,0,0,0,.193-.962.682.682,0,0,0-.193-.193Zm-7.761,5.965v-10.775l6.125,5.387Z" fill="#111"/>
    <path id="패스_7052" data-name="패스 7052" d="M815.705-201.5H787.966a.7.7,0,0,0-.7-.693.7.7,0,0,0-.693.693H783.8a.694.694,0,0,0-.7.691.694.694,0,0,0,.691.7h2.78a.694.694,0,0,0,.693.695.7.7,0,0,0,.7-.693v0h27.739a.694.694,0,0,0,.7-.691.694.694,0,0,0-.69-.7Z" fill="#111"/>
  </g>
</svg>
