<svg id="_011-back" data-name="011-back" xmlns="http://www.w3.org/2000/svg" width="50.646" height="50.646" viewBox="0 0 50.646 50.646">
  <path id="패스_104" data-name="패스 104" d="M25.323,0A25.323,25.323,0,1,0,50.646,25.323,25.377,25.377,0,0,0,25.323,0Zm0,47.678A22.355,22.355,0,1,1,47.678,25.323,22.381,22.381,0,0,1,25.323,47.678Zm0,0" fill="#fff"/>
  <path id="패스_105" data-name="패스 105" d="M144.771,137.462H136v20.466h8.771v-8.406l13.156,9.867V136l-13.156,9.867ZM155,141.847v11.695l-7.8-5.847ZM141.847,155h-2.924V140.385h2.924Zm0,0" transform="translate(-122.392 -122.371)" fill="#fff"/>
</svg>
