<?xml version="1.0" encoding="utf-8"?>
<!-- Generator: Adobe Illustrator 27.8.1, SVG Export Plug-In . SVG Version: 6.00 Build 0)  -->
<svg version="1.1" id="_004-hi_5" xmlns="http://www.w3.org/2000/svg" xmlns:xlink="http://www.w3.org/1999/xlink" x="0px" y="0px"
	 viewBox="0 0 42.3 42.3" style="enable-background:new 0 0 42.3 42.3;" xml:space="preserve">
<style type="text/css">
	.st0{fill:#FFFFFF;}
</style>
<g>
	<path class="st0" d="M36.7,42H5.5V0.3h23.7l7.5,7.5V42z M8,39.5h26.2V8.8l-6-6H8V39.5z"/>
	<path class="st0" d="M18.5,16.1h-8v-8h8V16.1z M13,13.6h3v-3h-3V13.6z"/>
	<path class="st0" d="M18.5,36.7h-8v-8h8V36.7z M13,34.2h3v-3h-3V34.2z"/>
	<rect x="21.4" y="10.7" class="st0" width="9.7" height="2.5"/>
	<rect x="21.4" y="21.7" class="st0" width="9.7" height="2.5"/>
	<rect x="21.4" y="32.2" class="st0" width="9.7" height="2.5"/>
	<polygon class="st0" points="18.2,18.7 14.2,22.6 12.1,20.5 10.3,22.3 12.4,24.4 12.4,24.4 14.2,26.2 19.9,20.4 	"/>
</g>
</svg>
