<svg xmlns="http://www.w3.org/2000/svg" width="43" height="33.146" viewBox="0 0 43 33.146">
  <g id="그룹_4606" data-name="그룹 4606" transform="translate(-829.982 228.126)">
    <path id="패스_7277" data-name="패스 7277" d="M871.219-223.986a2.714,2.714,0,0,0-2.7-2.7H834.231a2.712,2.712,0,0,0-2.7,2.7v24.433a2.711,2.711,0,0,0,2.7,2.7h34.287a2.712,2.712,0,0,0,2.7-2.7Zm-26.746,1.2a2.354,2.354,0,0,1,1.333-2.131,2.35,2.35,0,0,1,2.5.267l10.558,8.279a2.353,2.353,0,0,1,.908,1.864,2.35,2.35,0,0,1-.908,1.863l-.069.054a6.462,6.462,0,0,1,1.833,4.5,6.492,6.492,0,0,1-6.483,6.485,6.475,6.475,0,0,1-5.475-3.044l-.364.286a2.375,2.375,0,0,1-1.458.511,2.355,2.355,0,0,1-1.04-.242,2.35,2.35,0,0,1-1.333-2.131Zm23.412,23.892H839.729a1.84,1.84,0,0,1-1.635,1.027,1.84,1.84,0,0,1-1.636-1.027h-1.6a.829.829,0,0,1-.827-.829.827.827,0,0,1,.827-.827h1.6a1.84,1.84,0,0,1,1.634-1.023,1.837,1.837,0,0,1,1.632,1.023h28.159a.829.829,0,0,1,.829.827A.829.829,0,0,1,867.885-198.889Z" fill="none"/>
    <path id="패스_7278" data-name="패스 7278" d="M846.129-222.785v16.562a.7.7,0,0,0,.4.641.7.7,0,0,0,.75-.081l.687-.539a6.448,6.448,0,0,1-.312-1.882,6.492,6.492,0,0,1,6.486-6.484,6.437,6.437,0,0,1,3.3.936l.394-.308a.712.712,0,0,0,.271-.562.716.716,0,0,0-.273-.562l-10.55-8.275a.707.707,0,0,0-.443-.155v-.006a.735.735,0,0,0-.316.076A.7.7,0,0,0,846.129-222.785Z" fill="none"/>
    <path id="패스_7279" data-name="패스 7279" d="M868.626-228.126H834.339a4.364,4.364,0,0,0-4.357,4.357v24.433a4.362,4.362,0,0,0,4.357,4.356h34.287a4.361,4.361,0,0,0,4.356-4.356v-24.433A4.363,4.363,0,0,0,868.626-228.126Zm0,31.486H834.339a2.711,2.711,0,0,1-2.7-2.7v-24.433a2.711,2.711,0,0,1,2.7-2.7h34.287a2.711,2.711,0,0,1,2.7,2.7v24.433A2.711,2.711,0,0,1,868.626-196.64Z" fill="#111"/>
    <path id="패스_7280" data-name="패스 7280" d="M845.806-204.088a2.355,2.355,0,0,0,1.04.242,2.375,2.375,0,0,0,1.458-.511l.364-.286a6.475,6.475,0,0,0,5.475,3.044,6.492,6.492,0,0,0,6.483-6.485,6.462,6.462,0,0,0-1.833-4.5l.069-.054a2.35,2.35,0,0,0,.908-1.863,2.353,2.353,0,0,0-.908-1.864L848.3-224.645a2.35,2.35,0,0,0-2.5-.267,2.354,2.354,0,0,0-1.333,2.131v16.562A2.35,2.35,0,0,0,845.806-204.088Zm1.04-19.412v.006a.707.707,0,0,1,.443.155l10.55,8.275a.716.716,0,0,1,.273.562.712.712,0,0,1-.271.562l-.394.308a6.437,6.437,0,0,0-3.3-.936,6.492,6.492,0,0,0-6.486,6.484,6.448,6.448,0,0,0,.312,1.882l-.687.539a.7.7,0,0,1-.75.081.7.7,0,0,1-.4-.641v-16.562a.7.7,0,0,1,.4-.639A.735.735,0,0,1,846.846-223.5Zm7.3,20.233a4.841,4.841,0,0,1-4.829-4.827,4.841,4.841,0,0,1,4.829-4.827v.009a4.843,4.843,0,0,1,4.827,4.818A4.842,4.842,0,0,1,854.143-203.267Z" fill="#111"/>
    <path id="패스_7281" data-name="패스 7281" d="M867.885-200.545H839.726a1.837,1.837,0,0,0-1.632-1.023,1.84,1.84,0,0,0-1.634,1.023h-1.6a.827.827,0,0,0-.827.827.829.829,0,0,0,.827.829h1.6a1.84,1.84,0,0,0,1.636,1.027,1.84,1.84,0,0,0,1.635-1.027h28.156a.829.829,0,0,0,.829-.829A.829.829,0,0,0,867.885-200.545Z" fill="#111"/>
    <path id="패스_7282" data-name="패스 7282" d="M854.143-212.912v-.009a4.841,4.841,0,0,0-4.829,4.827,4.841,4.841,0,0,0,4.829,4.827,4.842,4.842,0,0,0,4.827-4.827A4.843,4.843,0,0,0,854.143-212.912Zm3.184,4.868L856.285-207l.7.7a.461.461,0,0,1,0,.652h0l-.5.5a.458.458,0,0,1-.326.136.463.463,0,0,1-.327-.136l-.7-.7-1.043,1.04a.456.456,0,0,1-.329.136.532.532,0,0,1-.1-.01.46.46,0,0,1-.335-.29l-1.923-5.163a.453.453,0,0,1,.1-.488.463.463,0,0,1,.49-.107l5.161,1.926a.458.458,0,0,1,.29.335A.462.462,0,0,1,857.327-208.044Z" fill="#fff"/>
    <path id="패스_7283" data-name="패스 7283" d="M857.161-208.8,852-210.729a.463.463,0,0,0-.49.107.453.453,0,0,0-.1.488l1.923,5.163a.46.46,0,0,0,.335.29.532.532,0,0,0,.1.01.456.456,0,0,0,.329-.136l1.043-1.04.7.7a.463.463,0,0,0,.327.136.458.458,0,0,0,.326-.136l.5-.5h0a.461.461,0,0,0,0-.652l-.7-.7,1.042-1.043a.462.462,0,0,0,.124-.424A.458.458,0,0,0,857.161-208.8Z" fill="#111"/>
  </g>
</svg>
