<svg xmlns="http://www.w3.org/2000/svg" width="43" height="33.145" viewBox="0 0 43 33.145">
  <g id="그룹_4610" data-name="그룹 4610" transform="translate(-793.605 175.443)">
    <path id="패스_7291" data-name="패스 7291" d="M832.248-175.444H797.961a4.36,4.36,0,0,0-4.356,4.356v24.433a4.36,4.36,0,0,0,4.356,4.356h34.287a4.362,4.362,0,0,0,4.357-4.356v-24.433A4.362,4.362,0,0,0,832.248-175.444Zm0,31.485H797.961a2.711,2.711,0,0,1-2.7-2.7V-171.09a2.711,2.711,0,0,1,2.7-2.7h34.287a2.713,2.713,0,0,1,2.7,2.7v24.433A2.713,2.713,0,0,1,832.248-143.959Z" fill="#111"/>
    <path id="패스_7292" data-name="패스 7292" d="M809.535-151.192a2.35,2.35,0,0,0,1.041.242,2.375,2.375,0,0,0,1.458-.511l.364-.285a6.473,6.473,0,0,0,5.473,3.043,6.492,6.492,0,0,0,6.485-6.485,6.46,6.46,0,0,0-1.833-4.5l.069-.054a2.352,2.352,0,0,0,.908-1.864,2.351,2.351,0,0,0-.908-1.863l-10.558-8.279a2.356,2.356,0,0,0-2.5-.268,2.351,2.351,0,0,0-1.332,2.131v16.562A2.35,2.35,0,0,0,809.535-151.192Zm1.477-19.255,10.557,8.28a.714.714,0,0,1,.273.561.711.711,0,0,1-.271.562l-.394.309a6.423,6.423,0,0,0-3.306-.937,6.493,6.493,0,0,0-6.484,6.484,6.441,6.441,0,0,0,.312,1.882l-.688.539a.693.693,0,0,1-.751.08.7.7,0,0,1-.4-.639v-16.563a.7.7,0,0,1,.4-.639.749.749,0,0,1,.316-.076v.006A.706.706,0,0,1,811.012-170.447ZM822.7-155.2a4.843,4.843,0,0,1-4.829,4.827,4.841,4.841,0,0,1-4.827-4.827,4.842,4.842,0,0,1,4.827-4.827v.01A4.843,4.843,0,0,1,822.7-155.2Z" fill="#111"/>
    <path id="패스_7293" data-name="패스 7293" d="M831.615-147.649H803.456a1.837,1.837,0,0,0-1.632-1.023,1.839,1.839,0,0,0-1.635,1.023h-1.6a.827.827,0,0,0-.827.827.829.829,0,0,0,.827.829h1.6a1.84,1.84,0,0,0,1.636,1.027,1.84,1.84,0,0,0,1.635-1.027h28.156a.829.829,0,0,0,.829-.829A.829.829,0,0,0,831.615-147.649Z" fill="#111"/>
    <path id="패스_7294" data-name="패스 7294" d="M817.946-158.4a2.74,2.74,0,0,0-2.739,2.739,6.454,6.454,0,0,0,2.739,4.341s2.738-2.008,2.738-4.341A2.74,2.74,0,0,0,817.946-158.4Zm1.3,2.778a1.3,1.3,0,0,1-1.3,1.3,1.3,1.3,0,0,1-1.3-1.3v0a1.3,1.3,0,0,1,1.3-1.3h0A1.3,1.3,0,0,1,819.248-155.624Z" fill="#111"/>
  </g>
</svg>
