<svg xmlns="http://www.w3.org/2000/svg" width="43" height="45.596" viewBox="0 0 43 45.596">
  <g id="그룹_4613" data-name="그룹 4613" transform="translate(-827.48 121.887)">
    <path id="패스_7307" data-name="패스 7307" d="M861.528-108.284v-5.3a4.622,4.622,0,0,0-4.006-4.569,4.636,4.636,0,0,0-4.54-3.734h-16.51l-8.991,8.991V-84.59a4.623,4.623,0,0,0,4.007,4.569,4.634,4.634,0,0,0,4.539,3.73h20.865a4.636,4.636,0,0,0,4.636-4.634V-83.3a13.221,13.221,0,0,0,8.953-12.492A13.219,13.219,0,0,0,861.528-108.284Zm-30.132-.941v27.131a2.6,2.6,0,0,1-1.917-2.488v-27.477l7.814-7.814h15.683a2.629,2.629,0,0,1,2.436,1.657H840.387Zm8.819-6v3.94a1.8,1.8,0,0,1-1.8,1.794h-3.938Zm19.309,34.3a2.636,2.636,0,0,1-2.633,2.633H836.027a2.635,2.635,0,0,1-2.633-2.633v-26.564h5.025a3.8,3.8,0,0,0,3.794-3.794v-4.933h14.678a2.636,2.636,0,0,1,2.633,2.633v4.787a13.284,13.284,0,0,0-2.253-.208,13.225,13.225,0,0,0-13.209,13.209,13.224,13.224,0,0,0,13.209,13.211,13.274,13.274,0,0,0,2.253-.209Zm-2.253-3.668A11.224,11.224,0,0,1,846.061-95.8a11.226,11.226,0,0,1,11.21-11.211v.01a11.224,11.224,0,0,1,11.211,11.2A11.224,11.224,0,0,1,857.271-84.591Z" fill="#111"/>
    <path id="패스_7308" data-name="패스 7308" d="M863.57-100.032V-93.6a1.459,1.459,0,0,1-.137.694,1.368,1.368,0,0,1-1.219.762,14.022,14.022,0,0,0-1.544.172,4.714,4.714,0,0,0-2.119.946c-.078.061-.151.129-.215.186.506-.069,1.008-.159,1.515-.2a13.678,13.678,0,0,1,3.864.315.465.465,0,0,0,.089.03.554.554,0,0,0,.671-.407v-8.545C864.3-100.054,864.078-100.1,863.57-100.032Z" fill="#111"/>
    <path id="패스_7309" data-name="패스 7309" d="M854.319-101.52a7.264,7.264,0,0,0-2.134-.352c-.424-.011-.645.188-.645.61v7.681a.574.574,0,0,0,0,.131.558.558,0,0,0,.614.495c.381.018.762.039,1.139.09a5.956,5.956,0,0,1,2.844,1.106c.209.153.393.329.6.5,0-.016,0-.032,0-.048v-8.1a.768.768,0,0,0-.123-.391A4.276,4.276,0,0,0,854.319-101.52Z" fill="#111"/>
    <path id="패스_7310" data-name="패스 7310" d="M862.134-92.959a.545.545,0,0,0,.171,0,.55.55,0,0,0,.452-.635v-7.711a.525.525,0,0,0,0-.112.518.518,0,0,0-.574-.451,13.33,13.33,0,0,0-1.5.164,4.589,4.589,0,0,0-2.779,1.6,1.442,1.442,0,0,0-.356.96q.015,3.855.01,7.711v.207l.141-.133a5.021,5.021,0,0,1,1.427-.966A7.468,7.468,0,0,1,862.134-92.959Z" fill="#111"/>
    <path id="패스_7311" data-name="패스 7311" d="M855.854-90.924a4.871,4.871,0,0,0-1.99-.993,7.674,7.674,0,0,0-1.759-.225,1.384,1.384,0,0,1-.852-.279,1.383,1.383,0,0,1-.526-1.173v-6.464l-.338.012a.478.478,0,0,0-.107,0,.526.526,0,0,0-.47.577v8.209a.527.527,0,0,0,.022.212.538.538,0,0,0,.674.356c.709-.119,1.419-.238,2.132-.314a10.021,10.021,0,0,1,2.7.082l.309.054.32.067-.027-.043Z" fill="#111"/>
  </g>
</svg>
