<svg id="_015-refresh" data-name="015-refresh" xmlns="http://www.w3.org/2000/svg" width="143" height="125.314" viewBox="0 0 143 125.314">
  <path id="패스_113" data-name="패스 113" d="M200.255,109.211,166.51,159.353h15.923a28.593,28.593,0,1,1-15-31.03l4.57,2.338,19.063-28.325L185.736,99.3A63.715,63.715,0,0,0,154.253,91C119.295,91,91,119.022,91,153.657c0,34.549,28.375,62.657,63.253,62.657,33.106,0,60.117-25.1,63-56.961H234Zm5.75,38.75v5.7c0,28.334-23.146,51.265-51.752,51.265-28.536,0-51.752-23-51.752-51.265,0-28.334,23.146-51.265,51.752-51.265a52.29,52.29,0,0,1,20.216,4.061l-6.524,9.694a40.883,40.883,0,0,0-13.691-2.363A40.037,40.037,0,0,0,114,153.82v.027c.1,21.881,18.161,39.683,40.252,39.683A40.034,40.034,0,0,0,194.5,153.657v-5.7H188l12.257-18.211,12.257,18.211Zm0,0" transform="translate(-91 -91)" fill="#f68b1f"/>
</svg>
