<svg id="_001-next" data-name="001-next" xmlns="http://www.w3.org/2000/svg" width="50.646" height="50.646" viewBox="0 0 50.646 50.646">
  <path id="패스_102" data-name="패스 102" d="M43.208,7.437A25.294,25.294,0,1,0,7.437,43.208,25.294,25.294,0,1,0,43.208,7.437ZM25.322,47.678A22.355,22.355,0,1,1,47.677,25.323,22.38,22.38,0,0,1,25.322,47.678Zm0,0" transform="translate(0.001)" fill="#f68b1f"/>
  <path id="패스_103" data-name="패스 103" d="M164.156,145.867,151,136v23.389l13.156-9.867v8.406h8.771V137.462h-8.771Zm-10.233,7.675V141.847l7.8,5.847Zm13.156-13.156H170V155H167.08Zm0,0" transform="translate(-135.891 -122.371)" fill="#f68b1f"/>
</svg>
