<svg xmlns="http://www.w3.org/2000/svg" width="43" height="33.146" viewBox="0 0 43 33.146">
  <g id="그룹_4608" data-name="그룹 4608" transform="translate(-832.031 247.824)">
    <path id="패스_7284" data-name="패스 7284" d="M870.676-246.168H836.388a2.712,2.712,0,0,0-2.712,2.7v24.434a2.711,2.711,0,0,0,2.712,2.7h34.288a2.712,2.712,0,0,0,2.7-2.7v-24.434A2.713,2.713,0,0,0,870.676-246.168Zm-24.046,3.9a2.346,2.346,0,0,1,1.331-2.131,2.356,2.356,0,0,1,2.5.267l10.557,8.28a2.347,2.347,0,0,1,.907,1.863,2.348,2.348,0,0,1-.907,1.864l-.063.05a6.461,6.461,0,0,1,1.836,4.5,6.491,6.491,0,0,1-6.484,6.486,6.47,6.47,0,0,1-5.476-3.049l-.37.29a2.346,2.346,0,0,1-1.459.512,2.369,2.369,0,0,1-1.04-.242,2.347,2.347,0,0,1-1.331-2.131Zm23.413,23.893H841.884a1.84,1.84,0,0,1-1.635,1.027,1.838,1.838,0,0,1-1.635-1.027h-1.6a.829.829,0,0,1-.828-.829.828.828,0,0,1,.828-.827h1.6a1.838,1.838,0,0,1,1.633-1.023,1.837,1.837,0,0,1,1.632,1.023h28.162a.827.827,0,0,1,.825.827A.827.827,0,0,1,870.043-218.371Z" fill="none"/>
    <path id="패스_7285" data-name="패스 7285" d="M848.685-225.064a.692.692,0,0,0,.752-.081l.7-.546a6.432,6.432,0,0,1-.31-1.876,6.492,6.492,0,0,1,6.484-6.484,6.432,6.432,0,0,1,3.3.933l.391-.307a.712.712,0,0,0,.275-.562.716.716,0,0,0-.275-.561l-10.558-8.28a.711.711,0,0,0-.434-.149l0-.006a.721.721,0,0,0-.316.076.7.7,0,0,0-.4.639v16.563A.7.7,0,0,0,848.685-225.064Z" fill="none"/>
    <path id="패스_7286" data-name="패스 7286" d="M870.676-247.824H836.388a4.361,4.361,0,0,0-4.357,4.357v24.434a4.36,4.36,0,0,0,4.357,4.356h34.288a4.36,4.36,0,0,0,4.355-4.356v-24.434A4.36,4.36,0,0,0,870.676-247.824Zm2.7,28.789a2.712,2.712,0,0,1-2.7,2.7H836.388a2.711,2.711,0,0,1-2.712-2.7v-24.434a2.712,2.712,0,0,1,2.712-2.7h34.288a2.713,2.713,0,0,1,2.7,2.7Z" fill="#111"/>
    <path id="패스_7287" data-name="패스 7287" d="M847.961-223.57a2.369,2.369,0,0,0,1.04.242,2.346,2.346,0,0,0,1.459-.512l.37-.29a6.47,6.47,0,0,0,5.476,3.049,6.491,6.491,0,0,0,6.484-6.486,6.461,6.461,0,0,0-1.836-4.5l.063-.05a2.348,2.348,0,0,0,.907-1.864,2.347,2.347,0,0,0-.907-1.863l-10.557-8.28a2.356,2.356,0,0,0-2.5-.267,2.346,2.346,0,0,0-1.331,2.131V-225.7A2.347,2.347,0,0,0,847.961-223.57Zm13.173-4.006a4.843,4.843,0,0,1-4.828,4.827,4.842,4.842,0,0,1-4.829-4.827,4.842,4.842,0,0,1,4.829-4.828v.01A4.843,4.843,0,0,1,861.134-227.576Zm-12.852-14.692a.7.7,0,0,1,.4-.639.721.721,0,0,1,.316-.076l0,.006a.711.711,0,0,1,.434.149l10.558,8.28a.716.716,0,0,1,.275.561.712.712,0,0,1-.275.562l-.391.307a6.432,6.432,0,0,0-3.3-.933,6.492,6.492,0,0,0-6.484,6.484,6.432,6.432,0,0,0,.31,1.876l-.7.546a.692.692,0,0,1-.752.081.7.7,0,0,1-.4-.641Z" fill="#111"/>
    <path id="패스_7288" data-name="패스 7288" d="M870.043-220.027H841.881a1.837,1.837,0,0,0-1.632-1.023,1.838,1.838,0,0,0-1.633,1.023h-1.6a.828.828,0,0,0-.828.827.829.829,0,0,0,.828.829h1.6a1.838,1.838,0,0,0,1.635,1.027,1.84,1.84,0,0,0,1.635-1.027h28.159a.827.827,0,0,0,.825-.829A.827.827,0,0,0,870.043-220.027Z" fill="#111"/>
    <path id="패스_7289" data-name="패스 7289" d="M856.306-232.394v-.01a4.842,4.842,0,0,0-4.829,4.828,4.842,4.842,0,0,0,4.829,4.827,4.843,4.843,0,0,0,4.828-4.827A4.843,4.843,0,0,0,856.306-232.394Zm3.229,4.171-3.155,3.155a.984.984,0,0,1-.7.289.978.978,0,0,1-.7-.289l-1.92-1.92a.964.964,0,0,1-.288-.7.969.969,0,0,1,.288-.7.968.968,0,0,1,.694-.289.981.981,0,0,1,.7.289l1.222,1.222,2.459-2.456a.987.987,0,0,1,1.394,0,.976.976,0,0,1,.289.7A.978.978,0,0,1,859.535-228.223Z" fill="#fff"/>
    <path id="패스_7290" data-name="패스 7290" d="M858.141-229.618l-2.459,2.456-1.222-1.222a.981.981,0,0,0-.7-.289.968.968,0,0,0-.694.289.969.969,0,0,0-.288.7.964.964,0,0,0,.288.7l1.92,1.92a.978.978,0,0,0,.7.289.984.984,0,0,0,.7-.289l3.155-3.155a.978.978,0,0,0,.289-.7.976.976,0,0,0-.289-.7A.987.987,0,0,0,858.141-229.618Z" fill="#111"/>
  </g>
</svg>
