<svg xmlns="http://www.w3.org/2000/svg" xmlns:xlink="http://www.w3.org/1999/xlink" width="47" height="40" viewBox="0 0 47 40">
  <defs>
    <clipPath id="clip-대지_1">
      <rect width="47" height="40"/>
    </clipPath>
  </defs>
  <g id="대지_1" data-name="대지 1" clip-path="url(#clip-대지_1)">
    <g id="그룹_1" data-name="그룹 1" transform="translate(7)">
      <path id="패스_2" data-name="패스 2" d="M808.976,479.346h-3.713v-3.719a.782.782,0,0,0-.781-.781h-5.5a.781.781,0,0,0,0,1.563H803.7V480.1c0,.01,0,.021,0,.031v7.73c0,.01,0,.021,0,.031v1.44a2.251,2.251,0,0,1-2.248,2.248H785.243c.465-6.773,7.1-13.168,7.171-13.236a.881.881,0,0,1,.957-.19.712.712,0,0,1,.367.324.337.337,0,0,1-.012.195c-5.187,5.55-5.391,7.449-5.09,8.394a1.35,1.35,0,0,0,.972.932.775.775,0,0,0,.261.009,8.014,8.014,0,0,0,6.267-3.8c2.946-5.083-.276-13.157-.414-13.5a.781.781,0,0,0-1.328-.2c-1.285,1.563-3,2.046-4.816,2.559-2.252.635-4.58,1.291-5.853,4.076a8.281,8.281,0,0,0,1.224,9.262,15.992,15.992,0,0,0-1.273,5.178h-7.856V476.408h6.05a.781.781,0,0,0,0-1.563h-6.831a.782.782,0,0,0-.781.781v16.732a.781.781,0,0,0,.781.781h26.411a3.815,3.815,0,0,0,3.811-3.811v-.689h3.713a.781.781,0,0,0,.781-.781v-7.73A.781.781,0,0,0,808.976,479.346Zm-.781,7.731h-2.932v-6.168h2.932Z" transform="translate(-774.258 -453.14)" fill="#111"/>
      <path id="패스_3" data-name="패스 3" d="M936.517,322.6H938.1v3.312a.385.385,0,0,0,.692.232l3.82-5.052a.385.385,0,0,0-.307-.617h-1.794l.329-3.4a.385.385,0,0,0-.689-.27l-3.943,5.177a.385.385,0,0,0,.306.618Z" transform="translate(-922.409 -312.59)" fill="#111"/>
      <path id="패스_4" data-name="패스 4" d="M870.328,369.895h2.464a.385.385,0,1,0,0-.77h-2.464a.385.385,0,1,0,0,.77Z" transform="translate(-861.831 -360.617)" fill="#111"/>
      <path id="패스_5" data-name="패스 5" d="M1041.57,369.51a.385.385,0,0,0,.385.385h2.464a.385.385,0,0,0,0-.77h-2.464A.385.385,0,0,0,1041.57,369.51Z" transform="translate(-1018.908 -360.617)" fill="#111"/>
      <path id="패스_6" data-name="패스 6" d="M970.289,440.8v2.463a.385.385,0,0,0,.77,0V440.8a.385.385,0,0,0-.77,0Z" transform="translate(-953.67 -425.864)" fill="#111"/>
      <path id="패스_7" data-name="패스 7" d="M970.674,272.006a.385.385,0,0,0,.385-.385v-2.464a.385.385,0,0,0-.77,0v2.464A.385.385,0,0,0,970.674,272.006Z" transform="translate(-953.67 -268.772)" fill="#111"/>
      <path id="패스_8" data-name="패스 8" d="M901.58,414.984l-2.137,2.137a.385.385,0,0,0,.544.544l2.137-2.137a.385.385,0,1,0-.544-.544Z" transform="translate(-888.727 -402.486)" fill="#111"/>
      <path id="패스_9" data-name="패스 9" d="M1016.425,301.076a.384.384,0,0,0,.272-.113l2.136-2.137a.385.385,0,0,0-.545-.544l-2.136,2.137a.385.385,0,0,0,.272.657Z" transform="translate(-995.543 -295.677)" fill="#111"/>
      <path id="패스_10" data-name="패스 10" d="M1018.289,417.665a.385.385,0,0,0,.545-.544l-2.136-2.137a.385.385,0,1,0-.545.544Z" transform="translate(-995.543 -402.485)" fill="#111"/>
      <path id="패스_11" data-name="패스 11" d="M901.574,300.963a.385.385,0,0,0,.544-.544l-2.137-2.137a.385.385,0,1,0-.544.544Z" transform="translate(-888.722 -295.676)" fill="#111"/>
    </g>
  </g>
</svg>
