<svg id="_040-write" data-name="040-write" xmlns="http://www.w3.org/2000/svg" width="44.432" height="44.5" viewBox="0 0 44.432 44.5">
  <path id="패스_101" data-name="패스 101" d="M40.76,11.916l4.062-4.062L39.168,2.2,35.106,6.262,34.6,5.754l-.735.735V0H7.265L.389,6.876V44.5H33.862V19.83l7.406-7.406ZM39.168,5.887l1.967,1.967-2.218,2.218L36.949,8.106ZM7.646,3.306V7.257H3.7ZM31.255,41.893H3V9.865h7.257V2.607h21V9.1l-7.067,7.067V14.254H10.063v2.607H23.49l-2.607,2.607H10.063v2.607h8.211L13.13,27.221l-1.135,1.135L9.155,36.6l1.279,1.28,8.3-2.92L31.255,22.437ZM13.889,30.862l2.246,2.246L12.7,34.316Zm4.47.783-2.983-2.983,9.347-9.347L27.706,22.3Zm11.19-11.19-2.983-2.983,8.03-8.03,2.983,2.983Z" transform="translate(-0.389)" fill="#fff"/>
</svg>
