<svg id="_004-hi_5" data-name="004-hi 5" xmlns="http://www.w3.org/2000/svg" width="42.26" height="42.26" viewBox="0 0 42.26 42.26">
  <path id="패스_93" data-name="패스 93" d="M0,93.644H4.012V96.12H0Z" transform="translate(0 -85.914)" fill="#fff"/>
  <path id="패스_94" data-name="패스 94" d="M0,0H2.476V4.505H0Z" transform="translate(1.49 3.242) rotate(-45)" fill="#fff"/>
  <path id="패스_95" data-name="패스 95" d="M93.645,0h2.476V4.012H93.645Z" transform="translate(-85.916)" fill="#fff"/>
  <path id="패스_96" data-name="패스 96" d="M463.4,93.644h4.012V96.12H463.4Z" transform="translate(-425.148 -85.914)" fill="#fff"/>
  <path id="패스_97" data-name="패스 97" d="M0,0H4.505V2.476H0Z" transform="translate(35.829 4.682) rotate(-45)" fill="#fff"/>
  <path id="패스_98" data-name="패스 98" d="M388.355,0h2.476V4.012h-2.476Z" transform="translate(-356.301)" fill="#fff"/>
  <path id="패스_99" data-name="패스 99" d="M71.387,8.07a3.689,3.689,0,0,0-1.229.21V6.84a3.706,3.706,0,0,0-5.066-3.447,3.706,3.706,0,0,0-7.149,0,3.705,3.705,0,0,0-4.934,2.465,3.7,3.7,0,0,0-5.036,3.458v9.3a3.706,3.706,0,0,0-4.935,3.5v9.67l5.229,5.229v5.861H71.792V37.616l3.3-3.752V11.775A3.71,3.71,0,0,0,71.387,8.07Zm-19.709.017a1.231,1.231,0,0,1,1.2.954v7.1a3.7,3.7,0,0,0-2.427-.01V9.316A1.231,1.231,0,0,1,51.679,8.087ZM50.743,40.4v-4.41l-5.229-5.229V22.113a1.229,1.229,0,0,1,2.427-.276v7.469l5.229,5.229V40.4ZM72.617,32.93l-3.3,3.752V40.4H55.645V33.509l-5.229-5.229.032-8.92a1.229,1.229,0,0,1,2.427.276v6.678h2.476V6.84a1.229,1.229,0,1,1,2.459,0V22.1h2.476V4.373a1.229,1.229,0,0,1,2.459,0V22.1h2.476V6.84a1.229,1.229,0,0,1,2.459,0V22.1h2.476V11.775a1.229,1.229,0,1,1,2.459,0V32.93Z" transform="translate(-39.486 -0.611)" fill="#fff"/>
</svg>
