<svg id="_015-refresh" data-name="015-refresh" xmlns="http://www.w3.org/2000/svg" width="63" height="55.209" viewBox="0 0 63 55.209">
  <path id="패스_113" data-name="패스 113" d="M139.134,99.023l-14.867,22.091h7.015a12.6,12.6,0,1,1-6.61-13.671l2.013,1.03,8.4-12.479-2.347-1.337A28.071,28.071,0,0,0,118.867,91a27.606,27.606,0,1,0,27.754,30.114H154Zm2.533,17.072V118.6a22.8,22.8,0,1,1-22.8-22.585,23.037,23.037,0,0,1,8.906,1.789l-2.874,4.271a18.011,18.011,0,0,0-6.032-1.041,17.639,17.639,0,0,0-17.733,17.638v.012A17.735,17.735,0,0,0,136.6,118.6v-2.51h-2.867l5.4-8.023,5.4,8.023Zm0,0" transform="translate(-91 -91)" fill="#f68b1f"/>
</svg>
