<svg xmlns="http://www.w3.org/2000/svg" width="32" height="27" viewBox="0 0 32 27">
  <g id="_015-refresh" data-name="015-refresh" transform="translate(0 0)">
    <path id="패스_113" data-name="패스 113" d="M115.449,94.924l-7.551,10.8h3.563a6.471,6.471,0,0,1-12.74-1.2,6.285,6.285,0,0,1,6.434-6.168,6.61,6.61,0,0,1,2.949.678l1.023.5,4.266-6.1-1.192-.654A14.687,14.687,0,0,0,105.155,91C97.332,91,91,97.038,91,104.5c0,7.444,6.35,13.5,14.154,13.5a13.905,13.905,0,0,0,14.1-12.273H123Zm1.287,8.349V104.5a11.594,11.594,0,1,1-11.581-11.045,12.093,12.093,0,0,1,4.524.875l-1.46,2.089a9.467,9.467,0,0,0-3.064-.509,8.8,8.8,0,0,0-9.007,8.626v.006a9.019,9.019,0,0,0,18.015-.041v-1.227h-1.456l2.743-3.924,2.743,3.924Zm0,0" transform="translate(-91 -91)" fill="#f68b1f"/>
  </g>
</svg>
