<svg xmlns="http://www.w3.org/2000/svg" width="46.624" height="39.832" viewBox="0 0 46.624 39.832">
  <g id="구성_요소_139_1" data-name="구성 요소 139 – 1" transform="translate(0.494 0.51)">
    <g id="그룹_4473" data-name="그룹 4473">
      <path id="패스_7063" data-name="패스 7063" d="M4.1,38.822A12.635,12.635,0,0,1,2,37.886,4.421,4.421,0,0,1,.021,34.093c-.028-3.122-.028-2.994,0-6.116a4.754,4.754,0,0,1,4.714-4.734,9.656,9.656,0,0,1,1.595,0L9.908,13.1a.876.876,0,0,0-.133-.664A7.321,7.321,0,0,1,8.346,4.264,7.161,7.161,0,0,1,15.369.023,6.89,6.89,0,0,1,21.635,4.6a7.053,7.053,0,0,1-1.457,7.745A.724.724,0,0,0,20,13.2c1.272,3.479,2.523,6.966,3.78,10.45.054.149.117.295.207.523.18-.483.337-.894.487-1.309,1.172-3.243,2.338-6.489,3.521-9.729a.611.611,0,0,0-.161-.744,7.316,7.316,0,0,1-1.361-8.182A7.156,7.156,0,0,1,33.526.025,6.912,6.912,0,0,1,39.757,4.65a7.05,7.05,0,0,1-1.486,7.7.723.723,0,0,0-.171.866q3.605,9.927,7.181,19.866c.123.342.233.688.349,1.033v1.249a4.167,4.167,0,0,1-1.715,2.7,12.984,12.984,0,0,1-1.711.763H28.075c-.6-.359-.794-.73-.656-1.233.126-.46.509-.688,1.169-.689,1.348,0,11.684.01,13.032-.005a2.049,2.049,0,0,0,2.056-1.772,3.151,3.151,0,0,0-.2-1.4q-3.473-9.692-6.986-19.371c-.058-.161-.123-.32-.193-.5a7.506,7.506,0,0,1-3.291.775,7.705,7.705,0,0,1-3.234-.762c-.049.1-.083.152-.1.212Q27.383,20.4,25.107,26.736a1.027,1.027,0,0,0,.028.634c.68,1.927,1.378,3.847,2.072,5.769a3.911,3.911,0,0,1,.254,2.255c-.118.5-.288.991-.442,1.509.592,0,1.179-.012,1.764,0a.8.8,0,0,1,.826.6,1.932,1.932,0,0,1-.133.941c-.051.153-.267.25-.409.372ZM6.224,36.9c1.49,0,2.98,0,4.47,0a2.861,2.861,0,0,0,2.953-2.957c.008-3.025.007-2.8,0-5.822a2.853,2.853,0,0,0-2.9-2.957c-3.012-.01-2.909-.01-5.92,0a2.853,2.853,0,0,0-2.906,2.955c-.008,3.025-.008,2.8,0,5.822A2.86,2.86,0,0,0,4.868,36.9c1.49.006-.135,0,1.355,0m8.375,0H23.2a2.164,2.164,0,0,0,2.2-3.146q-3.44-9.525-6.882-19.049c-.1-.282-.208-.562-.314-.851a7.313,7.313,0,0,1-6.549,0c-.9,3.087-3.139,9.386-3.139,9.386h2.06a4.783,4.783,0,0,1,4.975,5.007c0,2.8-.018,2.351.009,5.152a5.575,5.575,0,0,1-.963,3.5M27.7,7.316a5.344,5.344,0,1,0,5.312-5.394A5.354,5.354,0,0,0,27.7,7.316M14.925,12.7A5.389,5.389,0,1,0,9.587,7.281,5.382,5.382,0,0,0,14.925,12.7" transform="translate(0 0)" fill="#111" stroke="#111" stroke-width="1"/>
      <path id="패스_7064" data-name="패스 7064" d="M336.9,384.594c-.17-.179-.4-.331-.5-.545a.675.675,0,0,1,.41-.868.731.731,0,0,1,.752,1.236c-.072.062-.148.118-.223.176Z" transform="translate(-303.969 -345.772)" fill="#111" stroke="#111" stroke-width="1"/>
      <path id="패스_7065" data-name="패스 7065" d="M38.468,279.3a.736.736,0,1,1-.726-.727.744.744,0,0,1,.726.727" transform="translate(-32.785 -251.412)" fill="#111" stroke="#111" stroke-width="1"/>
      <path id="패스_7066" data-name="패스 7066" d="M104.342,279.3a.736.736,0,1,1-.723-.731.744.744,0,0,1,.723.731" transform="translate(-92.964 -251.411)" fill="#111" stroke="#111" stroke-width="1"/>
      <path id="패스_7067" data-name="패스 7067" d="M71.057,312.045a.563.563,0,1,1-.558-.555.57.57,0,0,1,.558.555" transform="translate(-62.936 -281.123)" fill="#111" stroke="#111" stroke-width="1"/>
      <path id="패스_7068" data-name="패스 7068" d="M38.462,345.154a.736.736,0,1,1-.716-.746.745.745,0,0,1,.716.746" transform="translate(-32.779 -310.923)" fill="#111" stroke="#111" stroke-width="1"/>
      <path id="패스_7069" data-name="패스 7069" d="M103.582,345.882a.736.736,0,1,1,.753-.737.746.746,0,0,1-.753.737" transform="translate(-92.958 -310.925)" fill="#111" stroke="#111" stroke-width="1"/>
    </g>
  </g>
</svg>
