<svg id="_016-share" data-name="016-share" xmlns="http://www.w3.org/2000/svg" width="19.729" height="22" viewBox="0 0 19.729 22">
  <path id="패스_109" data-name="패스 109" d="M106.576,99a4,4,0,1,0-4.153-4,3.848,3.848,0,0,0,.2,1.235l-4.639,2.843A4.223,4.223,0,0,0,95.153,98a4,4,0,1,0,0,8,4.223,4.223,0,0,0,2.833-1.079l4.639,2.843a3.848,3.848,0,0,0-.2,1.235,4.156,4.156,0,1,0,4.153-4,4.223,4.223,0,0,0-2.833,1.079L99.1,103.235a3.85,3.85,0,0,0,0-2.471l4.639-2.843A4.223,4.223,0,0,0,106.576,99Zm0-6a2,2,0,1,1-2.077,2A2.042,2.042,0,0,1,106.576,93ZM95.153,104a2,2,0,1,1,2.077-2A2.042,2.042,0,0,1,95.153,104Zm11.422,3a2,2,0,1,1-2.077,2A2.042,2.042,0,0,1,106.576,107Zm0,0" transform="translate(-91 -91)" fill="#333"/>
</svg>
