<svg id="신청02" xmlns="http://www.w3.org/2000/svg" width="20.03" height="20.371" viewBox="0 0 20.03 20.371">
  <path id="패스_147" data-name="패스 147" d="M60.327,58.654A5.327,5.327,0,1,0,55,53.327,5.333,5.333,0,0,0,60.327,58.654Zm0-9.376a4.049,4.049,0,1,1-4.049,4.049A4.053,4.053,0,0,1,60.327,49.279Z" transform="translate(-50.312 -48)"/>
  <path id="패스_150" data-name="패스 150" d="M10.015,202A10.026,10.026,0,0,0,0,212.015a.639.639,0,1,0,1.279,0,8.737,8.737,0,1,1,17.473,0,.639.639,0,1,0,1.279,0A10.026,10.026,0,0,0,10.015,202Z" transform="translate(0 -192.283)"/>
</svg>
