<svg id="_014-like" data-name="014-like" xmlns="http://www.w3.org/2000/svg" width="22" height="20" viewBox="0 0 22 20">
  <path id="패스_111" data-name="패스 111" d="M111.222,137.784a5.886,5.886,0,0,0-8.484,0l-.758.777-.757-.777a5.886,5.886,0,0,0-8.484,0,6.269,6.269,0,0,0,0,8.708l9.241,9.487,9.241-9.486a6.268,6.268,0,0,0,0-8.708Zm-1.414,7.256-7.827,8.035-7.827-8.035a4.178,4.178,0,0,1,0-5.805,3.923,3.923,0,0,1,5.655,0l2.171,2.227,2.172-2.228a3.923,3.923,0,0,1,5.655,0,4.178,4.178,0,0,1,0,5.8Zm0,0" transform="translate(-90.98 -135.978)" fill="#333"/>
</svg>
