<svg xmlns="http://www.w3.org/2000/svg" width="80" height="71.095" viewBox="0 0 80 71.095">
  <g id="구성_요소_135_2" data-name="구성 요소 135 – 2" transform="translate(1 1)">
    <path id="패스_7018" data-name="패스 7018" d="M252.056,791.335l-44.4-14.462V744.9l44.4-14.462Z" transform="translate(-184.149 -730.436)" fill="none" stroke="#aaa" stroke-linecap="round" stroke-linejoin="round" stroke-width="2"/>
    <path id="패스_7019" data-name="패스 7019" d="M201.878,749.084l7.194,19.171A4.709,4.709,0,0,0,215,771.287h0a4.705,4.705,0,0,0,3.032-5.922l-5.94-15.738" transform="translate(-192.336 -702.436)" fill="none" stroke="#aaa" stroke-linecap="round" stroke-linejoin="round" stroke-width="2"/>
    <path id="패스_7020" data-name="패스 7020" d="M218.27,768.758H204.5a3.847,3.847,0,0,1-3.845-3.848V740.045A3.846,3.846,0,0,1,204.5,736.2H218.27" transform="translate(-194.215 -721.831)" fill="none" stroke="#aaa" stroke-linecap="round" stroke-linejoin="round" stroke-width="2"/>
    <path id="패스_7021" data-name="패스 7021" d="M204.277,753.078a6.166,6.166,0,1,1,0-12.331" transform="translate(-198.111 -714.897)" fill="none" stroke="#aaa" stroke-linecap="round" stroke-linejoin="round" stroke-width="2"/>
    <path id="패스_7022" data-name="패스 7022" d="M225.516,739.082a9.248,9.248,0,1,1,0,18.5" transform="translate(-156.765 -717.434)" fill="none" stroke="#aaa" stroke-linecap="round" stroke-linejoin="round" stroke-width="2"/>
  </g>
</svg>
