<svg id="_2891598" data-name="2891598" xmlns="http://www.w3.org/2000/svg" width="52.129" height="52.129" viewBox="0 0 52.129 52.129">
  <g id="그룹_4235" data-name="그룹 4235" transform="translate(6)">
    <path id="패스_6951" data-name="패스 6951" d="M4.932,12A2.182,2.182,0,0,1,2.75,9.817V2.182a2.182,2.182,0,0,1,4.363,0V9.817A2.182,2.182,0,0,1,4.932,12Z" transform="translate(-2.75)" fill="#032550"/>
    <path id="패스_6952" data-name="패스 6952" d="M9.682,12A2.182,2.182,0,0,1,7.5,9.817V2.182a2.182,2.182,0,0,1,4.363,0V9.817A2.182,2.182,0,0,1,9.682,12Z" transform="translate(2.863)" fill="#032550"/>
    <path id="패스_6953" data-name="패스 6953" d="M14.432,12A2.182,2.182,0,0,1,12.25,9.817V2.182a2.182,2.182,0,1,1,4.363,0V9.817A2.182,2.182,0,0,1,14.432,12Z" transform="translate(8.476)" fill="#032550"/>
  </g>
  <path id="패스_6954" data-name="패스 6954" d="M4.932,0A2.18,2.18,0,0,0,2.75,2.182V9.817A2.18,2.18,0,0,0,4.932,12Z" transform="translate(3.25)" fill="#003170"/>
  <path id="패스_6955" data-name="패스 6955" d="M9.682,0A2.18,2.18,0,0,0,7.5,2.182V9.817A2.18,2.18,0,0,0,9.682,12Z" transform="translate(8.787)" fill="#003170"/>
  <path id="패스_6956" data-name="패스 6956" d="M14.432,0A2.18,2.18,0,0,0,12.25,2.182V9.817A2.18,2.18,0,0,0,14.432,12Z" transform="translate(14.353)" fill="#003170"/>
  <path id="패스_6957" data-name="패스 6957" d="M31.088,2.25H6A5.979,5.979,0,0,0,0,8.216V36.96a5.979,5.979,0,0,0,6,5.966H23.758a15.5,15.5,0,0,1-.72-17.355,14.294,14.294,0,0,1,2.771-3.384v-.022a15.792,15.792,0,0,1,10.734-4.187,4.586,4.586,0,0,1,.545.022V8.216A5.979,5.979,0,0,0,31.088,2.25Z" transform="translate(0 2.659)" fill="#b2cdf1"/>
  <path id="패스_6958" data-name="패스 6958" d="M18.544,2.25H6A5.979,5.979,0,0,0,0,8.216V36.96a5.979,5.979,0,0,0,6,5.966H18.544Z" transform="translate(0 2.659)" fill="#6c96cb"/>
  <path id="패스_6959" data-name="패스 6959" d="M22.264,11.938v.022a14.358,14.358,0,0,0-2.771,3.4H5.182a2.182,2.182,0,0,1,0-4.363H20.453A2.242,2.242,0,0,1,22.264,11.938Z" transform="translate(3.545 12.883)" fill="#032550"/>
  <path id="패스_6960" data-name="패스 6960" d="M13.908,11.363H5.182A2.182,2.182,0,1,1,5.182,7h8.727a2.182,2.182,0,0,1,0,4.363Z" transform="translate(3.545 8.198)" fill="#032550"/>
  <path id="패스_6961" data-name="패스 6961" d="M22.954,34.407A11.454,11.454,0,1,1,34.407,22.954,11.466,11.466,0,0,1,22.954,34.407Zm0-18.544a7.09,7.09,0,1,0,7.09,7.09A7.1,7.1,0,0,0,22.954,15.863Z" transform="translate(13.357 13.358)" fill="#003170"/>
  <path id="패스_6962" data-name="패스 6962" d="M28.022,30.2a2.176,2.176,0,0,1-1.542-.639l-7.09-7.09a2.181,2.181,0,0,1,3.085-3.085l7.09,7.09A2.182,2.182,0,0,1,28.022,30.2Z" transform="translate(21.925 21.925)" fill="#003170"/>
  <path id="패스_6963" data-name="패스 6963" d="M16.09,8H3a2.18,2.18,0,0,0,2.182,2.182h8.727A2.18,2.18,0,0,0,16.09,8Z" transform="translate(3.545 9.373)" fill="#003170"/>
  <path id="패스_6964" data-name="패스 6964" d="M21.086,12a13.946,13.946,0,0,0-1.593,2.182H5.182A2.188,2.188,0,0,1,3,12Z" transform="translate(3.545 14.06)" fill="#003170"/>
  <path id="패스_6965" data-name="패스 6965" d="M14.858,13.039a11.449,11.449,0,0,0,14.5,17.586l-1.4-1.4a2.183,2.183,0,0,1-.137-2.934,7.087,7.087,0,0,1-9.876-10.164Z" transform="translate(13.421 15.177)" fill="#032550"/>
  <path id="패스_6966" data-name="패스 6966" d="M19.389,19.043c-.048.048-.094.1-.137.151a2.183,2.183,0,0,0,.137,2.934l1.4,1.4,5.688,5.688a2.181,2.181,0,0,0,3.085,0Z" transform="translate(21.925 22.271)" fill="#032550"/>
</svg>
