<svg xmlns="http://www.w3.org/2000/svg" width="70" height="70" viewBox="0 0 70 70">
  <g id="그룹_272" data-name="그룹 272" transform="translate(-1238 -641.5)">
    <g id="패스_7009" data-name="패스 7009" transform="translate(1238 641.5)" fill="#f68b1f">
      <path d="M 35 68 C 30.54414367675781 68 26.2226448059082 67.12776947021484 22.15552139282227 65.40752410888672 C 18.22614479064941 63.74553298950195 14.6967887878418 61.3658332824707 11.66547775268555 58.33452224731445 C 8.634166717529297 55.3032112121582 6.254466533660889 51.77385711669922 4.592477798461914 47.84447860717773 C 2.872233390808105 43.7773551940918 2 39.45585632324219 2 35 C 2 30.54414367675781 2.872233390808105 26.2226448059082 4.592477798461914 22.15552139282227 C 6.254466533660889 18.22614479064941 8.634166717529297 14.6967887878418 11.66547775268555 11.66547775268555 C 14.6967887878418 8.634166717529297 18.22614479064941 6.254466533660889 22.15552139282227 4.592477798461914 C 26.2226448059082 2.872233390808105 30.54414367675781 2 35 2 C 39.45585632324219 2 43.7773551940918 2.872233390808105 47.84447860717773 4.592477798461914 C 51.77385711669922 6.254466533660889 55.3032112121582 8.634166717529297 58.33452224731445 11.66547775268555 C 61.3658332824707 14.6967887878418 63.74553298950195 18.22614479064941 65.40752410888672 22.15552139282227 C 67.12776947021484 26.2226448059082 68 30.54414367675781 68 35 C 68 39.45585632324219 67.12776947021484 43.7773551940918 65.40752410888672 47.84447860717773 C 63.74553298950195 51.77385711669922 61.3658332824707 55.3032112121582 58.33452224731445 58.33452224731445 C 55.3032112121582 61.3658332824707 51.77385711669922 63.74553298950195 47.84447860717773 65.40752410888672 C 43.7773551940918 67.12776947021484 39.45585632324219 68 35 68 Z" stroke="none"/>
      <path d="M 35 4 C 30.81326293945313 4 26.75388717651367 4.819084167480469 22.93462371826172 6.434486389160156 C 19.24364852905273 7.995651245117188 15.92797470092773 10.23141098022461 13.07968902587891 13.07968902587891 C 10.23141098022461 15.92797470092773 7.995651245117188 19.24364852905273 6.434486389160156 22.93462371826172 C 4.819084167480469 26.75388717651367 4 30.81326293945313 4 35 C 4 39.18673706054688 4.819084167480469 43.24611282348633 6.434486389160156 47.06537628173828 C 7.995651245117188 50.75634765625 10.23141098022461 54.07202529907227 13.07968902587891 56.92031097412109 C 15.92797470092773 59.76858520507813 19.24364852905273 62.00434875488281 22.93462371826172 63.56551361083984 C 26.75388717651367 65.18091583251953 30.81326293945313 66 35 66 C 39.18673706054688 66 43.24611282348633 65.18091583251953 47.06537628173828 63.56551361083984 C 50.75634765625 62.00434875488281 54.07202529907227 59.76858520507813 56.92031097412109 56.92031097412109 C 59.76858520507813 54.07202529907227 62.00434875488281 50.75634765625 63.56551361083984 47.06537628173828 C 65.18091583251953 43.24611282348633 66 39.18673706054688 66 35 C 66 30.81326293945313 65.18091583251953 26.75388717651367 63.56551361083984 22.93462371826172 C 62.00434875488281 19.24364852905273 59.76858520507813 15.92797470092773 56.92031097412109 13.07968902587891 C 54.07202529907227 10.23141098022461 50.75634765625 7.995651245117188 47.06537628173828 6.434486389160156 C 43.24611282348633 4.819084167480469 39.18673706054688 4 35 4 M 35 0 C 54.32996368408203 0 70 15.67003631591797 70 35 C 70 54.32996368408203 54.32996368408203 70 35 70 C 15.67003631591797 70 0 54.32996368408203 0 35 C 0 15.67003631591797 15.67003631591797 0 35 0 Z" stroke="none" fill="#f68b1f"/>
    </g>
    <path id="패스_7010" data-name="패스 7010" d="M1263.746,675.133l9.216,9.216,9.216-9.216" fill="none" stroke="#fff" stroke-linecap="round" stroke-linejoin="round" stroke-width="4"/>
  </g>
</svg>
