<svg id="loading" xmlns="http://www.w3.org/2000/svg" width="99.997" height="99.996" viewBox="0 0 99.997 99.996">
  <g id="그룹_4376" data-name="그룹 4376" transform="translate(0.004 0.004)">
    <ellipse id="타원_54" data-name="타원 54" cx="5.5" cy="5" rx="5.5" ry="5" transform="translate(-0.004 54.996)" fill="#f68b1f"/>
    <ellipse id="타원_55" data-name="타원 55" cx="5.5" cy="5" rx="5.5" ry="5" transform="translate(30.996 85.996)" fill="#f68b1f"/>
    <ellipse id="타원_56" data-name="타원 56" cx="4.5" cy="5.5" rx="4.5" ry="5.5" transform="translate(11.996 74.996)" fill="#f68b1f"/>
    <ellipse id="타원_57" data-name="타원 57" cx="5.5" cy="5" rx="5.5" ry="5" transform="translate(-0.004 54.996)" fill="#f68b1f"/>
    <path id="패스_7032" data-name="패스 7032" d="M178.344,429.172a5.172,5.172,0,1,0-5.172,5.172,5.172,5.172,0,0,0,5.172-5.172" transform="translate(-136.966 -337.799)" fill="#f68b1f"/>
    <ellipse id="타원_58" data-name="타원 58" cx="4.5" cy="5.5" rx="4.5" ry="5.5" transform="translate(11.996 74.996)" fill="#f68b1f"/>
    <circle id="타원_59" data-name="타원 59" cx="5.5" cy="5.5" r="5.5" transform="translate(-0.004 30.996)" fill="#f68b1f"/>
    <circle id="타원_60" data-name="타원 60" cx="5.5" cy="5.5" r="5.5" transform="translate(30.996 -0.004)" fill="#f68b1f"/>
    <circle id="타원_61" data-name="타원 61" cx="4.5" cy="4.5" r="4.5" transform="translate(11.996 11.996)" fill="#f68b1f"/>
    <circle id="타원_62" data-name="타원 62" cx="5.5" cy="5.5" r="5.5" transform="translate(-0.004 30.996)" fill="#f68b1f"/>
    <path id="패스_7033" data-name="패스 7033" d="M178.344,29.172A5.172,5.172,0,1,1,173.172,24a5.172,5.172,0,0,1,5.172,5.172" transform="translate(-136.966 -23.997)" fill="#f68b1f"/>
    <circle id="타원_63" data-name="타원 63" cx="4.5" cy="4.5" r="4.5" transform="translate(11.996 11.996)" fill="#f68b1f"/>
    <path id="패스_7034" data-name="패스 7034" d="M293.159,120.54a5.172,5.172,0,0,1-1.386-10.155A39.976,39.976,0,0,0,312.531,96.4a39.125,39.125,0,0,0,8.213-24.127,39.956,39.956,0,0,0-29.006-38.126,5.172,5.172,0,1,1,2.845-9.945,50.974,50.974,0,0,1,26.075,17.689,49.673,49.673,0,0,1,.059,60.831,50.387,50.387,0,0,1-26.166,17.63,5.18,5.18,0,0,1-1.393.191Z" transform="translate(-231.095 -23.996)" fill="#f68b1f"/>
  </g>
  <path id="패스_7035" data-name="패스 7035" d="M324.209,324.817a5.287,5.287,0,0,1-.577-.032L292.6,321.337a5.172,5.172,0,0,1-4.412-6.525l8.62-31.031a5.172,5.172,0,1,1,9.966,2.769l-6.994,25.178,24.993,2.777a5.172,5.172,0,0,1-.565,10.312Z" transform="translate(-231.102 -224.821)" fill="#f68b1f"/>
</svg>
