<?xml version="1.0" encoding="UTF-8"?>
<svg id="Layer_1" data-name="Layer 1" xmlns="http://www.w3.org/2000/svg" viewBox="0 0 16 14">
  <defs>
    <style>
      .cls-1 {
        fill: #fff;
        stroke-width: 0px;
      }
    </style>
  </defs>
  <path class="cls-1" d="m15.01,0H5.99c-.54,0-.99.44-.99.99v2.51H.99c-.54,0-.99.44-.99.99v6.02c0,.54.44.99.99.99h1.51v2c0,.19.11.37.29.45.07.03.14.05.21.05.12,0,.23-.04.32-.12l2.86-2.38h3.83c.54,0,.99-.44.99-.99v-1.53l1.68,1.4c.09.08.21.12.32.12.07,0,.14-.02.21-.05.18-.08.29-.26.29-.45v-2h1.51c.54,0,.99-.44.99-.99V.99c0-.54-.44-.99-.99-.99ZM6,10.5c-.12,0-.23.04-.32.12l-2.18,1.82v-1.43c0-.28-.22-.5-.5-.5H1s0-6,0-6h9s.01,6,.01,6h-4.01Zm7-3.5c-.28,0-.5.22-.5.5v1.43l-1.5-1.25v-3.19c0-.54-.44-.99-.99-.99h-4.01V1s9-.01,9-.01v6.01s-2,0-2,0Z"/>
  <rect class="cls-1" x="3" y="6.5" width="1" height="1"/>
  <rect class="cls-1" x="5" y="6.5" width="1" height="1"/>
  <rect class="cls-1" x="7" y="6.5" width="1" height="1"/>
</svg>