<?xml version="1.0" encoding="UTF-8"?>
<svg id="Layer_1" data-name="Layer 1" xmlns="http://www.w3.org/2000/svg" viewBox="0 0 14.66 15">
  <defs>
    <style>
      .cls-1 {
        fill: #666;
        stroke-width: 0px;
      }
    </style>
  </defs>
  <path class="cls-1" d="m7.33,4.64c-.5,0-.99.13-1.43.38-1.36.79-1.83,2.54-1.05,3.9.51.88,1.46,1.43,2.48,1.43.5,0,.99-.13,1.43-.38,1.36-.79,1.83-2.54,1.05-3.9-.51-.88-1.46-1.43-2.48-1.43m.84,4.3c-.25.15-.54.22-.83.22-.6,0-1.15-.32-1.45-.83-.46-.8-.19-1.82.61-2.28.25-.15.54-.22.83-.22.6,0,1.15.32,1.45.83.46.8.19,1.82-.61,2.28"/>
  <path class="cls-1" d="m14.47,9.21l-1.2-1.12v-1.18s1.2-1.12,1.2-1.12c.2-.19.25-.49.11-.73l-1.51-2.62c-.14-.24-.42-.35-.69-.27l-1.57.48-1.02-.59-.37-1.6c-.06-.27-.3-.46-.58-.46h-3.03c-.28,0-.52.19-.58.46l-.37,1.6-1.02.59-1.57-.48c-.26-.08-.55.03-.69.27L.08,5.06c-.14.24-.09.54.11.73l1.2,1.12v1.18s-1.2,1.12-1.2,1.12c-.2.19-.25.49-.11.73l1.51,2.62c.14.24.42.35.69.27l1.57-.48,1.02.59.37,1.6c.06.27.3.46.58.46h3.03c.28,0,.52-.19.58-.46l.37-1.6,1.02-.59,1.57.48c.27.08.55-.03.69-.27l1.51-2.62c.14-.24.09-.54-.11-.73m-2.2,2.35l-1.36-.42c-.16-.05-.33-.03-.47.05l-1.47.85c-.14.08-.25.22-.28.38l-.32,1.39h-2.08l-.32-1.39c-.04-.16-.14-.3-.28-.38l-1.47-.85c-.14-.08-.31-.1-.47-.05l-1.36.42-1.04-1.8,1.04-.97c.12-.11.19-.27.19-.43v-1.7c0-.17-.07-.32-.19-.44l-1.04-.97,1.04-1.8,1.36.42c.16.05.33.03.47-.05l1.47-.85c.14-.08.25-.22.28-.38l.32-1.39h2.08s.32,1.39.32,1.39c.04.16.14.3.28.38l1.47.85c.14.08.31.1.47.05l1.36-.42,1.04,1.8-1.04.97c-.12.11-.19.27-.19.43v1.7c0,.17.07.32.19.44l1.04.97-1.04,1.8Z"/>
</svg>