<svg 
 xmlns="http://www.w3.org/2000/svg"
 xmlns:xlink="http://www.w3.org/1999/xlink"
 width="16px" height="16px">
<defs>
<filter id="Filter_0">
    <feFlood flood-color="rgb(255, 255, 255)" flood-opacity="1" result="floodOut" />
    <feComposite operator="atop" in="floodOut" in2="SourceGraphic" result="compOut" />
    <feBlend mode="normal" in="compOut" in2="SourceGraphic" />
</filter>

</defs>
<g filter="url(#Filter_0)">
<path fill-rule="evenodd"  fill="rgb(51, 51, 51)"
 d="M6.999,13.999 C3.133,13.999 -0.001,10.865 -0.001,6.999 C-0.001,3.133 3.133,-0.001 6.999,-0.001 C10.865,-0.001 13.999,3.133 13.999,6.999 C13.999,10.865 10.865,13.999 6.999,13.999 ZM6.999,1.999 C4.238,1.999 1.999,4.237 1.999,6.999 C1.999,9.760 4.238,11.999 6.999,11.999 C9.760,11.999 11.999,9.760 11.999,6.999 C11.999,4.237 9.760,1.999 6.999,1.999 Z"/>
<path fill-rule="evenodd"  fill="rgb(51, 51, 51)"
 d="M11.878,10.463 L15.535,14.121 C15.925,14.511 15.925,15.143 15.535,15.534 C15.144,15.925 14.511,15.925 14.120,15.534 L10.463,11.878 C10.073,11.487 10.073,10.854 10.463,10.463 C10.854,10.073 11.487,10.073 11.878,10.463 Z"/>
</g>
</svg>