<svg width="24" height="24" viewBox="0 0 24 24" fill="none" xmlns="http://www.w3.org/2000/svg">
<path d="M2 15.7999V8.20029C2 7.65674 1.99893 7.18846 2.03028 6.80478C2.06259 6.40952 2.1344 6.01609 2.32715 5.63779C2.61472 5.07356 3.07347 4.61481 3.6377 4.32724C4.016 4.13449 4.40943 4.06268 4.80469 4.03037C5.18836 3.99902 5.65665 4.0001 6.2002 4.0001H9.67481C10.1163 4.00009 10.5001 3.99381 10.8721 4.0831C11.1781 4.15659 11.4709 4.27807 11.7393 4.44248C11.9023 4.54243 12.0508 4.66105 12.1973 4.79404L12.6445 5.23057L12.7705 5.35557H12.7695C13.1486 5.7346 13.2283 5.80516 13.3057 5.85264C13.3952 5.9075 13.4928 5.94826 13.5947 5.97275C13.6831 5.99396 13.7887 6.00009 14.3252 6.0001H17.7998C18.3434 6.0001 18.8116 5.99902 19.1953 6.03037C19.5906 6.06268 19.984 6.13447 20.3623 6.32724C20.9264 6.61477 21.3853 7.07348 21.6729 7.63779C21.8656 8.0161 21.9374 8.40952 21.9697 8.80478C22.0011 9.18846 22 9.65674 22 10.2003V15.7999C22 16.3435 22.0011 16.8117 21.9697 17.1954C21.9374 17.5907 21.8656 17.9841 21.6729 18.3624C21.3853 18.9266 20.9265 19.3854 20.3623 19.6729C19.984 19.8657 19.5906 19.9375 19.1953 19.9698C18.8116 20.0012 18.3434 20.0001 17.7998 20.0001H6.2002C5.65665 20.0001 5.18837 20.0012 4.80469 19.9698C4.40943 19.9375 4.016 19.8657 3.6377 19.6729C3.07339 19.3854 2.61468 18.9265 2.32715 18.3624C2.13438 17.9841 2.06259 17.5907 2.03028 17.1954C1.99893 16.8117 2 16.3435 2 15.7999ZM4 15.7999C4 16.3765 4.00127 16.749 4.02442 17.0323C4.04662 17.3039 4.0842 17.4048 4.10938 17.4542C4.20525 17.6422 4.35799 17.795 4.5459 17.8907C4.59533 17.9159 4.6962 17.9535 4.96778 17.9757C5.25111 17.9988 5.62364 18.0001 6.2002 18.0001H17.7998C18.3764 18.0001 18.7489 17.9988 19.0322 17.9757C19.3038 17.9535 19.4047 17.9159 19.4541 17.8907C19.6421 17.7949 19.7948 17.6422 19.8906 17.4542C19.9158 17.4048 19.9534 17.3039 19.9756 17.0323C19.9987 16.749 20 16.3765 20 15.7999V10.2003C20 9.62374 19.9987 9.2512 19.9756 8.96787C19.9534 8.69629 19.9158 8.59542 19.8906 8.54599C19.7949 8.35809 19.6421 8.20534 19.4541 8.10947C19.4047 8.08429 19.3038 8.04671 19.0322 8.02451C18.7489 8.00136 18.3764 8.0001 17.7998 8.0001H14.3252C13.8837 8.0001 13.4999 8.00638 13.1279 7.91709C12.822 7.8436 12.5291 7.72212 12.2607 7.55771C12.0977 7.45776 11.9492 7.33914 11.8027 7.20615L11.3555 6.76963L11.2295 6.64463C10.8507 6.26581 10.7717 6.19502 10.6943 6.14756C10.6048 6.0927 10.5072 6.05194 10.4053 6.02744C10.3169 6.00623 10.2113 6.0001 9.67481 6.0001H6.2002C5.62365 6.0001 5.25112 6.00136 4.96778 6.02451C4.69619 6.04671 4.59534 6.08428 4.5459 6.10947C4.35793 6.2053 4.20521 6.35802 4.10938 6.54599C4.08419 6.59543 4.04662 6.69628 4.02442 6.96787C4.00127 7.25121 4 7.62374 4 8.20029V15.7999Z" fill="#33363D"/>
</svg>
