<svg width="19" height="19" viewBox="0 0 19 19" fill="none" xmlns="http://www.w3.org/2000/svg">
<path fill-rule="evenodd" clip-rule="evenodd" d="M1.6 9.4C1.6 5.0964 5.10957 1.6 9.4483 1.6C12.3952 1.6 14.962 3.21383 16.3041 5.6001H13.2023C12.7605 5.6001 12.4023 5.95827 12.4023 6.4001C12.4023 6.84193 12.7605 7.2001 13.2023 7.2001H18.2023C18.6442 7.2001 19.0023 6.84193 19.0023 6.4001V1.4001C19.0023 0.95827 18.6442 0.600098 18.2023 0.600098C17.7605 0.600098 17.4023 0.95827 17.4023 1.4001V4.32484C15.7218 1.72315 12.787 0 9.4483 0C4.23438 0 0 4.2043 0 9.4C0 14.5957 4.23438 18.8 9.4483 18.8C14.1819 18.8 18.1062 15.336 18.791 10.8097C18.8571 10.3728 18.5565 9.96509 18.1197 9.899C17.6828 9.83291 17.2751 10.1335 17.209 10.5703C16.6418 14.3195 13.3855 17.2 9.4483 17.2C5.10957 17.2 1.6 13.7036 1.6 9.4Z" fill="#33363D"/>
</svg>
