<svg width="20" height="20" viewBox="0 0 20 20" fill="none" xmlns="http://www.w3.org/2000/svg">
<path fill-rule="evenodd" clip-rule="evenodd" d="M18.4 10C18.4 14.6391 14.6391 18.4 10 18.4C5.36081 18.4 1.6 14.6391 1.6 10C1.6 5.36081 5.36081 1.6 10 1.6C14.6391 1.6 18.4 5.36081 18.4 10ZM10 20C15.5228 20 20 15.5228 20 10C20 4.47715 15.5228 0 10 0C4.47715 0 0 4.47715 0 10C0 15.5228 4.47715 20 10 20ZM10.7992 5.5002C10.7992 5.05837 10.441 4.7002 9.99922 4.7002C9.55739 4.7002 9.19922 5.05837 9.19922 5.5002V10.0005C9.19922 10.4423 9.55739 10.8005 9.99922 10.8005H14.4995C14.9413 10.8005 15.2995 10.4423 15.2995 10.0005C15.2995 9.55866 14.9413 9.20049 14.4995 9.20049H10.7992V5.5002Z" fill="#33363D"/>
</svg>
