<svg width="15" height="17" viewBox="0 0 15 17" fill="none" xmlns="http://www.w3.org/2000/svg">
<path fill-rule="evenodd" clip-rule="evenodd" d="M10.8176 2.71195L10.0162 4.10003C12.6945 5.64636 13.6162 9.08427 12.0695 11.7633C10.5228 14.4423 7.0846 15.3629 4.40629 13.8166C1.72798 12.2703 0.806214 8.83239 2.35294 6.15339C3.09304 4.8715 4.29999 3.95907 5.69727 3.56649L4.74279 5.2197L6.13087 6.02111L8.33475 2.20388L4.51751 0L3.7161 1.38808L4.95913 2.10574C3.29188 2.65339 1.86283 3.79663 0.964854 5.35198C-1.02345 8.79582 0.160351 13.216 3.60488 15.2047C7.04941 17.1934 11.4693 16.0085 13.4576 12.5647C15.4459 9.12084 14.2621 4.70065 10.8176 2.71195Z" fill="black"/>
</svg>
