<svg width="24" height="24" viewBox="0 0 24 24" fill="none" xmlns="http://www.w3.org/2000/svg">
<path d="M13.5 2C13.7121 2 13.9154 2.08441 14.0654 2.23438L19.7646 7.93457C19.9146 8.08455 19.999 8.28792 19.999 8.5V11H20C20.5523 11 21 11.4477 21 12V18C21 18.5523 20.5523 19 20 19H19.999V20.2002C19.999 21.1943 19.1933 22 18.1992 22H5.7998C4.80578 21.9999 4 21.1942 4 20.2002V3.7998C4.00011 2.80585 4.80585 2.00011 5.7998 2H13.5ZM5.7998 3.59961C5.6895 3.59971 5.59971 3.6895 5.59961 3.7998V20.2002C5.59961 20.3106 5.68944 20.4003 5.7998 20.4004H18.1992C18.3097 20.4004 18.3994 20.3107 18.3994 20.2002V19H8C7.44772 19 7 18.5523 7 18V12C7 11.4477 7.44772 11 8 11H18.3994V9.2998H14.5C13.5059 9.2998 12.7002 8.49411 12.7002 7.5V3.59961H5.7998ZM14.2998 7.5C14.2998 7.61046 14.3895 7.7002 14.5 7.7002H17.2686L14.2998 4.73145V7.5Z" fill="#F05F42"/>
<path d="M9 17.2422V13H10.6641C11.6309 13 12.1816 13.5918 12.1816 14.4297C12.1816 15.2793 11.6191 15.8594 10.6406 15.8594H9.87891V17.2422H9ZM9.87891 15.1504H10.5C11.0215 15.1504 11.2734 14.8574 11.2734 14.4297C11.2734 14.0078 11.0215 13.7207 10.5 13.7207H9.87891V15.1504Z" fill="white"/>
<path d="M12.4983 17.2422V13H14.1623C15.1291 13 15.6799 13.5918 15.6799 14.4297C15.6799 15.2793 15.1174 15.8594 14.1389 15.8594H13.3772V17.2422H12.4983ZM13.3772 15.1504H13.9983C14.5198 15.1504 14.7717 14.8574 14.7717 14.4297C14.7717 14.0078 14.5198 13.7207 13.9983 13.7207H13.3772V15.1504Z" fill="white"/>
<path d="M15.8325 13.7266V13H19.3071V13.7266H18.0063V17.2422H17.1333V13.7266H15.8325Z" fill="white"/>
</svg>
