<svg width="20" height="20" viewBox="0 0 20 20" fill="none" xmlns="http://www.w3.org/2000/svg">
<path fill-rule="evenodd" clip-rule="evenodd" d="M4.8 0C4.35817 0 4 0.358172 4 0.8V5H1.80282C0.808924 5 0.00312333 5.80556 0.00282471 6.79946L3.60977e-08 16.2C-6.36685e-05 16.4122 0.0841936 16.6157 0.23423 16.7658C0.384266 16.9159 0.587785 17.0002 0.8 17.0002H4.19922V19.2002C4.19922 19.642 4.55739 20.0002 4.99922 20.0002H15.1992C15.641 20.0002 15.9992 19.642 15.9992 19.2002V17.0002H19.2031C19.645 17.0002 20.0031 16.642 20.0031 16.2002V6.8C20.0031 5.80589 19.1972 5 18.2031 5H15.9992V0.8C15.9992 0.358172 15.641 0 15.1992 0H4.8ZM14.3992 5V1.6H5.6V5H14.3992ZM18.4031 15.4002H15.9992V12.0002C15.9992 11.788 15.9149 11.5845 15.7649 11.4345C15.6149 11.2845 15.4114 11.2002 15.1992 11.2002H4.99922C4.55739 11.2002 4.19922 11.5584 4.19922 12.0002V15.4002H1.60024L1.60282 6.79994C1.60286 6.68951 1.69239 6.6 1.80282 6.6H18.2031C18.3136 6.6 18.4031 6.68954 18.4031 6.8V15.4002ZM5.79922 12.8002V18.4002H14.3992V12.8002H5.79922Z" fill="#33363D"/>
</svg>
