<svg width="18" height="19" viewBox="0 0 18 19" fill="none" xmlns="http://www.w3.org/2000/svg">
<path fill-rule="evenodd" clip-rule="evenodd" d="M4.8 0C5.24183 0 5.6 0.358172 5.6 0.8V3.00005L12.3984 3.00013V0.8C12.3984 0.358172 12.7566 0 13.1984 0C13.6403 0 13.9984 0.358172 13.9984 0.8V3.00015L16.1992 3.00017C17.1933 3.00018 17.9992 3.80607 17.9992 4.80017V17.2002C17.9992 18.1943 17.1933 19.0002 16.1992 19.0002H1.8C0.805888 19.0002 0 18.1943 0 17.2002V4.8C0 3.80588 0.805899 2.99999 1.80002 3L4 3.00003V0.8C4 0.358172 4.35817 0 4.8 0ZM1.8 4.6C1.68954 4.6 1.6 4.68954 1.6 4.8V7.2002H16.3992V4.80017C16.3992 4.68972 16.3097 4.60017 16.1992 4.60017L1.8 4.6ZM1.6 17.2002V8.8002H16.3992V17.2002C16.3992 17.3106 16.3097 17.4002 16.1992 17.4002H1.8C1.68954 17.4002 1.6 17.3106 1.6 17.2002ZM4.60156 12C4.04928 12 3.60156 12.4477 3.60156 13C3.60156 13.5523 4.04928 14 4.60156 14C5.15385 14 5.60156 13.5523 5.60156 13C5.60156 12.4477 5.15385 12 4.60156 12ZM9 12C8.44772 12 8 12.4477 8 13C8 13.5523 8.44772 14 9 14C9.55228 14 10 13.5523 10 13C10 12.4477 9.55228 12 9 12ZM12.4023 13C12.4023 12.4477 12.8501 12 13.4023 12C13.9546 12 14.4023 12.4477 14.4023 13C14.4023 13.5523 13.9546 14 13.4023 14C12.8501 14 12.4023 13.5523 12.4023 13Z" fill="#33363D"/>
</svg>
