<svg width="18" height="18" viewBox="0 0 18 18" fill="none" xmlns="http://www.w3.org/2000/svg">
<path fill-rule="evenodd" clip-rule="evenodd" d="M11.3984 3.3C11.3984 1.47746 12.8759 0 14.6984 0C16.521 0 17.9984 1.47746 17.9984 3.3C17.9984 5.12254 16.521 6.6 14.6984 6.6C13.6494 6.6 12.7146 6.11047 12.1102 5.34738L6.52782 8.31051C6.57512 8.53295 6.6 8.76366 6.6 9.0002C6.6 9.31481 6.55597 9.61914 6.47374 9.90736L11.9792 12.8297C12.5743 11.966 13.5703 11.3999 14.6984 11.3999C16.521 11.3999 17.9984 12.8774 17.9984 14.6999C17.9984 16.5224 16.521 17.9999 14.6984 17.9999C12.8759 17.9999 11.3984 16.5224 11.3984 14.6999C11.3984 14.5793 11.4049 14.4602 11.4175 14.343L5.67279 11.2936C5.07276 11.9143 4.23145 12.3002 3.3 12.3002C1.47746 12.3002 0 10.8227 0 9.0002C0 7.17766 1.47746 5.7002 3.3 5.7002C4.3121 5.7002 5.21778 6.15582 5.82312 6.87314L11.4503 3.88619C11.4162 3.69595 11.3984 3.50005 11.3984 3.3ZM14.6984 1.6C13.7596 1.6 12.9984 2.36112 12.9984 3.3C12.9984 4.23888 13.7596 5 14.6984 5C15.6373 5 16.3984 4.23888 16.3984 3.3C16.3984 2.36112 15.6373 1.6 14.6984 1.6ZM1.6 9.0002C1.6 8.06131 2.36112 7.3002 3.3 7.3002C4.23888 7.3002 5 8.06131 5 9.0002C5 9.93908 4.23888 10.7002 3.3 10.7002C2.36112 10.7002 1.6 9.93908 1.6 9.0002ZM12.9984 14.6999C12.9984 13.761 13.7596 12.9999 14.6984 12.9999C15.6373 12.9999 16.3984 13.761 16.3984 14.6999C16.3984 15.6388 15.6373 16.3999 14.6984 16.3999C13.7596 16.3999 12.9984 15.6388 12.9984 14.6999Z" fill="#33363D"/>
</svg>
