<svg width="18" height="18" viewBox="0 0 18 18" fill="none" xmlns="http://www.w3.org/2000/svg">
<path d="M8.59961 0C9.04115 0.000262697 9.39931 0.358229 9.39941 0.799805C9.39941 1.24147 9.04121 1.59935 8.59961 1.59961H1.7998C1.6895 1.59971 1.59971 1.6895 1.59961 1.7998L1.60156 16.2002C1.60157 16.3106 1.69131 16.4004 1.80176 16.4004H16.1992C16.3096 16.4003 16.3994 16.3106 16.3994 16.2002V9.40039C16.3994 8.95856 16.7574 8.60059 17.1992 8.60059C17.641 8.60064 17.999 8.95859 17.999 9.40039V16.2002C17.999 17.1943 17.1933 17.9999 16.1992 18H1.80176C0.807711 18 0.00107127 17.1942 0.000976562 16.2002L0 1.7998C0.000103454 0.805859 0.805837 0.000105519 1.7998 0H8.59961ZM17.1992 0C17.641 0 17.9989 0.358067 17.999 0.799805V6.2002C17.999 6.64202 17.641 7 17.1992 7C16.7574 7 16.3994 6.64202 16.3994 6.2002V2.73145L8.56445 10.5654C8.25203 10.8778 7.74598 10.8778 7.43359 10.5654C7.1213 10.253 7.1213 9.74696 7.43359 9.43457L15.2676 1.59961H11.7988C11.3572 1.5994 10.999 1.2415 10.999 0.799805C10.9991 0.358197 11.3572 0.000210953 11.7988 0H17.1992Z" fill="#0A4DCB"/>
</svg>
