<svg width="11" height="14" viewBox="0 0 11 14" fill="none" xmlns="http://www.w3.org/2000/svg">
<g clip-path="url(#clip0_503_21455)">
<path fill-rule="evenodd" clip-rule="evenodd" d="M1 0C1.552 0 2 0.448 2 1V12.1C2 13.552 1.552 14 1 14C0.448 14 0 13.552 0 12.1V1C0 0.448 0.448 0 1 0Z" fill="#444444"/>
<path fill-rule="evenodd" clip-rule="evenodd" d="M3.27613 5.94875L8.93313 0.29175C9.32413 -0.0982501 9.95713 -0.0982501 10.3481 0.29175C10.7381 0.68275 10.7381 1.31575 10.3481 1.70675L5.22613 6.82775L10.3481 11.9487C10.7381 12.3398 10.7381 12.9728 10.3481 13.3637C9.95712 13.7537 9.32413 13.7537 8.93313 13.3637L3.27613 7.70675C3.03713 7.46675 2.96213 7.13775 3.01713 6.82775C2.96213 6.51775 3.03713 6.18875 3.27613 5.94875Z" fill="#444444"/>
</g>
<defs>
<clipPath id="clip0_503_21455">
<rect width="11" height="14" fill="white"/>
</clipPath>
</defs>
</svg>
