<svg width="24" height="24" viewBox="0 0 24 24" fill="none" xmlns="http://www.w3.org/2000/svg">
<path fill-rule="evenodd" clip-rule="evenodd" d="M10.3294 3.98584C10.546 3.98543 10.7535 4.07287 10.9045 4.22818L12.3355 5.70013L20.1991 5.70019C21.1932 5.7002 21.9991 6.50608 21.9991 7.50019V18.2002C21.9991 19.1943 21.1932 20.0002 20.1991 20.0002H3.79744C2.8034 20.0002 1.99755 19.1944 1.99744 18.2004L1.99609 5.79831C1.99599 4.80544 2.79985 3.99998 3.79271 3.99811L10.3294 3.98584ZM9.99351 5.58647L3.79572 5.59811C3.6854 5.59832 3.59608 5.68781 3.59609 5.79813L3.59744 18.2002C3.59745 18.3107 3.68699 18.4002 3.79744 18.4002H20.1991C20.3096 18.4002 20.3991 18.3107 20.3991 18.2002V7.50019C20.3991 7.38973 20.3096 7.30019 20.1991 7.30019L11.9975 7.30013C11.7815 7.30012 11.5746 7.21272 11.424 7.05779L9.99351 5.58647Z" fill="#33363D"/>
</svg>
