<svg width="19" height="18" viewBox="0 0 19 18" fill="none" xmlns="http://www.w3.org/2000/svg">
<path fill-rule="evenodd" clip-rule="evenodd" d="M9.25252 1.62392C11.4178 -0.541308 14.9283 -0.541304 17.0935 1.62392C19.2587 3.78915 19.2587 7.29968 17.0935 9.4649L9.39267 17.1657C9.08025 17.4781 8.57371 17.4781 8.2613 17.1657C7.94888 16.8533 7.94888 16.3467 8.2613 16.0343L15.9621 8.33353C17.5025 6.79315 17.5025 4.29568 15.9621 2.75529C14.4218 1.21491 11.9243 1.21489 10.3839 2.7553L2.32269 10.8165C2.32268 10.8165 2.32269 10.8165 2.32269 10.8165C1.35911 11.7801 1.35911 13.3423 2.32269 14.3059C3.28627 15.2695 4.84854 15.2695 5.81212 14.3059L13.0446 7.07347C13.3914 6.72668 13.3914 6.1644 13.0446 5.81761C12.6978 5.47084 12.1355 5.47084 11.7888 5.81761L4.91667 12.6897C4.60425 13.0022 4.09772 13.0022 3.7853 12.6897C3.47288 12.3773 3.47288 11.8708 3.7853 11.5584L10.6574 4.68627C10.6574 4.68627 10.6574 4.68626 10.6574 4.68627C11.629 3.71464 13.2044 3.71463 14.176 4.68627C15.1476 5.65789 15.1476 7.23319 14.176 8.20481L6.94349 15.4373C5.35507 17.0258 2.77973 17.0258 1.1913 15.4373C-0.3971 13.8489 -0.397102 11.2736 1.1913 9.68511L9.25252 1.62392Z" fill="#33363D"/>
</svg>
