<svg width="18" height="18" viewBox="0 0 18 18" fill="none" xmlns="http://www.w3.org/2000/svg">
<path d="M0.349904 7.08459L8.3499 0.240148C8.72416 -0.0800489 9.27584 -0.0800496 9.65009 0.240147L17.6501 7.08459C17.8722 7.27458 18 7.5522 18 7.84445V16.884C18 17.4362 17.5523 17.884 17 17.884H12.25C11.6977 17.884 11.25 17.4362 11.25 16.884V12.3842C11.25 12.108 11.0261 11.8842 10.75 11.8842H7.25C6.97386 11.8842 6.75 12.108 6.75 12.3842V16.884C6.75 17.4362 6.30228 17.884 5.75 17.884H1C0.447716 17.884 0 17.4362 0 16.884V7.84445C0 7.5522 0.127841 7.27458 0.349904 7.08459Z" fill="#33363D"/>
</svg>
