<svg width="11" height="14" viewBox="0 0 11 14" fill="none" xmlns="http://www.w3.org/2000/svg">
<g clip-path="url(#clip0_503_21277)">
<path fill-rule="evenodd" clip-rule="evenodd" d="M7.53637 7.87937L1.87937 13.5364C1.48837 13.9264 0.855375 13.9264 0.464375 13.5364C0.074375 13.1454 0.074375 12.5124 0.464375 12.1214L5.58637 7.00037L0.464375 1.87937C0.074375 1.48837 0.074375 0.855375 0.464375 0.464375C0.855375 0.074375 1.48837 0.074375 1.87937 0.464375L7.53637 6.12137C7.77537 6.36137 7.85037 6.69037 7.79537 7.00037C7.85037 7.31037 7.77537 7.63937 7.53637 7.87937Z" fill="#444444"/>
<path fill-rule="evenodd" clip-rule="evenodd" d="M10 0C10.552 0 11 0.448 11 1V12.1C11 13.552 10.552 14 10 14C9.448 14 9 13.552 9 12.1V1C9 0.448 9.448 0 10 0Z" fill="#444444"/>
<path fill-rule="evenodd" clip-rule="evenodd" d="M10 0C10.552 0 11 0.448 11 1V12.1C11 13.552 10.552 14 10 14C9.448 14 9 13.552 9 12.1V1C9 0.448 9.448 0 10 0Z" fill="#444444"/>
<path fill-rule="evenodd" clip-rule="evenodd" d="M7.53637 7.87937L1.87937 13.5364C1.48837 13.9264 0.855375 13.9264 0.464375 13.5364C0.074375 13.1454 0.074375 12.5124 0.464375 12.1214L5.58637 7.00037L0.464375 1.87937C0.074375 1.48837 0.074375 0.855375 0.464375 0.464375C0.855375 0.074375 1.48837 0.074375 1.87937 0.464375L7.53637 6.12137C7.77537 6.36137 7.85037 6.69037 7.79537 7.00037C7.85037 7.31037 7.77537 7.63937 7.53637 7.87937Z" fill="#444444"/>
</g>
<defs>
<clipPath id="clip0_503_21277">
<rect width="11" height="14" fill="white"/>
</clipPath>
</defs>
</svg>
