<svg width="20" height="20" viewBox="0 0 20 20" fill="none" xmlns="http://www.w3.org/2000/svg">
<path d="M20 18.5651L16.2703 14.8349C17.5191 13.2723 18.2683 11.2906 18.2683 9.13406C18.2683 4.08826 14.1779 0 9.13556 0C4.09324 0 0 4.08548 0 9.13128C0 14.1771 4.09047 18.2653 9.13279 18.2653C11.289 18.2653 13.2704 17.516 14.8328 16.267L18.5653 20L20 18.5651ZM9.13279 16.2365C5.21437 16.2365 2.02858 13.0502 2.02858 9.13128C2.02858 5.21232 5.21437 2.02609 9.13279 2.02609C13.0512 2.02609 16.237 5.21232 16.237 9.13128C16.237 13.0502 13.0512 16.2365 9.13279 16.2365Z" fill="white"/>
<rect x="5" y="8.33333" width="8.33333" height="1.66667" fill="white"/>
</svg>
