<svg width="19" height="19" viewBox="0 0 19 19" fill="none" xmlns="http://www.w3.org/2000/svg">
<path d="M17.9996 10.0331C17.9996 5.04428 13.9702 1 8.99982 1C4.0294 1 0 5.04428 0 10.0331C0 14.2692 2.90586 17.8239 6.82582 18.8002V12.7936H4.97006V10.0331H6.82582V8.84359C6.82582 5.76909 8.21216 4.34404 11.2195 4.34404C11.7898 4.34404 12.7736 4.45641 13.1761 4.56842V7.07058C12.9637 7.04818 12.5947 7.03698 12.1364 7.03698C10.6608 7.03698 10.0906 7.59811 10.0906 9.05677V10.0331H13.0303L12.5252 12.7936H10.0906V19C14.5469 18.4598 18 14.6515 18 10.0331H17.9996Z" fill="#1D1D1D"/>
</svg>
