<svg width="19" height="19" viewBox="0 0 19 19" fill="none" xmlns="http://www.w3.org/2000/svg">
<g clip-path="url(#clip0_2368_499)">
<path d="M14.9926 3.39114L14.6089 3.00738C13.9594 2.35793 13.0923 2 12.1697 2C11.2472 2 10.3838 2.35793 9.73063 3.00738L6.4428 6.2952C5.98155 6.75646 5.67897 7.32103 5.53506 7.91513C5.52768 7.94465 5.52399 7.97048 5.5166 8C5.38007 8.73063 5.45018 9.56089 5.79336 10.262C5.80812 10.2952 5.82288 10.3284 5.84133 10.3616C5.87454 10.4207 5.91144 10.4797 5.94465 10.5387C5.97048 10.5793 5.99262 10.6199 6.02214 10.6605C6.02214 10.6605 6.02214 10.6605 6.02214 10.6642C6.08118 10.7454 6.14022 10.8229 6.20664 10.9004C6.21771 10.9151 6.2214 10.9299 6.23247 10.9446C6.29889 11.0221 6.36531 11.0996 6.43911 11.1734L6.82288 11.5572C6.95203 11.6863 7.09594 11.8007 7.24354 11.9077L7.60886 11.5535L7.67528 11.4871C7.83395 11.3284 7.92251 11.1107 7.92251 10.8819C7.92251 10.6531 7.83395 10.4354 7.67159 10.2731C7.66421 10.2657 7.66052 10.2509 7.65314 10.2435C7.56089 10.1402 7.48339 10.0221 7.42066 9.89668C7.31734 9.69004 7.25461 9.46125 7.25092 9.22509C7.24354 8.80812 7.39483 8.42435 7.67897 8.14022L7.74539 8.0738L7.94096 7.87823C7.94096 7.87823 7.96679 7.84502 7.98155 7.83026L11.2694 4.54244C11.7675 4.04428 12.5756 4.04428 13.0701 4.54244L13.4539 4.9262C13.6937 5.16605 13.8266 5.48708 13.8266 5.82657C13.8266 6.16605 13.6937 6.48708 13.4539 6.72694L10.2768 9.90406C10.1107 9.51661 9.87085 9.15129 9.5572 8.83764L8.83395 8.04428L8.4797 8.39852L8.21033 8.6679C8.0738 8.80443 8 8.99631 8.00369 9.20664C8.00369 9.41697 8.09225 9.61993 8.23247 9.76015C8.23985 9.76753 8.24354 9.7786 8.25092 9.78598C8.369 9.91513 8.46494 10.059 8.53505 10.214C8.62731 10.4207 8.67897 10.6421 8.67897 10.8745C8.67897 11.3063 8.51291 11.7085 8.20664 12.0148L6.64576 13.5314L4.72325 15.4539C4.22509 15.952 3.41697 15.952 2.92251 15.4539L2.53875 15.0701C2.04059 14.572 2.04059 13.7638 2.53875 13.2694L5.15498 10.6531C5.07749 10.5055 5.01476 10.3506 4.95941 10.1956C4.78967 9.71587 4.70849 9.20295 4.70849 8.70111C4.70849 8.43542 4.73063 8.17712 4.77491 7.92251L1.00738 11.7343C0.357934 12.3838 0 13.2509 0 14.1734C0 15.0959 0.357934 15.9594 1.00738 16.6125L1.39114 16.9963C2.06273 17.6679 2.94465 18.0037 3.83026 18.0037C4.71587 18.0037 5.5941 17.6679 6.26568 16.9963L9.55351 13.7085C9.94096 13.321 10.2103 12.8635 10.3764 12.3764C10.8745 12.2066 11.3321 11.9262 11.7085 11.5535L14.9963 8.26568C16.3395 6.92251 16.3395 4.73432 14.9963 3.39114H14.9926Z" fill="#1D1D1D"/>
</g>
<defs>
<clipPath id="clip0_2368_499">
<rect width="16" height="16" fill="white" transform="translate(0 2)"/>
</clipPath>
</defs>
</svg>
