<svg width="24" height="24" viewBox="0 0 24 24" fill="none" xmlns="http://www.w3.org/2000/svg">
<path d="M13.5 2C13.7121 2 13.9154 2.08441 14.0654 2.23438L19.7646 7.93457C19.9146 8.08455 19.999 8.28792 19.999 8.5V11H20C20.5523 11 21 11.4477 21 12V18C21 18.5523 20.5523 19 20 19H19.999V20.2002C19.999 21.1943 19.1933 22 18.1992 22H5.7998C4.80578 21.9999 4 21.1942 4 20.2002V3.7998C4.00011 2.80585 4.80585 2.00011 5.7998 2H13.5ZM5.7998 3.59961C5.6895 3.59971 5.59971 3.6895 5.59961 3.7998V20.2002C5.59961 20.3106 5.68944 20.4003 5.7998 20.4004H18.1992C18.3097 20.4004 18.3994 20.3107 18.3994 20.2002V19H8C7.44772 19 7 18.5523 7 18V12C7 11.4477 7.44772 11 8 11H18.3994V9.2998H14.5C13.5059 9.2998 12.7002 8.49411 12.7002 7.5V3.59961H5.7998ZM14.2998 7.5C14.2998 7.61046 14.3895 7.7002 14.5 7.7002H17.2686L14.2998 4.73145V7.5Z" fill="#228738"/>
<path d="M10.0254 13.0586L10.8926 14.5176H10.9219L11.7949 13.0586H12.791L11.4961 15.1797L12.8203 17.3008H11.8008L10.9219 15.8418H10.8926L10.0137 17.3008H9L10.3301 15.1797L9.02344 13.0586H10.0254Z" fill="white"/>
<path d="M13.0842 17.3008V13.0586H13.9631V16.5742H15.7913V17.3008H13.0842Z" fill="white"/>
<path d="M18.4223 14.2715C18.3872 13.9375 18.1177 13.7383 17.6899 13.7383C17.2446 13.7383 16.9985 13.9434 16.9927 14.2246C16.9868 14.5293 17.3091 14.6699 17.6723 14.752L18.0532 14.8457C18.7798 15.0098 19.3247 15.3789 19.3247 16.0879C19.3247 16.8672 18.7153 17.3594 17.6841 17.3594C16.6587 17.3594 16.0024 16.8848 15.979 15.9766H16.8345C16.8637 16.4043 17.2036 16.6211 17.6723 16.6211C18.1352 16.6211 18.4341 16.4043 18.4341 16.0879C18.4341 15.8008 18.1704 15.666 17.7075 15.5488L17.2446 15.4375C16.5298 15.2617 16.0903 14.9043 16.0903 14.2832C16.0903 13.5098 16.77 13 17.6958 13C18.6333 13 19.2544 13.5215 19.2661 14.2715H18.4223Z" fill="white"/>
</svg>
