<svg width="33" height="33" viewBox="0 0 33 33" fill="none" xmlns="http://www.w3.org/2000/svg">
<circle cx="16.5" cy="16.5" r="15.5" stroke="white" stroke-width="2"/>
<path d="M24.3926 21.5099C24.3926 21.7949 24.3293 22.0879 24.1947 22.3729C24.0601 22.6579 23.8859 22.927 23.6563 23.1804C23.2684 23.6079 22.8409 23.9166 22.358 24.1145C21.883 24.3124 21.3684 24.4154 20.8143 24.4154C20.0068 24.4154 19.1438 24.2254 18.2334 23.8374C17.323 23.4495 16.4126 22.927 15.5101 22.2699C14.5997 21.6049 13.7368 20.8687 12.9134 20.0533C12.098 19.2299 11.3618 18.367 10.7047 17.4645C10.0555 16.562 9.53301 15.6595 9.15301 14.7649C8.77301 13.8624 8.58301 12.9995 8.58301 12.1762C8.58301 11.6379 8.67801 11.1233 8.86801 10.6483C9.05801 10.1654 9.35884 9.72203 9.77842 9.3262C10.2851 8.82745 10.8393 8.58203 11.4251 8.58203C11.6468 8.58203 11.8684 8.62953 12.0663 8.72453C12.2722 8.81953 12.4543 8.96203 12.5968 9.16786L14.4334 11.7566C14.5759 11.9545 14.6788 12.1366 14.7501 12.3108C14.8213 12.477 14.8609 12.6433 14.8609 12.7937C14.8609 12.9837 14.8055 13.1737 14.6947 13.3558C14.5918 13.5379 14.4413 13.7279 14.2513 13.9179L13.6497 14.5433C13.5626 14.6304 13.523 14.7333 13.523 14.8599C13.523 14.9233 13.5309 14.9787 13.5468 15.042C13.5705 15.1054 13.5943 15.1529 13.6101 15.2004C13.7526 15.4616 13.998 15.802 14.3463 16.2137C14.7026 16.6254 15.0826 17.0449 15.4943 17.4645C15.9218 17.8841 16.3334 18.272 16.753 18.6283C17.1647 18.9766 17.5051 19.2141 17.7743 19.3566C17.8138 19.3724 17.8613 19.3962 17.9168 19.4199C17.9801 19.4437 18.0434 19.4516 18.1147 19.4516C18.2493 19.4516 18.3522 19.4041 18.4393 19.317L19.0409 18.7233C19.2388 18.5254 19.4288 18.3749 19.6109 18.2799C19.793 18.1691 19.9751 18.1137 20.173 18.1137C20.3234 18.1137 20.4818 18.1454 20.6559 18.2166C20.8301 18.2879 21.0122 18.3908 21.2101 18.5254L23.8305 20.3858C24.0363 20.5283 24.1788 20.6945 24.2659 20.8924C24.3451 21.0904 24.3926 21.2883 24.3926 21.5099Z" fill="white"/>
</svg>
