<svg width="24" height="24" viewBox="0 0 24 24" fill="none" xmlns="http://www.w3.org/2000/svg">
<path d="M13.5 2C13.7121 2 13.9154 2.08441 14.0654 2.23438L19.7646 7.93457C19.9146 8.08455 19.999 8.28792 19.999 8.5V11H20C20.5523 11 21 11.4477 21 12V18C21 18.5523 20.5523 19 20 19H19.999V20.2002C19.999 21.1943 19.1933 22 18.1992 22H5.7998C4.80578 21.9999 4 21.1942 4 20.2002V3.7998C4.00011 2.80585 4.80585 2.00011 5.7998 2H13.5ZM5.7998 3.59961C5.6895 3.59971 5.59971 3.6895 5.59961 3.7998V20.2002C5.59961 20.3106 5.68944 20.4003 5.7998 20.4004H18.1992C18.3097 20.4004 18.3994 20.3107 18.3994 20.2002V19H8C7.44772 19 7 18.5523 7 18V12C7 11.4477 7.44772 11 8 11H18.3994V9.2998H14.5C13.5059 9.2998 12.7002 8.49411 12.7002 7.5V3.59961H5.7998ZM14.2998 7.5C14.2998 7.61046 14.3895 7.7002 14.5 7.7002H17.2686L14.2998 4.73145V7.5Z" fill="#C78500"/>
<path d="M9.00586 17.2422V16.7148L11.1328 13.7266H9V13H12.2344V13.5273L10.1133 16.5156H12.2402V17.2422H9.00586Z" fill="white"/>
<path d="M12.4983 13.7266V13H14.8655V13.7266H14.1213V16.5156H14.8655V17.2422H12.4983V16.5156H13.2424V13.7266H12.4983Z" fill="white"/>
<path d="M15.1762 17.2422V13H16.8403C17.8071 13 18.3579 13.5918 18.3579 14.4297C18.3579 15.2793 17.7954 15.8594 16.8169 15.8594H16.0552V17.2422H15.1762ZM16.0552 15.1504H16.6762C17.1977 15.1504 17.4497 14.8574 17.4497 14.4297C17.4497 14.0078 17.1977 13.7207 16.6762 13.7207H16.0552V15.1504Z" fill="white"/>
</svg>
