<?xml version="1.0" encoding="UTF-8"?>
<svg id="Layer_1" data-name="Layer 1" xmlns="http://www.w3.org/2000/svg" viewBox="0 0 299.77 61.63">
  <defs>
    <style>
      .cls-1 {
        fill: #003964;
      }

      .cls-2 {
        fill: #fff;
      }

      .cls-3 {
        fill: #ed1a3b;
      }

      .cls-4 {
        fill: #58595b;
      }
    </style>
  </defs>
  <circle class="cls-2" cx="30.81" cy="30.81" r="30.81"/>
  <g>
    <path class="cls-1" d="M45.39,28.88c-4.92-3.35-11.23-1.98-14.54,3.05-2.76,4.2-6.94,4.73-8.56,4.73-5.27,0-8.87-3.71-9.94-7.54h0s-.02-.07-.03-.11c-.01-.04-.02-.09-.04-.13-.42-1.6-.52-2.36-.52-4.06,0-9.17,9.41-19.38,22.96-19.38s21.81,10.56,23.86,16.43c-.03-.1-.07-.21-.1-.31C54.54,10.08,43.65,1.82,30.83,1.82,14.7,1.82,1.62,14.9,1.62,31.04c0,14.42,10.4,26.77,24.83,26.77,11.51,0,19.24-6.45,22.79-15.34,1.95-4.86.57-10.58-3.85-13.58Z"/>
    <path class="cls-3" d="M58.76,22.44c-1.71-5.73-9.7-17-24.04-17-13.55,0-22.96,10.21-22.96,19.38,0,1.7.1,2.47.52,4.06-.18-.7-.27-1.4-.27-2.08,0-9.55,9.56-16.16,19.39-16.16,13.3,0,24.09,10.79,24.09,24.09,0,10.43-6,19.45-14.72,23.79h0c11.24-4.06,19.27-14.83,19.27-27.47,0-2.99-.4-5.63-1.29-8.6Z"/>
  </g>
  <g>
    <path class="cls-4" d="M95.68,22.59v-4.19h3.35v15.57h-8.82v5.5h10.82v3h-25.01v-3h10.79v-5.5h-8.79v-15.57h3.35v4.19h14.32ZM95.68,31v-5.47h-14.32v5.47h14.32Z"/>
    <path class="cls-4" d="M129.54,32.06v2.88h-10.69v3.75h-3.41v-3.75h-10.91v-2.88h25.01ZM127.79,19.27v2.84h-5.56c.83.98,1.25,2.09,1.25,3.35,0,.77-.17,1.51-.52,2.2-.34.7-.81,1.31-1.39,1.83-.58.52-1.27.93-2.05,1.23-.78.3-1.61.45-2.49.45s-1.7-.15-2.49-.45c-.78-.3-1.46-.71-2.05-1.23-.58-.52-1.05-1.13-1.39-1.83-.34-.7-.52-1.43-.52-2.2,0-1.17.42-2.28,1.25-3.35h-5.56v-2.84h8.91v-3h3.66v3h8.94ZM109.93,36.97v4.16h17.95v2.88h-21.35v-7.03h3.41ZM120.16,25.37c0-.85-.31-1.58-.92-2.17-.61-.59-1.35-.89-2.2-.89s-1.59.3-2.2.89c-.62.59-.92,1.32-.92,2.17s.31,1.58.92,2.17c.61.59,1.35.89,2.2.89s1.59-.3,2.2-.89c.61-.59.92-1.32.92-2.17Z"/>
    <path class="cls-4" d="M158.05,30.84v2.97h-10.69v4.22h-3.41v-4.22h-10.91v-2.97h25.01ZM135.04,28.06v-10.47h21.01v10.47h-21.01ZM138.45,36v5.03h17.95v2.97h-21.35v-8h3.41ZM152.7,20.52h-14.32v4.63h14.32v-4.63Z"/>
    <path class="cls-4" d="M176.62,29.46c0,.83-.17,1.63-.52,2.38s-.82,1.41-1.42,1.97c-.83.77-1.84,1.3-3.03,1.59v3.44h7.13v2.97h-17.66v-2.97h7.16v-3.44c-1.23-.31-2.24-.84-3.03-1.59-.6-.56-1.08-1.22-1.42-1.97-.34-.75-.52-1.54-.52-2.38s.17-1.63.52-2.38c.34-.75.82-1.41,1.42-1.97.6-.56,1.31-1,2.13-1.31s1.68-.47,2.59-.47,1.78.16,2.6.47c.81.31,1.52.75,2.13,1.31.6.56,1.08,1.22,1.42,1.97.34.75.52,1.54.52,2.38ZM168.12,19.96v-2.91h3.66v2.91h6.41v2.91h-16.51v-2.91h6.44ZM173.34,29.46c0-.9-.33-1.67-.98-2.31-.66-.65-1.45-.97-2.39-.97s-1.73.32-2.38.97-.97,1.42-.97,2.31.32,1.67.97,2.31c.65.65,1.44.97,2.38.97s1.74-.32,2.39-.97c.66-.65.98-1.42.98-2.31ZM184.25,44.47h-3.38v-27.23h3.38v11.44h3.5v3.19h-3.5v12.6Z"/>
    <path class="cls-4" d="M200.85,29.31v-3.41h3.41v3.41h10.82v2.91h-25.01v-2.91h10.79ZM213.32,20.46h-9.25l9.75,5.47-1.66,2.41-9.6-5.41-9.6,5.41-1.66-2.41,9.75-5.47h-9.25v-2.88h21.51v2.88ZM209.41,39.37c0,.88-.18,1.69-.55,2.45-.37.76-.86,1.43-1.49,2.02-.6.56-1.32,1.01-2.16,1.34-.83.33-1.72.5-2.66.5s-1.82-.17-2.66-.5c-.83-.33-1.55-.78-2.16-1.34-.63-.58-1.12-1.26-1.49-2.02s-.55-1.58-.55-2.45.18-1.69.55-2.45.86-1.43,1.49-2.02c.6-.56,1.32-1.01,2.16-1.34.83-.33,1.72-.5,2.66-.5s1.82.17,2.66.5c.83.33,1.55.78,2.16,1.34.63.58,1.12,1.26,1.49,2.02.36.76.55,1.58.55,2.45ZM206.07,39.37c0-.94-.35-1.75-1.05-2.42-.7-.68-1.52-1.02-2.45-1.02s-1.76.34-2.45,1.02c-.7.68-1.05,1.49-1.05,2.42s.35,1.75,1.05,2.42c.7.68,1.52,1.02,2.45,1.02s1.76-.34,2.45-1.02,1.05-1.49,1.05-2.42Z"/>
    <path class="cls-4" d="M233.96,18.96v2.81h-15.88v-2.81h6.22v-2.28h3.6v2.28h6.07ZM219.64,34.09h3.31v2.03h14.38v-2.03h3.31v9.85h-21.01v-9.85ZM232.33,28.18c0,.79-.17,1.53-.5,2.22-.33.69-.78,1.29-1.34,1.81-.56.52-1.22.93-1.97,1.23-.75.3-1.55.45-2.41.45s-1.66-.15-2.42-.45c-.76-.3-1.42-.71-1.99-1.23-.56-.52-1.01-1.13-1.34-1.81-.33-.69-.5-1.43-.5-2.22s.17-1.54.5-2.24.78-1.31,1.34-1.83c.56-.52,1.22-.93,1.99-1.23.76-.3,1.57-.45,2.42-.45s1.66.15,2.41.45c.75.3,1.41.71,1.97,1.23.56.52,1.01,1.13,1.34,1.83.33.7.5,1.44.5,2.24ZM237.33,38.69h-14.38v2.56h14.38v-2.56ZM229.08,28.15c0-.81-.29-1.51-.88-2.09s-1.28-.88-2.09-.88-1.51.29-2.09.88c-.58.58-.88,1.28-.88,2.09s.29,1.51.88,2.08c.58.57,1.28.86,2.09.86s1.51-.29,2.09-.86.88-1.27.88-2.08ZM240.65,33.03h-3.38v-15.79h3.38v6.13h3.91v3.28h-3.91v6.38Z"/>
    <path class="cls-4" d="M248.78,18.65h21.63v2.97h-3.6v8.63h3.6v2.94h-9.13v6.28h10.82v3h-25.01v-3h10.79v-6.28h-9.1v-2.94h3.6v-8.63h-3.6v-2.97ZM263.53,21.62h-7.88v8.63h7.88v-8.63Z"/>
    <path class="cls-4" d="M291.29,27.71v2.6h-14.69v-12.29h14.38v2.69h-11.04v2.19h10.04v2.5h-10.04v2.31h11.35ZM278.07,32.21h21.38v7.03h-18.01v1.94h18.32v2.75h-21.7v-7.22h18.01v-1.84h-18.01v-2.66ZM296.08,17.24h3.38v13.63h-3.38v-5h-4.22v-2.97h4.22v-5.66Z"/>
  </g>
</svg>