<?xml version="1.0" encoding="utf-8"?>
<!-- Generator: Adobe Illustrator 27.9.0, SVG Export Plug-In . SVG Version: 6.00 Build 0)  -->
<svg version="1.1" id="Layer_1" xmlns="http://www.w3.org/2000/svg" xmlns:xlink="http://www.w3.org/1999/xlink" x="0px" y="0px"
	 viewBox="0 0 40 40" style="enable-background:new 0 0 40 40;" xml:space="preserve">
<style type="text/css">
	.st0{fill:#FFFFFF;stroke:#333333;stroke-width:1.2;stroke-linejoin:round;stroke-miterlimit:10;}
	.st1{fill:#96C5E2;stroke:#333333;stroke-width:1.2;stroke-linejoin:round;stroke-miterlimit:10;}
</style>
<path class="st0" d="M0.6,34.5V2.4c0-1,0.7-1.8,1.6-1.8h18c0.9,0,1.6,0.8,1.6,1.8v4.9v20.4v6.5"/>
<path class="st0" d="M0.6,34.4h21.3v3.2c0,1-0.7,1.8-1.6,1.8h-18c-0.9,0-1.6-0.8-1.6-1.8V34.4z"/>
<path class="st1" d="M39.4,9.8v15.8c0,1.1-0.9,2-2,2H12.6c-1.1,0-2-0.9-2-2V9.8c0-1.1,0.9-2,2-2h24.8C38.5,7.8,39.4,8.7,39.4,9.8z"
	/>
<polygon class="st0" points="22.6,21.2 22.6,14.4 22.7,14.4 27.8,17.8 22.7,21.2 "/>
</svg>
