<?xml version="1.0" encoding="utf-8"?>
<!-- Generator: Adobe Illustrator 27.9.0, SVG Export Plug-In . SVG Version: 6.00 Build 0)  -->
<svg version="1.1" id="Layer_1" xmlns="http://www.w3.org/2000/svg" xmlns:xlink="http://www.w3.org/1999/xlink" x="0px" y="0px"
	 viewBox="0 0 40 40" style="enable-background:new 0 0 40 40;" xml:space="preserve">
<style type="text/css">
	.st0{fill:#FFFFFF;}
	.st1{fill:#FFFFFF;stroke:#333333;stroke-width:1.2;stroke-linecap:round;stroke-linejoin:round;stroke-miterlimit:10;}
	.st2{fill:none;stroke:#333333;stroke-width:1.2;stroke-linecap:round;stroke-miterlimit:10;}
	.st3{fill:none;stroke:#333333;stroke-width:1.2;stroke-miterlimit:10;}
	.st4{fill:none;stroke:#333333;stroke-width:1.2;stroke-linecap:round;stroke-linejoin:round;stroke-miterlimit:10;}
	.st5{fill:#96C5E2;stroke:#333333;stroke-width:1.2;stroke-linecap:round;stroke-miterlimit:10;}
	.st6{fill:#333333;}
	.st7{fill:#FFFFFF;stroke:#333333;stroke-width:1.2;stroke-linejoin:round;stroke-miterlimit:10;}
</style>
<rect x="2" y="5.6" class="st0" width="20.5" height="16.2"/>
<path class="st0" d="M30,11.9H18.7c0,0-1.9,0.4-1.7,1.9s1.7,1.9,1.7,1.9l6.9,0v21.3c0,0,0.5,2.6,2.5,2.5s2.5-2.5,2.5-2.5
	s0.8,2.5,2.5,2.5c1.7,0,2.5-2.2,2.5-2.2V23.9c0,0,0.7,1.5,1.9,1.1c1.2-0.4,1.9-0.9,1.9-1.9c0-1,0-3.1,0-3.1s-0.2-8.7-6.7-9.4"/>
<path class="st1" d="M22.4,21.8H0.6v1.5l0,0c0,1.3,0.9,2.3,2.1,2.3h19.7"/>
<line class="st2" x1="22.4" y1="5.6" x2="18.2" y2="5.6"/>
<line class="st3" x1="2" y1="13" x2="2" y2="21.8"/>
<path class="st1" d="M26.3,7.2c0,2.1,0.9,4.7,3.8,4.7s3.8-2.8,3.8-4.9c0-2.2-1.8-4-4-3.8C27.7,3.2,26.3,5.1,26.3,7.2z"/>
<polyline class="st4" points="13.8,30.7 17,33.8 13.8,36.9 "/>
<line class="st4" x1="17" y1="33.8" x2="6.8" y2="33.8"/>
<path class="st5" d="M13.1,0.6h-10c-1.4,0-2.5,1.1-2.5,2.5v5c0,1.4,1.1,2.5,2.5,2.5h7.5l2.5,1.3v-1.3c1.4,0,2.5-1.1,2.5-2.5v-5
	C15.6,1.7,14.5,0.6,13.1,0.6z"/>
<rect x="4.8" y="5" class="st6" width="1.2" height="1.2"/>
<rect x="7.6" y="5" class="st6" width="1.2" height="1.2"/>
<rect x="10.2" y="5" class="st6" width="1.2" height="1.2"/>
<g>
	<path class="st7" d="M18.7,15.6c-1,0-1.9-0.8-1.9-1.9s0.8-1.9,1.9-1.9"/>
	<line class="st7" x1="18.7" y1="11.9" x2="30" y2="11.9"/>
	<line class="st7" x1="18.7" y1="15.6" x2="26.3" y2="15.6"/>
</g>
<path class="st7" d="M30.6,25.6v11.3c0,1.4-1.1,2.5-2.5,2.5h0c-1.4,0-2.5-1.1-2.5-2.5V15.6"/>
<path class="st7" d="M30.6,25.6v11.3c0,1.4,1.1,2.5,2.5,2.5h0c1.4,0,2.5-1.1,2.5-2.5V19.4"/>
<path class="st7" d="M39.4,20v3.1c0,1-0.8,1.9-1.9,1.9h0c-1,0-1.9-0.8-1.9-1.9V20"/>
<path class="st7" d="M39.4,20c0,0-0.4-8.8-6.7-9.4"/>
</svg>
