<?xml version="1.0" encoding="utf-8"?>
<!-- Generator: Adobe Illustrator 27.9.0, SVG Export Plug-In . SVG Version: 6.00 Build 0)  -->
<svg version="1.1" id="Layer_1" xmlns="http://www.w3.org/2000/svg" xmlns:xlink="http://www.w3.org/1999/xlink" x="0px" y="0px"
	 viewBox="0 0 40 40" style="enable-background:new 0 0 40 40;" xml:space="preserve">
<style type="text/css">
	.st0{fill:#FFFFFF;stroke:#333333;stroke-width:1.2;stroke-linejoin:round;stroke-miterlimit:10;}
	.st1{fill:none;stroke:#333333;stroke-width:1.2;stroke-linejoin:round;stroke-miterlimit:10;}
	.st2{fill:#96C5E2;stroke:#333333;stroke-width:1.2;stroke-linecap:round;stroke-linejoin:round;stroke-miterlimit:10;}
	.st3{fill:#FFFFFF;stroke:#333333;stroke-width:1.2;stroke-linecap:round;stroke-linejoin:round;stroke-miterlimit:10;}
</style>
<path class="st0" d="M4,32.1c-0.8,0-1.5-0.7-1.5-1.5V4.8c0-0.9,0.7-1.7,1.7-1.7h31.7c0.9,0,1.7,0.8,1.7,1.7v25.8
	c0,0.8-0.7,1.5-1.5,1.5"/>
<path class="st0" d="M35.6,36.9c1.4,0,2.7-1.2,3.3-2.9l0.5-1.6v-1.2H25.1L23,31.9c-1.9,0.7-4,0.7-5.9,0l-2.1-0.8H0.6v1.2L1.1,34
	c0.6,1.8,1.9,2.9,3.3,2.9H35.6z"/>
<line class="st1" x1="37.5" y1="7.2" x2="2.5" y2="7.2"/>
<line class="st1" x1="13.6" y1="7" x2="13.6" y2="3"/>
<rect x="8.6" y="13.3" class="st2" width="22.8" height="13.8"/>
<polygon class="st3" points="18,22.6 18,17.4 18.1,17.4 22,20 18.1,22.6 "/>
</svg>
