<?xml version="1.0" encoding="utf-8"?>
<!-- Generator: Adobe Illustrator 27.9.0, SVG Export Plug-In . SVG Version: 6.00 Build 0)  -->
<svg version="1.1" id="_x3C_Layer_x3E_" xmlns="http://www.w3.org/2000/svg" xmlns:xlink="http://www.w3.org/1999/xlink" x="0px"
	 y="0px" viewBox="0 0 40 40" style="enable-background:new 0 0 40 40;" xml:space="preserve">
<style type="text/css">
	.st0{fill:#FFFFFF;}
	.st1{fill:none;stroke:#333333;stroke-width:1.2;stroke-linejoin:round;stroke-miterlimit:10;}
	.st2{fill:none;stroke:#333333;stroke-width:1.2;stroke-linecap:round;stroke-linejoin:round;stroke-miterlimit:10;}
	.st3{fill:#96C5E2;stroke:#333333;stroke-width:1.2;stroke-linecap:round;stroke-linejoin:round;stroke-miterlimit:10;}
</style>
<polygon class="st0" points="1.9,4.2 1.9,31.9 39.4,31.9 39.2,18 35.9,18.1 35.6,4.4 "/>
<line class="st1" x1="35.6" y1="8.7" x2="35.6" y2="18.1"/>
<polyline class="st1" points="28.1,18.1 35.3,18.1 39.4,18.1 39.4,31.9 36.9,31.9 "/>
<polyline class="st2" points="13.1,31.9 21.8,31.9 28.1,31.9 "/>
<line class="st2" x1="0.6" y1="4.6" x2="37.8" y2="4.6"/>
<path class="st3" d="M13.6,31c0,2.4-2,4.4-4.4,4.4c-2.4,0-4.4-2-4.4-4.4s2-4.4,4.4-4.4C11.6,26.6,13.6,28.6,13.6,31z"/>
<path class="st3" d="M37,31c0,2.4-2,4.4-4.4,4.4c-2.4,0-4.4-2-4.4-4.4s2-4.4,4.4-4.4C35,26.6,37,28.6,37,31z"/>
<line class="st2" x1="19.7" y1="24.4" x2="27.8" y2="24.4"/>
<line class="st2" x1="39.4" y1="21.8" x2="35.4" y2="21.8"/>
<polyline class="st1" points="2.3,4.4 2.3,8.7 2.3,18.1 2.3,31.9 4.9,31.9 "/>
<line class="st1" x1="28.2" y1="8.4" x2="28.2" y2="30.4"/>
<line class="st1" x1="10.6" y1="9" x2="10.6" y2="17.8"/>
<line class="st1" x1="35.6" y1="4.4" x2="35.6" y2="8.7"/>
<line class="st1" x1="2" y1="8.8" x2="36" y2="8.8"/>
<line class="st1" x1="2" y1="18.2" x2="19" y2="18.2"/>
<polyline class="st1" points="19.4,8.5 19.4,18.1 19.4,31.5 "/>
</svg>
