<?xml version="1.0" encoding="utf-8"?>
<!-- Generator: Adobe Illustrator 27.9.0, SVG Export Plug-In . SVG Version: 6.00 Build 0)  -->
<svg version="1.1" id="Layer_1" xmlns="http://www.w3.org/2000/svg" xmlns:xlink="http://www.w3.org/1999/xlink" x="0px" y="0px"
	 viewBox="0 0 40 40" style="enable-background:new 0 0 40 40;" xml:space="preserve">
<style type="text/css">
	.st0{fill:#FFFFFF;stroke:#333333;stroke-width:1.2;stroke-linecap:round;stroke-linejoin:round;stroke-miterlimit:10;}
	.st1{fill:#96C5E2;stroke:#333333;stroke-width:1.2;stroke-linecap:round;stroke-linejoin:round;stroke-miterlimit:10;}
	.st2{fill:none;stroke:#333333;stroke-width:1.2;stroke-linecap:round;stroke-linejoin:round;stroke-miterlimit:10;}
	.st3{fill:#333333;}
</style>
<path class="st0" d="M24.2,37.8c-1.5,0.4-3.1,0.6-4.7,0.6c-10.4,0-18.9-8.5-18.9-18.9S9.1,0.6,19.5,0.6s18.9,8.5,18.9,18.9
	c0,1.6-0.2,3.2-0.6,4.7"/>
<circle class="st1" cx="29.7" cy="30" r="9.4"/>
<line class="st2" x1="19.4" y1="3.7" x2="19.4" y2="7"/>
<line class="st2" x1="31.1" y1="8.6" x2="28.8" y2="10.9"/>
<line class="st2" x1="10.4" y1="28.1" x2="8.1" y2="30.4"/>
<line class="st2" x1="8.1" y1="8.6" x2="10.4" y2="10.9"/>
<line class="st2" x1="3.8" y1="19.4" x2="7" y2="19.4"/>
<path class="st3" d="M27.2,34.3h-1.3v-6.8h-1.7v-1.1l3-0.3V34.3z"/>
<path class="st3" d="M34.5,31.4c0,0.9-0.2,1.7-0.7,2.2c-0.5,0.5-1.1,0.8-1.9,0.8c-0.8,0-1.4-0.3-1.9-0.8c-0.5-0.5-0.7-1.3-0.7-2.2
	v-2.3c0-0.9,0.2-1.6,0.7-2.2c0.5-0.5,1.1-0.8,1.9-0.8c0.8,0,1.4,0.3,1.9,0.8c0.5,0.5,0.7,1.3,0.7,2.2V31.4z M33.2,28.9
	c0-0.5-0.1-1-0.3-1.3c-0.2-0.3-0.5-0.5-1-0.5c-0.4,0-0.7,0.2-1,0.5c-0.2,0.3-0.3,0.7-0.3,1.3v2.7c0,0.5,0.1,1,0.3,1.3
	c0.2,0.3,0.5,0.5,1,0.5c0.4,0,0.7-0.2,0.9-0.5c0.2-0.3,0.3-0.7,0.3-1.3V28.9z"/>
<g>
	<line class="st2" x1="19.4" y1="11.2" x2="19.4" y2="20"/>
	<line class="st2" x1="25.6" y1="13.8" x2="19.4" y2="20"/>
</g>
</svg>
