<?xml version="1.0" encoding="utf-8"?>
<!-- Generator: Adobe Illustrator 27.9.0, SVG Export Plug-In . SVG Version: 6.00 Build 0)  -->
<svg version="1.1" id="Layer_1" xmlns="http://www.w3.org/2000/svg" xmlns:xlink="http://www.w3.org/1999/xlink" x="0px" y="0px"
	 viewBox="0 0 40 40" style="enable-background:new 0 0 40 40;" xml:space="preserve">
<style type="text/css">
	.st0{fill:#FFFFFF;}
	.st1{fill:#FFFFFF;stroke:#333333;stroke-width:1.2;stroke-linejoin:round;stroke-miterlimit:10;}
	.st2{fill:#96C5E2;stroke:#333333;stroke-width:1.2;stroke-linejoin:round;stroke-miterlimit:10;}
	.st3{fill:none;stroke:#333333;stroke-width:1.2;stroke-linejoin:round;stroke-miterlimit:10;}
</style>
<path class="st0" d="M0.6,40c0,0-0.7-6.1,2.1-7.6c2.8-1.5,3.9-2.3,3.9-2.3l7.6-4.8l3.7-1.8l4.2,0.1l5.1,2.3l7.2,5
	c0,0,3.1,1.2,4.2,3.3c1.1,2.1,0.7,5.9,0.7,5.9L0.6,40z"/>
<g>
	<path class="st1" d="M24.2,18.9c0,2.3-1,5.2-4.2,5.2c-3.2,0-4.2-3.1-4.2-5.5c0-2.4,2.1-4.4,4.5-4.2C22.6,14.5,24.3,16.6,24.2,18.9z
		"/>
	<path class="st1" d="M17.9,23.5c-0.3,0.4-0.7,0.7-1.2,0.8c-0.7,0.2-3,0.7-3.9,2.3"/>
	<path class="st1" d="M27.1,26c-1.3-1.4-3.1-1.6-3.8-1.7c-0.5-0.1-0.8-0.4-1.1-0.7"/>
</g>
<path class="st1" d="M12.9,25.5c0,2.3-1,5.2-4.2,5.2c-3.2,0-4.2-3.1-4.2-5.5c0-2.4,2.1-4.4,4.5-4.2C11.3,21.1,12.9,23.2,12.9,25.5z"
	/>
<line class="st1" x1="4.4" y1="40" x2="4.4" y2="36.3"/>
<path class="st1" d="M6.6,30.1c-0.3,0.4-0.7,0.7-1.2,0.8c-2.8,0.7-4.8,3.3-4.8,6.3V40"/>
<path class="st1" d="M16.8,40v-2.9c0-3-2.1-5.5-4.8-6.3c-0.5-0.1-0.8-0.4-1.1-0.7"/>
<line class="st1" x1="13.1" y1="36.3" x2="13.1" y2="40"/>
<path class="st1" d="M35.6,25.5c0,2.3-1,5.2-4.2,5.2c-3.2,0-4.2-3.1-4.2-5.5c0-2.4,2.1-4.4,4.5-4.2C33.9,21.1,35.6,23.2,35.6,25.5z"
	/>
<line class="st1" x1="26.9" y1="40" x2="26.9" y2="36.3"/>
<path class="st1" d="M29.3,30.1c-0.3,0.4-0.7,0.7-1.2,0.8c-2.8,0.7-4.8,3.3-4.8,6.3V40"/>
<path class="st1" d="M39.4,40v-2.9c0-3-2.1-5.5-4.8-6.3c-0.5-0.1-0.8-0.4-1.1-0.7"/>
<line class="st1" x1="35.6" y1="36.3" x2="35.6" y2="40"/>
<path class="st2" d="M32.1,11.1l-2.4,2.5l-2.4-2.5c-0.3-0.3-0.6-0.4-1-0.4H13.6c-0.4,0-0.7,0.2-1,0.4l-2.4,2.5l-2.4-2.5
	c-0.3-0.3-0.6-0.4-1-0.4H4.7c-0.8,0-1.4-0.7-1.4-1.5V2.1c0-0.8,0.6-1.5,1.4-1.5h30.6c0.8,0,1.4,0.7,1.4,1.5v7.2
	c0,0.8-0.6,1.5-1.4,1.5h-2.2C32.7,10.7,32.4,10.9,32.1,11.1z"/>
<line class="st3" x1="31.3" y1="5.6" x2="33.8" y2="5.6"/>
<line class="st3" x1="6.2" y1="5.6" x2="28.8" y2="5.6"/>
</svg>
