<?xml version="1.0" encoding="utf-8"?>
<!-- Generator: Adobe Illustrator 28.1.0, SVG Export Plug-In . SVG Version: 6.00 Build 0)  -->
<svg version="1.1" id="Layer_1" xmlns="http://www.w3.org/2000/svg" xmlns:xlink="http://www.w3.org/1999/xlink" x="0px" y="0px"
	 viewBox="0 0 12 16" style="enable-background:new 0 0 12 16;" xml:space="preserve">
<style type="text/css">
	.st0{fill:#3149DD;}
</style>
<g>
	<path class="st0" d="M6,1c3.1,0,5,1.9,5,5c0,2.9-3.2,6.7-5,8.6C4.2,12.7,1,8.9,1,6C1,2.9,2.9,1,6,1 M6,0C2.7,0,0,2,0,6
		c0,4.4,6,10,6,10s6-5.6,6-10C12,2,9.3,0,6,0L6,0z"/>
</g>
<g>
	<path class="st0" d="M6,3.5c1.1,0,2,0.9,2,2s-0.9,2-2,2c-1.1,0-2-0.9-2-2S4.9,3.5,6,3.5 M6,2.5c-1.7,0-3,1.3-3,3s1.3,3,3,3
		c1.7,0,3-1.3,3-3S7.7,2.5,6,2.5L6,2.5z"/>
</g>
</svg>
