<?xml version="1.0" encoding="UTF-8"?>
<svg id="Layer_2" data-name="Layer 2" xmlns="http://www.w3.org/2000/svg" viewBox="0 0 244.77 40">
  <defs>
    <style>
      .cls-1 {
        fill: #453fe8;
      }

      .cls-1, .cls-2, .cls-3, .cls-4, .cls-5 {
        stroke-width: 0px;
      }

      .cls-2 {
        fill: #44a4ff;
      }

      .cls-3 {
        fill: #3149dd;
      }

      .cls-4 {
        fill: #002d54;
      }

      .cls-5 {
        fill: #39e6fd;
      }
    </style>
  </defs>
  <g id="OBJECTS">
    <g>
      <g>
        <polygon class="cls-5" points="22.34 0 11.17 11.17 20 20 40 0 22.34 0"/>
        <polygon class="cls-2" points="22.34 40 11.17 28.83 20 20 40 40 22.34 40"/>
        <polygon class="cls-1" points="0 0 0 40 20 20 0 0"/>
      </g>
      <g>
        <path class="cls-4" d="M53.28,22.2h-2.18v7.32h-3.67V10.86h3.67v7.67h2.09l6.56-7.67h4.25l-8,9.44,7.9,9.22h-4.49l-6.13-7.32Z"/>
        <path class="cls-4" d="M101.97,29.52l-2.99-6.33h-3.61v6.33h-3.67V10.86h7.73c1.41,0,2.53.21,3.34.63.82.42,1.41,1.09,1.78,2.02.37.93.55,2.19.55,3.81,0,1.45-.2,2.62-.6,3.51-.4.89-1.02,1.52-1.85,1.9l3.28,6.81h-3.97ZM95.37,20.39h4.03c.7,0,1.18-.09,1.45-.27.27-.18.4-.51.4-.99v-3.97c0-.48-.13-.81-.4-.99-.27-.18-.75-.27-1.45-.27h-4.03v6.48Z"/>
        <polygon class="cls-4" points="118.24 10.86 112.62 10.86 107.28 29.52 110.95 29.52 112.08 25.65 112.08 25.65 115.31 14.3 115.58 14.3 118.78 25.53 118.81 25.62 118.81 25.62 118.83 25.69 119.91 29.52 123.58 29.52 118.24 10.86"/>
        <path class="cls-4" d="M130.06,10.86v18.66h-3.67V10.86h3.67Z"/>
        <rect class="cls-4" x="64.95" y="18.48" width="3.43" height="3.43"/>
        <path class="cls-4" d="M84.93,20.21v-.03c.88-.28,1.22-.79,1.72-1.54.5-.75.75-1.63.75-2.64,0-1.69-.45-2.99-1.36-3.9-.91-.91-2.21-1.36-3.93-1.36h-8.11v18.9h8.45c1.71,0,3.02-.45,3.93-1.36.91-.91,1.36-2.2,1.36-3.9,0-1.02-.25-1.9-.75-2.64-.5-.75-1.18-1.26-2.06-1.54ZM77.67,13.43h3.81c.8,0,1.36.21,1.7.64.34.43.51,1.16.51,2.19,0,.96-.16,1.63-.49,2.02-.33.39-.89.58-1.69.58h-3.84v-5.43ZM83.52,26.31c-.34.43-.91.64-1.7.64h-4.15v-5.43h4.18c.8,0,1.36.19,1.69.58.33.39.49,1.06.49,2.02,0,1.04-.17,1.77-.51,2.19Z"/>
        <path class="cls-4" d="M148.81,29.48h-3.64l-7.34-12.53h-.07v12.53h-3.66V10.9h3.66l7.34,12.52h.08v-12.52h3.64v18.58Z"/>
      </g>
    </g>
    <g>
      <path class="cls-3" d="M168.57,19.32c0,3.22-.26,5.68-1.38,7.14-.76,1-1.98,1.54-3.42,1.54s-2.64-.54-3.42-1.54c-1.12-1.46-1.36-3.92-1.36-7.14s.24-5.66,1.36-7.12c.78-1,2-1.56,3.42-1.56s2.66.56,3.42,1.56c1.12,1.46,1.38,3.92,1.38,7.12ZM161.69,19.32c0,2.72.14,4.74.74,5.64.3.44.78.68,1.34.68s1.06-.24,1.36-.68c.6-.9.72-2.92.72-5.64s-.12-4.72-.72-5.62c-.3-.44-.8-.68-1.36-.68s-1.04.24-1.34.68c-.6.9-.74,2.92-.74,5.62ZM173.97,28.98h-2.74V10.62h2.74v18.36Z"/>
      <path class="cls-3" d="M183.89,27.76h-7v-9.7h5.46v-4.74h-5.46v-2.38h8.18v9.5h-5.46v4.94h4.44c1.2,0,2.24-.04,3.08-.26v2.26c-.84.28-1.98.38-3.24.38ZM191.67,28.98h-2.74v-8.82h-3.12v-2.4h3.12v-7.14h2.74v18.36Z"/>
      <path class="cls-3" d="M202.85,19.72h-8.36v-9h2.72v6.62h6.4c1.52,0,2.42-.22,3.04-.66v-6.06h2.74v10.48h-2.74v-2.18c-.62.54-1.74.8-3.8.8ZM195.35,25.36c0-1.32.68-2.26,1.7-2.88,1.44-.88,3.56-1.14,5.52-1.14s4.1.26,5.52,1.14c1.04.62,1.72,1.56,1.72,2.88s-.68,2.28-1.72,2.9c-1.42.86-3.54,1.12-5.52,1.12s-4.08-.26-5.52-1.12c-1.02-.62-1.7-1.58-1.7-2.9ZM198.09,25.36c0,.46.24.78.68,1.04.86.48,2.38.64,3.8.64s2.96-.16,3.82-.64c.42-.26.68-.58.68-1.04s-.26-.76-.68-1.02c-.86-.5-2.38-.64-3.82-.64s-2.94.14-3.8.64c-.44.26-.68.58-.68,1.02Z"/>
      <path class="cls-3" d="M215.63,18.7c-.84,1.28-2.48,2.52-4.2,3.14v-2.54c1.68-.9,2.8-2.38,2.8-5.48v-3.1h2.68v3.02c0,3.1,1.14,4.24,2.78,5.14v2.52c-1.62-.5-3.18-1.52-4.06-2.7ZM213.36,29.06v-6.5h2.74v4.12h11.54v2.38h-14.28ZM220.91,16.2h-2.38v-2.36h2.38v-3.12h2.6v12.48h-2.6v-7ZM224.71,10.62h2.62v12.9h-2.62v-12.9Z"/>
      <path class="cls-3" d="M238.17,18.06v2.38h-5.46v4.94h4.64c1.2,0,2.26-.04,3.08-.26v2.26c-.82.28-1.96.38-3.22.38h-7.22V10.94h9.04v2.38h-6.32v4.74h5.46ZM244.77,28.98h-2.74v-8.82h-3.12v-2.4h3.12v-7.14h2.74v18.36Z"/>
    </g>
  </g>
</svg>